<svg width="235" height="62" viewBox="0 0 235 62" fill="none" xmlns="http://www.w3.org/2000/svg">
<g clip-path="url(#clip0_8461_357)">
<mask id="mask0_8461_357" style="mask-type:luminance" maskUnits="userSpaceOnUse" x="0" y="0" width="235" height="62">
<path d="M235 0H0V62H235V0Z" fill="white"/>
</mask>
<g mask="url(#mask0_8461_357)">
<path fill-rule="evenodd" clip-rule="evenodd" d="M175.551 45.1268L175.509 44.9762L175.165 43.7503L175.163 43.7444C174.935 42.8167 174.414 42.1116 173.603 41.6291C172.796 41.1494 171.942 41.0329 171.039 41.2796C170.119 41.2743 169.43 40.9581 168.974 40.3309C168.501 39.6814 168.265 38.695 168.265 37.3715V28.2279H169.855C170.919 28.2279 171.826 27.8452 172.577 27.0798C173.327 26.3145 173.703 25.3895 173.703 24.305V23.4618H168.265V14.0909H166.057C164.993 14.0909 164.085 14.4736 163.335 15.239C162.584 16.0043 162.208 16.9293 162.208 18.0138V23.4618H161.18C160.116 23.4618 159.208 23.8445 158.458 24.6099C157.707 25.3752 157.331 26.3002 157.331 27.3847V28.1839H162.208V37.1515C162.208 39.9724 162.883 42.254 164.232 43.9963L164.234 43.9984L164.236 44.0005C165.622 45.6866 167.495 46.5297 169.855 46.5297C171.679 46.5297 173.532 46.0841 175.412 45.1928L175.551 45.1268ZM128.774 42.6069V32.1801C128.774 30.3124 128.438 28.6191 127.766 27.1003C126.51 24.264 124.312 22.8459 121.171 22.8459C118.921 22.8459 117.084 23.42 115.659 24.5682C114.984 25.1126 114.349 25.8714 113.755 26.8446V18.4537C113.755 17.3692 113.373 16.437 112.607 15.6569C111.842 14.8769 110.927 14.4869 109.864 14.4869H107.698V46.5297H109.864C110.93 46.5297 111.844 46.1474 112.606 45.3827C113.372 44.6145 113.755 43.6892 113.755 42.6069V33.1267C113.928 32.4346 114.217 31.8191 114.624 31.28C115.016 30.7608 115.48 30.2729 116.017 29.8163C116.614 29.3602 117.131 29.0467 117.567 28.8756C118.145 28.6491 118.67 28.5359 119.143 28.5359C120.267 28.5359 121.141 28.9379 121.764 29.742C122.4 30.5632 122.718 31.8452 122.718 33.5879V46.5297H124.883C125.949 46.5297 126.863 46.1474 127.626 45.3827C128.391 44.6145 128.774 43.6892 128.774 42.6069ZM59.3461 27.5986C58.6792 27.6697 58.1178 27.9725 57.662 28.5073C57.2118 29.0354 56.9867 29.6437 56.9867 30.3323C56.9867 31.0394 57.2297 31.6535 57.7159 32.1745C58.1989 32.692 58.7875 32.9748 59.4818 33.0227C61.1824 33.2007 62.5282 33.5322 63.5194 34.0172L63.5217 34.0183L63.5241 34.0194C64.9779 34.678 65.7048 35.7221 65.7048 37.1515C65.7048 37.7875 65.5697 38.3423 65.2994 38.8159C64.9847 39.3192 64.5999 39.7254 64.1448 40.0346C63.653 40.3689 63.0809 40.6247 62.4287 40.8019C61.7965 40.9738 61.107 41.0597 60.3603 41.0597C59.2634 41.0597 58.3572 40.9201 57.6416 40.6407L56.2478 39.6073C55.4333 38.7816 54.5211 38.3932 53.511 38.4422C52.4915 38.4917 51.6208 38.9759 50.899 39.8947L50.3585 40.5459L50.3942 40.6458C51.0859 42.5847 52.3198 44.0974 54.096 45.1838C55.8508 46.2571 57.9677 46.7937 60.4466 46.7937C61.7561 46.7937 63.1661 46.6013 64.6766 46.2163C66.0339 45.8593 67.2602 45.3235 68.3553 44.6091C69.427 43.9099 70.3087 42.9962 71.0004 41.8681C71.6516 40.7618 71.9772 39.4389 71.9772 37.8994C71.9772 36.8982 71.83 35.9688 71.5355 35.1112C71.2269 34.2123 70.786 33.403 70.2128 32.6832C69.6858 31.9678 69.0081 31.352 68.1795 30.8358C67.6075 30.4795 66.9673 30.2045 66.2589 30.0107C67.702 29.57 68.8729 28.8534 69.7716 27.861C70.8392 26.7274 71.373 25.2634 71.373 23.4691C71.373 22.2249 71.0926 21.0963 70.5319 20.0834C70.0244 19.0501 69.2898 18.1368 68.3283 17.3434C67.4216 16.5871 66.2807 15.9754 64.9057 15.5082C63.5924 15.0619 62.1636 14.8388 60.6192 14.8388C59.5489 14.8388 58.5447 14.9426 57.6067 15.1502C56.7426 15.3037 55.7833 15.5852 54.7287 15.9947L54.7253 15.996L54.7219 15.9975C53.7176 16.4363 52.8857 16.9124 52.2262 17.4261C51.5432 17.918 50.9262 18.5471 50.375 19.3132L50.2899 19.4315L51.8519 21.2579C52.4674 21.9783 53.2483 22.3512 54.1946 22.3765C55.1283 22.4016 55.9255 22.0814 56.5863 21.416C57.2152 21.0441 57.8107 20.7908 58.373 20.6559L58.3793 20.6544L58.3854 20.6525C59.1045 20.4234 59.8635 20.3088 60.6624 20.3088C61.108 20.3088 61.6113 20.3803 62.1725 20.5233C62.6689 20.6498 63.1238 20.8606 63.5372 21.1556L63.5424 21.1593L63.5478 21.1626C63.9398 21.4024 64.2633 21.7605 64.5183 22.2371L64.5231 22.246L64.5288 22.2544C64.7949 22.6419 64.9279 23.1494 64.9279 23.7771C64.9279 24.4635 64.7401 25.0407 64.3643 25.5088L64.3619 25.5118L64.3597 25.5149C63.9754 26.0372 63.4395 26.4426 62.7518 26.7312L62.7458 26.7338L62.7399 26.7368C62.0234 27.102 61.2081 27.3453 60.2938 27.4669L59.818 27.533L59.3461 27.5986ZM77.2387 25.2553C76.5699 27.0447 76.2356 28.9277 76.2356 30.9043C76.2356 32.915 76.5994 34.8586 77.3271 36.735C78.0128 38.6136 79.0307 40.3327 80.3807 41.8923C81.6814 43.4011 83.2389 44.6178 85.0531 45.5425C86.8192 46.4646 88.817 46.9257 91.0463 46.9257C92.343 46.9257 93.5943 46.7773 94.8002 46.4806L94.8022 46.4801L94.8043 46.4796C96.2186 46.0951 97.44 45.6206 98.4686 45.056C99.5718 44.4505 100.592 43.693 101.528 42.7836L101.532 42.7805C102.41 41.8852 103.113 40.8557 103.639 39.6921L103.708 39.5398L101.235 38.0924C100.563 37.7045 99.8501 37.5819 99.095 37.7247C98.3756 37.8607 97.7375 38.2118 97.1808 38.778C96.3892 39.4983 95.7828 39.9878 95.3618 40.2464C94.6731 40.5968 93.9833 40.8549 93.2925 41.0206C92.5724 41.1933 91.8812 41.2797 91.2189 41.2797C89.901 41.2797 88.7209 40.9937 87.6788 40.4217C86.5747 39.8364 85.6575 39.0889 84.9274 38.1793L84.9248 38.1761C84.1888 37.3008 83.5955 36.2202 83.1449 34.9341C82.7203 33.6789 82.508 32.3943 82.508 31.0802C82.508 29.969 82.6924 28.7548 83.0614 27.4379C83.4322 26.2628 83.9695 25.1818 84.6732 24.195C85.409 23.2249 86.2951 22.4653 87.3313 21.916C88.4283 21.3138 89.6954 21.0128 91.1326 21.0128C91.6865 21.0128 92.3646 21.0848 93.1668 21.2288C93.8678 21.408 94.5282 21.6661 95.1481 22.0031L95.1523 22.0054L95.1567 22.0074C95.731 22.2806 96.3325 22.7377 96.9614 23.3788C97.5224 23.9506 98.1676 24.2905 98.897 24.3985C99.6631 24.5118 100.36 24.3406 100.988 23.8847L100.991 23.8823L103.277 22.2979L103.205 22.1539C102.186 20.1216 100.652 18.4838 98.6048 17.2404C96.548 15.9913 94.1148 15.3668 91.3052 15.3668C88.89 15.3668 86.7638 15.8126 84.9267 16.7044C83.0976 17.5717 81.5109 18.7589 80.1666 20.2662C78.8414 21.8034 77.8654 23.4664 77.2387 25.2553ZM213.841 16.631C213.256 17.2336 212.963 17.9585 212.963 18.8057C212.963 19.6702 213.256 20.4008 213.841 20.9976C214.427 21.5943 215.143 21.8927 215.992 21.8927C216.823 21.8927 217.534 21.5945 218.125 20.9982C218.722 20.3964 219.02 19.6655 219.02 18.8057C219.02 17.9632 218.722 17.238 218.126 16.6303C217.529 16.0226 216.818 15.7187 215.992 15.7187C215.148 15.7187 214.431 16.0228 213.841 16.631ZM153.979 46.6617V32.6201C153.979 29.5433 153.068 27.1662 151.244 25.4888C149.439 23.8735 146.91 23.0659 143.657 23.0659C140.283 23.0658 137.157 24.044 134.278 26.0003L134.129 26.102L134.307 26.3748C134.735 27.3081 135.434 27.9551 136.404 28.3158C137.362 28.672 138.319 28.6535 139.274 28.2605C139.325 28.2427 139.396 28.2107 139.486 28.1646C139.565 28.1244 139.622 28.0984 139.657 28.0865L139.66 28.0856L139.663 28.0845C140.808 27.6522 141.952 27.436 143.096 27.436C144.672 27.436 145.868 27.8299 146.684 28.6176L146.687 28.6208C147.511 29.3763 147.923 30.4894 147.923 31.9601V32.9716C147.237 32.7197 146.459 32.5131 145.588 32.3517C144.628 32.1738 143.639 32.0848 142.621 32.0848C141.237 32.0848 139.954 32.2633 138.772 32.6203C137.684 32.9488 136.66 33.4559 135.699 34.1417L135.695 34.1447L135.691 34.148C134.825 34.8448 134.162 35.6416 133.701 36.5385C133.227 37.4611 132.99 38.472 132.99 39.5712C132.99 40.7002 133.182 41.6796 133.568 42.5094C133.965 43.4078 134.51 44.1888 135.204 44.8524C135.956 45.5708 136.782 46.0969 137.683 46.4307C138.652 46.79 139.68 46.9697 140.765 46.9697C142.433 46.9697 143.969 46.6118 145.375 45.896C146.622 45.3175 147.742 44.436 148.734 43.2516C148.845 44.1182 149.22 44.8742 149.859 45.5197C150.612 46.281 151.508 46.6617 152.548 46.6617H153.979ZM207.583 46.6617V32.6201C207.583 29.5432 206.671 27.1661 204.848 25.4888C203.043 23.8735 200.514 23.0659 197.261 23.0659C193.887 23.0659 190.76 24.044 187.882 26.0003L187.732 26.102L187.91 26.3748C188.338 27.3081 189.037 27.9551 190.008 28.3158C190.965 28.672 191.922 28.6535 192.878 28.2605C192.929 28.2427 192.999 28.2107 193.09 28.1646C193.169 28.1245 193.225 28.0984 193.261 28.0865L193.263 28.0856L193.266 28.0845C194.411 27.6522 195.556 27.436 196.7 27.436C198.276 27.436 199.472 27.8299 200.287 28.6176L200.291 28.6208C201.114 29.3763 201.526 30.4894 201.526 31.9601V32.9716C200.841 32.7197 200.063 32.5131 199.192 32.3517C198.232 32.1738 197.243 32.0848 196.225 32.0848C194.841 32.0848 193.558 32.2633 192.376 32.6203C191.288 32.9488 190.264 33.4559 189.303 34.1417L189.298 34.1447L189.294 34.148C188.428 34.8447 187.765 35.6415 187.304 36.5385C186.83 37.461 186.593 38.4719 186.593 39.5712C186.593 40.7002 186.786 41.6795 187.171 42.5094C187.568 43.4078 188.113 44.1888 188.808 44.8524C189.56 45.5707 190.386 46.0969 191.286 46.4307C192.256 46.79 193.283 46.9697 194.369 46.9697C196.036 46.9697 197.572 46.6118 198.978 45.896C200.225 45.3176 201.345 44.4361 202.337 43.2515C202.449 44.1181 202.824 44.8742 203.462 45.5197C204.215 46.281 205.112 46.6617 206.151 46.6617H207.583ZM219.02 42.6069V23.4618H212.963V46.5297H215.128C216.194 46.5297 217.109 46.1474 217.871 45.3827C218.637 44.6145 219.02 43.6892 219.02 42.6069ZM147.923 36.4879C147.406 36.3012 146.705 36.1128 145.819 35.9226C145.185 35.7789 144.435 35.707 143.571 35.707C142.103 35.707 140.929 36.0329 140.05 36.6848C139.179 37.3186 138.744 38.1341 138.744 39.1313C138.744 40.0423 139.084 40.8031 139.762 41.4135C140.446 42.0282 141.312 42.3356 142.362 42.3356C143.389 42.3356 144.288 42.1786 145.058 41.8647C145.897 41.5227 146.549 41.0707 147.016 40.5087L147.027 40.4945L147.042 40.483C147.629 40.0127 147.923 39.5181 147.923 38.9993V36.4879ZM201.526 36.4879C201.01 36.3012 200.309 36.1128 199.423 35.9226C198.788 35.7789 198.039 35.707 197.174 35.707C195.706 35.707 194.533 36.0329 193.653 36.6848C192.783 37.3186 192.348 38.1341 192.348 39.1313C192.348 40.0423 192.687 40.8031 193.366 41.4135C194.049 42.0282 194.916 42.3356 195.966 42.3356C196.993 42.3356 197.891 42.1786 198.661 41.8647C199.5 41.5227 200.153 41.0707 200.619 40.5087L200.631 40.4945L200.645 40.483C201.232 40.0127 201.526 39.5181 201.526 38.9993V36.4879ZM178.537 41.4001C177.952 42.0026 177.659 42.7275 177.659 43.5748C177.659 44.4414 177.951 45.1789 178.536 45.7873C179.124 46.3996 179.841 46.7057 180.688 46.7057C181.517 46.7057 182.228 46.3998 182.822 45.788C183.418 45.1744 183.716 44.4367 183.716 43.5748C183.716 42.7322 183.418 42.0071 182.822 41.3994C182.225 40.7917 181.514 40.4878 180.688 40.4878C179.844 40.4878 179.127 40.7919 178.537 41.4001Z" fill="black"/>
<path d="M16.45 15.5H34.2429C36.2082 15.5 37.8014 17.1122 37.8014 19.101C37.8014 21.0898 36.2082 22.702 34.2429 22.702H23.5672C19.6365 22.702 16.45 19.4776 16.45 15.5ZM16.45 40.7071H34.2429C36.2082 40.7071 37.8014 42.3193 37.8014 44.3081C37.8014 46.2969 36.2082 47.9091 34.2429 47.9091H23.5672C19.6365 47.9091 16.45 44.6846 16.45 40.7071ZM20.0086 31.7045C20.0086 29.7158 21.6018 28.1035 23.5672 28.1035H41.36C41.36 32.0811 38.1736 35.3056 34.2429 35.3056H23.5672C21.6018 35.3056 20.0086 33.6933 20.0086 31.7045Z" fill="black"/>
</g>
</g>
<defs>
<clipPath id="clip0_8461_357">
<rect width="235" height="62" fill="white"/>
</clipPath>
</defs>
</svg>
