<svg width="189" height="55" viewBox="0 0 189 55" fill="none" xmlns="http://www.w3.org/2000/svg">
<g clip-path="url(#clip0_8461_175)">
<path fill-rule="evenodd" clip-rule="evenodd" d="M67.9743 18.5895H85.2874C85.4907 18.5895 85.6556 18.4226 85.6556 18.2167V14.0237C85.6556 13.8178 85.4907 13.6509 85.2874 13.6509H79.8301C79.6691 13.6509 79.5267 13.5449 79.4787 13.3894L79.0737 11.7101C79.0257 11.5545 78.8834 11.4485 78.7224 11.4485H73.7327C73.4843 11.4485 73.3072 11.6925 73.3812 11.9324L73.649 13.1669C73.7231 13.407 73.546 13.6509 73.2975 13.6509H67.9743C67.771 13.6509 67.6062 13.8178 67.6062 14.0237V18.2167C67.6062 18.4226 67.771 18.5895 67.9743 18.5895ZM101.174 26.4219H99.861C99.6577 26.4219 99.4929 26.5888 99.4929 26.7947V45.097C99.4929 45.3028 99.3281 45.4697 99.1247 45.4697H94.9767C94.7733 45.4697 94.6085 45.3028 94.6085 45.097V26.7947C94.6085 26.5888 94.4436 26.4219 94.2403 26.4219H92.6707C92.4675 26.4219 92.3026 26.5888 92.3026 26.7947V33.4542C92.3026 33.4699 92.3016 33.4857 92.2997 33.5013L90.2942 45.1442C90.2707 45.3303 90.1142 45.4697 89.9289 45.4697H86.0081C85.7889 45.4697 85.6182 45.2769 85.6423 45.0562L87.4893 33.7144C87.4908 33.7008 87.4915 33.6872 87.4915 33.6735V12.7778C87.4915 12.5872 87.6335 12.4273 87.8208 12.4072L100.909 12.3813C101.126 12.358 101.316 12.5306 101.316 12.7521V16.9967C101.316 17.184 101.178 17.3422 100.995 17.3663L92.6812 17.3589C92.4977 17.3831 92.3604 17.5414 92.3604 17.7287V21.0881C92.3604 21.2939 92.5251 21.4609 92.7285 21.4609H101.174C101.377 21.4609 101.542 21.6278 101.542 21.8337V26.049C101.542 26.255 101.377 26.4219 101.174 26.4219ZM84.9561 28.6279H79.6478C79.4444 28.6279 79.2797 28.461 79.2797 28.2551V27.5837C79.2797 27.3778 79.4444 27.2108 79.6478 27.2108H85.236C85.4394 27.2108 85.6041 27.0439 85.6041 26.838V22.7361C85.6041 22.5303 85.4394 22.3634 85.236 22.3634H83.5959C83.3433 22.3634 83.1657 22.1114 83.2478 21.8694L84.5703 20.1158C84.6525 19.8738 84.4749 19.6218 84.2222 19.6218H79.9508C79.7937 19.6218 79.6538 19.7228 79.6027 19.8733L78.0482 22.1117C77.9971 22.2623 77.8572 22.3634 77.7001 22.3634H75.7386C75.5789 22.3634 75.4374 22.2591 75.3883 22.1052L73.9519 19.88C73.9029 19.7261 73.7614 19.6218 73.6016 19.6218H69.3138C69.0641 19.6218 68.8868 19.8684 68.9636 20.1091L69.9653 21.8761C70.042 22.1168 69.8648 22.3634 69.6149 22.3634H67.9659C67.7627 22.3634 67.5978 22.5303 67.5978 22.7361V26.838C67.5978 27.0439 67.7627 27.2108 67.9659 27.2108H74.0849C74.2882 27.2108 74.4529 27.3778 74.4529 27.5837V28.2551C74.4529 28.461 74.2882 28.6279 74.0849 28.6279H68.2304C68.027 28.6279 67.8622 28.7948 67.8622 29.0007V33.262C67.8622 33.4678 68.027 33.6348 68.2304 33.6348H73.9982C74.2016 33.6348 74.3664 33.8017 74.3664 34.0076L74.3993 39.9452C74.3993 40.151 74.2346 40.3179 74.0313 40.3179H73.4828C73.2796 40.3179 73.1148 40.4848 73.1148 40.6907V45.0204C73.1148 45.2263 73.2796 45.3932 73.4828 45.3932L78.9446 45.3912C79.1478 45.3912 79.3126 45.2243 79.3126 45.0184L79.2797 34.0055C79.2797 33.7996 79.4444 33.6327 79.6478 33.6327L84.9561 33.6348C85.1593 33.6348 85.3242 33.4678 85.3242 33.262V29.0007C85.3242 28.7948 85.1593 28.6279 84.9561 28.6279ZM73.1369 35.3512L71.2068 44.7507C71.1716 44.9241 71.021 45.0485 70.8462 45.0485H67.1422C66.9091 45.0485 66.7346 44.8319 66.7816 44.6006L68.7118 35.2012C68.7469 35.0278 68.8976 34.9034 69.0724 34.9034H72.7763C73.0095 34.9034 73.1838 35.1201 73.1369 35.3512ZM84.9307 35.2273L84.9249 44.4764C84.9541 44.6998 84.7824 44.8982 84.56 44.8982H80.847C80.6623 44.8982 80.5062 44.7596 80.482 44.5743L80.4878 35.3251C80.4585 35.1018 80.6302 34.9034 80.8527 34.9034H84.5657C84.7503 34.9034 84.9065 35.0419 84.9307 35.2273Z" fill="#1463FF"/>
<path fill-rule="evenodd" clip-rule="evenodd" d="M121.272 33.6797L123.499 30.4207C123.574 30.3148 123.535 30.1833 123.37 29.9925L118.373 24.6326C118.254 24.565 118.179 24.437 118.179 24.2982V19.6115C118.179 19.4002 118.348 19.2288 118.557 19.2288H120.936C121.144 19.2288 121.313 19.0575 121.313 18.8462V14.663C121.313 14.4517 121.144 14.2803 120.936 14.2803H118.557C118.348 14.2803 118.179 14.109 118.179 13.8977V11.5546C118.179 11.3433 118.01 11.172 117.801 11.172H113.772C113.564 11.172 113.395 11.3433 113.395 11.5546V13.8977C113.395 14.109 113.225 14.2803 113.017 14.2803H108.486C108.277 14.2803 108.108 14.4517 108.108 14.663V18.8462C108.108 19.0575 108.277 19.2288 108.486 19.2288H113.017C113.225 19.2288 113.395 19.4002 113.395 19.6115V45.0869C113.395 45.2982 113.564 45.4696 113.772 45.4696H117.801C118.01 45.4696 118.179 45.2982 118.179 45.0869V31.955C118.179 31.663 118.489 31.4786 118.741 31.6207L120.475 33.7486C120.735 34.0007 120.973 34.0665 121.272 33.6797Z" fill="#1463FF"/>
<path fill-rule="evenodd" clip-rule="evenodd" d="M112.61 21.3246H109.064C108.866 21.3246 108.701 21.4795 108.687 21.6794L107.232 41.7912C107.216 42.0129 107.389 42.2018 107.609 42.2018H111.155C111.353 42.2018 111.518 42.047 111.532 41.847L112.987 21.7353C113.003 21.5135 112.83 21.3246 112.61 21.3246Z" fill="#1463FF"/>
<path fill-rule="evenodd" clip-rule="evenodd" d="M143.502 44.5836L135.68 35.9661C135.593 35.8303 135.6 35.654 135.697 35.5254L140.736 27.4336C140.926 27.1818 140.749 26.8187 140.436 26.8187H135.484C135.366 26.8187 135.255 26.874 135.184 26.9683L127.46 39.3588L127.447 39.3802C127.288 39.636 127.01 39.7911 126.711 39.791L124.426 39.807C124.243 39.807 124.073 39.9019 123.975 40.0585C120.963 45.0997 124.066 39.9593 121.053 45.0005C120.955 45.166 121.212 45.3722 121.432 45.3722H129.227C129.345 45.3722 129.455 45.317 129.527 45.2227L132.529 40.4845C132.685 40.2788 132.994 40.2866 133.14 40.5L137.193 44.9803C137.263 45.0837 137.38 45.1453 137.504 45.1453L143.185 45.1747C143.485 45.1747 143.665 44.8383 143.502 44.5836Z" fill="#1463FF"/>
<path fill-rule="evenodd" clip-rule="evenodd" d="M151.598 17.3646H178.005C178.209 17.3646 178.373 17.2541 178.373 17.1178V12.6169C178.373 12.4805 178.209 12.37 178.005 12.37H151.598C151.395 12.37 151.23 12.4805 151.23 12.6169V17.1178C151.23 17.2541 151.395 17.3646 151.598 17.3646ZM158.096 28.9888L149.549 44.938C149.43 45.1833 149.608 45.4694 150.5 45.4694H180.292C180.566 45.472 180.595 45.2675 180.43 44.9606L174.153 34.5893C174.097 34.4504 173.962 34.3595 173.813 34.3595H167.573C167.309 34.3595 167.131 34.6298 167.234 34.8734L170.021 39.4227C170.209 39.7734 170.126 39.8746 169.881 39.8746L159.797 39.8829C159.523 39.8829 159.345 39.5935 159.468 39.3479L165.382 28.661C165.444 28.5363 165.572 28.4576 165.711 28.4576H180.639C180.842 28.4576 181.007 28.2922 181.007 28.0883V23.4881C181.007 23.2842 180.842 23.1189 180.639 23.1189H148.972C148.769 23.1189 148.604 23.2842 148.604 23.4881V28.0883C148.604 28.2922 148.769 28.4576 148.972 28.4576H157.766C158.038 28.4576 158.216 28.7435 158.096 28.9888Z" fill="#1463FF"/>
<path fill-rule="evenodd" clip-rule="evenodd" d="M126.211 38.509C126.327 38.509 126.436 38.4554 126.508 38.3635L138.262 20.0478C138.458 19.7969 138.281 19.428 137.965 19.428H133.046C132.931 19.428 132.821 19.4816 132.75 19.5736L130.34 23.4053C130.268 23.4973 130.159 23.551 130.043 23.551H129.462C129.185 23.551 129.002 23.2596 129.12 23.0059L131.867 18.5242C131.929 18.3898 132.062 18.3039 132.209 18.3039H141.673C141.881 18.3039 142.051 18.1326 142.051 17.9213V13.7584C142.051 13.5471 141.881 13.3757 141.673 13.3757H135.91H135.226C135.149 13.3308 135.089 13.2593 135.061 13.1706L134.656 11.5236C134.608 11.371 134.466 11.267 134.305 11.267H129.315C129.067 11.267 128.889 11.5063 128.963 11.7417L129.231 12.9524C129.285 13.122 129.207 13.2931 129.067 13.3757H122.756C122.547 13.3757 122.378 13.5471 122.378 13.7584V17.9213C122.378 18.1326 122.547 18.3039 122.756 18.3039H125.901C126.17 18.3039 126.353 18.5816 126.25 18.8336L122.15 26.0308C122.047 26.2829 122.229 26.5605 122.499 26.5605L127.438 26.5798C127.754 26.5798 127.93 26.9489 127.735 27.1998L120.844 37.8889C120.648 38.1398 120.824 38.509 121.14 38.509H126.211Z" fill="#1463FF"/>
<mask id="mask0_8461_175" style="mask-type:alpha" maskUnits="userSpaceOnUse" x="181" y="2" width="8" height="9">
<path fill-rule="evenodd" clip-rule="evenodd" d="M181.043 2.82394H189V10.8765H181.043V2.82394Z" fill="white"/>
</mask>
<g mask="url(#mask0_8461_175)">
<path fill-rule="evenodd" clip-rule="evenodd" d="M181.043 2.82394H189V10.8765H181.043V2.82394Z" fill="#D8D8D8" fill-opacity="0.01"/>
<path fill-rule="evenodd" clip-rule="evenodd" d="M189 6.85025C189 7.91138 188.615 8.86581 187.844 9.71364L187.841 9.7161C186.743 10.7325 185.464 11.0812 184.003 10.7623C182.912 10.4183 182.103 9.78618 181.577 8.86601C181.221 8.24337 181.043 7.57148 181.043 6.85025C181.043 6.13261 181.221 5.46154 181.577 4.83705C182.104 3.91258 182.915 3.27917 184.009 2.93681C185.113 2.69725 186.113 2.83904 187.009 3.36216C187.624 3.72104 188.11 4.21267 188.466 4.83705C188.822 5.46154 189 6.13261 189 6.85025ZM186.272 3.78632C187.977 4.76486 188.568 6.20928 188.044 8.11937C187.077 9.84592 185.651 10.4439 183.765 9.91363C182.06 8.93509 181.469 7.49068 181.993 5.58059C182.959 3.85404 184.386 3.25602 186.272 3.78632ZM185.118 4.69711H183.216V9.00318H184.274V7.30925C184.329 7.29869 184.373 7.29345 184.404 7.29345C184.543 7.29345 184.682 7.37348 184.821 7.53352C184.96 7.69357 185.232 8.18345 185.639 9.00318H186.89C186.438 8.18694 186.209 7.77185 186.202 7.75779C186.084 7.5643 185.971 7.41831 185.863 7.31982C185.787 7.24944 185.667 7.18255 185.504 7.11925C185.9 7.02425 186.19 6.87128 186.374 6.66014C186.558 6.44911 186.65 6.19929 186.65 5.9109C186.65 5.54146 186.529 5.24681 186.288 5.02695C186.046 4.80709 185.656 4.69711 185.118 4.69711ZM184.732 6.52306H184.273V5.44655H184.774C185.062 5.44655 185.266 5.49672 185.386 5.59695C185.506 5.69719 185.566 5.82656 185.566 5.98486C185.566 6.14316 185.503 6.27243 185.378 6.37266C185.253 6.4729 185.038 6.52306 184.732 6.52306Z" fill="#1463FF"/>
</g>
<mask id="mask1_8461_175" style="mask-type:alpha" maskUnits="userSpaceOnUse" x="0" y="0" width="54" height="55">
<path fill-rule="evenodd" clip-rule="evenodd" d="M0 0H53.4684V55H0V0Z" fill="white"/>
</mask>
<g mask="url(#mask1_8461_175)">
<path fill-rule="evenodd" clip-rule="evenodd" d="M0 0H53.4684V55H0V0Z" fill="#D8D8D8" fill-opacity="0.01"/>
<path fill-rule="evenodd" clip-rule="evenodd" d="M53.4635 9.51494C53.4635 9.96379 53.467 26.4596 53.467 26.4596C53.467 26.4596 53.5701 28.1612 51.9781 29.0839C50.836 29.7459 46.7562 32.1262 44.542 33.4184C43.037 34.3631 43.0913 36.0205 43.0913 36.0205L43.0834 36.0204L43.0697 42.8818C43.0697 42.8818 43.284 46.3001 40.0982 48.1627C33.8639 51.8075 33.8615 51.8034 29.7393 54.2059C26.6909 55.9881 23.7401 54.2137 23.7401 54.2137C23.7401 54.2137 5.99666 43.8372 2.99083 42.0798C-0.015093 40.3225 1.49241e-06 36.8341 1.49241e-06 36.8341V12.5888C1.49241e-06 9.08149 2.98313 7.33093 2.98313 7.33093C2.98313 7.33093 10.1689 3.12992 13.3548 1.26733C16.5407 -0.595262 19.3569 1.302 19.3569 1.302L25.3189 4.77111C26.7438 5.50917 28.0746 4.80794 28.2735 4.69324L28.3012 4.67693L35.6124 0.402976C35.6124 0.402976 37.0058 -0.551249 38.7649 0.477048L53.0939 8.85434C53.0939 8.85434 53.4635 9.06599 53.4635 9.51494ZM11.9633 35.1944C11.9633 35.1944 23.3192 41.8172 25.1333 42.8771C26.9473 43.9371 28.3371 42.8771 28.3371 42.8771C29.6517 42.1085 38.1622 37.1414 41.6227 35.1218C42.8385 34.4193 43.0526 33.2192 43.0888 32.7344L43.0992 24.8618C43.0992 24.8618 43.1433 24.0119 42.3504 23.5485C41.5574 23.0851 40.8592 23.5553 40.8592 23.5553L27.5247 31.2892C27.5247 31.2892 26.7842 31.8026 25.9534 31.2894C25.1226 30.7761 21.5553 28.6586 21.5553 28.6586C21.5553 28.6586 20.765 28.2334 20.765 27.3066C20.765 26.3797 20.7612 22.087 20.7612 22.087C20.7612 22.087 20.6643 21.2163 21.5553 20.6995C22.4462 20.1829 34.9025 12.9583 34.9025 12.9583C34.9025 12.9583 35.6694 12.5849 35.6694 11.6342C35.6694 10.6836 34.9283 10.3214 34.9283 10.3214L28.3383 6.53133C28.2891 6.50712 28.244 6.48783 28.1869 6.45398C27.0201 5.76311 25.9214 6.12393 25.457 6.33938C22.1228 8.28856 13.3023 13.4448 11.9633 14.2276C10.3067 15.1961 10.3853 16.8882 10.3853 16.8882C10.3853 16.8882 10.3767 30.651 10.3767 32.5196C10.3767 34.388 11.9633 35.1944 11.9633 35.1944Z" fill="#1463FF"/>
</g>
</g>
<defs>
<clipPath id="clip0_8461_175">
<rect width="189" height="55" fill="white"/>
</clipPath>
</defs>
</svg>
