<svg width="53" height="55" viewBox="0 0 53 55" fill="none" xmlns="http://www.w3.org/2000/svg">
<g clip-path="url(#clip0_8461_140)">
<mask id="mask0_8461_140" style="mask-type:alpha" maskUnits="userSpaceOnUse" x="0" y="0" width="53" height="55">
<path fill-rule="evenodd" clip-rule="evenodd" d="M0 0H53V54.321H0V0Z" fill="white"/>
</mask>
<g mask="url(#mask0_8461_140)">
<path fill-rule="evenodd" clip-rule="evenodd" d="M0 0H53V54.321H0V0Z" fill="#D8D8D8" fill-opacity="0.01"/>
<path fill-rule="evenodd" clip-rule="evenodd" d="M52.9951 9.39747C52.9951 9.84078 52.9987 26.133 52.9987 26.133C52.9987 26.133 53.1008 27.8135 51.5228 28.7248C50.3906 29.3787 46.3466 31.7296 44.1518 33.0058C42.66 33.9388 42.7138 35.5758 42.7138 35.5758L42.706 35.5757L42.6924 42.3524C42.6924 42.3524 42.9049 45.7285 39.7469 47.5681C33.5673 51.1679 33.5649 51.1638 29.4788 53.5367C26.4571 55.2969 23.5321 53.5444 23.5321 53.5444C23.5321 53.5444 5.94412 43.296 2.96463 41.5603C-0.014961 39.8247 1.47936e-06 36.3794 1.47936e-06 36.3794V12.4333C1.47936e-06 8.96937 2.957 7.24042 2.957 7.24042C2.957 7.24042 10.0798 3.09128 13.2378 1.25168C16.3958 -0.587913 19.1873 1.28593 19.1873 1.28593L25.0971 4.71221C26.5095 5.44116 27.8286 4.74858 28.0258 4.6353L28.0533 4.61919L35.3004 0.398001C35.3004 0.398001 36.6817 -0.544443 38.4253 0.471159L52.6288 8.74503C52.6288 8.74503 52.9951 8.95407 52.9951 9.39747ZM11.8586 34.7606C11.8586 34.7606 23.115 41.3016 24.9132 42.3484C26.7113 43.3954 28.0889 42.3484 28.0889 42.3484C29.3921 41.5893 37.828 36.6835 41.2582 34.6888C42.4633 33.995 42.6755 32.8097 42.7114 32.3309L42.7217 24.5555C42.7217 24.5555 42.7654 23.7161 41.9795 23.2584C41.1934 22.8008 40.5014 23.2652 40.5014 23.2652L27.2837 30.9035C27.2837 30.9035 26.5496 31.4107 25.7261 30.9037C24.9026 30.3968 21.3666 28.3054 21.3666 28.3054C21.3666 28.3054 20.5832 27.8855 20.5832 26.9701C20.5832 26.0547 20.5794 21.815 20.5794 21.815C20.5794 21.815 20.4834 20.955 21.3666 20.4446C22.2496 19.9344 34.5968 12.799 34.5968 12.799C34.5968 12.799 35.3571 12.4302 35.3571 11.4913C35.3571 10.5524 34.6224 10.1946 34.6224 10.1946L28.0901 6.45136C28.0414 6.42745 27.9967 6.4084 27.9401 6.37496C26.7834 5.69263 25.6944 6.04899 25.234 6.26178C21.9291 8.1869 13.1858 13.2795 11.8586 14.0526C10.2165 15.0092 10.2944 16.6803 10.2944 16.6803C10.2944 16.6803 10.2859 30.2733 10.2859 32.1188C10.2859 33.9641 11.8586 34.7606 11.8586 34.7606Z" fill="#1463FF"/>
</g>
</g>
<defs>
<clipPath id="clip0_8461_140">
<rect width="53" height="55" fill="white"/>
</clipPath>
</defs>
</svg>
