<svg width="197" height="23" viewBox="0 0 197 23" fill="none" xmlns="http://www.w3.org/2000/svg">
<path d="M29.1931 0.0519981C30.0882 0.0517981 30.9833 0.0421985 31.8782 0.0234985C31.2244 1.4919 28.7187 5.5842 27.7578 7.1808C25.529 10.8839 23.2876 15.0022 20.9912 18.6094L13.5137 18.5897C13.3113 16.981 12.9272 12.8639 13.083 11.3856C11.6442 13.6896 10.2332 16.2312 8.8011 18.5843C6.4337 18.6819 3.6805 18.5696 1.257 18.6061C0.8431 12.5891 0.1852 6.0753 0 0.0929985C2.6139 0.0351985 4.915 0.0152977 7.5301 0.0986977C7.4803 4.1925 8.4365 9.7539 8.3881 14.0402C9.5646 11.7908 11.3438 8.9952 12.6438 6.7265C12.6058 4.6293 12.1789 2.3329 12.1784 0.110998C14.6728 0.0899982 17.1674 0.094897 19.6619 0.125597C19.9035 1.6023 19.9723 3.6737 20.1012 5.1965C20.343 8.0518 20.5389 10.9302 20.6716 13.7928C21.45 12.6879 22.5614 10.6821 23.2658 9.4828L27.9209 1.5511C28.3183 0.875598 28.5291 0.222098 29.1931 0.0519981Z" fill="black"/>
<path d="M115.746 3.8426C117.615 3.711 119.878 3.7699 121.774 3.7704L131.72 3.7856C130.821 6.9768 129.824 10.9106 129.06 14.0984C126.963 22.8489 126.835 22.3553 118.572 22.2707L112.681 22.2688L113.276 20.3117C115.596 20.266 118.039 20.3088 120.368 20.3129C120.549 19.8396 120.729 19.1097 120.87 18.6022C118.589 18.5922 113.59 18.9007 111.711 18.1166C109.476 17.1837 113.304 7.0897 113.791 5.1665C113.946 4.5584 115.207 3.9872 115.746 3.8426ZM120.398 5.8611C119.596 9.4595 118.545 12.8837 117.73 16.4277L119.517 16.3928C120.162 16.4081 120.844 16.4125 121.484 16.4552C122.021 13.192 123.495 9.1448 124.132 5.8048L122.812 5.8143C122.018 5.8312 121.189 5.8608 120.398 5.8611Z" fill="black"/>
<path d="M135.621 0C139.328 0.0266 143.034 0.0310997 146.741 0.0137997C148.679 0.0130997 150.518 0.00599901 152.474 0.101099C154.707 0.209599 154.848 2.1593 154.325 3.9218C153.643 6.2227 153.154 9.9403 151.667 11.7717C150.572 13.1208 145.642 12.7833 143.988 12.7681L139.833 12.7571C139.444 13.9433 138.528 17.3712 138.276 18.5894C135.96 18.6922 133.098 18.6063 130.748 18.5827C131.169 16.6315 135.254 0.4444 135.621 0ZM140.405 10.377C141.938 10.3452 143.47 10.3406 145.003 10.3631C145.504 9.1908 146.769 3.8761 147.042 2.4367C145.515 2.4504 143.988 2.4537 142.462 2.4466L140.405 10.377Z" fill="black"/>
<path d="M189.258 0.067612C191.616 0.044812 193.973 0.0418109 196.33 0.0584109C195.854 1.38191 195.445 3.57671 195.032 5.02531C193.781 9.41201 192.807 14.264 191.459 18.5939L181.526 18.6004C179.785 18.5885 176.262 19.1187 174.925 17.8051C174.556 17.443 174.527 16.9075 174.523 16.4156C174.51 14.9652 176.88 5.65841 177.737 4.79001C178.174 4.34781 178.793 4.02871 179.391 3.89211C181.298 3.45661 186.108 3.77291 188.291 3.78961C188.665 2.54871 189.054 1.35181 189.258 0.067612ZM184.211 5.86111C183.419 8.41001 181.917 13.878 181.466 16.4463L182.844 16.3957L185.109 16.4084C185.69 13.4936 187.384 8.63381 187.737 5.97871C187.473 5.74101 187.444 5.82021 187.011 5.81821C186.101 5.83281 185.114 5.86931 184.211 5.86111Z" fill="black"/>
<path d="M160.593 3.80881C162.349 3.72541 172.115 3.52061 173.305 3.97851C173.925 4.21721 174.118 4.70891 174.389 5.27541C174.235 6.29601 173.719 7.90301 173.473 8.95711C172.74 12.0848 171.635 15.4633 170.993 18.5851C167.506 18.6686 163.744 18.6005 160.237 18.5988C156.266 18.6205 152.598 19.2804 154.484 13.762C155.06 12.0796 155.086 10.5511 156.001 8.88161C158.548 7.19351 163.681 7.79611 166.822 7.75731C166.959 7.05051 167.108 6.51571 167.307 5.83151C165.361 5.66911 162.075 5.75491 160.087 5.75071C160.201 5.17261 160.33 4.30681 160.593 3.80881ZM164.36 16.4329C164.869 15.9869 165.971 10.9409 166.227 9.98961C165.125 9.96221 163.566 9.99951 162.527 9.93401C162.09 11.5793 161.305 14.9909 160.751 16.4255C161.918 16.4085 163.205 16.364 164.36 16.4329Z" fill="black"/>
<path d="M36.5399 3.79631C38.4384 3.73071 48.7171 3.48761 49.7451 4.14731C50.0025 4.31251 50.0914 4.60941 50.1503 4.89901C50.2475 5.37641 50.2037 5.93341 50.1249 6.41011C49.8315 8.18601 47.5212 17.4591 46.8195 18.5417C46.0155 18.6974 44.1872 18.6109 43.2557 18.6081L36.3561 18.5975C34.6349 18.6064 32.1402 18.9017 30.6761 17.951C29.0179 16.8743 31.4772 9.87581 32.2411 8.77621C33.2379 7.34151 41.0092 7.73581 42.83 7.83591C42.924 7.23621 43.1552 6.39641 43.3032 5.78901L36.1124 5.74691C36.3286 5.03241 36.4149 4.52401 36.5399 3.79631ZM40.5982 16.4362C40.9397 14.9607 42.0207 11.1782 42.1284 9.97911L38.605 9.97971C37.8868 12.0933 37.5234 14.3405 36.7959 16.4304C38.0872 16.4034 39.3046 16.3712 40.5982 16.4362Z" fill="black"/>
<path d="M93.9991 3.7817L104.498 3.7624C106.168 3.7586 108.201 3.5406 109.835 3.8771C110.34 3.981 110.766 4.2285 111.045 4.6816C111.579 5.5505 108.377 16.7064 107.891 18.5893L100.914 18.6147C101.555 16.0635 102.246 13.5287 102.873 10.9769C103.315 9.3638 103.742 7.3477 104.275 5.8147C103.059 5.7544 101.797 5.8184 100.576 5.86C99.6621 8.524 99.0461 11.8174 98.2391 14.5538C97.8961 15.7185 97.5861 17.4046 97.0261 18.4393C96.5121 18.7538 91.2911 18.5982 90.2471 18.6019C90.5291 16.9877 91.2001 14.5394 91.6121 12.9221C92.3841 9.869 93.1791 6.8221 93.9991 3.7817Z" fill="black"/>
<path d="M64.2222 0.0550093C66.5472 0.0323093 68.8932 0.0543093 71.2202 0.0606093C70.4442 3.63671 69.3372 7.57871 68.4112 11.1507C69.5582 10.0209 71.7742 8.36241 73.0532 7.24651C73.9932 6.42641 76.3902 4.34961 77.3132 3.79501C78.1302 3.73801 79.5302 3.79241 80.3902 3.79951C78.8872 4.88971 74.8922 8.19061 73.5602 9.49781C74.0952 10.5737 74.7862 12.4302 75.2442 13.5924C75.3592 14.2578 76.8782 17.6916 77.2142 18.5305C74.9412 18.6503 72.5522 18.5804 70.2452 18.6611C69.9212 17.778 69.5712 16.8722 69.2182 16.0009C68.9782 15.4088 68.6532 14.1287 67.9322 14.2108C67.2522 14.8785 66.7592 17.5393 66.5322 18.5609C64.3482 18.6624 61.7282 18.6076 59.5142 18.6132C60.5442 14.4988 61.5972 10.3904 62.6732 6.28811C63.1462 4.44701 63.8992 1.87471 64.2222 0.0550093Z" fill="black"/>
<path d="M54.5966 0.10291C56.8345 0.0787096 59.3995 0.0557105 61.6095 0.15621C60.2435 6.00901 58.4335 12.725 56.8695 18.5438C54.5854 18.6378 52.2034 18.6001 49.9092 18.5932C50.171 16.9784 50.9914 14.097 51.4194 12.4312L54.5966 0.10291Z" fill="black"/>
<path d="M83.7871 3.8174C86.0071 3.7448 88.5231 3.8014 90.7671 3.7997C89.3301 8.3543 88.3821 14.0819 86.8551 18.5819C84.5481 18.611 82.2401 18.6012 79.9331 18.5525C80.9181 15.1356 81.6731 11.2986 82.6571 7.8537C82.9081 6.9775 83.4461 4.5032 83.7871 3.8174Z" fill="black"/>
<path d="M84.5834 0.10681C86.5564 -0.0193896 89.6564 0.0782097 91.7144 0.0754097L91.1994 2.12441C89.5944 2.26241 85.9174 2.15491 84.1294 2.17281C84.3024 1.53191 84.4444 0.76461 84.5834 0.10681Z" fill="#EB1629"/>
</svg>
