<svg width="134" height="47" viewBox="0 0 134 47" fill="none" xmlns="http://www.w3.org/2000/svg">
<mask id="mask0_19832_4882" style="mask-type:luminance" maskUnits="userSpaceOnUse" x="0" y="0" width="134" height="47">
<path d="M134 0H0V47H134V0Z" fill="white"/>
</mask>
<g mask="url(#mask0_19832_4882)">
<path d="M10.6733 1.78417C12.0318 1.70475 14.2004 1.77397 15.6133 1.77557L25.4458 1.78467L31.9778 1.77227C32.9448 1.76987 35.2948 1.70095 36.1228 1.9033C37.7058 2.37643 39.6528 3.0432 40.9488 4.0898C44.7478 7.1602 44.1398 11.5224 44.1408 15.9246L44.1418 25.8181L44.1408 33.2238C44.1408 34.6307 44.2228 36.3201 44.0218 37.6868C43.4408 41.6548 39.6968 44.5764 35.9078 44.9602C30.2008 45.0336 24.3358 44.9585 18.6149 44.9624L13.4444 44.9756C10.4719 44.9842 7.996 44.9311 5.4962 42.9904C1.6785 40.0263 2.1224 36.0119 2.1203 31.7183L2.1193 22.2665L2.1221 14.2066C2.1222 13.0339 2.0624 10.7197 2.2292 9.6355C2.4883 8.0465 3.1458 6.5527 4.1379 5.299C5.4992 3.61326 8.6453 1.97172 10.6733 1.78417ZM19.5556 19.5201C19.6022 20.3174 19.632 20.8381 19.5845 21.6425C16.2224 23.0592 16.5848 23.0931 14.0917 25.285C11.7379 25.4548 10.0944 25.8937 8.45799 27.8327C5.1064 31.8038 6.60479 38.3857 11.8454 39.6287C13.3894 39.9949 15.5802 39.8497 17.2095 39.8461L23.9637 39.8404L29.6248 39.8474C31.1678 39.8503 33.2538 39.9807 34.7078 39.5906C37.6278 38.8069 39.7938 35.9558 39.6978 32.8564C39.5478 28.0128 36.7568 25.6843 32.2878 25.2322C30.7398 23.7997 28.9408 22.1668 26.8238 21.6672C26.7628 18.9481 26.9778 19.9765 27.8818 17.8318C29.1958 14.7112 26.5848 10.8382 23.0928 10.9628C22.9214 10.9682 22.7505 10.9817 22.5804 11.0034C21.7542 11.1708 20.8796 11.4173 20.2358 11.9817C17.6078 14.2856 17.6348 16.9572 19.5556 19.5201Z" fill="#F5403F"/>
<path d="M22.8608 13.3721C23.0428 13.3717 23.2245 13.3811 23.4054 13.4004C24.1028 13.4772 24.8468 13.865 25.2878 14.4306C25.7208 14.994 25.9168 15.7103 25.8308 16.4209C25.7048 17.4661 25.1328 18.0046 24.3788 18.6184C24.3878 20.0214 24.4478 22.4429 24.3228 23.7678C27.5338 23.9673 29.3578 25.7699 31.3428 28.0713C33.0788 28.0122 34.3038 28.0013 35.6728 29.3148C38.1228 31.6879 37.4108 36.1581 33.9418 36.9986C32.8548 37.2616 31.0748 37.1351 29.9118 37.133L23.6693 37.1222C20.2671 37.1181 16.8824 37.1778 13.4535 37.1097C9.28088 36.9959 7.91618 31.9058 10.8149 29.1922C12.0994 27.9897 13.4308 27.9993 15.0333 28.1068C17.0837 25.5482 18.6896 24.2202 22.0489 23.7471C21.9757 22.3015 22.0128 20.071 22.0487 18.5978C20.9939 17.8714 20.7519 17.3114 20.4285 16.112C20.8206 14.4256 21.2584 13.9186 22.8608 13.3721Z" fill="#F5403F"/>
<path d="M74.1108 16.3021C74.4578 16.2898 74.5698 16.2623 74.8918 16.3928C75.1258 16.7553 74.2488 24.1144 74.1208 25.1489C72.5268 25.2197 69.9948 25.1479 68.3858 25.1098C68.3468 25.586 68.2828 26.0992 68.2318 26.5778C69.0698 26.5794 70.0668 26.6044 70.8918 26.5726C79.3198 26.2478 77.1178 27.8008 77.0678 34.4373L73.2088 34.4481L73.8588 28.93C71.9438 28.9814 69.8988 28.9514 67.9728 28.9571C67.9788 29.8954 67.8238 31.4232 67.6548 32.3495L71.5508 32.3037C71.4688 32.9987 71.3808 33.693 71.2858 34.3865C69.4918 34.5656 66.5198 34.3218 64.5628 34.4112C63.1138 34.4772 61.1598 34.3986 59.6778 34.3931C59.5078 34.3924 59.5108 34.324 59.4058 34.1736C59.4768 33.4874 59.5488 33.0205 59.6838 32.3443L63.2898 32.326C63.3488 31.4129 63.4438 29.7763 63.6288 28.9272C61.8728 28.965 59.8608 28.9835 58.1148 28.9258C57.9698 30.5943 57.7618 32.7597 57.4778 34.3835C56.3578 34.4988 55.0068 34.4299 53.8408 34.4577C54.0098 32.6146 54.1528 30.7383 54.4178 28.9096C54.8318 26.055 57.7018 26.5649 59.7708 26.5833C61.1108 26.5888 62.4518 26.5842 63.7928 26.5694C63.8258 26.1161 63.9168 25.6174 63.9888 25.1645C62.3558 25.0934 60.1458 25.1132 58.5178 25.1911C58.5278 23.9767 58.8468 21.9441 58.9598 20.659C59.0328 19.8282 59.2548 17.2016 59.4468 16.5172C60.3608 16.1522 72.1298 16.37 74.1108 16.3021ZM70.9408 19.7376C70.9468 19.3136 70.9418 18.8052 70.9758 18.3896C70.3428 18.4008 69.7658 18.4111 69.1308 18.3823C69.0488 18.7328 68.8948 19.2472 69.0418 19.5605C69.5208 19.9013 70.2868 19.7204 70.9408 19.7376ZM68.6998 21.7752C68.6788 22.2058 68.6658 22.6914 68.6288 23.1159C69.2528 23.0959 69.8628 23.0712 70.4878 23.0873C70.5248 22.5461 70.5408 22.326 70.6718 21.8052C70.0688 21.8021 69.2868 21.8209 68.6998 21.7752ZM62.2248 23.1072C62.8908 23.0926 63.5768 23.0665 64.2408 23.0896L64.2768 21.7903L62.4098 21.7827C62.3578 22.1803 62.3018 22.7276 62.2248 23.1072ZM64.7448 18.3927C64.1708 18.4004 63.3308 18.437 62.7808 18.3753C62.7318 18.9137 62.7108 19.22 62.5758 19.7402C63.0698 19.7379 64.0868 19.7619 64.5348 19.7234C64.5768 19.1512 64.6108 18.9505 64.7448 18.3927Z" fill="#F5403F"/>
<path d="M92.7767 12.2737L96.5127 12.25C96.3027 16.6367 95.7197 20.8004 95.3087 25.1662L94.7597 30.9223C94.6667 31.8643 94.5887 32.8863 94.4437 33.8184C94.3807 34.2296 94.2987 34.331 94.0187 34.5148C93.2847 34.4385 91.1757 34.4745 90.4487 34.5044C90.4937 33.3208 90.7447 31.4221 90.8697 30.203L91.7567 21.5474C91.8837 20.3105 92.4447 13.1032 92.7767 12.2737Z" fill="#F5403F"/>
<path d="M66.7018 12.105C68.6738 12.0466 69.3029 12.4046 71.1559 12.6312C72.9959 12.7216 75.0578 12.4815 76.8708 12.6838C79.7458 13.0049 78.9078 16.7736 78.5398 18.8474C77.4908 18.798 76.6268 18.7688 75.5788 18.7968C75.7058 17.7235 75.7789 16.2583 76.0329 15.2688C73.5669 15.3279 70.9049 15.2766 68.4229 15.2772L58.6778 15.2755C58.6678 15.9022 58.6038 18.1652 58.3048 18.5774C57.8058 18.9682 56.2518 18.8474 55.4858 18.8708C55.6788 10.7564 57.6908 12.9238 63.9268 12.6284C64.9028 12.5822 65.6998 12.1519 66.7018 12.105Z" fill="#F5403F"/>
<path d="M108.321 30.9618L121.945 30.9574C124.029 30.9567 126.131 30.9464 128.211 30.9659C129.284 30.976 130.32 31.0899 131.052 31.9399C131.588 32.5619 131.952 33.3757 131.909 34.2157C131.704 34.4513 131.616 34.3798 131.222 34.4067L107.829 34.4228C108.01 33.2798 108.101 32.0862 108.321 30.9618Z" fill="#F5403F"/>
<path d="M110.119 13.7559L122.02 13.7497C124.172 13.749 126.364 13.6384 128.497 13.9069C129.723 14.0612 131.459 16.7263 130.306 17.2443C127.227 17.1431 124.018 17.1904 120.931 17.1913C117.17 17.1749 113.409 17.19 109.648 17.2366C109.785 16.1681 109.88 14.7675 110.119 13.7559Z" fill="#F5403F"/>
<path d="M84.3497 16.381C85.5847 16.4094 86.9057 16.3784 88.1457 16.3652C88.1287 16.9243 88.0697 17.5905 87.9947 18.1512C87.3897 22.7404 87.2887 27.4924 86.3897 32.0189C86.2857 32.5439 85.5667 33.2672 85.2087 33.6225C84.2417 34.3585 83.4817 34.4301 82.3457 34.5529C82.6137 32.2042 84.0227 16.9893 84.3497 16.381Z" fill="#F5403F"/>
<path d="M100.473 16.3845C101.701 16.381 103.059 16.4068 104.273 16.2979C103.887 21.0993 103.227 25.9109 102.825 30.7159C102.731 31.8505 102.6 33.2776 102.368 34.3767C102.338 34.3904 102.309 34.4052 102.278 34.4178C101.815 34.6109 101.056 34.4005 100.621 34.1852C99.7857 33.7729 99.1557 32.9755 98.8927 32.0744C98.7177 31.4732 100.208 16.8544 100.473 16.3845Z" fill="#F5403F"/>
</g>
</svg>
