<svg width="134" height="47" viewBox="0 0 134 47" fill="none" xmlns="http://www.w3.org/2000/svg">
<mask id="mask0_19832_4836" style="mask-type:luminance" maskUnits="userSpaceOnUse" x="0" y="0" width="134" height="47">
<path d="M134 0H0V47H134V0Z" fill="white"/>
</mask>
<g mask="url(#mask0_19832_4836)">
<path d="M14.313 16.4785C14.313 17.9029 13.8923 19.2952 13.1041 20.4794C12.3159 21.6636 11.1956 22.5864 9.88496 23.1312C8.57426 23.676 7.13216 23.8183 5.74096 23.54C4.34986 23.2617 3.07207 22.5754 2.06947 21.5678C1.06687 20.5603 0.384261 19.2768 0.108261 17.8797C-0.167739 16.4826 -0.0249391 15.0347 0.518661 13.7191C1.06236 12.4036 1.98226 11.2795 3.16226 10.489C4.34226 9.69849 5.72927 9.27719 7.14777 9.27829C9.04867 9.27979 10.8712 10.0391 12.2147 11.3893C13.5583 12.7394 14.313 14.5699 14.313 16.4785Z" fill="#00A73C"/>
<path d="M30.1847 7.2002C30.1847 8.6243 29.7647 10.0164 28.9767 11.2004C28.1887 12.3845 27.0687 13.3074 25.7587 13.8524C24.4477 14.3973 23.0063 14.5399 21.6153 14.2621C20.2242 13.9843 18.9465 13.2985 17.9436 12.2915C16.9408 11.2846 16.2578 10.0016 15.9811 8.6049C15.7044 7.2082 15.8464 5.7605 16.3892 4.4448C16.9319 3.12914 17.8511 2.00462 19.0303 1.21345C20.2095 0.42228 21.596 0 23.0142 0C24.9157 0 26.7397 0.75859 28.0847 2.1089C29.4297 3.4592 30.1847 5.2906 30.1847 7.2002Z" fill="#00A73C"/>
<path d="M46.5217 16.254C46.5227 17.6783 46.1037 19.071 45.3157 20.2558C44.5287 21.4407 43.4087 22.3644 42.0987 22.9103C40.7887 23.4561 39.3467 23.5995 37.9557 23.3224C36.5637 23.0452 35.2857 22.3599 34.2827 21.3532C33.2787 20.3464 32.5957 19.0635 32.3177 17.6666C32.0407 16.2698 32.1827 14.8217 32.7247 13.5057C33.2677 12.1897 34.1867 11.0649 35.3667 10.2734C36.5457 9.482 37.9327 9.0596 39.3507 9.0596C41.2507 9.0611 43.0737 9.8194 44.4177 11.1681C45.7617 12.5168 46.5187 14.3459 46.5217 16.254Z" fill="#00A73C"/>
<path d="M45.937 28.9505L41.925 32.1219V25.054C41.088 25.2414 40.232 25.3284 39.374 25.313C38.535 25.3332 37.697 25.2462 36.881 25.054V31.9607L32.868 28.8124C32.559 28.5649 32.295 28.6225 32.295 28.939V33.3536C32.319 33.5506 32.382 33.7407 32.48 33.9128C32.579 34.0848 32.711 34.2352 32.868 34.355L36.881 37.5033V37.5321V38.5451C36.881 39.23 35.293 42.033 31.332 42.0502C30.23 42.0714 29.141 41.8039 28.173 41.2741C27.205 40.7442 26.391 39.9703 25.812 39.0285V37.4745L29.824 34.332C29.982 34.2106 30.113 34.0591 30.212 33.8862C30.31 33.7133 30.373 33.5224 30.398 33.3248V28.9103C30.398 28.5995 30.151 28.5419 29.824 28.7836L25.812 31.9204V28.3174L29.824 25.1691C29.981 25.0484 30.112 24.8978 30.211 24.7259C30.309 24.554 30.373 24.3643 30.398 24.1677V19.7531C30.398 19.4423 30.151 19.3848 29.824 19.6208L25.812 22.7633V15.6494C25.017 15.8921 24.194 16.0333 23.3642 16.0696C22.4798 16.0388 21.6022 15.9016 20.7504 15.6609V22.746L16.7665 19.6035C16.4627 19.3618 16.1933 19.4193 16.1933 19.7359V24.1389C16.2169 24.3375 16.2797 24.5295 16.3781 24.7034C16.4766 24.8774 16.6086 25.0299 16.7665 25.1519L20.7504 28.2886V31.9031L16.7665 28.7606C16.4627 28.5189 16.1933 28.5764 16.1933 28.893V33.3018C16.2176 33.4994 16.2808 33.6902 16.3792 33.8632C16.4776 34.0361 16.6093 34.1876 16.7665 34.309L20.7504 37.4515V39.0055C20.17 39.9477 19.3553 40.7219 18.3863 41.2517C17.4174 41.7816 16.3277 42.0489 15.2246 42.0272C11.2694 42.0272 9.6816 39.207 9.6816 38.5221V37.5033L13.6941 34.3493C13.8523 34.2288 13.9847 34.0775 14.0832 33.9044C14.1817 33.7314 14.2443 33.54 14.2673 33.342V28.9333C14.2673 28.6167 14.0208 28.5592 13.6941 28.8067L9.6816 31.9492V25.0425C8.8653 25.2382 8.0272 25.3272 7.1881 25.3073C6.3284 25.3231 5.47 25.2342 4.6316 25.0425V32.1046L0.619102 28.9333C0.315302 28.6973 0.0458984 28.7548 0.0458984 29.0657V33.4802C0.0975984 33.877 0.303702 34.237 0.619102 34.4816L4.6316 37.6587V39.7538V39.9494C4.6316 39.9494 5.6806 45.3366 12.4789 46.7065C15.5842 47.4126 18.8411 46.8934 21.5758 45.2561C23.1636 44.1971 23.2553 43.9898 23.2553 43.9898C23.2553 43.9898 23.347 44.1971 24.935 45.2561C27.673 46.8901 30.931 47.4072 34.037 46.7007C40.836 45.3251 41.885 39.9437 41.885 39.9437V39.748V37.653L45.897 34.4759C46.213 34.2313 46.419 33.8712 46.47 33.4744V29.0599C46.493 28.7664 46.241 28.7031 45.937 28.9505Z" fill="#0F3675"/>
<path d="M65.6786 22.804L64.4576 19.0283H60.2446L61.7117 22.7694L58.6396 27.7538H62.8696L65.6786 22.804Z" fill="#231815"/>
<path d="M65.2369 6.87199L64.8929 5.62299H70.5449L70.8949 6.87199H79.7569V8.46049H58.8689C58.8689 21.4336 58.9029 21.5429 58.7079 23.7358C58.3299 27.9316 54.2139 28.1849 54.2139 28.1849C54.6649 26.4515 54.8709 24.6633 54.8279 22.8725V6.87199H65.2369Z" fill="#231815"/>
<path d="M76.4667 10.308H71.6337V9.24899H66.8597V10.308H59.7627V12.1153H66.8367V13.4218H59.7627V15.2924H66.8367V16.5356H59.7627V18.3716H66.8367V25.3589H65.8507V27.7244H69.4557C69.4557 27.7244 71.6107 27.615 71.6107 25.5028V18.3716H76.4377C78.6617 18.3716 78.4667 16.455 78.4667 16.455V15.442H79.7677V13.4218H78.4667V11.7642C78.4667 11.7642 78.2777 10.308 76.4667 10.308ZM74.9297 16.5356H71.5257V15.2924H74.9297V16.5356ZM74.9297 13.4218H71.5257V12.1153H74.9297V13.4218Z" fill="#231815"/>
<path d="M106.635 9.1746C106.635 6.2969 103.769 6.1875 103.769 6.1875H83.0986V19.6153H106.629L106.635 9.1746ZM87.2196 17.5145V8.3343H102.548V17.5432L87.2196 17.5145Z" fill="#231815"/>
<path d="M101.109 12.1331V10.723H97.0558V8.84671H93.2618V10.723H88.3838V12.1274H93.3478L88.8308 17.0541H91.0778C91.5688 17.0294 92.0568 16.9542 92.5338 16.8297C92.8698 16.7265 93.1738 16.5382 93.4158 16.2829L95.1358 14.5217L96.4428 15.9375C96.7168 16.2311 97.0178 16.4971 97.3428 16.7318C97.7048 16.9236 98.1088 17.0206 98.5178 17.0138H101.665L97.0508 12.1159L101.109 12.1331Z" fill="#231815"/>
<path d="M104.181 27.8567H106.83L104.6 20.5068H100.868L102.737 26.6941C102.833 27.0114 103.022 27.2922 103.28 27.4997C103.538 27.7072 103.852 27.8316 104.181 27.8567Z" fill="#231815"/>
<path d="M96.925 24.9904C97.888 24.9904 99.693 24.9904 99.693 24.9904L98.386 20.6104H94.626L95.583 23.7702C95.583 23.7702 95.956 24.9904 96.925 24.9904Z" fill="#231815"/>
<path d="M93.0266 20.4385H89.1286V25.7854C89.1096 26.063 89.1496 26.3415 89.2456 26.6025C89.3416 26.8634 89.4926 27.1008 89.6866 27.2989C89.8816 27.4971 90.1156 27.6514 90.3746 27.7516C90.6326 27.8519 90.9096 27.8958 91.1866 27.8804H101.688L101.075 25.8602H93.0496L93.0266 20.4385Z" fill="#231815"/>
<path d="M86.6407 25.7449L88.1947 20.4785H84.3827L82.4277 27.7938H84.9667C86.1827 27.7938 86.6407 25.7449 86.6407 25.7449Z" fill="#231815"/>
<path d="M132.682 22.9074V8.9328C132.682 6.9587 130.681 6.2392 129.563 6.2853H110.303V23.0167C110.303 23.0167 114.654 21.6757 114.654 19.2871V8.3515H128.342V19.3734C128.342 22.4584 132.682 22.9074 132.682 22.9074Z" fill="#231815"/>
<path d="M129.672 27.8803H133.994L133.61 27.5407C133.547 27.4832 127.259 21.9808 124.662 18.3951C123.768 17.1692 123.682 14.6713 123.682 14.6367V9.9805H119.246V14.8209C119.21 15.9445 118.914 17.0444 118.38 18.0325C115.766 22.165 109.971 27.4889 109.908 27.5465L109.547 27.8803H114.752C115.246 27.8404 115.727 27.6957 116.161 27.4556C116.596 27.2155 116.975 26.8855 117.274 26.4875C119.028 24.6802 121.481 21.7276 121.636 21.5607L126.657 26.6198C127.463 27.4136 128.543 27.865 129.672 27.8803Z" fill="#231815"/>
<path d="M72.5737 22.8097L73.8067 19.0283H78.0937L76.6037 22.7752L79.7277 27.7538H75.4287C75.4287 27.7538 72.5687 22.8097 72.5737 22.8097Z" fill="#231815"/>
<path d="M65.232 40.6516C64.756 42.4358 63.667 43.3337 61.993 43.3337C61.453 43.3702 60.912 43.2783 60.414 43.0652C59.916 42.8522 59.475 42.5242 59.127 42.1078C58.594 41.4113 58.336 40.335 58.336 38.8271C58.336 35.9493 59.574 34.4759 62.016 34.4759C63.598 34.4759 64.75 35.2586 65.1 36.5651L65.169 36.8299L68.94 36.0529L68.843 35.7479C68.568 34.7471 68.01 33.8477 67.238 33.1578C65.802 32.013 64.002 31.4283 62.171 31.5117C56.467 31.5117 54.438 35.391 54.438 39.0228C54.438 43.374 57.47 46.2978 61.993 46.2978C65.61 46.2978 67.926 44.738 68.871 41.6588L68.957 41.371L65.329 40.3696L65.232 40.6516Z" fill="#231815"/>
<path d="M78.4146 31.5117C73.4056 31.5117 70.3906 34.3032 70.3906 38.994C70.3906 42.5336 72.5056 46.3093 78.4146 46.3093C84.3246 46.3093 86.3886 42.5049 86.3886 38.9364C86.4346 34.3492 83.3616 31.5117 78.4146 31.5117ZM82.5246 38.8673C82.5246 42.8962 79.6586 43.3337 78.4266 43.3337C77.7766 43.3759 77.1256 43.2517 76.5366 42.9729C75.9476 42.6941 75.4376 42.2697 75.0556 41.7394C74.5106 40.9004 74.2476 39.9079 74.3056 38.9076C74.3056 37.25 74.8386 34.4758 78.4266 34.4758C82.0146 34.4758 82.5246 37.227 82.5246 38.8673Z" fill="#231815"/>
<path d="M97.8067 31.9725V40.3123L91.9087 31.9725H88.4697V45.8319H91.9087V37.6992L97.7037 45.8319H101.258V31.9609H97.8187L97.8067 31.9725Z" fill="#231815"/>
<path d="M115.004 38.4299C115.513 38.151 115.94 37.7425 116.242 37.2454C116.543 36.7483 116.71 36.1802 116.723 35.5981C116.696 35.0039 116.517 34.4267 116.203 33.9225C115.888 33.4183 115.45 33.0042 114.929 32.7203C113.829 32.0412 112.43 31.9951 110.424 31.9951H103.975V45.8315H109.524C112.803 45.8315 113.834 45.7797 114.797 45.4229C115.569 45.1444 116.239 44.6381 116.719 43.9704C117.198 43.3027 117.466 42.5049 117.486 41.6818C117.491 40.9566 117.205 39.2644 115.004 38.4299ZM112.631 42.8904C111.845 43.0097 111.051 43.0559 110.258 43.0286H107.644V40.0759H109.891C112.252 40.0759 113.708 40.1508 113.708 41.6127C113.709 41.9196 113.602 42.2169 113.404 42.4511C113.207 42.6853 112.932 42.8411 112.631 42.8904ZM110.75 37.2672H107.644V34.7808H109.174C111.358 34.7808 111.754 34.7808 112.172 34.8844C112.441 34.931 112.685 35.0726 112.859 35.2836C113.034 35.4947 113.128 35.7613 113.124 36.0355C113.124 36.8931 112.413 37.2672 110.75 37.2672Z" fill="#231815"/>
<path d="M126.915 31.9725H123.436L117.159 45.8319H121.103C121.103 45.8319 122.249 43.1267 122.375 42.8217H128.176C128.314 43.1152 129.518 45.8319 129.518 45.8319H133.53L127.076 31.9609L126.915 31.9725ZM126.915 40.0303H123.568C123.808 39.4547 124.875 36.9338 125.236 36.0819C125.602 36.9165 126.692 39.4374 126.938 40.0187L126.915 40.0303Z" fill="#231815"/>
</g>
</svg>
