<svg width="161" height="43" viewBox="0 0 161 43" fill="none" xmlns="http://www.w3.org/2000/svg">
<mask id="mask0_19832_4820" style="mask-type:luminance" maskUnits="userSpaceOnUse" x="0" y="0" width="161" height="43">
<path d="M161 0H0V43H161V0Z" fill="white"/>
</mask>
<g mask="url(#mask0_19832_4820)">
<path d="M76.8008 9.65011L79.4548 9.64771C79.4358 9.92641 79.4419 10.3014 79.4379 10.5884C82.4829 10.5367 85.6908 10.5808 88.7458 10.575V12.4492L79.4339 12.4443L79.4368 13.3723C80.8148 13.3521 86.8638 13.1592 87.7318 13.5645C87.8858 13.6365 87.9828 13.7372 88.0378 13.8947C88.2358 14.4608 88.2208 19.123 87.9838 19.6018C87.7838 19.8047 87.4189 19.9485 87.1389 19.9616C84.5959 20.0808 81.9998 19.9441 79.4548 20.0303L79.4278 21.205L88.7458 21.1935L88.7428 22.9332C86.1498 22.8217 82.9768 22.9018 80.3618 22.9034L67.6118 22.9167L67.6189 21.2101C70.5359 21.2016 73.9179 21.2922 76.7959 21.1932L76.7979 20.0061C75.4809 19.9943 69.0798 20.2532 68.4308 19.7071C68.2508 19.5554 68.2098 19.1037 68.1928 18.8852C68.1398 18.202 68.2168 17.4949 68.2168 16.8086C68.2158 16.0046 68.1228 15.1687 68.2018 14.3692C68.2238 14.1511 68.2668 13.8306 68.4238 13.6642C68.5978 13.479 69.0428 13.4092 69.2858 13.3834C70.1228 13.2947 71.0128 13.3576 71.8568 13.3583L76.7919 13.3641L76.7999 12.4628C73.9139 12.3591 70.5338 12.4438 67.6108 12.4445L67.6228 10.5825L76.7908 10.5829L76.8008 9.65011ZM79.4278 15.9388L85.5298 15.9382L85.5318 15.0092L79.4348 15.0036L79.4278 15.9388ZM70.7549 17.496L70.7608 18.3726L76.7849 18.3759L76.7999 17.4935L70.7549 17.496ZM76.8018 15.0123L70.7558 15.0027L70.7569 15.9353L76.7908 15.942L76.8018 15.0123ZM79.4328 17.4978L79.4278 18.3885L85.5228 18.3742L85.5248 17.4957L79.4328 17.4978ZM151.808 9.65361L154.807 9.64731L154.801 11.8866C156.546 11.8741 158.493 11.9371 160.219 11.8519L160.213 13.6604C158.411 13.6161 156.608 13.6196 154.806 13.6708L154.801 16.7745C155.418 16.7633 156.049 16.7517 156.664 16.7656C158.252 16.8016 160.035 16.429 160.526 18.3381C160.274 19.5753 159.389 20.2829 158.554 21.2048C157.578 22.2711 156.609 23.3438 155.647 24.4227C157.26 26.1089 158.925 27.7493 160.507 29.4588C159.557 29.3832 157.93 29.4391 156.905 29.4283C156.105 28.7292 154.687 27.1787 153.874 26.356C153.003 27.3934 152.039 28.4226 151.122 29.4267C149.833 29.4674 148.39 29.435 147.096 29.4302L146.738 29.4306L146.688 29.3406C146.974 28.8864 147.951 27.8838 148.359 27.4394C149.42 26.2746 150.49 25.1178 151.569 23.9688C150.024 22.4344 148.508 20.8734 147.019 19.2865C148.116 19.3355 149.513 19.2973 150.633 19.298C151.22 19.7618 152.67 21.3663 153.344 22.0233L156.241 18.8667C153.168 18.8935 150.094 18.8958 147.02 18.8735L147.018 16.7672C148.615 16.7817 150.213 16.787 151.811 16.7831L151.817 13.6849C150.409 13.5593 148.086 13.6355 146.605 13.6508L146.569 11.8868L151.81 11.882L151.808 9.65361ZM97.8168 33.0378C100.058 33.029 104.128 32.5871 105.897 34.095C107.045 35.0734 106.471 38.0143 106.629 39.437C106.735 40.3894 106.436 41.2457 105.75 41.928C104.178 42.9988 102.556 42.865 100.728 42.8582L97.8129 42.8587L97.8168 33.0378ZM100.722 41.4333C101.661 41.4078 102.444 41.4969 103.311 41.1439C103.406 41.0295 103.614 40.7709 103.63 40.6198C103.799 39.0589 103.732 37.3072 103.696 35.7312C103.689 35.4467 103.572 34.9844 103.354 34.8167C102.742 34.3449 101.494 34.4375 100.715 34.439L100.722 41.4333ZM119.792 9.65491L123.848 9.64261C123.142 10.2795 122.359 11.0684 121.697 11.7455C121.681 12.6399 121.69 13.5687 121.687 14.466L124.844 14.4621L124.839 16.3062C123.787 16.3075 122.735 16.3159 121.682 16.3313L121.688 29.4567C121.107 29.4242 120.353 29.4403 119.759 29.4364L118.758 29.4357C118.822 25.0789 118.74 20.6812 118.785 16.3179C117.827 16.2881 116.725 16.3148 115.756 16.3178C115.736 15.6938 115.746 15.0873 115.755 14.4632C116.76 14.4647 117.765 14.46 118.77 14.449C118.748 14.0218 118.766 13.4985 118.769 13.064C117.764 13.0347 116.759 13.036 115.754 13.0679C117.071 11.8969 118.417 10.7588 119.792 9.65491ZM141.278 9.65181L144.117 9.64321L144.126 14.4555L145.913 14.4594L145.906 16.3314L144.118 16.3379V21.668C144.655 21.5873 145.35 21.5534 145.905 21.5132L145.906 23.1534L144.11 23.3122C144.148 25.3353 144.121 27.4386 144.11 29.4643C143.285 29.4199 142.357 29.436 141.524 29.4331C140.894 29.434 140.265 29.4394 139.635 29.449L139.619 27.6786L141.283 27.6669L141.282 23.5917C140.553 23.6393 139.656 23.6756 138.949 23.7862L138.961 22.1845C139.736 22.12 140.51 22.0431 141.283 21.9542L141.281 16.3236L138.961 16.3237V14.465C139.741 14.4665 140.487 14.4702 141.267 14.4278C141.317 12.8792 141.283 11.2093 141.278 9.65181ZM103.6 9.66251C104.419 9.63021 105.426 9.65021 106.26 9.64701C106.438 10.4499 106.37 12.1251 106.352 12.9991C108.401 12.9488 110.64 12.9916 112.705 12.9902C112.68 13.6135 112.679 14.2375 112.702 14.8609C110.54 14.8345 108.331 14.8568 106.166 14.8562C105.745 19.6577 103.472 23.876 99.1689 26.2547C98.4309 26.5804 98.0448 26.7619 97.2628 27.025L97.2529 24.3853C101.669 22.8351 102.814 19.0339 103.552 14.866C101.524 14.8139 99.2999 14.8567 97.2569 14.8569L97.2549 12.9965L103.661 12.9915C103.711 11.8741 103.661 10.7785 103.6 9.66251Z" fill="#484848"/>
<path d="M91.3731 14.4641L95.2591 14.4613C95.1691 15.6778 95.2331 17.698 95.2331 18.991L95.2381 27.6772C101.16 27.5813 107.268 27.6917 113.217 27.6617C113.212 28.0797 113.25 28.6751 113.11 29.0484C112.627 29.407 112.484 29.4185 111.883 29.4273C110.956 29.4409 110.028 29.4353 109.1 29.4355L102.77 29.4341L96.7761 29.4398C95.7101 29.441 94.5951 29.4659 93.5331 29.4003C93.1271 29.3753 92.8951 29.0426 92.6581 28.7463C92.5891 27.3493 92.6281 25.7306 92.6281 24.3196L92.6201 16.3341L91.4081 16.3321L91.3731 14.4641ZM131.893 9.65401L134.772 9.64551C134.77 13.8089 134.737 18.0281 134.784 22.1871C135.491 22.1655 136.312 22.0591 137.024 21.9828C137.036 22.5691 137.03 23.175 137.031 23.7631C136.272 23.8101 135.516 23.884 134.762 23.9844C134.79 25.7854 134.767 27.6561 134.768 29.4624C133.816 29.4248 132.864 29.4218 131.912 29.4531L131.906 27.9346L131.904 24.2325C129.758 24.4925 127.498 24.6123 125.391 24.9001L125.396 23.0991L131.901 22.4654L131.893 9.65401ZM67.7931 33.037L70.6931 33.0321C70.6811 34.355 70.6861 35.6778 70.7081 37.0006C71.7181 36.9863 72.7291 36.9879 73.7391 37.0054L73.7401 33.0402L76.6271 33.0397C76.5391 34.2362 76.7031 42.5726 76.5581 42.8288L76.3531 42.8545L73.7471 42.8543C73.7051 41.4612 73.7371 39.9123 73.7361 38.5073L70.6941 38.5116L70.6911 42.885C69.8841 42.8193 68.6561 42.8524 67.8181 42.8504C67.6841 39.7607 67.8621 36.2052 67.7931 33.037ZM111.082 33.0321L114.665 33.0381L116.551 39.0285C116.933 40.2464 117.402 41.63 117.717 42.8539C116.793 42.8437 115.869 42.8515 114.945 42.8775C114.761 42.2659 114.587 41.405 114.438 40.7671C114.19 40.5809 111.764 40.666 111.313 40.6703C111.176 41.3591 111.002 42.2113 110.789 42.8669C109.913 42.8378 108.905 42.8543 108.02 42.8504C108.207 42.0041 108.752 40.4367 109.034 39.5367L111.082 33.0321ZM111.756 39.1684L113.144 39.1681L113.988 39.1719C113.865 38.7046 113.011 35.2801 112.849 35.1313C112.471 36.4394 112.144 37.9005 111.756 39.1684ZM132.63 33.0325C135.159 33.0706 137.778 33.0363 140.315 33.037C140.336 33.5308 140.328 34.051 140.329 34.5472C138.772 34.4975 137.076 34.5326 135.51 34.5362L135.514 36.9963C136.676 36.9577 138.042 36.993 139.219 36.9938L139.217 38.5387C138.392 38.4482 136.431 38.5064 135.518 38.5136L135.516 39.2483L135.517 41.3715L140.633 41.3658L140.63 42.8716C138.263 42.7561 135.065 42.8487 132.624 42.8625C132.565 39.6665 132.614 36.2387 132.63 33.0325ZM122.546 33.037L130.972 33.0357L130.967 34.5435C130.084 34.5119 129.1 34.5355 128.21 34.5385L128.213 40.162L128.205 42.9008C127.4 42.8136 126.15 42.8502 125.31 42.8511C125.226 40.2175 125.297 37.2032 125.304 34.5489C124.454 34.5049 123.413 34.5319 122.55 34.532L122.546 33.037ZM75.7841 23.6984L75.8141 23.7147C75.8911 24.0112 75.8611 27.151 75.8611 27.6747C80.0441 27.6279 84.3181 27.6718 88.5091 27.6708C88.5231 28.2374 88.5111 28.8418 88.5101 29.4116L86.1211 29.4009C82.5491 29.4003 78.9681 29.3906 75.3971 29.4232C75.0281 29.4803 73.9391 29.2446 73.7311 28.8846C73.1101 27.8102 73.3691 24.8843 73.4131 23.7063C74.2041 23.7134 74.9941 23.7108 75.7841 23.6984ZM91.2711 33.0389L94.1731 33.0382L94.1801 42.8751C93.3951 42.8184 92.0371 42.8536 91.2101 42.852C91.2941 41.7418 91.2571 40.3148 91.2561 39.1726C91.2471 37.128 91.2521 35.0835 91.2711 33.0389ZM117.788 16.7632L117.89 16.8038C117.962 17.098 117.93 19.7612 117.93 20.2471L117.921 29.4677C117.33 29.4194 116.499 29.4393 115.889 29.4376L115.845 29.4186C115.668 29.1726 115.736 27.0702 115.736 26.6502C115.722 23.3634 115.727 20.0767 115.754 16.79L117.788 16.7632ZM124.751 16.7706C124.912 16.9396 124.836 28.1504 124.834 29.4649C124.217 29.4227 123.45 29.4396 122.82 29.4382C122.797 29.4138 122.77 29.3847 122.738 29.3509C122.686 25.7804 122.711 20.1496 122.712 16.7879L124.751 16.7706Z" fill="#484848"/>
<path d="M104.924 21.3082C106.072 21.3029 107.221 21.3047 108.369 21.3135C108.733 21.5866 109.631 22.5041 109.985 22.8502L113.23 26.0095C112.512 26.0857 110.172 26.0237 109.335 26.0232L104.924 21.3082ZM68.8158 23.7128L71.6018 23.7115C71.2768 25.4192 70.6848 27.5604 70.2738 29.2979C69.9568 29.493 68.1288 29.399 67.6348 29.3915C67.6828 28.9013 67.9208 27.9129 68.0308 27.3938L68.8158 23.7128ZM84.1218 23.7215C85.0188 23.6978 86.0118 23.7155 86.9158 23.7135C87.2328 24.6755 87.5628 26.0491 87.8388 27.0541C86.9078 27.0248 85.9118 27.0423 84.9758 27.0425C84.6738 25.9603 84.3998 24.8144 84.1218 23.7215ZM78.5548 23.7133C79.4758 23.7232 80.3978 23.7152 81.3178 23.6891C81.6258 24.5006 82.0348 26.1732 82.2808 27.0675C81.5898 27.0007 80.1668 27.0356 79.4168 27.0349C79.1158 25.9315 78.8278 24.8241 78.5548 23.7133ZM92.0098 9.6647C92.7498 9.6257 93.6988 9.6504 94.4548 9.6492C94.5818 10.5512 95.0368 12.2791 95.2558 13.2262L92.6028 13.2218L92.0098 9.6647ZM126.838 17.1229L129.261 17.118C129.649 18.1291 130.039 19.5232 130.351 20.5667L127.55 20.5438C127.35 19.4053 127.085 18.2542 126.838 17.1229ZM126.838 11.4395L129.269 11.443C129.607 12.2695 130.073 13.9524 130.354 14.8622L127.55 14.8546C127.38 13.7692 127.078 12.5279 126.838 11.4395Z" fill="#484848"/>
<path d="M0 10.6283C0.1651 10.279 0.668601 9.40229 1.164 9.37559C11.0311 8.84369 9.7495 8.60429 9.6843 17.7167C18.9243 12.5245 29.7789 9.33529 40.456 9.60979C44.589 9.71609 49.674 10.7215 53.235 12.7765C52.087 13.2039 49.102 13.7506 48.026 14.0172C46.043 14.5085 33.2584 17.5944 32.5992 18.1264C30.8387 18.7014 28.8332 19.1772 26.9804 19.7704C22.5583 21.1583 18.2469 22.8704 14.0822 24.8923C13.0224 25.4008 10.4777 26.6323 9.5062 27.2659C9.6139 29.4657 9.6052 31.666 9.6739 33.8675C9.7409 36.0152 9.6918 38.1748 9.6984 40.3232C9.7025 41.6561 9.6142 42.3829 8.2943 43H0V10.6283Z" fill="url(#paint0_linear_19832_4820)"/>
<path d="M53.235 12.7764C68.297 21.6822 63.012 38.32 47.168 42.2122C46.175 42.4618 45.167 42.6464 44.15 42.7646C43.387 42.8474 42.539 42.8747 41.794 42.9999H33.8322C32.835 42.4992 32.4368 42.0754 32.4362 40.9129C32.4347 37.3765 32.357 33.7953 32.4603 30.2606C32.7004 30.6629 32.9345 31.0767 33.1647 31.4846C34.9665 34.6771 38.673 35.6443 42.128 35.2783C47.91 34.9407 53.087 30.2749 51.936 24.2224C51.535 22.2039 50.343 20.4242 48.621 19.2717C47.436 18.473 46.418 18.1156 45.071 17.7144C40.839 16.454 36.8134 17.3386 32.5992 18.1263C33.2584 17.5943 46.043 14.5084 48.026 14.0171C49.102 13.7505 52.087 13.2038 53.235 12.7764Z" fill="url(#paint1_linear_19832_4820)"/>
<path d="M19.4072 24.0575C20.3304 23.5635 22.4706 22.7665 23.5143 22.4065C25.1628 21.8379 27.4451 20.9723 29.131 20.541L29.1322 34.4566L29.1378 38.6764C29.1399 40.3259 29.5764 42.4551 27.5868 42.9998H20.8725C20.3483 42.7124 19.6149 42.2999 19.515 41.668C19.337 40.5421 19.4054 38.8179 19.4054 37.6686L19.4057 30.2132C19.4054 28.4673 19.3029 25.6908 19.4072 24.0575Z" fill="url(#paint2_linear_19832_4820)"/>
<path d="M32.4097 19.5729C35.7297 18.8741 38.6578 18.1923 42.1008 18.4121C42.1708 19.9646 42.1298 21.7636 42.1318 23.3445L42.1348 30.8003C42.1288 31.5224 41.9908 34.7799 42.1278 35.2785C38.6728 35.6445 34.9663 34.6773 33.1645 31.4848C32.9343 31.0769 32.7003 30.6631 32.4601 30.2608C32.3925 29.0764 32.4259 27.6587 32.4252 26.4582L32.4097 19.5729Z" fill="url(#paint3_linear_19832_4820)"/>
<path d="M23.1328 0H24.4051C25.23 0.1962 25.8602 0.35194 26.5987 0.78131C27.833 1.51212 28.724 2.6972 29.0763 4.0768C29.4371 5.4595 29.2192 6.9277 28.4719 8.1496C27.7229 9.3925 26.502 10.2873 25.0818 10.6341C23.6695 10.9792 22.1763 10.7538 20.9323 10.0076C18.2728 8.4078 17.5178 5.1271 19.1188 2.4912C20.0878 0.89597 21.4096 0.40568 23.1328 0ZM19.6638 4.9852C19.9051 4.994 20.8324 5.0233 21.015 4.984C22.5983 4.6437 22.9811 4.3899 24.6255 4.5145C26.4324 4.8775 25.6452 5.0348 27.8234 4.9787C27.35 2.5119 25.6501 1.22632 23.1315 1.41854C20.9646 1.91605 20.2538 2.9856 19.6638 4.9852ZM22.8986 9.3192C22.9029 8.4893 23.0126 7.7318 22.3789 7.0961C21.8859 6.6018 21.1028 6.3839 20.4166 6.3875C20.2169 6.3892 20.0174 6.3969 19.8182 6.4105C20.4154 8.0144 21.1836 8.8368 22.8986 9.3192ZM24.6317 9.3578C24.8997 9.2434 25.3325 9.0732 25.5752 8.94C26.6965 8.382 27.2956 7.5501 27.7195 6.4052C27.3051 6.405 26.8324 6.3938 26.4234 6.4199C24.6311 7.0872 24.5609 7.5769 24.6317 9.3578Z" fill="url(#paint4_linear_19832_4820)"/>
<path d="M152.18 33.0412L155.07 33.0339C155.057 34.356 155.061 35.6782 155.08 37.0001C155.971 36.9613 157.153 36.9971 158.065 37.0001L158.087 33.034L161 33.0446V42.8539C160.172 42.8511 158.863 42.8097 158.076 42.8995C158.043 41.4982 158.068 39.9086 158.087 38.5087C157.094 38.4943 156.065 38.5089 155.069 38.5104C155.074 39.9741 155.067 41.4378 155.047 42.9013C154.257 42.8141 153.016 42.8503 152.191 42.8513C152.099 39.7718 152.181 36.1588 152.18 33.0412ZM85.3719 33.0417L88.2759 33.0309L88.2929 37.9459C88.3009 41.2484 88.6169 42.2924 84.8759 43.0005H82.9519C81.4889 42.7132 79.5719 42.3096 79.4989 40.5326C79.3979 38.0747 79.4939 35.5021 79.4709 33.0414L82.3899 33.0377L82.3779 38.0985C82.3769 38.932 82.3329 39.9567 82.4399 40.7366C82.5709 41.6742 84.6919 41.6594 85.1329 41.1078C85.5139 40.6293 85.3809 38.5867 85.3799 37.9705L85.3719 33.0417ZM145.376 43.0005C143.935 42.7168 142.06 42.343 141.924 40.5647C141.843 39.5073 141.9 38.3344 141.896 37.2553C141.892 35.9142 141.604 34.4514 142.964 33.6609C144.45 32.7972 146.367 32.7619 148.031 33.0597C150.021 33.4998 150.607 34.5362 150.566 36.3845C149.594 36.373 148.622 36.3711 147.651 36.3786C147.653 36.0031 147.712 35.1964 147.483 34.9284C146.72 34.0319 144.928 34.1041 144.819 35.4995C144.687 37.1906 144.848 38.8066 144.785 40.494C144.766 41.2553 145.905 41.5723 146.538 41.517C147.901 41.3979 147.668 40.3431 147.658 39.3395L150.559 39.3281C150.628 42.0214 149.879 42.4537 147.284 43.0005H145.376Z" fill="#484848"/>
</g>
<defs>
<linearGradient id="paint0_linear_19832_4820" x1="28.068" y1="40.3894" x2="24.1327" y2="6.75099" gradientUnits="userSpaceOnUse">
<stop stop-color="#E09630"/>
<stop offset="1" stop-color="#E8C831"/>
</linearGradient>
<linearGradient id="paint1_linear_19832_4820" x1="45.528" y1="13.6203" x2="47.993" y2="42.2663" gradientUnits="userSpaceOnUse">
<stop stop-color="#C6532D"/>
<stop offset="1" stop-color="#ECBB2F"/>
</linearGradient>
<linearGradient id="paint2_linear_19832_4820" x1="28.5673" y1="42.4133" x2="21.4242" y2="23.275" gradientUnits="userSpaceOnUse">
<stop stop-color="#DC782B"/>
<stop offset="1" stop-color="#E7B230"/>
</linearGradient>
<linearGradient id="paint3_linear_19832_4820" x1="33.8038" y1="32.708" x2="42.5448" y2="18.9661" gradientUnits="userSpaceOnUse">
<stop stop-color="#CD5A2C"/>
<stop offset="1" stop-color="#ECB72F"/>
</linearGradient>
<linearGradient id="paint4_linear_19832_4820" x1="29.0384" y1="5.6748" x2="18.3852" y2="5.088" gradientUnits="userSpaceOnUse">
<stop stop-color="#DB762B"/>
<stop offset="1" stop-color="#E6AD30"/>
</linearGradient>
</defs>
</svg>
