<svg width="64" height="64" viewBox="0 0 64 64" fill="none" xmlns="http://www.w3.org/2000/svg">
<path d="M59 32C59 17.0883 46.9117 5 32 5C17.0883 5 5 17.0883 5 32C5 46.9117 17.0883 59 32 59C46.9117 59 59 46.9117 59 32Z" fill="black"/>
<path d="M37.0638 40.4441C38.9281 40.4441 40.4398 41.9558 40.4398 43.8201C40.4397 45.6843 38.9281 47.196 37.0638 47.1961H26.9368C23.2081 47.1961 20.1849 44.1727 20.1849 40.4441H37.0638ZM43.8148 28.6297C43.8148 32.3582 40.7925 35.3805 37.0638 35.3806H26.9359C25.0717 35.3804 23.561 33.8697 23.5609 32.0056C23.5609 30.1415 25.0717 28.6299 26.9359 28.6297H43.8148ZM37.0638 16.8152C38.9281 16.8152 40.4398 18.3269 40.4398 20.1912C40.4396 22.0553 38.928 23.5661 37.0638 23.5662H26.9368C23.2081 23.5662 20.1849 20.5438 20.1849 16.8152H37.0638Z" fill="white"/>
</svg>
