<svg width="64" height="64" viewBox="0 0 64 64" fill="none" xmlns="http://www.w3.org/2000/svg">
<path d="M46.1308 31.6884C46.2067 39.8605 53.2972 42.5799 53.3757 42.6146C53.3156 42.8063 52.2427 46.49 49.6402 50.2949C47.3903 53.5845 45.0551 56.8619 41.3766 56.9298C37.7625 56.9964 36.6001 54.7858 32.4678 54.7858C28.3367 54.7858 27.0454 56.8619 23.6239 56.9964C20.0733 57.1309 17.3695 53.4394 15.1011 50.1618C10.4654 43.4576 6.92291 31.2171 11.6796 22.9546C14.0427 18.8513 18.2658 16.2532 22.8493 16.1866C26.3358 16.1201 29.6268 18.5331 31.7582 18.5331C33.8882 18.5331 37.8875 15.6313 42.0917 16.0574C43.8516 16.1307 48.7922 16.7685 51.9645 21.4138C51.7087 21.5723 46.0695 24.8564 46.1308 31.6886M39.3381 11.622C41.2233 9.33934 42.4919 6.16185 42.1458 3C39.4286 3.10924 36.1431 4.81134 34.194 7.0926C32.4474 9.11296 30.9178 12.3464 31.3305 15.4456C34.3592 15.68 37.4529 13.906 39.3381 11.622Z" fill="black"/>
</svg>
