<svg width="64" height="64" viewBox="0 0 64 64" fill="none" xmlns="http://www.w3.org/2000/svg">
<path d="M5 18.7455C5 11.1541 11.1541 5 18.7455 5H45.2545C52.846 5 59 11.1541 59 18.7455V45.2545C59 52.846 52.846 59 45.2545 59H18.7455C11.1541 59 5 52.846 5 45.2545V18.7455Z" fill="#FF5B00"/>
<mask id="mask0_10102_1928" style="mask-type:alpha" maskUnits="userSpaceOnUse" x="5" y="5" width="54" height="54">
<rect x="5" y="5" width="54" height="54" rx="14" fill="#FF5B00"/>
</mask>
<g mask="url(#mask0_10102_1928)">
<path d="M59 9.58789C58.9747 9.58789 58.9435 9.59422 58.9251 9.58209C57.4069 8.61178 55.7141 8.05859 54.0108 7.53441C52.9561 7.21063 51.8924 6.90951 50.8293 6.61262C50.6977 6.5843 50.5604 6.60296 50.4412 6.66535C50.1105 6.84359 49.7957 7.05084 49.4392 7.26916L51.7068 9.13174C51.7068 9.15916 51.7068 9.18447 51.7068 9.21453C43.3964 10.5545 35.3159 12.7614 27.3694 15.608C27.3968 15.6845 27.4221 15.7631 27.4532 15.8401C27.7332 16.5594 28.0053 17.2813 28.2996 17.9948C28.3829 18.1973 28.3592 18.3196 28.2005 18.4721C27.0735 19.5568 25.9571 20.6531 24.8334 21.7416C24.7664 21.807 24.6662 21.8386 24.6103 21.9267C27.0798 22.6834 29.5378 22.7984 32.0195 22.3665C34.5312 21.9277 36.8099 20.9374 38.944 19.4281L37.7195 18.2732C37.7243 18.2527 37.7285 18.2316 37.7332 18.2105C37.9647 18.2543 38.201 18.2796 38.4262 18.3444C39.9259 18.7747 40.9311 20.2297 40.8203 21.7854C40.8092 21.9388 40.7639 22.0068 40.602 22.0005C40.3499 21.9905 40.0973 21.9979 39.8911 21.9979C39.7999 21.4289 39.7155 20.8999 39.6217 20.3146C34.3588 23.9596 28.7552 24.9025 22.6807 22.9777V23.274C22.6807 24.5834 22.6739 25.8928 22.6865 27.2022C22.6865 27.4506 22.6159 27.5629 22.3791 27.6568C20.4601 28.4193 18.7109 29.4608 17.2085 30.8926C16.5541 31.5159 15.9893 32.2078 15.6992 33.0837C15.3517 34.1384 15.7198 35.2184 16.64 35.8327C17.4706 36.388 18.404 36.6886 19.3717 36.8874C20.9885 37.2233 22.628 37.314 24.2717 37.2365C25.5954 37.1743 26.9222 37.0952 28.2347 36.928C29.9296 36.7123 31.6213 36.446 33.2972 36.118C35.0158 35.7816 36.7149 35.3444 38.423 34.9521C38.4726 34.9405 38.5232 34.9368 38.6487 34.9183C38.5543 34.9832 38.5237 35.0101 38.4905 35.0275C36.1175 36.2251 33.7318 37.4005 31.2306 38.3144C28.9763 39.1493 26.64 39.7431 24.2607 40.0858C22.5273 40.3299 20.7865 40.4681 19.0368 40.4449C16.881 40.4159 14.7653 40.1343 12.7772 39.2367C11.3571 38.5965 10.178 37.6695 9.40223 36.2899C8.72987 35.0908 8.50047 33.793 8.60014 32.4308C8.77258 30.0731 9.70756 27.9901 10.9447 26.0231C12.7904 23.0879 14.9109 20.3742 17.3825 17.9373C20.7755 14.5908 24.6214 11.8729 28.847 9.68914C32.6386 7.72742 36.6042 6.21289 40.7212 5.08754C40.8066 5.06486 40.8836 5.02953 40.9648 5H59V9.58789Z" fill="white"/>
<path d="M59 37.8535C56.7108 38.5649 54.3926 39.155 52.0063 39.4355C50.6943 39.588 49.3786 39.6328 48.0745 39.3438C47.237 39.1576 46.4608 38.8402 45.877 38.1836C45.1503 37.3652 44.961 36.378 45.0965 35.3286C45.2874 33.852 46.021 32.6012 46.832 31.3914C47.9226 29.7667 49.2336 28.3207 50.5103 26.8457C52.598 24.4347 54.6895 22.0264 56.7456 19.5884C57.497 18.6967 58.1525 17.7243 58.8549 16.7888C58.9024 16.726 58.9536 16.6664 59.0026 16.6053V23.457C57.6109 25.1219 56.2077 26.7751 54.8318 28.4547C53.9042 29.5895 52.9925 30.7407 52.1329 31.9272C51.7906 32.4018 51.5565 32.9714 51.3688 33.5298C51.1578 34.1626 51.4405 34.6009 52.077 34.8055C52.2 34.8521 52.3292 34.8804 52.4604 34.8893C53.0378 34.8978 53.6205 34.9294 54.1932 34.884C55.3207 34.7944 56.445 34.661 57.5682 34.5418C58.0465 34.4891 58.5232 34.4295 59.0005 34.373L59 37.8535Z" fill="white"/>
<path d="M38.9904 49.3259C38.5907 49.0147 38.279 48.6778 38.1609 48.2005C37.9637 47.4032 38.2464 46.647 38.9229 46.1666C39.9064 45.4689 41.5744 45.4668 42.5579 46.1623C43.6126 46.9101 43.678 48.3276 42.6924 49.1682L42.5173 49.3185C42.7135 49.4767 42.9081 49.6117 43.0795 49.7725C44.1125 50.7386 43.9264 52.4404 42.7061 53.1528C41.9989 53.5657 41.2169 53.6691 40.4185 53.6037C40.0081 53.5728 39.6034 53.4889 39.2146 53.3543C38.3945 53.0611 37.8545 52.491 37.7533 51.594C37.6526 50.708 38.0259 50.0272 38.7283 49.5083C38.8027 49.4514 38.885 49.3987 38.9904 49.3259ZM40.7307 52.164L40.7354 52.1308C40.8319 52.1308 40.929 52.1377 41.0249 52.1308C41.518 52.0892 41.8397 51.8671 41.9388 51.5096C42.1049 50.9116 41.3187 50.0004 40.7064 50.1248C40.294 50.2081 39.9112 50.4085 39.6649 50.7829C39.3485 51.267 39.5426 51.8577 40.0921 52.0401C40.294 52.1066 40.515 52.1234 40.7286 52.164H40.7307ZM40.8145 47.082C40.6852 47.0817 40.5559 47.0892 40.4274 47.1047C40.1638 47.1574 39.9143 47.2455 39.8184 47.5355C39.7738 47.6556 39.765 47.786 39.7931 47.911C39.8212 48.036 39.8849 48.1501 39.9766 48.2396C40.4158 48.7036 41.0756 48.7026 41.5159 48.2396C41.8734 47.863 41.7321 47.2988 41.2353 47.1511C41.0971 47.1169 40.9564 47.0938 40.8145 47.082Z" fill="white"/>
<path d="M35.8026 49.3174C35.9983 49.4756 36.185 49.6064 36.3511 49.7609C37.4168 50.7523 37.2244 52.5031 35.9324 53.1744C34.7073 53.8073 33.4154 53.8183 32.1824 53.2066C30.7001 52.4683 30.612 50.524 31.9752 49.5337C32.0659 49.4677 32.1576 49.4034 32.2615 49.3301C32.1603 49.2383 32.0743 49.164 31.9926 49.0854C31.0887 48.2179 31.1958 46.8706 32.2241 46.1534C33.2086 45.4678 34.8555 45.4715 35.8374 46.1597C36.8615 46.8769 36.9633 48.2369 36.0563 49.0933C35.9798 49.1656 35.8991 49.2325 35.8026 49.3174ZM34.0223 52.1556V52.1314C34.1104 52.1314 34.1985 52.1366 34.286 52.1314C34.7891 52.0965 35.1118 51.8756 35.2157 51.4985C35.3301 51.0846 35.1719 50.7075 34.7411 50.4312C34.5586 50.3141 34.3514 50.2361 34.1521 50.1475C34.0986 50.1195 34.0375 50.1097 33.978 50.1195C33.6089 50.2377 33.2524 50.3874 33.0003 50.7033C32.5906 51.218 32.8152 51.9056 33.4523 52.0702C33.6379 52.1187 33.8325 52.1282 34.0223 52.1556ZM34.0424 47.071C33.881 47.0942 33.726 47.1079 33.5709 47.1411C33.3199 47.1938 33.1406 47.3425 33.0821 47.5983C33.0509 47.7178 33.0535 47.8436 33.0895 47.9618C33.1255 48.0799 33.1936 48.1857 33.2862 48.2675C33.7397 48.6999 34.3582 48.6894 34.7896 48.2459C35.1588 47.8641 35.0143 47.2924 34.5048 47.1469C34.3524 47.1123 34.1979 47.087 34.0424 47.071Z" fill="white"/>
<path d="M29.5979 45.49C29.4592 46.0173 29.3606 46.4513 29.2188 46.8727C29.1913 46.9555 29.002 47.0166 28.8807 47.0309C28.3814 47.0782 27.8998 47.2407 27.4738 47.5055C27.1113 47.7328 26.8108 48.0462 26.5989 48.4178C27.0366 48.373 27.4812 48.286 27.9252 48.2897C29.3037 48.3013 30.3467 49.3575 30.3757 50.7334C30.4084 52.2853 29.4223 53.4281 27.8714 53.5742C27.4018 53.6198 26.9281 53.5945 26.466 53.4993C25.4145 53.273 24.8012 52.5574 24.5718 51.5339C24.3079 50.3954 24.4254 49.2019 24.9061 48.1367C25.5295 46.7356 26.6522 45.953 28.1266 45.6582C28.5854 45.5638 29.0595 45.5485 29.5979 45.49ZM28.6171 50.9253C28.6234 50.1623 28.2242 49.7393 27.4922 49.7335C26.7429 49.7272 26.2625 50.1955 26.2572 50.9374C26.2514 51.7285 26.6179 52.1255 27.3646 52.1319C28.1398 52.1382 28.6102 51.6857 28.6171 50.9253Z" fill="white"/>
<path d="M21.6566 47.6025L20.8393 47.8404L20.2734 46.4735L23.3721 45.4747V45.7663C23.3721 48.2686 23.3679 50.7703 23.3779 53.272C23.3779 53.5267 23.2914 53.5842 23.0615 53.5742C22.7024 53.5589 22.3411 53.5557 21.982 53.5742C21.7363 53.5873 21.6682 53.4982 21.6693 53.2578C21.6772 51.4933 21.6735 49.7288 21.6725 47.9643C21.6719 47.8572 21.664 47.7465 21.6566 47.6025Z" fill="white"/>
</g>
</svg>
