<svg width="64" height="64" viewBox="0 0 64 64" fill="none" xmlns="http://www.w3.org/2000/svg">
<circle cx="32" cy="32" r="28" fill="#3076EF"/>
<path d="M17.6826 20.8605C17.8497 20.3594 18.1566 20.2142 18.2892 20.2043C27.2163 20.2094 45.126 20.2222 45.3481 20.2323C45.5702 20.2424 45.6174 20.5394 45.6132 20.6866C45.5963 20.9012 45.5198 21.4969 45.3481 22.1632C45.1765 22.8295 44.7802 22.9578 44.6035 22.9386H28.6792C25.1363 22.9453 17.977 22.9546 17.6826 22.9386C17.3147 22.9188 17.3744 22.4017 17.4142 22.1034C17.446 21.8648 17.6064 21.1754 17.6826 20.8605Z" fill="white"/>
<path d="M30.3636 15.204C29.0493 15.6733 28.7098 16.5728 28.7043 16.964V26.6413H34.3769C34.3802 22.8948 34.3849 15.3421 34.3769 15.1034C34.369 14.8648 34.2125 14.8028 34.1353 14.8017C33.4257 14.7402 31.6779 14.7346 30.3636 15.204Z" fill="white"/>
<path d="M20.9149 27.0207C21.1038 26.6434 21.4477 26.6102 21.596 26.6408C28.1574 26.6278 41.3992 26.6049 41.8752 26.6171C42.3512 26.6293 42.4437 27.1024 42.4305 27.3374C42.4305 30.1242 41.4391 33.7416 40.7156 35.4833C40.1368 36.8767 39.1374 38.5146 38.71 39.1594L33.3012 36.5437C34.6667 34.0255 35.2252 30.7093 35.3338 29.366C30.654 29.3703 21.2026 29.3764 20.8357 29.366C20.4689 29.3555 20.5084 28.8288 20.574 28.5667C20.609 28.2086 20.726 27.3981 20.9149 27.0207Z" fill="url(#paint0_linear_9951_9082)"/>
<path d="M24.7053 44.7104C27.4637 43.7114 29.9293 41.2607 30.8172 40.1602L35.6491 43.0524C34.876 43.9484 33.8834 44.6616 33.4838 44.9062C31.3227 46.7346 25.4738 50.1153 19.3671 49.0106C13.2603 47.9059 11.8908 43.2429 11.9694 41.0495H14.4045C14.2975 43.8325 17.1888 45.0597 18.6479 45.3255C19.5177 45.5367 21.9469 45.7094 24.7053 44.7104Z" fill="white"/>
<path d="M11.9689 41.0552H14.4062C14.9674 37.8733 17.3066 36.956 21.0039 36.7743C23.9618 36.6289 28.4217 38.846 30.2819 39.9727C33.9165 42.3279 39.3677 45.8421 41.6389 47.3048C43.212 48.2253 46.4901 49.3484 48.8011 49.2147C51.1121 49.081 51.8968 45.5779 52.0003 43.8431C52.048 43.5407 52.0814 42.8356 51.8331 42.4345C51.5849 42.0334 50.6755 41.9944 50.2519 42.0251C48.6831 41.8691 44.8274 41.2911 41.9549 40.2272C38.3643 38.8974 39.0293 39.0969 32.38 35.9052C27.0606 33.3519 22.5795 32.9278 21.0039 33.035C13.7129 33.4323 11.9372 38.5473 11.9689 41.0552Z" fill="white"/>
<mask id="mask0_9951_9082" style="mask-type:alpha" maskUnits="userSpaceOnUse" x="11" y="40" width="25" height="10">
<path d="M24.7053 44.7104C27.4637 43.7114 29.9293 41.2607 30.8172 40.1602L35.6491 43.0524C34.876 43.9484 33.8834 44.6616 33.4838 44.9062C31.3227 46.7346 25.4738 50.1153 19.3671 49.0106C13.2603 47.9059 11.8908 43.2429 11.9694 41.0495H14.4045C14.2975 43.8325 17.1888 45.0597 18.6479 45.3255C19.5177 45.5367 21.9469 45.7094 24.7053 44.7104Z" fill="#D9D9D9"/>
</mask>
<g mask="url(#mask0_9951_9082)">
<path d="M14.3984 41.0817C14.702 36.4552 14.6087 41.0427 13.795 39.8863L8.78349 42.4545C9.49599 43.3994 10.4395 44.1763 10.8222 44.4466C12.8584 46.4132 16.6536 53.2572 22.8198 52.5563C28.9859 51.8554 34.0743 53.7439 34.14 51.5501L32.463 49.4702C32.3869 52.2543 31.9887 47.2723 30.5153 47.4415C26.0479 50.8527 14.0948 45.7083 14.3984 41.0817Z" fill="url(#paint1_linear_9951_9082)"/>
</g>
<mask id="mask1_9951_9082" style="mask-type:alpha" maskUnits="userSpaceOnUse" x="11" y="33" width="42" height="17">
<path d="M11.9667 41.0552H14.3829C14.944 37.8733 17.2879 36.956 20.9852 36.7743C23.9431 36.6289 28.403 38.846 30.2633 39.9727C33.8978 42.3279 39.349 45.8421 41.6203 47.3048C43.0448 47.9972 46.4715 49.3484 48.7825 49.2147C51.0935 49.081 51.8782 45.5779 51.9816 43.8431C52.0294 43.5407 52.0628 42.8356 51.8145 42.4345C51.5662 42.0334 50.6569 41.9944 50.2333 42.0251C48.6645 41.8691 44.8087 41.2911 41.9363 40.2272C38.3457 38.8974 39.0106 39.0969 32.3613 35.9052C27.042 33.3519 22.5609 32.9278 20.9852 33.035C13.6942 33.4323 11.935 38.5473 11.9667 41.0552Z" fill="#D9D9D9"/>
</mask>
<g mask="url(#mask1_9951_9082)">
<path d="M7.31554 28.8993L10.4198 29.7514C12.2148 26.0363 15.5359 25.7349 20.3475 26.8154C24.1968 27.6797 29.1784 31.9791 31.1881 34.0207C35.0627 38.1988 40.8801 44.4429 43.3044 47.0427C44.9009 48.3965 48.8474 51.2667 51.8616 51.9173C54.8759 52.5679 57.0665 48.5366 57.7851 46.4397C57.9485 46.0846 58.2295 45.2294 58.0458 44.6486C57.8622 44.0678 56.7071 43.6991 56.1525 43.5874C54.1896 42.8423 49.4309 40.7717 46.0995 38.4504C41.9353 35.5487 42.7222 36.0285 35.2567 29.7586C29.2843 24.7427 23.6702 22.6408 21.6097 22.2169C12.1082 20.1342 8.12131 25.804 7.31554 28.8993Z" fill="url(#paint2_linear_9951_9082)"/>
</g>
<defs>
<linearGradient id="paint0_linear_9951_9082" x1="31.4814" y1="26.6137" x2="31.4814" y2="43.9169" gradientUnits="userSpaceOnUse">
<stop stop-color="white"/>
<stop offset="1" stop-color="#D4E1F4"/>
</linearGradient>
<linearGradient id="paint1_linear_9951_9082" x1="12.749" y1="41.1611" x2="21.0956" y2="52.5671" gradientUnits="userSpaceOnUse">
<stop stop-color="white"/>
<stop offset="1" stop-color="#ABC8F4"/>
</linearGradient>
<linearGradient id="paint2_linear_9951_9082" x1="34.8201" y1="37.4749" x2="53.9235" y2="48.367" gradientUnits="userSpaceOnUse">
<stop stop-color="white"/>
<stop offset="1" stop-color="#A0BDF6"/>
</linearGradient>
</defs>
</svg>
