<svg width="64" height="64" viewBox="0 0 64 64" fill="none" xmlns="http://www.w3.org/2000/svg">
<path d="M44.8252 26.1365C44.8252 27.9776 44.8913 29.8077 44.8032 31.6488C44.7152 33.7435 45.3535 35.5405 46.6741 37.128C46.8282 37.3154 46.9713 37.5028 47.1033 37.7013C47.5766 38.4179 47.4885 38.914 46.8392 39.4652C45.4526 40.6338 44.0769 41.8134 42.6902 42.982C41.8648 43.6766 41.3476 43.6656 40.5112 42.982C39.3887 42.067 38.5082 40.9425 37.7269 39.7408C37.5398 39.4542 37.4407 39.4652 37.2096 39.6857C35.823 41.0417 34.3593 42.2985 32.4994 42.9269C29.627 43.9081 26.7106 44.0624 23.8272 43.0372C21.0539 42.045 19.3921 39.9944 18.7758 37.139C18.0935 33.9529 18.4457 30.9212 20.4046 28.2202C21.8903 26.1806 23.9483 24.979 26.3144 24.2403C28.7576 23.4906 31.2778 23.204 33.809 22.9504C34.5243 22.8733 35.2287 22.8071 35.944 22.741C36.1201 22.7299 36.2742 22.7079 36.2632 22.4764C36.2412 21.3078 36.3622 20.1171 36.0871 18.9706C35.7349 17.5043 34.7775 16.6444 33.3138 16.3247C32.2683 16.0932 31.2338 16.1593 30.2213 16.5011C28.6805 17.0303 27.7231 18.0996 27.3379 19.6872C27.1288 20.5581 26.7216 20.8668 25.8742 20.7786C24.0693 20.5912 22.2645 20.4038 20.4706 20.2163C19.7333 20.1392 19.3481 19.5769 19.5022 18.8603C20.4376 14.2851 23.431 11.7164 27.7451 10.5368C31.0577 9.63278 34.4143 9.57766 37.7379 10.5147C40.4121 11.2644 42.6572 12.5874 43.9118 15.2112C44.6272 16.6995 44.7922 18.3091 44.8142 19.9187C44.8363 21.9803 44.8142 24.0639 44.8252 26.1365ZM36.2632 29.5762C36.2632 29.025 36.2412 28.4737 36.2742 27.9225C36.2962 27.5807 36.1751 27.4595 35.834 27.4925C34.9976 27.5697 34.1502 27.5807 33.3138 27.691C31.8501 27.8784 30.4194 28.2422 29.2308 29.1683C27.503 30.5243 27.1398 32.3764 27.4259 34.4601C27.7671 36.9075 29.9461 38.2635 32.2793 37.4477C33.864 36.8965 34.8325 35.7279 35.5038 34.2616C36.2081 32.7733 36.2632 31.1747 36.2632 29.5762Z" fill="#050606"/>
<path d="M32.1912 54.4585C23.7942 54.4034 16.2556 52.2426 9.44332 47.6895C8.05666 46.7634 6.73603 45.7492 5.48143 44.6357C5.37138 44.5365 5.26132 44.4372 5.17328 44.316C5.05223 44.1506 4.96418 43.9522 5.10725 43.7537C5.25032 43.5332 5.49244 43.5112 5.70154 43.6104C6.18577 43.8419 6.64799 44.0955 7.12121 44.338C11.4573 46.6311 16.0245 48.2848 20.8118 49.3321C25.1478 50.2802 29.5279 50.7212 33.974 50.6C40.3241 50.4236 46.443 49.1447 52.3308 46.7744C52.6169 46.6532 52.9141 46.5319 53.2112 46.4657C53.6294 46.3886 54.0476 46.4437 54.2347 46.8957C54.4108 47.3146 54.1797 47.6454 53.8715 47.91C53.6514 48.0974 53.3983 48.2517 53.1452 48.4171C49.3484 50.8866 45.1884 52.4741 40.7863 53.4553C37.8809 54.1168 34.9315 54.4365 32.1912 54.4585Z" fill="#F6A61F"/>
<path d="M53.3764 44.6357C52.1107 44.6247 50.8561 44.79 49.6015 44.9223C49.3594 44.9444 49.0843 45.0105 48.9743 44.746C48.8422 44.4483 49.0953 44.2719 49.3044 44.1286C50.8672 43.0923 52.617 42.6844 54.4549 42.5851C55.7205 42.508 56.9751 42.5631 58.2077 42.9379C58.7689 43.1033 59.0441 43.434 59.0331 44.0073C58.967 47.0721 57.9435 49.7401 55.7315 51.9119C55.6544 51.9891 55.5664 52.0552 55.4784 52.1214C55.2803 52.2647 55.0381 52.397 54.829 52.2206C54.631 52.0552 54.741 51.8127 54.829 51.6142C55.4784 49.9936 56.1387 48.3841 56.4578 46.6532C56.5018 46.4327 56.5129 46.2122 56.5239 46.0027C56.5349 45.2862 56.2817 44.9775 55.5774 44.8011C54.8401 44.6026 54.1027 44.6357 53.3764 44.6357Z" fill="#F6A61F"/>
</svg>
