<svg width="182" height="64" viewBox="0 0 182 64" fill="none" xmlns="http://www.w3.org/2000/svg">
<path d="M43.6211 20.9319V37.0084C43.6211 37.269 43.5179 37.5189 43.3343 37.7032C43.1507 37.8875 42.9017 37.991 42.642 37.991H37.5854C37.3258 37.9909 37.0768 37.8873 36.8932 37.7031C36.7096 37.5188 36.6065 37.269 36.6063 37.0084V10.8592C36.6063 10.5986 36.7095 10.3487 36.8931 10.1644C37.0767 9.98014 37.3257 9.87662 37.5854 9.87662H42.2647C42.5244 9.87662 42.7734 9.98014 42.957 10.1644C43.1406 10.3487 43.2438 10.5986 43.2438 10.8592V14.5417C43.2438 14.5417 44.9165 9.28872 49.8808 9.28872C49.8808 9.28872 54.7911 8.69302 56.7876 14.1626C56.7876 14.1626 58.4604 9.28872 63.5325 9.28872C63.5325 9.28872 71.0756 8.83858 71.0756 16.6719L71.133 20.9861V37.0626C71.133 37.3232 71.0299 37.5731 70.8463 37.7573C70.6627 37.9416 70.4137 38.0451 70.154 38.0451H65.0969C64.8373 38.045 64.5883 37.9415 64.4048 37.7572C64.2212 37.573 64.118 37.3231 64.1179 37.0626L64.0717 19.5239C64.2154 15.5524 61.0141 15.8414 61.0141 15.8414C56.9853 15.9137 57.373 20.9861 57.373 20.9861V37.0626C57.373 37.3232 57.2698 37.5731 57.0862 37.7573C56.9026 37.9416 56.6536 38.0451 56.3939 38.0451H51.3373C51.0776 38.045 50.8287 37.9415 50.6451 37.7572C50.4615 37.573 50.3583 37.3231 50.3582 37.0626V19.9207C50.3582 19.9207 50.6539 15.805 47.0563 15.805C47.0568 15.805 43.4955 15.3358 43.6211 20.9319ZM173.968 20.8838V36.9599C173.968 37.2204 173.864 37.4703 173.681 37.6545C173.497 37.8388 173.248 37.9423 172.989 37.9425L167.73 38.0447C167.47 38.0446 167.221 37.941 167.037 37.7568C166.854 37.5725 166.751 37.3227 166.75 37.0621V19.9207C166.75 19.9207 167.046 15.805 163.449 15.805C163.449 15.805 160.013 15.6352 160.013 22.0882V37.008C160.013 37.2685 159.91 37.5184 159.726 37.7026C159.543 37.8869 159.294 37.9904 159.034 37.9905H153.977C153.718 37.9904 153.469 37.8869 153.285 37.7026C153.101 37.5184 152.998 37.2685 152.998 37.008V10.8592C152.998 10.5986 153.101 10.3488 153.285 10.1645C153.469 9.98029 153.718 9.87673 153.977 9.87662H158.657C158.916 9.87662 159.165 9.98014 159.349 10.1644C159.532 10.3487 159.636 10.5986 159.636 10.8592V14.5417C159.636 14.5417 161.308 9.28872 166.273 9.28872C166.273 9.28872 171.59 8.479 173.381 14.0608C173.382 14.0604 173.968 15.2119 173.968 20.8838ZM137.457 9.18041C130.99 9.18041 125.747 14.65 125.747 23.8562C125.747 31.9616 129.794 38.5321 137.457 38.5321C144.687 38.5321 149.166 31.9616 149.166 23.8562C149.166 14.8125 143.923 9.18041 137.457 9.18041ZM141.538 24.1812C141.538 27.6471 141.106 29.4883 141.106 29.4883C140.492 33.1522 137.842 33.1574 137.451 33.1379C137.03 33.1548 134.357 33.1166 133.804 29.4883C133.804 29.4883 133.372 27.6471 133.372 24.1812V23.6037C133.372 20.1378 133.804 18.2965 133.804 18.2965C134.357 14.6682 137.03 14.6301 137.451 14.6465C137.842 14.627 140.492 14.6318 141.106 18.2965C141.106 18.2965 141.538 20.1378 141.538 23.6037V24.1812ZM122.812 14.5053V10.7535C122.812 10.4929 122.709 10.2431 122.526 10.0588C122.342 9.87458 122.093 9.77102 121.833 9.77091H105.119C104.859 9.77091 104.61 9.87443 104.427 10.0587C104.243 10.243 104.14 10.4929 104.14 10.7535V14.4763C104.14 14.7368 104.243 14.9867 104.427 15.1709C104.61 15.3552 104.859 15.4587 105.119 15.4589H113.837L103.518 30.4834C103.518 30.4834 103.111 31.0926 103.125 31.7654V36.3356C103.125 36.3356 103.057 37.9026 104.828 36.9932C104.828 36.9932 107.973 35.0861 113.247 35.0861C113.247 35.0861 118.455 35.0212 121.927 37.1574C121.927 37.1574 123.369 37.8151 123.369 36.3689V32.391C123.369 32.391 123.5 31.3382 122.124 30.681C122.124 30.681 118.127 28.4784 112.886 28.8398L122.812 14.5053ZM32.7036 33.3146L31.1206 30.8963C30.6168 29.9935 30.6531 28.9823 30.6531 28.9823V17.8269C30.8689 8.18743 20.2208 9.01794 20.2208 9.01794C10.755 9.01794 9.35682 16.4111 9.35682 16.4111C8.96227 17.8975 10.1097 17.9335 10.1097 17.9335L14.7351 18.4044C14.7351 18.4044 15.5237 18.5855 15.8108 17.6432C15.8108 17.6432 16.4199 14.4178 19.8262 14.4178C23.5326 14.4178 23.4942 17.6103 23.4942 17.6103V20.2829C16.0953 20.5312 12.6665 22.5925 12.6665 22.5925C8.09806 25.1919 8.38555 30.3548 8.38555 30.3548C8.38555 38.7665 16.3715 38.4052 16.3715 38.4052C21.4796 38.4052 24.5013 34.6507 24.5013 34.6507C25.4005 36.2398 27.0555 37.7553 27.0555 37.7553C27.8835 38.6564 28.7464 37.9 28.7464 37.9L32.4877 34.6871C33.3148 34.0728 32.7036 33.3146 32.7036 33.3146ZM18.8645 33.2107C16.4618 33.2107 15.5686 30.8144 15.9675 28.4594C16.3668 26.1043 18.4406 24.2535 23.4946 24.3077V25.7395C23.6738 31.9946 20.8644 33.2107 18.8645 33.2107ZM99.9008 33.3146L98.3182 30.8963C97.8145 29.9935 97.8503 28.9823 97.8503 28.9823V17.8269C98.0661 8.18743 87.418 9.01794 87.418 9.01794C77.9522 9.01794 76.554 16.4111 76.554 16.4111C76.1595 17.8975 77.3069 17.9335 77.3069 17.9335L81.9323 18.4044C81.9323 18.4044 82.7209 18.5855 83.008 17.6432C83.008 17.6432 83.6171 14.4178 87.0235 14.4178C90.7298 14.4178 90.6914 17.6103 90.6914 17.6103V20.2829C83.2929 20.5312 79.8637 22.5925 79.8637 22.5925C75.2953 25.1919 75.5828 30.3548 75.5828 30.3548C75.5828 38.7665 83.5688 38.4052 83.5688 38.4052C88.6768 38.4052 91.6985 34.6507 91.6985 34.6507C92.5981 36.2398 94.2523 37.7553 94.2523 37.7553C95.0803 38.6564 95.9436 37.9 95.9436 37.9L99.6845 34.6871C100.512 34.0728 99.9008 33.3146 99.9008 33.3146ZM86.0617 33.2107C83.659 33.2107 82.7658 30.8144 83.1647 28.4594C83.564 26.1043 85.6378 24.2535 90.6914 24.3077V25.7395C90.871 31.9946 88.0621 33.2107 86.0617 33.2107Z" fill="black"/>
<path d="M112.634 54.4297C112.634 54.4297 112.21 55.1683 112.73 55.3334C112.73 55.3334 113.317 55.5635 114.049 54.8815C114.049 54.8815 119.389 50.2004 119.517 41.6778C119.517 41.6778 119.557 40.6134 119.131 40.3222C119.131 40.3222 117.458 38.8371 111.443 39.289C111.443 39.289 106.2 39.6442 103.338 42.1947C103.338 42.1947 103.081 42.4204 103.081 42.7107C103.081 42.7107 103.019 43.3376 104.592 43.0659C104.592 43.0659 109.835 42.3229 112.955 42.7107C112.955 42.7107 114.564 42.9043 115.014 43.4537C115.014 43.4537 115.754 44.0671 115.368 46.1003C115.368 46.1012 114.306 51.2662 112.634 54.4297Z" fill="#F3971B"/>
<path d="M111.576 46.2532C111.576 46.2532 112.359 47.2713 111.096 48.1495C111.096 48.1495 97.5988 58.9847 74.9358 58.9847C74.9358 58.9847 51.6072 60.1397 32.1278 42.3771C32.1278 42.3771 31.4449 41.7753 31.8688 41.216C31.8688 41.216 32.2478 40.7013 33.229 41.2611C33.229 41.2611 51.5532 52.7206 75.6191 52.7206C75.6191 52.7206 92.3466 53.3704 109.506 46.0054C109.506 46.0054 110.873 45.2945 111.576 46.2532Z" fill="#F3971B"/>
</svg>
