<svg width="214" height="64" viewBox="0 0 214 64" fill="none" xmlns="http://www.w3.org/2000/svg">
<g clip-path="url(#clip0_8459_3040)">
<path d="M89.3341 19.2735H93.8406V40.902H101.608V45.1715H89.353L89.3341 19.2735ZM112.044 25.762C113.222 25.7473 114.387 26.0045 115.449 26.5135C116.51 27.0225 117.439 27.7694 118.163 28.696V26.1475H122.367V45.2092H118.163V42.6602C117.439 43.5868 116.51 44.3338 115.448 44.8428C114.387 45.3518 113.222 45.609 112.044 45.5942C106.802 45.5942 102.824 41.1274 102.824 35.6735C102.824 30.2191 106.803 25.762 112.044 25.762ZM112.808 29.5797C109.405 29.5797 107.151 32.2505 107.151 35.6735C107.151 39.0965 109.442 41.7765 112.808 41.7765C116.174 41.7765 118.465 39.1057 118.465 35.6735C118.465 32.2409 116.211 29.5797 112.808 29.5797ZM125.638 41.8989L135.659 29.9565H125.789V26.1475H141.089V29.5047L131.106 41.4007H141.316V45.2092H125.638V41.8989ZM152.006 25.762C153.184 25.7473 154.349 26.0045 155.41 26.5135C156.472 27.0225 157.4 27.7694 158.124 28.696V26.1475H162.329V45.2092H158.124V42.6602C157.4 43.5868 156.472 44.3337 155.41 44.8427C154.349 45.3517 153.184 45.6089 152.006 45.5942C146.765 45.5942 142.795 41.1274 142.795 35.6735C142.795 30.2191 146.765 25.762 152.006 25.762ZM152.77 29.5797C149.366 29.5797 147.113 32.2505 147.113 35.6735C147.113 39.0965 149.404 41.7765 152.77 41.7765C156.135 41.7765 158.426 39.1057 158.426 35.6735C158.426 32.2409 156.173 29.5797 152.77 29.5797ZM174.339 25.762C175.516 25.7467 176.68 26.0036 177.739 26.5127C178.799 27.0218 179.727 27.7691 180.448 28.696V17.7412H184.652V45.2092H180.448V42.6612C179.727 43.588 178.799 44.3354 177.739 44.8445C176.68 45.3535 175.516 45.6105 174.339 45.5952C169.098 45.5952 165.119 41.1284 165.119 35.6745C165.119 30.2201 169.098 25.762 174.339 25.762ZM175.102 29.5806C171.699 29.5806 169.446 32.2515 169.446 35.6745C169.446 39.0974 171.747 41.7775 175.102 41.7775C178.459 41.7775 180.759 39.1066 180.759 35.6745C180.759 32.2418 178.506 29.5806 175.102 29.5806ZM196.663 25.762C197.839 25.7466 199.003 26.0035 200.063 26.5126C201.123 27.0217 202.05 27.7691 202.772 28.696V26.1475H206.967V45.2092H202.753V42.6602C202.032 43.5871 201.104 44.3345 200.044 44.8436C198.984 45.3527 197.82 45.6096 196.644 45.5942C191.402 45.5942 187.424 41.1274 187.424 35.6735C187.424 30.2191 191.421 25.762 196.663 25.762ZM197.427 29.5797C194.023 29.5797 191.77 32.2505 191.77 35.6735C191.77 39.0965 194.07 41.7765 197.427 41.7765C200.782 41.7765 203.083 39.1057 203.083 35.6735C203.083 32.2409 200.829 29.5797 197.427 29.5797Z" fill="#000083"/>
<path d="M40.1469 63.9999C39.6905 64.0028 39.2418 63.8859 38.8455 63.6626C35.449 61.702 10.2952 45.9697 9.34531 45.4898C8.98968 45.3245 8.6829 45.0703 8.45472 44.752C8.22654 44.4336 8.08469 44.0618 8.04293 43.6727V21.6053C8.03403 21.2002 8.12861 20.7994 8.31778 20.4408C8.50695 20.0822 8.78449 19.7775 9.12428 19.5554L9.30529 19.4518C11.7395 17.9455 19.8853 12.9865 21.1743 12.2728C21.4698 12.0978 21.8063 12.0037 22.1499 12C22.472 12.0038 22.7883 12.0836 23.0741 12.2338C23.0741 12.2338 34.4725 19.6457 36.2169 20.3071C37.4403 20.8676 38.7742 21.1469 40.1202 21.1244C41.646 21.1564 43.1537 20.7894 44.4932 20.06C46.1967 19.1657 57.0892 12.2737 57.2054 12.2737C57.4798 12.1083 57.7961 12.0228 58.1162 12.0266C58.4602 12.0285 58.7974 12.1226 59.0918 12.2994C60.5752 13.1167 70.6732 19.2826 71.1028 19.5554C71.4519 19.7655 71.7399 20.0628 71.9384 20.418C72.1369 20.7732 72.2391 21.1739 72.2347 21.5806V43.647C72.1956 44.0367 72.055 44.4094 71.8268 44.7282C71.5987 45.0469 71.291 45.3006 70.9342 45.4641C69.9843 45.983 44.9086 61.7153 41.4474 63.6369C41.0532 63.8701 40.6052 63.9953 40.1469 63.9999Z" fill="url(#paint0_linear_8459_3040)"/>
<path d="M40.0164 64H40.1469C40.6023 64.0028 41.052 63.8859 41.4474 63.6626C44.8438 61.702 69.9853 45.9697 70.9342 45.4898C71.2911 45.3265 71.5991 45.0728 71.8274 44.7541C72.0557 44.4353 72.1964 44.0625 72.2356 43.6727V21.6053C72.2399 21.232 72.1553 20.863 71.9888 20.5286L40.0164 38.039V64Z" fill="url(#paint1_linear_8459_3040)"/>
<path d="M39.9053 63.6888H39.7761C39.3256 63.6916 38.8807 63.576 38.4895 63.355C35.1292 61.4153 10.2556 45.8506 9.31678 45.3758C8.96362 45.2142 8.65898 44.9633 8.43311 44.6479C8.20724 44.3326 8.068 43.9637 8.02923 43.5781V21.7458C8.02501 21.3764 8.10868 21.0113 8.27336 20.6805L39.9053 38.0044V63.6888Z" fill="url(#paint2_linear_8459_3040)"/>
</g>
<defs>
<linearGradient id="paint0_linear_8459_3040" x1="8.00387" y1="12.4752" x2="71.6068" y2="11.9814" gradientUnits="userSpaceOnUse">
<stop stop-color="#FFB900"/>
<stop offset="0.338" stop-color="#F38000"/>
<stop offset="0.567" stop-color="#F83C72"/>
<stop offset="0.78" stop-color="#FC1CBE"/>
<stop offset="0.93" stop-color="#FE08ED"/>
<stop offset="1" stop-color="#FF00FF"/>
</linearGradient>
<linearGradient id="paint1_linear_8459_3040" x1="25.8722" y1="58.5734" x2="90.6428" y2="22.6217" gradientUnits="userSpaceOnUse">
<stop stop-color="#EE0A3F"/>
<stop offset="1" stop-color="#EE0A3F" stop-opacity="0"/>
</linearGradient>
<linearGradient id="paint2_linear_8459_3040" x1="32.1827" y1="49.2402" x2="0.909044" y2="23.9847" gradientUnits="userSpaceOnUse">
<stop stop-color="#ED6600"/>
<stop offset="1" stop-color="#F98200"/>
</linearGradient>
<clipPath id="clip0_8459_3040">
<rect width="214" height="64" fill="white"/>
</clipPath>
</defs>
</svg>
