<svg width="64" height="64" viewBox="0 0 64 64" fill="none" xmlns="http://www.w3.org/2000/svg">
<path fill-rule="evenodd" clip-rule="evenodd" d="M22.2412 30.5427C24.3252 30.7723 27.3252 31.7075 29.7451 33.8747C31.9084 35.8122 33.4753 38.6298 33.5791 42.3728H47.9971C49.5528 42.3729 51.604 42.7726 53.1699 44.5837C54.6432 46.2878 55.2313 48.7329 55.2314 51.7234C55.2314 54.3287 54.5704 56.544 53.0176 58.0837C51.4695 59.6182 49.5222 59.9976 47.9971 59.9978H22.8525L22.6943 59.9802C18.5917 59.5282 10.2334 56.0896 7.20996 46.0984C6.74807 44.5714 7.61076 42.9589 9.1377 42.4968C10.6646 42.0351 12.2771 42.8987 12.7393 44.4255C14.8911 51.5363 20.6992 53.8856 23.1943 54.2194H47.9971C48.6436 54.2193 48.8692 54.0605 48.9502 53.9802C49.0278 53.9031 49.4531 53.4226 49.4531 51.7234C49.453 49.3304 48.955 48.5437 48.7988 48.363C48.7355 48.2898 48.6131 48.1512 47.9971 48.1511H29.5283C24.2901 48.1509 20.3301 45.5959 18.8037 44.0827C17.6708 42.9594 17.6629 41.1298 18.7861 39.9968C19.9095 38.8641 21.7391 38.8561 22.8721 39.9792C23.4042 40.5067 25.2317 41.7869 27.7871 42.2234C27.6579 40.2718 26.8393 39.0281 25.8906 38.1784C24.6107 37.0323 22.9106 36.4593 21.7373 36.3034H8.88867C7.29314 36.3034 6 35.0103 6 33.4148C6.00016 31.8194 7.29324 30.5261 8.88867 30.5261H22.083L22.2412 30.5427Z" fill="url(#paint0_linear_9935_405)"/>
<path d="M43.5547 5C51.5322 5.00005 57.9989 11.4713 57.999 19.4541C57.999 27.437 51.5322 33.9082 43.5547 33.9082C35.5771 33.9082 29.1104 27.437 29.1104 19.4541C29.1105 11.4713 35.5772 5 43.5547 5ZM43.5557 13.748C41.9602 13.7479 40.6672 15.0412 40.667 16.6367L40.666 22.4189C40.6661 24.0143 41.9593 25.3075 43.5547 25.3076C45.1499 25.3077 46.4428 24.0151 46.4434 22.4199L46.4443 16.6377C46.4445 15.0422 45.1512 13.7482 43.5557 13.748Z" fill="url(#paint1_linear_9935_405)"/>
<defs>
<linearGradient id="paint0_linear_9935_405" x1="30.6157" y1="30.5261" x2="30.6157" y2="59.9978" gradientUnits="userSpaceOnUse">
<stop stop-color="#338EF7"/>
<stop offset="1" stop-color="#005BC4"/>
</linearGradient>
<linearGradient id="paint1_linear_9935_405" x1="43.5547" y1="5" x2="43.5547" y2="33.9082" gradientUnits="userSpaceOnUse">
<stop stop-color="#7EE7FC"/>
<stop offset="1" stop-color="#006FEE"/>
</linearGradient>
</defs>
</svg>
