<svg width="64" height="64" viewBox="0 0 64 64" fill="none" xmlns="http://www.w3.org/2000/svg">
<path d="M43.2281 41.8499H49.8717L37.7896 59.0084L37.4978 58.9047L40.1237 47.6267H34.9303C35.5138 44.891 36.074 42.3212 36.6809 39.5114C35.2046 39.9619 33.9149 40.2227 32.7391 40.7444C30.192 41.8707 27.9016 41.3905 25.8359 39.7248C24.4454 38.6387 23.1668 37.4122 22.0196 36.0643C20.8526 34.6475 21.2231 33.8383 22.9912 33.536C26.7346 32.8958 30.4896 32.3326 34.2505 31.6213H31.8901C28.6544 31.5886 25.4158 31.5353 22.1801 31.5234C20.1932 31.5234 18.7927 30.4712 17.5935 29.007C16.0786 27.1403 15.0064 24.9448 14.4599 22.59C14.0923 21.0843 14.4979 20.6694 16.0267 21.031C19.8926 21.9439 23.7527 22.8894 27.6186 23.8082C29.595 24.3028 31.5953 24.6925 33.6115 24.976C31.2774 24.1876 28.8966 23.4644 26.5828 22.6048C23.0525 21.277 19.5805 19.8305 16.0501 18.4553C15.5517 18.2722 15.0967 17.9851 14.7142 17.6124C14.3318 17.2397 14.0305 16.7898 13.8297 16.2916C12.4555 13.1082 11.4285 9.83305 11.4052 6.31777C11.4052 5.03733 11.8165 4.72315 12.899 5.25667C23.9249 10.66 35.3242 15.2305 46.7585 19.6883C47.8613 20.1454 48.912 20.7228 49.8921 21.4103C51.7915 22.6938 52.41 24.3121 51.4268 26.3454C49.4077 30.5187 47.1874 34.5912 45.0312 38.6963C44.4915 39.707 43.8904 40.6881 43.2281 41.8499Z" fill="#59ADF8"/>
</svg>
