<svg width="64" height="64" viewBox="0 0 64 64" fill="none" xmlns="http://www.w3.org/2000/svg">
<path d="M5 17.5C5 10.5964 10.5964 5 17.5 5H46.5C53.4036 5 59 10.5964 59 17.5V46.5C59 53.4036 53.4036 59 46.5 59H17.5C10.5964 59 5 53.4036 5 46.5V17.5Z" fill="#5765F2"/>
<path d="M45.0659 20.3648C45.0551 20.345 45.0371 20.3295 45.0153 20.321C42.4867 19.2278 39.8183 18.4483 37.0769 18.0019C37.052 17.9975 37.0262 18.0007 37.0033 18.0109C36.9804 18.0211 36.9615 18.0379 36.9493 18.0588C36.586 18.6802 36.2561 19.3185 35.9611 19.9713C33.006 19.5486 30.0001 19.5486 27.045 19.9713C26.748 19.3169 26.4129 18.6784 26.0412 18.0588C26.0284 18.0383 26.0094 18.022 25.9867 18.0118C25.9639 18.0017 25.9384 17.9982 25.9136 18.0019C23.1719 18.4473 20.5033 19.227 17.975 20.3211C17.9534 20.3298 17.9351 20.3445 17.9228 20.3634C12.8667 27.4783 11.4817 34.4182 12.1612 41.2722C12.1631 41.289 12.1686 41.3053 12.1773 41.3201C12.186 41.3348 12.1978 41.3478 12.2119 41.3582C15.156 43.4123 18.449 44.9802 21.9503 45.995C21.975 46.002 22.0013 46.0017 22.0258 45.9941C22.0502 45.9865 22.0717 45.9721 22.0872 45.9527C22.8392 44.9885 23.5055 43.9675 24.0794 42.9001C24.0873 42.8855 24.0918 42.8694 24.0926 42.853C24.0935 42.8366 24.0906 42.8202 24.0842 42.8049C24.0778 42.7896 24.0681 42.7758 24.0556 42.7643C24.0431 42.7529 24.0282 42.744 24.0118 42.7384C22.9611 42.3595 21.9438 41.9028 20.9696 41.3725C20.9519 41.3627 20.937 41.349 20.9263 41.3325C20.9156 41.316 20.9093 41.2972 20.9081 41.2779C20.9069 41.2586 20.9108 41.2393 20.9193 41.2218C20.9279 41.2042 20.9409 41.1889 20.9573 41.1772C21.1623 41.0329 21.3637 40.8841 21.5615 40.7311C21.5788 40.7176 21.5998 40.709 21.6221 40.7062C21.6443 40.7034 21.667 40.7064 21.6875 40.7151C28.07 43.4599 34.98 43.4599 41.287 40.7151C41.3076 40.7059 41.3305 40.7024 41.3531 40.705C41.3757 40.7075 41.397 40.7161 41.4146 40.7297C41.6126 40.8835 41.8146 41.0327 42.0203 41.1772C42.0368 41.1887 42.0499 41.204 42.0586 41.2215C42.0674 41.239 42.0714 41.2582 42.0703 41.2776C42.0692 41.2969 42.0631 41.3156 42.0526 41.3322C42.042 41.3488 42.0272 41.3626 42.0096 41.3725C41.0376 41.9073 40.0194 42.3637 38.9659 42.7369C38.9495 42.7428 38.9346 42.7518 38.9223 42.7635C38.9099 42.7751 38.9002 42.7891 38.894 42.8045C38.8877 42.8199 38.885 42.8364 38.8859 42.8529C38.8869 42.8694 38.8915 42.8854 38.8995 42.9001C39.483 43.9616 40.1484 44.9813 40.8903 45.9511C40.9053 45.971 40.9266 45.9859 40.9512 45.9937C40.9757 46.0016 41.0023 46.002 41.0271 45.9948C44.5347 44.9834 47.8335 43.4154 50.7812 41.3582C50.7956 41.3483 50.8076 41.3357 50.8163 41.3211C50.8251 41.3065 50.8304 41.2903 50.832 41.2737C51.6454 33.3497 49.4702 26.4666 45.0659 20.3648ZM25.0326 37.0988C23.111 37.0988 21.5276 35.4372 21.5276 33.3964C21.5276 31.3556 23.0803 29.6938 25.0326 29.6938C27.0002 29.6938 28.5682 31.3701 28.5375 33.3963C28.5375 35.4372 26.9848 37.0988 25.0326 37.0988ZM37.9915 37.0988C36.07 37.0988 34.4866 35.4372 34.4866 33.3964C34.4866 31.3556 36.0393 29.6938 37.9915 29.6938C39.9592 29.6938 41.5272 31.3701 41.4965 33.3963C41.4965 35.4372 39.9592 37.0988 37.9915 37.0988Z" fill="white"/>
</svg>
