<svg width="64" height="64" viewBox="0 0 64 64" fill="none" xmlns="http://www.w3.org/2000/svg">
<path d="M39.9987 30.4749V41.4754C39.9991 43.852 38.5373 45.9801 36.3295 46.817L32.4614 48.284C31.7203 48.5658 30.9284 48.0133 30.9294 47.2152V33.814L23.3541 36.6018C22.4626 36.9328 21.8707 37.7888 21.8712 38.7461V56.7149C21.8712 58.3012 23.4345 59.4037 24.9152 58.8592L47.6075 50.5048C49.8416 49.684 51.3281 47.5427 51.3281 45.1452V22.3163C51.3264 24.7117 49.8405 26.8512 47.6075 27.6736L39.9987 30.4749ZM39.9987 29.2779V25.9771C39.9987 23.5986 38.535 21.4695 36.325 20.6332L32.4659 19.1707C31.725 18.8915 30.9351 19.4425 30.9339 20.2395V30.5672C30.9339 32.1444 29.3817 33.247 27.9078 32.7182L13.1771 27.4171C12.2745 27.0927 11.6719 26.2315 11.6719 25.2661V7.28372C11.6719 5.70644 13.224 4.60391 14.7002 5.13492L47.5695 16.9612C49.4454 17.6365 50.8316 19.2544 51.2209 21.2227C50.9172 23.16 48.876 26.0108 47.2234 26.6183L39.9987 29.2779Z" fill="#0B53CE"/>
</svg>
