<svg width="64" height="64" viewBox="0 0 64 64" fill="none" xmlns="http://www.w3.org/2000/svg">
<g clip-path="url(#clip0_9201_242)">
<mask id="mask0_9201_242" style="mask-type:luminance" maskUnits="userSpaceOnUse" x="-6" y="-6" width="76" height="76">
<path d="M-5.80005 -5.8H69.7999V69.7999H-5.80005V-5.8Z" fill="white"/>
</mask>
<g mask="url(#mask0_9201_242)">
<path d="M59 32C59 17.0883 46.9117 5 32 5C17.0883 5 5 17.0883 5 32C5 44.6624 13.7172 55.2871 25.4774 58.2049V40.2507H19.9098V32H25.4774V28.4447C25.4774 19.2548 29.6363 14.9953 38.6586 14.9953C40.3691 14.9953 43.3207 15.3306 44.5281 15.6661V23.1455C43.8908 23.0784 42.784 23.0448 41.4089 23.0448C36.9816 23.0448 35.271 24.7219 35.271 29.082V32H44.0902L42.5751 40.2507H35.271V58.8022C48.6399 57.1875 59 45.8043 59 32Z" fill="#0866FF"/>
<path d="M42.5751 40.2508L44.0902 32H35.2711V29.082C35.2711 24.7218 36.9816 23.0449 41.4088 23.0449C42.784 23.0449 43.8908 23.0784 44.5281 23.1454V15.6661C43.3206 15.3307 40.3691 14.9952 38.6586 14.9952C29.6364 14.9952 25.4774 19.2549 25.4774 28.4448V32H19.9098V40.2508H25.4774V58.2049C27.5665 58.7231 29.7507 59 32 59C33.1074 59 34.1986 58.9318 35.2711 58.8023V40.2508H42.5751Z" fill="white"/>
</g>
</g>
<defs>
<clipPath id="clip0_9201_242">
<rect width="64" height="64" fill="white"/>
</clipPath>
</defs>
</svg>
