<svg width="262" height="64" viewBox="0 0 262 64" fill="none" xmlns="http://www.w3.org/2000/svg">
<path d="M222.859 53.2693H230.911V40.0132L242.147 53.2693H252L238.919 37.9918L250.093 24.7448H241.127L230.911 36.9543V10L222.859 11.0739V53.2693ZM204.288 24.0141C195.349 24.0141 189.141 30.1322 189.141 39.0026C189.141 47.873 195.349 53.9911 204.288 53.9911C213.227 53.9911 219.435 47.873 219.435 39.0026C219.435 30.1322 213.227 24.0141 204.288 24.0141ZM204.288 47.0067C200.147 47.0067 197.309 43.7491 197.309 39.0026C197.309 34.2561 200.147 30.9985 204.288 30.9985C208.43 30.9985 211.268 34.2561 211.268 39.0026C211.268 43.7491 208.43 47.0067 204.288 47.0067ZM171.564 24.0141C162.625 24.0141 156.417 30.1322 156.417 39.0026C156.417 47.873 162.625 53.9911 171.564 53.9911C180.503 53.9911 186.711 47.873 186.711 39.0026C186.711 30.1322 180.503 24.0141 171.564 24.0141ZM171.564 47.0067C167.422 47.0067 164.584 43.7491 164.584 39.0026C164.584 34.2561 167.422 30.9985 171.564 30.9985C175.705 30.9985 178.543 34.2561 178.543 39.0026C178.543 43.7491 175.705 47.0067 171.564 47.0067ZM140.746 24.0141C137.022 24.0141 133.935 25.503 132.002 28.2281V10L123.941 11.0648V53.2602H131.089L131.23 48.8566C133.137 52.1412 136.551 53.9911 140.746 53.9911C148.391 53.9911 153.987 47.6743 153.987 39.0026C153.987 30.3306 148.417 24.0141 140.746 24.0141ZM138.84 47.0067C134.698 47.0067 131.86 43.7491 131.86 39.0026C131.86 34.2561 134.698 30.9985 138.84 30.9985C142.981 30.9985 145.819 34.2561 145.819 39.0026C145.819 43.7491 142.981 47.0067 138.84 47.0067ZM107.8 47.3766C103.526 47.3766 100.457 45.3553 99.4109 41.8722H119.249C119.445 40.8075 119.578 39.544 119.578 38.6958C119.578 29.5185 114.531 24.0141 106.053 24.0141C97.4953 24.0141 91.5711 30.1322 91.5711 39.0026C91.5711 47.9903 97.7791 53.9911 106.993 53.9911C111.764 53.9911 116.403 52.3669 119.303 49.6687L116.403 44.4712C113.591 46.4472 110.833 47.3766 107.8 47.3766ZM106 30.3848C109.725 30.3848 112.101 32.6858 112.101 36.2502V36.2775H99.2424C100.014 32.4965 102.417 30.3848 106 30.3848ZM78.9604 54C83.1286 54 87.2079 52.3758 90.0811 49.5603L86.9329 44.1732C84.698 45.942 82.1619 46.8983 79.7585 46.8983C75.2888 46.8983 72.3091 43.7219 72.3091 39.0115C72.3091 34.3011 75.2888 31.1247 79.7585 31.1247C81.9666 31.1247 84.37 31.9368 86.3211 33.3717L89.5226 27.867C86.9329 25.4849 82.9245 24.023 78.9514 24.023C70.2073 24.023 64.026 30.2314 64.026 39.0115C64.0348 47.7646 70.216 54 78.9604 54ZM53.3573 24.7448L53.2156 29.1847C51.3088 25.8729 47.8945 24.023 43.6998 24.023C36.0286 24.023 30.4592 30.3398 30.4592 39.0115C30.4592 47.6835 36.0641 54 43.6998 54C47.8945 54 51.3175 52.1501 53.2156 48.8655L53.3573 53.269H60.5052V24.7448H53.3573ZM45.6064 47.0067C41.465 47.0067 38.627 43.7491 38.627 39.0026C38.627 34.2561 41.465 30.9985 45.6064 30.9985C49.748 30.9985 52.5857 34.2561 52.5857 39.0026C52.5857 43.7491 49.739 47.0067 45.6064 47.0067ZM29.8561 24.7984H22.6107V22.3618C22.6107 18.7162 24.012 17.3176 27.648 17.3176C28.7742 17.3176 29.6876 17.3446 30.2109 17.3988V11.1454C29.2175 10.8655 26.7967 10.5859 25.3954 10.5859C17.9902 10.5859 14.576 14.1412 14.576 21.8204V24.7892H10V31.6836H14.576V53.2596H22.6195V31.6925H28.6147L29.8561 24.7984Z" fill="#0766FF"/>
</svg>
