<svg width="64" height="64" viewBox="0 0 64 64" fill="none" xmlns="http://www.w3.org/2000/svg">
<path d="M33.8663 34.0039L34.0007 33.8763C34.0919 33.796 34.1831 33.7062 34.2647 33.6164L34.4495 33.4368L35.0015 32.9004L38.2031 29.7835L39.0071 29.0013C39.1583 28.8524 39.3191 28.7106 39.4751 28.5689C40.7847 27.3925 42.2579 26.4058 43.8503 25.6386C44.6375 25.2667 45.4508 24.9508 46.2839 24.6934C45.1693 20.3669 43.1231 16.3269 40.2839 12.8473C40.0124 12.5157 39.6687 12.2484 39.2782 12.0652C38.8877 11.8819 38.4604 11.7874 38.0279 11.7886H14.8679C14.4527 11.7886 14.2775 12.318 14.6111 12.5566C22.5158 18.2705 29.0667 25.6058 33.8111 34.0559C33.8279 34.0417 33.8495 34.0252 33.8663 34.0039Z" fill="#00D6B9"/>
<path d="M24.6815 54.0807C30.5549 54.0824 36.3142 52.4834 41.3216 49.4608C46.329 46.4382 50.3889 42.11 53.0519 36.9554C52.7807 37.4753 52.4687 37.9715 52.1447 38.4323C51.4128 39.4671 50.524 40.3852 49.5095 41.1546C49.3063 41.309 49.0965 41.4549 48.8807 41.5918C48.6055 41.7747 48.3228 41.9466 48.0335 42.1069C47.4765 42.4164 46.8936 42.6781 46.2911 42.8891C44.8422 43.4013 43.3111 43.651 41.7719 43.6264C41.3518 43.6204 40.9322 43.5959 40.5143 43.5531C39.9258 43.4866 39.3417 43.3872 38.7647 43.2554C38.6207 43.2176 38.4767 43.1869 38.3327 43.1514C37.9319 43.0474 37.5407 42.934 37.1447 42.8206C36.9479 42.7639 36.7511 42.7119 36.5543 42.6504C36.2591 42.5606 35.9639 42.4803 35.6759 42.3905L34.9559 42.166L34.2743 41.9439L33.8135 41.7856C33.6255 41.7256 33.439 41.6609 33.2543 41.5918C33.1186 41.548 32.9842 41.5007 32.8511 41.45C32.5871 41.3555 32.3231 41.2633 32.0639 41.1664L31.6103 40.9963L31.0055 40.7647C30.7919 40.682 30.5735 40.5993 30.3599 40.5119L29.9447 40.3464C29.7695 40.2803 29.6039 40.2047 29.4287 40.1385L29.0351 39.9731L28.6271 39.7958L28.2719 39.6399L27.9455 39.4981L27.6119 39.3492C27.4982 39.2973 27.3846 39.2453 27.2711 39.1933C27.1284 39.125 26.9844 39.0596 26.8391 38.9971C26.6879 38.931 26.5439 38.8553 26.3927 38.7892C26.2328 38.715 26.0743 38.6378 25.9175 38.5576C18.6472 35.0529 12.0864 30.2731 6.55664 24.4524C6.49769 24.3887 6.4205 24.3442 6.33529 24.3247C6.25007 24.3052 6.16085 24.3116 6.07942 24.3431C5.99799 24.3746 5.9282 24.4297 5.87927 24.5011C5.83035 24.5725 5.8046 24.6569 5.80544 24.743L5.82224 46.507C5.82224 47.4522 6.29744 48.3478 7.10144 48.8701C12.3092 52.2804 18.4271 54.0936 24.6815 54.0807Z" fill="#3370FF"/>
<path d="M59.8054 25.7143C57.3043 24.5022 54.553 23.8747 51.7654 23.8805C49.9058 23.8766 48.0568 24.1555 46.2838 24.7076C46.1542 24.7454 46.027 24.7903 45.9046 24.8258C45.2055 25.0637 44.5205 25.3398 43.8526 25.6528C43.4008 25.8676 42.9588 26.1017 42.5278 26.3547C42.0885 26.608 41.6616 26.8816 41.2486 27.1747C40.9534 27.385 40.6654 27.6 40.3774 27.8245C40.0654 28.0703 39.7726 28.3231 39.4774 28.5831C39.3166 28.7248 39.1654 28.8737 39.007 29.0179L38.2054 29.793L34.9942 32.9146L34.4422 33.4534L34.2598 33.6306C34.1686 33.7204 34.0774 33.8031 33.9958 33.8905L33.859 34.0181C33.793 34.0832 33.7249 34.1462 33.655 34.2072C33.5782 34.2734 33.5038 34.349 33.427 34.4151C31.4356 36.2172 29.2194 37.7625 26.8318 39.0137C26.9758 39.0799 27.1198 39.1484 27.2638 39.2075L27.6046 39.3634C27.7102 39.4154 27.823 39.4603 27.9382 39.5123L28.2622 39.6541L28.6198 39.8124L29.0278 39.9896L29.4214 40.1551C29.5966 40.2283 29.7622 40.2968 29.9374 40.363C30.0718 40.4221 30.2158 40.4741 30.3526 40.5284C30.5638 40.6088 30.7774 40.6986 30.9958 40.7813C31.1998 40.8545 31.399 40.9372 31.603 41.0129L32.0566 41.183C32.3206 41.2799 32.5798 41.3768 32.8438 41.4666C32.9806 41.5115 33.1078 41.5634 33.2446 41.6083C33.4366 41.6745 33.6166 41.7336 33.8062 41.8021L34.267 41.9581L34.9486 42.1826L35.6686 42.4071C35.9638 42.4945 36.2518 42.5843 36.547 42.667L37.1374 42.8372C37.531 42.9506 37.9318 43.0616 38.3254 43.168C38.4694 43.2034 38.6134 43.2389 38.7574 43.2696C39.031 43.3381 39.3022 43.3877 39.5734 43.435C39.8854 43.487 40.1974 43.5295 40.507 43.5697C41.2994 43.6517 42.0976 43.6667 42.8926 43.6146C44.0511 43.5357 45.1926 43.297 46.2838 42.9057C46.8836 42.6853 47.466 42.4215 48.0262 42.1164C48.1702 42.0337 48.319 41.951 48.463 41.8612C48.8163 41.6385 49.1621 41.4045 49.4998 41.1594C49.9907 40.7855 50.4535 40.3772 50.8846 39.9377C51.1988 39.6156 51.4952 39.2772 51.7726 38.9239C52.2495 38.3088 52.6726 37.6551 53.0374 36.9696L53.3494 36.36L56.1478 30.8658L56.1406 30.88C57.034 28.9535 58.2758 27.2032 59.8054 25.7143Z" fill="#133C9A"/>
</svg>
