<svg width="64" height="64" viewBox="0 0 64 64" fill="none" xmlns="http://www.w3.org/2000/svg">
<path d="M10.0243 26.2415C8.77667 27.3012 6.33755 30.3993 6.57302 34.3224C6.8085 38.2447 8.62466 42.2689 9.5033 43.7907C10.787 46.5997 14.4325 51.8004 18.7405 50.1257C22.7594 48.5617 23.9623 47.8184 24.2092 47.6655L24.2241 47.6567C24.2319 47.6519 24.2399 47.6472 24.2478 47.6427C24.3849 49.9307 24.8207 53.9065 25.26 54.6674C25.6387 55.3238 26.6615 56.0645 27.6992 55.098C28.5216 54.3318 28.4065 53.2941 28.3564 52.8399C28.3502 52.7828 28.345 52.7344 28.3423 52.6975L31.4035 56.416C31.6267 56.6866 31.885 56.9317 32.2189 57.0398C33.4762 57.4492 36.3397 57.5283 39.5257 55.3721C42.1959 57.8894 44.0639 58.8401 45.0436 58.7813C45.2633 57.9615 45.0032 56.8851 44.7238 55.7332C44.5946 55.1981 44.4602 54.6472 44.3697 54.0981C44.2027 53.0973 44.4206 53.0086 44.6544 52.9128L44.6913 52.8979C45.779 52.4383 47.7349 51.1406 48.2761 50.3208C48.9606 49.284 49.1811 45.7387 47.4238 42.695C47.1585 42.2346 47.5249 42.4604 48.1162 42.8251C48.9905 43.3646 50.3594 44.2081 50.9094 43.5877C51.586 42.8242 50.8339 41.551 50.3664 40.7585L50.2487 40.5573L46.8518 36.4312C50.1687 34.8549 56.7673 31.1127 56.6259 28.7589C56.965 26.5341 55.2921 22.9343 54.4135 21.4125L50.4596 14.5644C49.8744 13.5495 47.886 11.6877 44.6192 12.3554C40.5361 13.1919 28.287 15.6978 17.4137 21.4679C14.4993 22.7454 11.2729 25.1828 10.0243 26.2415Z" fill="#FFB400"/>
<path d="M24.1327 24.6125L25.4226 23.9711C25.702 24.0361 25.9568 24.1046 26.1826 24.1723L26.6272 23.3719L27.2554 22.2384L27.2607 22.2314C28.2606 20.5918 31.3754 17.3962 35.8829 17.7898C40.349 18.1799 42.5017 21.2306 43.0341 22.7823C43.5402 23.9983 43.9418 27.0279 41.8093 29.9591C40.2734 32.0696 37.8352 33.1468 35.3689 33.6722C32.9912 34.1792 30.531 34.1853 28.6894 34.0781L26.9813 36.005C26.2608 36.7809 24.9253 37.8133 23.2207 38.4441C21.51 39.0776 19.4092 39.3113 17.1915 38.445C14.9333 37.5628 13.8394 35.8161 13.3957 34.0281C12.9564 32.2585 13.1462 30.4283 13.4555 29.2737C13.6681 28.4829 14.2726 27.4927 15.1337 26.5692C16.0035 25.6396 17.1669 24.7443 18.5375 24.1662C19.9346 23.5775 21.5662 23.4861 23.0098 23.595C23.8981 23.6636 24.7329 23.8085 25.4226 23.9702L24.1327 24.6116V24.6125ZM28.0155 22.6812L26.5982 25.2337L26.2503 25.116C25.5593 24.8908 24.8511 24.7224 24.1327 24.6125L14.3042 29.5013C14.0239 30.5469 13.8535 32.2224 14.2489 33.8172C14.6407 35.3944 15.5774 36.8713 17.5113 37.627C19.4865 38.3984 21.3606 38.1963 22.9167 37.62C24.4772 37.0427 25.6976 36.0938 26.3346 35.4102L28.3168 33.1749L28.5312 33.1881C30.3562 33.3058 32.8261 33.3164 35.1861 32.8129C37.5497 32.3094 39.7436 31.3043 41.0994 29.4415C43.0306 26.7863 42.6273 24.0783 42.2179 23.1091L42.2117 23.0942L42.2065 23.0793C41.7724 21.7964 39.8745 19.0199 35.8064 18.665C31.7734 18.3135 28.931 21.1867 28.0155 22.6812ZM24.1327 24.6125L14.3042 29.5013C14.4659 28.8994 14.9702 28.0322 15.776 27.1694C16.5755 26.3144 17.6387 25.4982 18.8793 24.9754C20.0936 24.4631 21.5671 24.3674 22.9431 24.4719C23.356 24.5036 23.7558 24.5528 24.1327 24.6125Z" fill="black"/>
<path d="M26.3926 24.6995C24.9183 24.1978 21.3193 23.4694 18.708 24.5703C16.0984 25.6722 14.2533 27.9944 13.8798 29.3871C13.2912 31.5881 13.1594 36.3986 17.3514 38.0356C21.5434 39.6734 25.3031 37.1648 26.6589 35.7054L28.5023 33.6265C32.1908 33.8646 38.5627 33.674 41.4535 29.6999C43.4911 26.9014 43.0816 24.0256 42.6221 22.9378C42.1441 21.5232 40.1179 18.6008 35.8451 18.2274C31.5714 17.854 28.591 20.8932 27.6359 22.4598L26.3926 24.7004V24.6995Z" fill="white"/>
<path d="M26.3926 24.6995C24.9183 24.1978 21.3193 23.4694 18.708 24.5703C16.0984 25.6722 14.2533 27.9944 13.8798 29.3871C13.2912 31.5881 13.1594 36.3986 17.3514 38.0356C21.5434 39.6734 25.3031 37.1648 26.6589 35.7054L28.5023 33.6265C32.1908 33.8646 38.5627 33.674 41.4535 29.6999C43.4911 26.9014 43.0816 24.0256 42.6221 22.9378C42.1441 21.5232 40.1179 18.6008 35.8451 18.2274C31.5714 17.854 28.591 20.8932 27.6359 22.4598L26.3926 24.7004V24.6995Z" fill="white"/>
<path d="M37.1472 26.5297C37.323 26.8296 37.4378 27.1613 37.4849 27.5057C37.532 27.8502 37.5105 28.2005 37.4216 28.5366C37.3328 28.8727 37.1783 29.1878 36.9672 29.464C36.756 29.7401 36.4923 29.9718 36.1913 30.1456C35.8902 30.3194 35.5577 30.432 35.213 30.4768C34.8683 30.5216 34.5181 30.4978 34.1826 30.4067C33.8471 30.3156 33.533 30.1591 33.2582 29.9461C32.9835 29.7331 32.7536 29.4679 32.5818 29.1657C32.2378 28.5606 32.147 27.8439 32.3294 27.1722C32.5118 26.5004 32.9525 25.9281 33.5553 25.5801C34.1581 25.232 34.8741 25.1365 35.547 25.3145C36.2199 25.4924 36.7952 25.9292 37.1472 26.5297ZM26.3179 29.7377C26.4937 30.0375 26.6085 30.3693 26.6556 30.7137C26.7027 31.0581 26.6812 31.4084 26.5923 31.7445C26.5035 32.0806 26.349 32.3958 26.1379 32.6719C25.9267 32.9481 25.663 33.1797 25.362 33.3535C25.0609 33.5273 24.7284 33.6399 24.3837 33.6847C24.039 33.7295 23.6888 33.7057 23.3533 33.6146C23.0178 33.5235 22.7037 33.367 22.4289 33.154C22.1542 32.941 21.9243 32.6758 21.7525 32.3736C21.4085 31.7685 21.3177 31.0519 21.5001 30.3801C21.6825 29.7084 22.1232 29.136 22.726 28.788C23.3288 28.44 24.0448 28.3445 24.7177 28.5224C25.3907 28.7003 25.9659 29.1372 26.3179 29.7377ZM24.9473 6.80679C25.0432 6.1817 25.3835 5.6203 25.8933 5.2461C26.4031 4.87189 27.0407 4.71552 27.6658 4.81139L29.6093 5.11013C29.9212 5.15495 30.2211 5.26113 30.4916 5.42252C30.7622 5.58391 30.9981 5.79732 31.1857 6.05042C31.3734 6.30351 31.509 6.59127 31.5847 6.89708C31.6605 7.20289 31.6749 7.52068 31.6271 7.83209C31.5793 8.14349 31.4703 8.44235 31.3064 8.71139C31.1425 8.98042 30.9268 9.21431 30.672 9.39953C30.4171 9.58474 30.1281 9.71762 29.8216 9.79049C29.5151 9.86336 29.1972 9.87477 28.8862 9.82406L28.4697 9.75991L27.6447 17.0843L26.665 17.3804L27.599 9.62636L26.9427 9.52532C26.3176 9.4294 25.7562 9.0891 25.382 8.57929C25.0078 8.06947 24.8514 7.43189 24.9473 6.80679ZM10.5313 18.4497C10.1538 18.0721 9.94165 17.5599 9.94165 17.0259C9.94165 16.4918 10.1538 15.9797 10.5313 15.602L11.7816 14.3517C11.9669 14.1575 12.1892 14.0023 12.4353 13.8953C12.6814 13.7882 12.9465 13.7314 13.2149 13.7283C13.4833 13.7251 13.7496 13.7756 13.9982 13.8769C14.2467 13.9781 14.4726 14.128 14.6624 14.3177C14.8522 14.5075 15.0022 14.7333 15.1035 14.9819C15.2048 15.2304 15.2554 15.4967 15.2523 15.7651C15.2492 16.0335 15.1925 16.2985 15.0856 16.5447C14.9786 16.7909 14.8235 17.0132 14.6293 17.1985L14.4492 17.3804L18.8582 20.5989L17.9796 21.0382L13.8183 18.0113L13.379 18.4506C13.0014 18.8282 12.4892 19.0403 11.9552 19.0403C11.4211 19.0403 10.909 18.8282 10.5313 18.4506V18.4497ZM27.1843 40.2823C27.49 40.5793 27.9109 40.9869 28.4917 41.2005C29.2412 41.4763 30.227 41.4315 31.5968 40.6399C32.3876 40.1839 33.3014 39.343 34.1185 38.4635C34.9383 37.5813 35.6773 36.642 36.1183 35.9743L35.7519 35.7318C35.3267 36.3758 34.6027 37.2958 33.7961 38.1647C32.986 39.0364 32.1091 39.8377 31.3772 40.2603C30.0838 41.0071 29.2359 41.0063 28.6437 40.7875C28.1605 40.6109 27.8266 40.2884 27.5226 39.9967C27.4404 39.9159 27.3566 39.8368 27.2713 39.7595L26.9796 40.089C27.0411 40.1434 27.1096 40.2093 27.1843 40.2823ZM29.6568 48.2656C29.555 48.2865 29.4583 48.3271 29.3723 48.3853C29.2862 48.4435 29.2125 48.5181 29.1553 48.6048C29.098 48.6914 29.0584 48.7886 29.0387 48.8906C29.019 48.9925 29.0196 49.0974 29.0404 49.1992C29.0612 49.301 29.1019 49.3976 29.1601 49.4837C29.2183 49.5697 29.2929 49.6435 29.3795 49.7007C29.4662 49.758 29.5633 49.7976 29.6653 49.8173C29.7673 49.837 29.8722 49.8364 29.974 49.8156C32.1328 49.3736 34.8619 48.1549 37.4073 46.8009C39.9677 45.4373 42.4138 43.897 44.027 42.7592C44.1931 42.6362 44.3044 42.4531 44.3372 42.2491C44.3699 42.0451 44.3216 41.8363 44.2024 41.6675C44.0832 41.4987 43.9027 41.3833 43.6994 41.3459C43.4962 41.3086 43.2864 41.3522 43.115 41.4676C41.5563 42.5667 39.1664 44.0727 36.6631 45.4039C34.144 46.7456 31.5819 47.872 29.6568 48.2656ZM30.799 52.274C30.757 52.0687 30.7982 51.8551 30.9135 51.6802C31.0288 51.5052 31.2088 51.3832 31.4141 51.3409C33.3445 50.9455 35.7212 49.9254 38.0426 48.6979C40.1394 47.5839 42.1661 46.3427 44.1114 44.9813C44.2828 44.8603 44.4952 44.8124 44.7019 44.8481C44.9086 44.8838 45.0927 45.0001 45.2136 45.1715C45.3346 45.3429 45.3825 45.5553 45.3468 45.762C45.3111 45.9687 45.1948 46.1528 45.0234 46.2737C43.0228 47.674 40.9382 48.9504 38.7815 50.0958C36.4188 51.3453 33.8839 52.4506 31.7313 52.8899C31.526 52.932 31.3124 52.8908 31.1374 52.7755C30.9625 52.6602 30.8405 52.4801 30.7981 52.2749L30.799 52.274ZM33.362 53.7677C33.1679 53.8074 32.9975 53.9227 32.8884 54.088C32.7792 54.2534 32.7402 54.4553 32.7799 54.6494C32.8197 54.8435 32.9349 55.0139 33.1002 55.1231C33.2656 55.2323 33.4675 55.2713 33.6616 55.2315C37.9073 54.3625 42.9929 51.3066 46.1762 49.0617C46.3381 48.9475 46.4481 48.7737 46.4819 48.5784C46.5157 48.3831 46.4705 48.1824 46.3563 48.0205C46.2421 47.8585 46.0683 47.7486 45.873 47.7148C45.6778 47.681 45.4771 47.7262 45.3151 47.8404C42.1538 50.0704 37.2834 52.9655 33.362 53.7686V53.7677Z" fill="black"/>
<path d="M24.2469 47.6427L24.3805 48.7515C30.8579 45.3512 43.766 38.1024 44.1641 37.3292C43.7819 37.5506 42.2811 38.3053 40.1961 39.3544C35.8108 41.5598 28.8387 45.0683 24.2469 47.6427Z" fill="#E5A200"/>
</svg>
