<svg width="64" height="64" viewBox="0 0 64 64" fill="none" xmlns="http://www.w3.org/2000/svg">
<path d="M16.8358 14.1225V54.0662H6.90842C4.0485 53.6439 3.0796 51.4682 2.95264 50.4331L2.98662 14.8198C4.41658 8.91239 9.49478 9.45661 11.8721 10.4618L16.8358 14.1225Z" fill="#1E85E2"/>
<path d="M32.126 42.8938L2.97144 20.8645V14.8026C4.39153 8.88482 9.48284 9.44129 11.851 10.4592L32.126 25.3215L47.4796 14.1918V31.2935L32.126 42.8938Z" fill="#D10B06" fill-opacity="0.83"/>
<path d="M47.4781 14.5393V54.1827H57.1808C59.9761 53.7636 60.923 51.6042 61.0471 50.5769V15.5436C59.6495 9.68062 54.653 9.90848 52.3295 10.9061L47.4781 14.5393Z" fill="#4AAD4E"/>
<path d="M47.478 31.2918V14.1993L52.1332 10.6136C58.5585 8.20775 60.7528 12.9317 61.0468 15.5944V21.2397L47.478 31.2918Z" fill="#F8C02D"/>
</svg>
