<svg width="64" height="64" viewBox="0 0 64 64" fill="none" xmlns="http://www.w3.org/2000/svg">
<path d="M16.3001 32C16.3001 30.2456 16.5994 28.5625 17.129 26.9854L7.83195 20.0322C5.96403 23.7448 4.99402 27.844 5.00003 32C5.00003 36.3008 6.01768 40.3576 7.82735 43.9586L17.1198 36.9939C16.5779 35.3846 16.3011 33.698 16.3001 32Z" fill="#FBBC05"/>
<path d="M32.6287 16.0376C36.5197 16.0376 40.0354 17.3868 42.7983 19.5971L50.8359 11.7391C45.9387 7.56484 39.6601 4.98618 32.6287 4.98618C21.7108 4.98618 12.3263 11.099 7.83203 20.0322L17.1336 26.9854C19.2749 20.617 25.3808 16.0376 32.6287 16.0376Z" fill="#EA4335"/>
<path d="M32.6287 47.9624C25.3785 47.9624 19.2726 43.383 17.129 37.0146L7.83203 43.9678C12.324 52.901 21.7085 59.0138 32.6287 59.0138C39.3654 59.0138 45.7983 56.6723 50.6287 52.2817L41.8013 45.6002C39.3125 47.1358 36.1766 47.9624 32.6264 47.9624" fill="#34A853"/>
<path d="M59 32C59 30.4044 58.7467 28.6846 58.3714 27.089H32.6262V37.5257H47.4443C46.7053 41.0852 44.6884 43.8204 41.8035 45.6001L50.6285 52.2816C55.7007 47.6723 59 40.8066 59 32Z" fill="#4285F4"/>
</svg>
