<svg width="203" height="64" viewBox="0 0 203 64" fill="none" xmlns="http://www.w3.org/2000/svg">
<path d="M10.5398 15.5782H16.8846V29.4709H30.2661V15.5782H36.6191V49.6806H30.2661V35.4961H16.8846V49.6806H10.5398V15.5782ZM56.7193 38.5729C56.7193 41.4277 54.3594 43.7508 51.4635 43.7508C48.5666 43.7508 46.2081 41.4277 46.2081 38.5729V23.8906H40.191V38.5729C40.191 44.6983 45.2481 49.6806 51.4635 49.6806C57.6775 49.6806 62.7343 44.6983 62.7343 38.5729V23.8906H56.7193V38.5729ZM79.5317 24.0626C76.547 24.0626 74.4635 24.9163 72.4516 26.8628V15.5782H66.4149V36.4916C66.4149 44.3196 72.1576 49.6806 78.6094 49.6806C85.7819 49.6806 92.0663 44.224 92.0663 36.872C92.0663 29.6132 86.2713 24.0626 79.5317 24.0626ZM79.6817 44.1767C75.5913 44.1767 72.4633 40.8098 72.4633 36.872C72.4633 32.9334 75.5913 29.5655 79.6817 29.5655C83.1476 29.5655 86.2774 32.9334 86.2774 36.872C86.2774 40.8098 83.1476 44.1767 79.6817 44.1767ZM102.205 25.5615C102.205 22.5708 104.227 21.6226 106.441 21.6226C108.223 21.6226 110.581 22.9509 112.12 24.5642L116.066 20.0103C114.094 17.4014 110.099 15.5982 106.826 15.5982C100.279 15.5982 95.5614 19.3461 95.5614 25.5615C95.5614 37.0892 109.954 33.435 109.954 39.8886C109.954 41.8789 107.982 43.6359 105.72 43.6359C102.157 43.6359 101.001 41.9279 99.3654 40.1247L94.9842 44.5834C97.7777 47.952 101.242 49.6607 105.382 49.6607C111.591 49.6607 116.598 45.8654 116.598 39.9345C116.598 27.1262 102.205 31.1116 102.205 25.5615ZM132.49 23.7285C126.039 23.7285 120.295 29.0863 120.295 36.9161V57.8834H126.331V46.5453C128.344 48.4904 130.426 49.3454 133.412 49.3454C140.151 49.3454 145.947 43.7956 145.947 36.5368C145.947 29.1837 139.661 23.7285 132.49 23.7285ZM133.562 43.8432C129.472 43.8432 126.344 40.4718 126.344 36.5368C126.344 32.5982 129.472 29.2303 133.562 29.2303C137.027 29.2303 140.158 32.5982 140.158 36.5368C140.158 40.4718 137.027 43.8432 133.562 43.8432ZM190.381 44.1767C186.82 44.1767 185.809 42.6593 185.809 40.3338V30.0398H191.344V24.822H185.809V17.9426L179.698 20.646V41.6148C179.698 46.9761 183.451 49.6806 188.599 49.6806C189.369 49.6806 190.43 49.6316 191.008 49.4911L192.5 44.0835C191.826 44.1294 191.057 44.1767 190.381 44.1767Z" fill="#45535E"/>
<path d="M174.462 30.3431C173.304 28.3808 171.677 26.8077 169.641 25.6234C168.121 24.7509 166.544 24.1971 164.767 23.9593V17.7243C166.544 16.9807 167.647 15.3347 167.647 13.4145C167.647 10.7972 165.517 8.67626 162.863 8.67626C160.208 8.67626 158.041 10.7972 158.041 13.4145C158.041 15.3347 159.08 16.9807 160.857 17.7243V23.9621C159.436 24.1645 157.961 24.6013 156.615 25.2725C153.865 23.2142 144.848 16.4619 139.574 12.5181C139.699 12.0736 139.795 11.6154 139.795 11.1321C139.795 8.23315 137.413 5.88348 134.471 5.88348C131.528 5.88348 129.147 8.23315 129.147 11.1321C129.147 14.0306 131.531 16.381 134.473 16.381C135.477 16.381 136.405 16.0917 137.206 15.616L138.32 16.4482L153.615 27.3097C152.806 28.0414 152.053 28.8737 151.451 29.8075C150.23 31.7113 149.484 33.8059 149.484 36.0908V36.5675C149.484 38.1715 149.793 39.6857 150.32 41.1082C150.784 42.3503 151.462 43.4796 152.302 44.5007L147.225 49.5159C146.49 49.2461 145.691 49.1907 144.924 49.3564C144.157 49.5221 143.455 49.902 142.901 50.4505C142.518 50.8264 142.214 51.2735 142.008 51.7659C141.801 52.2584 141.696 52.7864 141.697 53.3193C141.698 54.4027 142.126 55.4209 142.904 56.187C143.285 56.565 143.738 56.8648 144.238 57.0688C144.737 57.2729 145.273 57.3773 145.814 57.3759C146.355 57.3772 146.89 57.2728 147.39 57.0688C147.89 56.8647 148.343 56.565 148.725 56.187C149.108 55.8111 149.412 55.3642 149.618 54.8719C149.825 54.3797 149.931 53.852 149.93 53.3193C149.93 52.9 149.864 52.4909 149.74 52.1021L154.987 46.9302C155.707 47.4199 156.483 47.8322 157.319 48.1877C158.966 48.8896 160.784 49.3173 162.774 49.3173H163.139C165.339 49.3173 167.414 48.808 169.365 47.7663C171.421 46.6654 173.03 45.1599 174.245 43.2379C175.467 41.3107 176.14 39.1813 176.14 36.8387V36.7217C176.14 34.4172 175.599 32.291 174.462 30.3431ZM168.051 41.1923C166.627 42.7521 164.99 43.7129 163.139 43.7129H162.834C161.777 43.7129 160.743 43.4249 159.731 42.9013C158.59 42.3247 157.723 41.5023 157.013 40.4609C156.279 39.4388 155.881 38.3228 155.881 37.1396V36.7802C155.881 35.6169 156.108 34.5139 156.679 33.4721C157.289 32.3334 158.113 31.4479 159.209 30.7438C160.285 30.0447 161.435 29.7017 162.715 29.7017H162.834C163.995 29.7017 165.094 29.9273 166.131 30.4503C167.187 31.0079 168.051 31.7698 168.72 32.7719C169.37 33.7744 169.757 34.8557 169.881 36.0337C169.901 36.2786 169.911 36.5294 169.911 36.769C169.911 38.3676 169.291 39.8483 168.051 41.1923Z" fill="#F8761F"/>
</svg>
