<svg width="64" height="64" viewBox="0 0 64 64" fill="none" xmlns="http://www.w3.org/2000/svg">
<path d="M23.0029 32C23.0029 27.0296 27.0311 22.9993 32.0015 22.9993C36.9718 22.9993 41.0022 27.0296 41.0022 32C41.0022 36.9704 36.9718 41.0007 32.0015 41.0007C27.0311 41.0007 23.0029 36.9704 23.0029 32ZM18.1373 32C18.1373 39.6572 24.3443 45.8642 32.0015 45.8642C39.6587 45.8642 45.8656 39.6572 45.8656 32C45.8656 24.3428 39.6587 18.1358 32.0015 18.1358C24.3443 18.1358 18.1373 24.3428 18.1373 32ZM43.1745 17.5861C43.1742 18.2269 43.364 18.8534 43.7198 19.3864C44.0756 19.9193 44.5815 20.3348 45.1734 20.5803C45.7653 20.8257 46.4168 20.8902 47.0453 20.7654C47.6739 20.6406 48.2513 20.3323 48.7046 19.8793C49.1579 19.4264 49.4667 18.8492 49.592 18.2208C49.7173 17.5923 49.6534 16.9408 49.4084 16.3487C49.1634 15.7566 48.7483 15.2504 48.2156 14.8942C47.6829 14.5379 47.0566 14.3477 46.4158 14.3474H46.4145C45.5555 14.3478 44.7319 14.6891 44.1244 15.2964C43.5169 15.9036 43.1752 16.7272 43.1745 17.5861ZM21.0935 53.9774C18.4611 53.8575 17.0303 53.419 16.0795 53.0486C14.8189 52.5578 13.9195 51.9733 12.9738 51.029C12.0282 50.0846 11.4428 49.186 10.9542 47.9255C10.5836 46.9751 10.1451 45.5438 10.0254 42.9115C9.89451 40.0654 9.86838 39.2105 9.86838 32.0002C9.86838 24.7899 9.89667 23.9374 10.0254 21.089C10.1453 18.4566 10.587 17.0282 10.9542 16.075C11.445 14.8144 12.0295 13.915 12.9738 12.9693C13.9182 12.0237 14.8167 11.4383 16.0795 10.9497C17.0299 10.5791 18.4611 10.1406 21.0935 10.0209C23.9395 9.89002 24.7944 9.86389 32.0015 9.86389C39.2085 9.86389 40.0643 9.89218 42.9127 10.0209C45.5451 10.1408 46.9735 10.5825 47.9267 10.9497C49.1873 11.4383 50.0867 12.025 51.0324 12.9693C51.978 13.9137 52.5612 14.8144 53.052 16.075C53.4226 17.0254 53.8611 18.4566 53.9808 21.089C54.1117 23.9374 54.1378 24.7899 54.1378 32.0002C54.1378 39.2105 54.1117 40.0631 53.9808 42.9115C53.8609 45.5438 53.4202 46.9746 53.052 47.9255C52.5612 49.186 51.9767 50.0855 51.0324 51.029C50.088 51.9724 49.1873 52.5578 47.9267 53.0486C46.9763 53.4192 45.5451 53.8577 42.9127 53.9774C40.0667 54.1082 39.2118 54.1344 32.0015 54.1344C24.7912 54.1344 23.9386 54.1082 21.0935 53.9774ZM20.8699 5.16351C17.9956 5.29441 16.0315 5.75017 14.3162 6.41761C12.5399 7.10686 11.0361 8.03156 9.53336 9.5319C8.03065 11.0322 7.10833 12.5384 6.41907 14.3148C5.75163 16.0311 5.29587 17.9941 5.16498 20.8684C5.03192 23.7473 5.00146 24.6677 5.00146 32C5.00146 39.3323 5.03192 40.2527 5.16498 43.1316C5.29587 46.0061 5.75163 47.9689 6.41907 49.6852C7.10833 51.4605 8.03086 52.9684 9.53336 54.4681C11.0359 55.9678 12.5399 56.8912 14.3162 57.5824C16.0347 58.2498 17.9956 58.7056 20.8699 58.8365C23.7503 58.9674 24.6691 59 32.0015 59C39.3338 59 40.2542 58.9695 43.133 58.8365C46.0076 58.7056 47.9703 58.2498 49.6867 57.5824C51.462 56.8912 52.9669 55.9684 54.4696 54.4681C55.9723 52.9678 56.8927 51.4605 57.5839 49.6852C58.2513 47.9689 58.7092 46.0059 58.838 43.1316C58.9688 40.2506 58.9993 39.3323 58.9993 32C58.9993 24.6677 58.9688 23.7473 58.838 20.8684C58.7071 17.9939 58.2513 16.03 57.5839 14.3148C56.8927 12.5395 55.9699 11.0346 54.4696 9.5319C52.9692 8.02918 51.462 7.10686 49.6888 6.41761C47.9703 5.75017 46.0073 5.29225 43.1352 5.16351C40.2563 5.03262 39.336 5 32.0036 5C24.6713 5 23.7503 5.03046 20.8699 5.16351Z" fill="url(#paint0_radial_8459_3033)"/>
<path d="M23.0029 32C23.0029 27.0296 27.0311 22.9993 32.0015 22.9993C36.9718 22.9993 41.0022 27.0296 41.0022 32C41.0022 36.9704 36.9718 41.0007 32.0015 41.0007C27.0311 41.0007 23.0029 36.9704 23.0029 32ZM18.1373 32C18.1373 39.6572 24.3443 45.8642 32.0015 45.8642C39.6587 45.8642 45.8656 39.6572 45.8656 32C45.8656 24.3428 39.6587 18.1358 32.0015 18.1358C24.3443 18.1358 18.1373 24.3428 18.1373 32ZM43.1745 17.5861C43.1742 18.2269 43.364 18.8534 43.7198 19.3864C44.0756 19.9193 44.5815 20.3348 45.1734 20.5803C45.7653 20.8257 46.4168 20.8902 47.0453 20.7654C47.6739 20.6406 48.2513 20.3323 48.7046 19.8793C49.1579 19.4264 49.4667 18.8492 49.592 18.2208C49.7173 17.5923 49.6534 16.9408 49.4084 16.3487C49.1634 15.7566 48.7483 15.2504 48.2156 14.8942C47.6829 14.5379 47.0566 14.3477 46.4158 14.3474H46.4145C45.5555 14.3478 44.7319 14.6891 44.1244 15.2964C43.5169 15.9036 43.1752 16.7272 43.1745 17.5861ZM21.0935 53.9774C18.4611 53.8575 17.0303 53.419 16.0795 53.0486C14.8189 52.5578 13.9195 51.9733 12.9738 51.029C12.0282 50.0846 11.4428 49.186 10.9542 47.9255C10.5836 46.9751 10.1451 45.5438 10.0254 42.9115C9.89451 40.0654 9.86838 39.2105 9.86838 32.0002C9.86838 24.7899 9.89667 23.9374 10.0254 21.089C10.1453 18.4566 10.587 17.0282 10.9542 16.075C11.445 14.8144 12.0295 13.915 12.9738 12.9693C13.9182 12.0237 14.8167 11.4383 16.0795 10.9497C17.0299 10.5791 18.4611 10.1406 21.0935 10.0209C23.9395 9.89002 24.7944 9.86389 32.0015 9.86389C39.2085 9.86389 40.0643 9.89218 42.9127 10.0209C45.5451 10.1408 46.9735 10.5825 47.9267 10.9497C49.1873 11.4383 50.0867 12.025 51.0324 12.9693C51.978 13.9137 52.5612 14.8144 53.052 16.075C53.4226 17.0254 53.8611 18.4566 53.9808 21.089C54.1117 23.9374 54.1378 24.7899 54.1378 32.0002C54.1378 39.2105 54.1117 40.0631 53.9808 42.9115C53.8609 45.5438 53.4202 46.9746 53.052 47.9255C52.5612 49.186 51.9767 50.0855 51.0324 51.029C50.088 51.9724 49.1873 52.5578 47.9267 53.0486C46.9763 53.4192 45.5451 53.8577 42.9127 53.9774C40.0667 54.1082 39.2118 54.1344 32.0015 54.1344C24.7912 54.1344 23.9386 54.1082 21.0935 53.9774ZM20.8699 5.16351C17.9956 5.29441 16.0315 5.75017 14.3162 6.41761C12.5399 7.10686 11.0361 8.03156 9.53336 9.5319C8.03065 11.0322 7.10833 12.5384 6.41907 14.3148C5.75163 16.0311 5.29587 17.9941 5.16498 20.8684C5.03192 23.7473 5.00146 24.6677 5.00146 32C5.00146 39.3323 5.03192 40.2527 5.16498 43.1316C5.29587 46.0061 5.75163 47.9689 6.41907 49.6852C7.10833 51.4605 8.03086 52.9684 9.53336 54.4681C11.0359 55.9678 12.5399 56.8912 14.3162 57.5824C16.0347 58.2498 17.9956 58.7056 20.8699 58.8365C23.7503 58.9674 24.6691 59 32.0015 59C39.3338 59 40.2542 58.9695 43.133 58.8365C46.0076 58.7056 47.9703 58.2498 49.6867 57.5824C51.462 56.8912 52.9669 55.9684 54.4696 54.4681C55.9723 52.9678 56.8927 51.4605 57.5839 49.6852C58.2513 47.9689 58.7092 46.0059 58.838 43.1316C58.9688 40.2506 58.9993 39.3323 58.9993 32C58.9993 24.6677 58.9688 23.7473 58.838 20.8684C58.7071 17.9939 58.2513 16.03 57.5839 14.3148C56.8927 12.5395 55.9699 11.0346 54.4696 9.5319C52.9692 8.02918 51.462 7.10686 49.6888 6.41761C47.9703 5.75017 46.0073 5.29225 43.1352 5.16351C40.2563 5.03262 39.336 5 32.0036 5C24.6713 5 23.7503 5.03046 20.8699 5.16351Z" fill="url(#paint1_radial_8459_3033)"/>
<defs>
<radialGradient id="paint0_radial_8459_3033" cx="0" cy="0" r="1" gradientUnits="userSpaceOnUse" gradientTransform="translate(12.1757 59.2551) scale(70.4925 70.4925)">
<stop offset="0.09" stop-color="#FA8F21"/>
<stop offset="0.78" stop-color="#D82D7E"/>
</radialGradient>
<radialGradient id="paint1_radial_8459_3033" cx="0" cy="0" r="1" gradientUnits="userSpaceOnUse" gradientTransform="translate(37.7501 61.6743) scale(55.5578)">
<stop offset="0.64" stop-color="#8C3AAA" stop-opacity="0"/>
<stop offset="1" stop-color="#8C3AAA"/>
</radialGradient>
</defs>
</svg>
