<svg width="175" height="64" viewBox="0 0 175 64" fill="none" xmlns="http://www.w3.org/2000/svg">
<path d="M21.8669 10.142C20.7958 10.5504 19.0316 12.7496 17.992 14.9174C16.5743 17.9335 15.9442 20.604 15.9442 23.6829C15.9442 25.9135 16.0702 26.6361 16.7948 28.2384C17.2674 29.2438 18.0235 30.5005 18.496 31.0031C19.5672 32.1342 21.5519 33.0453 22.9066 33.0767C23.7572 33.0767 23.9147 33.2024 23.9147 33.8621C23.9147 34.302 23.6312 35.3387 23.3161 36.2184C21.9299 39.8314 19.1261 41.8735 15.4402 41.8735C12.8254 41.8735 10.9351 41.0253 10.242 39.5487C9.39145 37.7579 9.58047 36.6583 11.0296 34.8989C12.0063 33.7679 12.3843 33.0138 12.5103 31.9771C12.6363 30.7204 12.5733 30.5319 11.9117 30.312C10.116 29.6522 7.87927 31.3173 7.18618 33.7679C6.99716 34.5219 6.90265 35.9357 6.99716 36.941C7.46972 42.0935 11.3447 44.7325 17.7715 44.2927C21.2999 44.0413 23.1271 43.3502 25.0488 41.4023C27.0651 39.423 27.9157 37.1924 28.3252 33.1081C28.6718 29.6522 28.7348 16.4255 28.4512 12.8753C28.2307 10.4876 28.2307 10.4562 27.2541 10.3305C25.0173 9.98491 22.4655 9.89066 21.8669 10.142ZM23.8202 14.6033C24.0092 14.8546 24.0722 17.9335 23.9777 22.3005C23.8517 29.0867 23.7887 29.6208 23.2531 29.7779C22.2135 30.1234 20.9533 29.2438 20.1342 27.5786C19.4096 26.1649 19.3466 25.6308 19.3466 22.2377C19.3466 18.1534 19.6932 16.6768 20.9848 15.1688C21.8039 14.1634 23.2531 13.8807 23.8202 14.6033ZM61.9082 10.9903C61.8137 11.2416 61.7192 12.1841 61.7192 13.0638C61.7192 13.9749 61.6247 15.64 61.4987 16.8025L61.3097 18.9389H59.8605C58.4428 18.9389 56.143 19.3787 55.828 19.6615C55.765 19.7557 55.828 20.1013 56.017 20.4469C56.3321 21.0124 56.9936 21.2638 60.396 21.9549L61.0891 22.0806L61.0261 29.5579C60.9316 36.0928 60.9946 37.2552 61.5302 38.9517C62.5383 42.282 64.8381 44.2927 67.1694 43.8528C68.335 43.6329 69.8787 41.9678 70.9183 39.8314C71.3909 38.7946 71.8004 38.2291 71.8004 38.5747C71.8004 39.6115 73.2811 42.4076 74.0687 42.9417C74.4782 43.2245 75.5809 43.5701 76.4945 43.7586C79.2038 44.2613 80.779 43.1302 82.3857 39.4858L82.8897 38.2605L83.1733 39.1717C83.5198 40.4283 85.221 42.0935 86.3552 42.3134C87.5838 42.5647 89.222 41.8421 90.0726 40.6797L90.7972 39.7057L91.4588 41.0253C92.3409 42.7218 93.286 43.3816 95.5543 43.79C97.224 44.0728 97.5075 44.0728 98.2321 43.5072C98.6731 43.1931 99.4292 42.2191 99.9018 41.3709L100.784 39.8314V43.5701L98.4526 45.8636C95.8693 48.3769 93.9791 51.6758 93.0655 55.2259C91.5218 61.2895 93.475 63.96 99.4922 63.9914C102.076 64.0228 102.107 64.0228 102.989 62.986C104.47 61.2266 104.69 59.9071 104.879 51.9271L105.037 44.544H106.045C106.612 44.544 107.242 44.3555 107.463 44.1356C107.809 43.79 107.746 43.6015 107.116 43.0988C106.707 42.7847 106.014 42.5019 105.572 42.5019H104.785L104.942 37.3809C105.068 33.4537 105.226 32.0399 105.635 31.2545L106.171 30.2177L105.131 29.8093L104.092 29.3694V26.5419C104.092 23.84 104.029 23.6515 103.21 22.7718C102.737 22.2691 101.729 21.7036 101.004 21.4837C100.28 21.2952 99.0197 20.8239 98.2006 20.4469C96.4679 19.6615 95.5543 19.8186 94.0421 21.1381C91.8998 23.0231 90.8287 26.7304 90.4191 33.5479C90.1671 37.915 89.6946 39.4544 88.4974 39.8314C87.6153 40.1142 87.0167 39.5487 86.6072 38.1349C86.1976 36.5954 86.1976 33.0453 86.6702 31.2859C87.0167 29.9035 86.9852 29.8093 86.2291 29.1809C85.5046 28.584 85.41 28.2384 85.284 25.9135C85.095 22.6147 84.6224 21.9549 81.6926 20.7611C75.8329 18.3734 72.903 21.0124 71.8004 29.7464C71.6429 31.0974 71.3594 32.3855 71.2018 32.574C71.0443 32.7625 70.6663 33.8935 70.4142 35.056C69.7842 37.695 68.9021 39.5172 67.8309 40.177C67.0748 40.6797 67.0118 40.6797 66.4133 40.0828C65.4682 39.1402 65.1846 36.187 65.3736 29.6208C65.5942 21.3894 65.4682 21.8607 67.5789 21.5779C68.5555 21.4837 70.2567 21.358 71.3594 21.358C73.5331 21.3266 73.8482 21.0438 72.7455 20.0385C72.2415 19.5986 71.3909 19.4101 69.0281 19.2845L65.9722 19.096L66.0352 16.8967C66.0667 15.6715 66.1927 14.0063 66.2873 13.1895C66.4763 11.7129 66.4448 11.6815 65.4367 11.273C63.6724 10.5818 62.0973 10.4248 61.9082 10.9903ZM99.7443 24.0913C100.563 24.8139 100.626 25.0024 100.595 27.1702C100.532 31.4116 99.7128 36.187 98.6731 38.2605C97.9485 39.7057 96.6569 40.931 95.8378 40.931C95.4282 40.931 94.8927 40.5854 94.5776 40.0828C93.727 38.8261 93.7585 30.5319 94.6091 28.0499C95.4282 25.5993 96.3103 24.2798 97.4445 23.7771C98.7361 23.2116 98.7361 23.2116 99.7443 24.0913ZM81.5036 24.7511C82.3542 25.8507 82.6692 28.1442 82.0706 29.0553C81.8186 29.4637 81.4721 31.2859 81.2831 33.1395C80.8105 37.3494 80.1804 39.5487 79.0463 40.6797C77.7231 41.9678 76.6205 41.8735 75.9904 40.3655C74.7618 37.5065 75.2658 29.2438 76.8725 26.1334C78.0067 23.9028 80.3064 23.2116 81.5036 24.7511ZM100.469 56.4198C99.9018 60.0642 98.5471 61.9492 96.8144 61.5408C95.1762 61.1324 94.6721 58.1792 95.5858 54.5976C96.2788 51.9899 97.9485 48.5654 99.3977 46.9003L100.626 45.518L100.721 49.885C100.752 52.3041 100.658 55.2573 100.469 56.4198Z" fill="black"/>
<path d="M124.254 21.2637C122.647 22.9288 121.702 25.4422 121.23 29.4636C120.789 33.2337 119.529 38.1977 118.647 39.8C118.111 40.7739 117.764 41.0881 117.166 41.0881C115.906 41.0881 115.496 39.3601 115.685 34.6475C115.811 31.7885 116.032 30.092 116.567 28.3955L117.292 26.0706L116.599 25.5051C116.158 25.1595 115.087 24.8767 113.763 24.751C112.598 24.6568 111.432 24.5311 111.18 24.4997C110.865 24.4369 110.708 24.0284 110.708 23.1802C110.676 21.3894 110.361 21.0438 109.069 21.2323C107.148 21.5465 107.148 21.6093 107.305 26.8874C107.431 29.9663 107.337 32.5111 107.085 34.0192C106.518 37.3494 106.549 37.6007 107.179 37.7264C108.03 37.9149 108.849 35.6529 109.51 31.1916L110.109 27.2644H111.968L111.842 31.3487C111.653 39.3601 113.322 43.4444 116.788 43.4444C118.237 43.4444 119.497 42.4704 120.411 40.6168L121.198 39.0774L121.702 40.4283C121.986 41.1509 122.616 42.1248 123.089 42.5647C124.128 43.5386 127.058 44.2612 128.255 43.79C129.295 43.413 130.649 41.7478 131.5 39.8942L132.162 38.3548L132.76 39.6743C134.272 43.036 137.738 43.2873 139.786 40.2084L140.636 38.9203L140.825 40.554C141.109 42.6275 141.455 43.036 143.188 43.3187C145.929 43.7271 145.929 43.6957 146.559 38.9831C147.094 34.7418 147.914 31.1916 148.386 31.1916C148.512 31.1916 148.67 33.2966 148.733 35.8728C148.827 39.9256 148.922 40.6482 149.426 41.2137C150.654 42.5647 153.71 42.3448 153.71 40.8996C153.71 39.8 154.97 35.2444 156.01 32.6054L157.018 30.092L157.176 34.4904C157.302 38.3862 157.428 39.0774 158.121 40.4283C158.562 41.308 159.286 42.2819 159.759 42.6275C160.925 43.4758 163.161 43.4758 164.295 42.6275C166.721 40.8367 169.242 33.0766 167.414 33.0766C166.847 33.0766 166.469 33.8307 166.154 35.4329C165.43 39.4544 163.004 41.7478 161.901 39.423C161.24 38.072 161.145 32.6682 161.744 30.092C162.689 26.0077 162.72 26.3219 161.46 25.3794C160.673 24.7825 159.79 24.4369 158.782 24.3426L157.302 24.2169L156.483 26.0392C156.01 27.0759 154.97 29.8092 154.12 32.1341L152.608 36.3755L152.513 31.6L152.419 26.7932L151.505 26.3219C148.985 25.0338 147.661 26.1962 146.181 31.0659C145.614 32.951 145.11 34.6161 145.047 34.8046C144.984 34.9617 144.921 32.4169 144.921 29.0866C144.889 25.348 144.763 22.9917 144.574 22.866C144.385 22.7403 143.471 22.5832 142.558 22.489L140.857 22.3005L140.731 28.2384C140.605 33.2337 140.479 34.4904 139.912 36.2498C138.683 39.9256 137.108 41.0567 136.194 38.8889C135.659 37.6007 135.596 32.8567 136.1 31.0345C136.415 29.9035 136.383 29.7464 135.659 29.1495C134.997 28.6154 134.871 28.1441 134.682 26.0392C134.43 23.243 133.957 22.0491 132.855 21.5779C129.547 20.0384 128.98 19.8813 127.342 19.8813C125.64 19.8813 125.483 19.9442 124.254 21.2637ZM130.397 24.2798C131.437 24.8453 132.13 28.3955 131.343 29.1809C131.185 29.338 130.87 30.9717 130.712 32.7625C130.271 37.0352 129.578 39.4544 128.476 40.6482C127.31 41.8735 126.018 41.8107 125.388 40.4911C124.317 38.2291 124.38 31.8514 125.514 27.9242C126.459 24.751 128.444 23.243 130.397 24.2798ZM32.2947 22.3319C32.0427 22.7717 31.3811 37.6636 31.5386 39.423C31.7591 41.4965 32.4522 42.1877 34.2794 42.1877C35.067 42.1877 35.8861 42.062 36.0751 41.9363C36.2957 41.8107 36.6737 40.5226 36.9572 39.0459C37.5558 36.1241 38.5009 33.0452 39.194 31.8199C39.6036 31.0974 39.6351 31.3801 39.6666 34.8046C39.6666 38.9831 40.1076 40.4283 41.5568 41.1823C42.5964 41.7164 44.5812 41.4651 45.7153 40.6168C46.6604 39.9256 46.6604 39.9256 47.1015 40.554C48.1096 41.9992 52.4571 42.8474 55.513 42.1877C57.8127 41.7164 59.1989 40.6168 59.1989 39.2344C59.1989 37.8835 58.7264 37.2866 55.45 34.6475C52.1736 32.0085 51.638 31.3173 51.638 29.7778C51.638 27.5158 54.4418 26.1648 56.08 27.61C56.8361 28.3012 57.4977 28.1441 58.4113 27.0759C59.0729 26.2905 59.1989 25.8192 59.1359 24.7825C59.0414 23.7143 58.8839 23.4315 58.0963 23.0545C56.3321 22.2062 50.5669 23.7457 48.5191 25.6307C46.8809 27.1388 46.5029 29.4636 47.5425 31.4744C48.0151 32.4483 48.0781 32.7311 47.7315 32.8567C47.511 32.951 47.2275 33.6422 47.1015 34.3648C46.5974 37.5379 44.9277 39.7057 43.7936 38.6061C43.384 38.1663 43.2895 37.2237 43.2265 32.951C43.195 29.0238 43.069 27.5786 42.6909 26.856C42.1554 25.8192 40.9267 25.348 39.9816 25.8506C39.194 26.2591 37.9339 28.4269 36.7997 31.2859L35.9176 33.5479L35.8861 28.4583C35.8861 23.5258 35.8546 23.3373 35.193 22.8974C34.2164 22.3005 32.5152 21.9863 32.2947 22.3319ZM53.3707 37.2552C54.1268 37.9149 54.7884 38.7004 54.8829 39.0459C55.3554 40.8053 52.7721 41.308 50.7559 39.8314C50.0943 39.3601 49.2122 38.7318 48.7082 38.449C48.1726 38.1348 47.9206 37.7892 48.0466 37.4751C48.1411 37.2237 48.3931 36.2184 48.5821 35.2444L48.9287 33.4537L50.5039 34.7732C51.3545 35.4644 52.6461 36.5954 53.3707 37.2552Z" fill="black"/>
</svg>
