<svg width="122" height="64" viewBox="0 0 122 64" fill="none" xmlns="http://www.w3.org/2000/svg">
<path d="M55.6469 32.6008V20.8969H11.4088V32.6008V32.6309H30.222V43.812C30.222 45.8795 29.8557 46.9096 29.1379 47.5317C28.4145 48.1568 27.3075 48.4845 25.8453 48.5115V52.0011C29.6468 51.8814 32.4273 51.0679 34.1932 49.5458C35.948 48.0286 36.8362 45.6973 36.8362 42.5776V32.6309H55.6469V32.6008ZM49.2738 28.9787H17.7918V24.5485H49.2738V28.9787Z" fill="#C81623"/>
<path d="M36.8641 12.0232H30.222V14.7797H9.79663V18.4313H57.2591V14.7797H36.8641V12.0232Z" fill="#C81623"/>
<path d="M9.79663 51.8876H13.5621C21.6144 44.9451 23.7175 35.0517 23.7175 35.0517H16.4462C15.5611 42.0537 12.5853 47.9507 9.79663 51.8876Z" fill="#C81623"/>
<path d="M43.3655 35.0505C43.3655 35.0505 45.4562 44.9464 53.4923 51.8864H57.259C54.4716 47.9495 51.502 42.0549 50.6188 35.0505H43.3655Z" fill="#C81623"/>
<path d="M64.2234 51.8876H67.9858C76.0368 44.9451 78.1368 35.0517 78.1368 35.0517H70.8723C69.9841 42.0537 67.0089 47.9507 64.2234 51.8876Z" fill="#C81623"/>
<path d="M97.8062 35.0505C97.8062 35.0505 99.9037 44.9464 107.953 51.8864H111.722C108.935 47.9495 105.958 42.0549 105.074 35.0505H97.8062Z" fill="#C81623"/>
<path d="M80.9219 14.7796L82.2248 12.0011H75.5635L74.2569 14.7796H64.2144V18.4312H72.535L65.8396 32.6308H85.1133V43.8113C85.1133 45.9715 84.7525 46.9095 84.0329 47.531C83.3052 48.1562 82.2062 48.4844 80.7434 48.5126V51.9998C84.5393 51.8814 87.3199 51.0673 89.0889 49.5452C90.851 48.028 91.7417 45.6967 91.7417 42.5776V32.6308H110.099V32.4566V28.978H91.7417V21.1337H85.1133V28.9786H74.3065L79.2248 18.4318H111.721V14.7796H80.9219Z" fill="#C81623"/>
</svg>
