<svg width="64" height="64" viewBox="0 0 64 64" fill="none" xmlns="http://www.w3.org/2000/svg">
<path d="M2.90918 49.8536V14.2603C3.10098 14.0425 3.02841 13.7729 3.03619 13.5241C3.22281 8.82705 5.86141 5.82789 9.8245 3.77747C11.2034 3.06462 12.7871 3.23311 14.2593 2.90909H49.8493C51.7078 3.27199 53.6206 3.32384 55.3028 4.45403C59.1233 7.02289 61.101 10.486 61.0828 15.1416C61.0388 26.2284 61.018 37.3152 61.0906 48.4019C61.1269 53.9985 58.579 57.8531 53.6621 60.2638C51.967 61.0959 50.0852 61.044 48.2709 61.0518C37.2706 61.0959 26.2704 61.0337 15.2702 61.0907C10.0552 61.1166 6.36684 58.7785 3.89671 54.2888C3.13209 52.8994 3.2902 51.3208 2.90918 49.8536Z" fill="#00B801"/>
<path d="M32.8849 13.493C38.1154 13.6485 43.6259 15.4708 47.8171 20.2949C52.5033 25.6892 52.4126 32.9603 47.6356 38.2924C43.3278 43.1009 38.0428 46.6341 32.4987 49.8225C32.3146 49.9287 32.1073 49.9961 31.9103 50.0817C30.508 50.6805 30.1322 50.4135 30.2644 48.8659C30.3162 48.2697 30.4873 47.6839 30.5392 47.0877C30.6817 45.4494 30.2281 44.9414 28.6082 44.6848C24.785 44.0782 21.2781 42.7484 18.2196 40.2832C10.1561 33.7846 10.7937 22.773 19.8448 16.9354C23.5098 14.5713 27.5662 13.5059 32.8849 13.4956V13.493Z" fill="#FEFEFE"/>
<path d="M31.7963 29.2846C31.7963 30.5703 31.7523 31.856 31.8119 33.1392C31.8533 33.9868 31.5501 34.2668 30.7129 34.2616C29.8938 34.259 29.7046 33.9194 29.7176 33.1729C29.7539 30.8969 29.715 28.621 29.7435 26.345C29.7487 25.9303 29.4506 25.2485 30.0804 25.15C30.7336 25.0464 31.506 24.7871 32.0581 25.5803C32.986 26.9101 33.9761 28.1984 34.9455 29.4997C35.0674 29.6656 35.2177 29.8108 35.6168 30.2618C35.6168 28.6754 35.6531 27.4182 35.6039 26.1662C35.5728 25.3626 35.7931 25.0256 36.6744 25.023C37.5789 25.0204 37.7422 25.4067 37.7293 26.1869C37.6956 28.3773 37.7371 30.5677 37.7085 32.7581C37.7034 33.2584 37.9911 33.9894 37.1565 34.1164C36.4463 34.2253 35.7672 34.259 35.241 33.4761C34.2509 31.9986 33.1312 30.6092 32.0659 29.1809L31.7963 29.2846Z" fill="#00BA00"/>
<path d="M39.0174 29.5879C39.0174 28.3851 39.0433 27.1849 39.007 25.9847C38.9889 25.3522 39.1418 25.0438 39.8546 25.0619C41.3553 25.1034 42.8586 25.1112 44.3594 25.0619C45.194 25.0334 45.2225 25.4844 45.2173 26.1091C45.2121 26.739 45.1499 27.2082 44.3309 27.1668C43.4755 27.1227 42.615 27.1745 41.7571 27.159C41.2672 27.1486 41.0702 27.3327 41.0832 27.8355C41.0935 28.3073 41.2464 28.5614 41.7441 28.5614C42.5606 28.5614 43.3744 28.6002 44.1883 28.5691C44.9452 28.5406 45.2562 28.7947 45.2303 29.606C45.2069 30.3318 45.0696 30.7518 44.2376 30.6999C43.5118 30.6558 42.7783 30.6844 42.05 30.6999C41.6015 30.7103 41.0883 30.591 41.0806 31.3583C41.0728 32.0867 41.5082 32.0712 42.0033 32.0686C42.7757 32.0634 43.5481 32.0971 44.3205 32.0686C45.1033 32.0401 45.2225 32.4756 45.2199 33.1288C45.2199 33.7716 45.137 34.2045 44.3335 34.1864C42.8327 34.1501 41.3294 34.1657 39.8287 34.1786C39.2247 34.1838 38.9966 33.922 39.0096 33.3232C39.0355 32.079 39.0174 30.8347 39.0174 29.5905V29.5879Z" fill="#00BA00"/>
<path d="M18.9015 29.5438C18.9015 28.4732 18.9223 27.4001 18.8938 26.3295C18.873 25.5881 18.8549 25.0567 19.915 25.0308C21.071 25.0049 21.0036 25.6244 20.9932 26.3891C20.9751 27.9315 21.0347 29.4764 20.9699 31.0162C20.9336 31.8846 21.2576 32.1541 22.0741 32.0867C22.7117 32.0349 23.3597 32.1127 23.9999 32.0712C24.8293 32.0168 25.117 32.3356 25.117 33.1832C25.117 34.0179 24.7723 34.202 24.044 34.1838C22.6728 34.1501 21.3017 34.1475 19.9305 34.1838C19.1659 34.202 18.8523 33.935 18.886 33.1392C18.9378 31.9416 18.8989 30.7414 18.8989 29.5412L18.9015 29.5438Z" fill="#00B801"/>
<path d="M28.3699 29.6086C28.3699 30.8088 28.3543 32.009 28.3776 33.2091C28.3906 33.909 28.1262 34.2175 27.3953 34.1994C26.724 34.1812 26.2134 34.132 26.2237 33.2584C26.2471 30.814 26.2522 28.3695 26.2211 25.9277C26.2108 25.1241 26.6384 25.0515 27.2761 25.036C27.9914 25.0178 28.4191 25.1604 28.3854 26.0081C28.3388 27.2056 28.3724 28.4084 28.375 29.6086H28.3699Z" fill="#03B803"/>
</svg>
