<svg width="64" height="64" viewBox="0 0 64 64" fill="none" xmlns="http://www.w3.org/2000/svg">
<mask id="mask0_8459_3053" style="mask-type:luminance" maskUnits="userSpaceOnUse" x="5" y="5" width="54" height="54">
<path d="M59 5H5V59H59V5Z" fill="white"/>
</mask>
<g mask="url(#mask0_8459_3053)">
<path d="M17.4401 5.09016H46.5599C53.402 5.09016 58.9103 10.5984 58.9103 17.4406V46.5603C58.9103 53.4025 53.402 58.9107 46.5599 58.9107H17.4401C10.598 58.9107 5.08972 53.4025 5.08972 46.5603V17.4406C5.08972 10.5984 10.598 5.09013 17.4401 5.09016Z" fill="url(#paint0_linear_8459_3053)"/>
<path d="M16.8811 20.395C16.5975 20.395 16.3303 20.4439 16.0775 20.5445L21.1419 25.7583L26.2623 31.0656L26.3557 31.1778L26.5052 31.3273L26.6547 31.4768L26.9537 31.7945L31.3454 36.2982C31.4185 36.3436 31.6304 36.5399 31.7959 36.6227C32.0091 36.7293 32.2403 36.8275 32.4785 36.8361C32.7356 36.8453 32.9984 36.7716 33.2297 36.659C33.403 36.5748 33.48 36.4539 33.6813 36.2982L38.7644 31.047L43.9035 25.7583L48.8557 20.6566C48.5378 20.4843 48.1857 20.395 47.8092 20.395H16.8811ZM15.33 21.0303C14.7899 21.5421 14.4517 22.3114 14.4517 23.1794V40.2974C14.4517 41.0002 14.6774 41.6387 15.0497 42.1288L15.7598 41.456L21.0484 36.3169L25.739 31.7758L25.6456 31.6637L20.5065 26.375L15.3674 21.0677L15.33 21.0303ZM49.5285 21.1985L44.5202 26.375L39.3997 31.6637L39.3063 31.7571L44.1838 36.4851L49.4724 41.6242L49.7901 41.9232C50.0749 41.4663 50.2386 40.9035 50.2386 40.2974V23.1794C50.2386 22.4055 49.9704 21.7036 49.5285 21.1985ZM26.337 32.3925L21.6651 36.9336L16.3578 42.0727L15.685 42.7268C16.0397 42.9552 16.4433 43.1005 16.8811 43.1005H47.8092C48.3354 43.1005 48.8127 42.8981 49.2108 42.5773L48.8744 42.2409L43.5671 37.1018L38.6896 32.3925L34.298 36.9149C34.0603 37.0725 33.9015 37.2473 33.6694 37.3546C33.2959 37.5273 32.8865 37.6734 32.475 37.6671C32.0625 37.6608 31.6579 37.4993 31.2876 37.3172C31.1018 37.2258 31.0027 37.1349 30.7847 36.9523L26.337 32.3925Z" fill="white"/>
</g>
<defs>
<linearGradient id="paint0_linear_8459_3053" x1="32.3769" y1="58.6947" x2="32.4295" y2="5.7399" gradientUnits="userSpaceOnUse">
<stop stop-color="#70EFFF"/>
<stop offset="1" stop-color="#5770FF"/>
</linearGradient>
</defs>
</svg>
