<svg width="64" height="64" viewBox="0 0 64 64" fill="none" xmlns="http://www.w3.org/2000/svg">
<path d="M4 18.2545C4 10.382 10.382 4 18.2545 4H45.7455C53.618 4 60 10.382 60 18.2545V45.7455C60 53.618 53.618 60 45.7455 60H18.2545C10.382 60 4 53.618 4 45.7455V18.2545Z" fill="#FFD000"/>
<path d="M24.8574 21.413C25.3749 21.1482 26.0999 21.2857 26.7373 21.2685C26.9747 21.2767 27.2119 21.2974 27.4473 21.33C27.4076 21.8906 27.3704 22.4095 27.3281 23.0175C28.2906 23.0175 29.2254 23.0482 30.1533 23.0068C30.7648 22.9792 31.0159 23.1477 30.9883 23.8075C30.9288 25.4554 31.1413 25.1954 29.5596 25.204C27.018 25.2187 24.471 25.2079 21.8535 25.2079V26.7001H30.3535C30.3535 27.3452 30.4082 27.9275 30.3193 28.4872C30.2942 28.6485 29.8605 28.8538 29.6113 28.8564C27.3355 28.8857 25.0588 28.8731 22.7812 28.874H21.8447V30.2919H23.2773C25.3404 30.2919 27.4037 30.3169 29.4658 30.2773C30.1558 30.2643 30.4678 30.4431 30.373 31.1718C30.3248 31.5392 30.3642 31.918 30.3643 32.3974H21.8564V34.2265C22.1264 34.2386 22.4095 34.2627 22.6924 34.2636C25.1563 34.2636 27.6211 34.2895 30.085 34.249C30.7827 34.2377 31.097 34.4215 30.9814 35.1425C30.9613 35.2752 30.9612 35.4102 30.9814 35.5429C31.0875 36.2467 30.8084 36.4678 30.0908 36.454C27.8684 36.4109 25.6442 36.4384 23.4209 36.4384H22.4268C24.939 39.0144 27.9901 39.8231 31.3242 40.2431C30.8828 41.0113 30.5483 41.6797 30.1172 42.2841C30.0025 42.4463 29.5996 42.4966 29.3486 42.457C25.992 41.8981 22.9872 40.6311 20.6465 38.0585C20.5727 37.9942 20.4931 37.9361 20.4092 37.8857C17.6294 41.1907 13.8662 42.2493 9.62793 42.6357C9.88666 41.819 10.0461 41.1389 10.335 40.5214C10.441 40.2947 10.8523 40.1158 11.1387 40.0829C13.5114 39.8156 15.6535 39.0145 17.501 37.4706C17.8071 37.212 18.1653 37.019 18.499 36.7949L18.2734 36.457H9.94336C9.94334 35.7956 9.88763 35.2332 9.97559 34.6943C10.0043 34.5218 10.4068 34.2866 10.6396 34.2831C13.0502 34.2529 15.4616 34.2671 17.8721 34.2636C18.4862 34.2636 19.2032 34.4728 19.1006 33.374C19.0143 32.4545 19.086 32.4472 17.9121 32.4472H10.4893C10.4892 31.8221 10.4236 31.2586 10.5254 30.7275C10.5622 30.5413 11.0096 30.315 11.2725 30.3115C13.6298 30.2787 15.9874 30.2752 18.3447 30.3017C18.8966 30.3069 19.0941 30.1388 19.0977 29.5742C19.0977 28.9894 18.8641 28.859 18.3311 28.8642C16.0274 28.8866 13.7226 28.8481 11.4189 28.8886C10.6957 28.9015 10.3607 28.707 10.4795 27.9511C10.5049 27.765 10.5049 27.5757 10.4795 27.3896C10.4157 26.8532 10.6602 26.6995 11.1689 26.7089C13.4192 26.7296 15.6697 26.7176 17.9199 26.7167C19.1894 26.7167 19.2431 26.6448 18.9629 25.2324H10.0166V23.04H13.5059V21.2743C14.2681 21.2743 15.039 21.2299 15.7969 21.3066C15.9694 21.3238 16.2208 21.7554 16.2285 22.0038C16.263 22.8808 16.6821 23.0605 17.5029 23.039C19.8005 22.9778 22.101 23.0175 24.3408 23.0175C24.4156 22.9246 24.441 22.9061 24.4463 22.8837C24.5739 22.3724 24.5506 21.572 24.8574 21.413ZM52.1074 21.6806C52.375 21.677 52.6426 21.6868 52.9092 21.7099C53.7122 21.7961 54.1167 22.2017 54.1426 23.0107C54.1684 23.8196 54.1525 24.6177 54.1533 25.4257C54.1533 30.7557 54.1399 36.0858 54.1709 41.415C54.1709 42.1636 54.0096 42.4211 53.2109 42.4159C47.3461 42.3832 41.481 42.4 35.6162 42.3974C34.158 42.3974 33.8125 42.0522 33.8125 40.6025V22.6044L33.8115 21.7363C34.203 21.7138 34.5182 21.6815 34.832 21.6806H52.1074ZM36.4854 23.9638C36.4592 24.1228 36.4407 24.2834 36.4307 24.4443C36.4307 29.4467 36.4403 34.4497 36.417 39.4521C36.4171 40.1496 36.7921 40.1483 37.2793 40.1474C41.721 40.1474 46.1628 40.129 50.6045 40.1601C51.36 40.1661 51.5396 39.9082 51.5361 39.1923C51.5094 34.4029 51.525 29.6134 51.5225 24.8232C51.5225 24.5421 51.4876 24.261 51.4678 23.9609L36.4854 23.9638ZM45.9209 25.0702C46.4022 24.7848 47.1723 24.8704 47.7949 24.9618C48.8976 25.124 47.9606 26.1176 48.5869 26.7197H50.5439V28.8222C50.0463 28.8222 49.5695 28.8507 49.0986 28.8154C48.515 28.7706 48.2968 28.9701 48.3105 29.5839C48.3485 31.2424 48.3971 32.9072 48.2988 34.5605C48.2126 35.9111 47.9266 37.2499 47.7188 38.5927C47.6515 39.0291 47.395 39.2152 46.9336 39.1962C46.267 39.1583 45.602 39.1816 44.7646 39.1816C46.2376 35.9586 45.5413 32.7064 45.7207 29.5283C45.7543 28.9358 45.4946 28.8121 44.9678 28.8095C43.6742 28.8009 43.6982 28.7838 43.5068 30.0634C43.1101 32.7901 42.3112 35.4434 41.1377 37.9365C40.716 38.8282 40.2264 39.3893 39.1475 39.1952C38.7103 39.1159 38.2463 39.1815 37.6152 39.1816C39.5781 35.9508 40.7095 32.5836 41.0752 28.832H37.5068C37.5068 28.1982 37.4485 27.6662 37.5381 27.1601C37.5709 26.9807 37.9632 26.7437 38.1943 26.7402C40.3617 26.7083 42.5299 26.7197 44.6973 26.7197H45.5928C45.6936 26.1159 45.607 25.2539 45.9209 25.0702Z" fill="black"/>
</svg>
