<svg width="64" height="64" viewBox="0 0 64 64" fill="none" xmlns="http://www.w3.org/2000/svg">
<path fill-rule="evenodd" clip-rule="evenodd" d="M32 4.77475C16.7887 4.77475 5 15.9058 5 30.9391C5 38.8028 8.22691 45.5977 13.4803 50.2922C13.9204 50.6884 14.1865 51.2365 14.2082 51.8281L14.355 56.6255C14.4038 58.156 15.9847 59.1492 17.3864 58.5359L22.7429 56.1752C23.1961 55.9747 23.7045 55.9363 24.1826 56.0666C26.6435 56.745 29.2675 57.1032 32 57.1032C47.2113 57.1032 59 45.9722 59 30.939C59 15.9058 47.2113 4.77475 32 4.77475Z" fill="url(#paint0_linear_9008_37891)"/>
<path fill-rule="evenodd" clip-rule="evenodd" d="M15.7893 38.5912L23.7208 26.022C24.9811 24.0248 27.6865 23.5254 29.5771 24.942L35.8843 29.669C36.166 29.8796 36.5086 29.9929 36.8603 29.992C37.2121 29.991 37.554 29.8758 37.8346 29.6636L46.353 23.2052C47.4883 22.3424 48.977 23.7047 48.2108 24.9095L40.2847 37.4732C39.0244 39.4704 36.319 39.9698 34.4284 38.5532L28.1212 33.8262C27.8395 33.6156 27.4969 33.5023 27.1452 33.5033C26.7934 33.5042 26.4515 33.6195 26.1709 33.8316L17.6471 40.2954C16.5118 41.1583 15.0231 39.796 15.7893 38.5912Z" fill="white"/>
<defs>
<linearGradient id="paint0_linear_9008_37891" x1="10805" y1="4.77475" x2="10805" y2="21732.7" gradientUnits="userSpaceOnUse">
<stop stop-color="#00B2FF"/>
<stop offset="1" stop-color="#006AFF"/>
</linearGradient>
</defs>
</svg>
