<svg width="225" height="64" viewBox="0 0 225 64" fill="none" xmlns="http://www.w3.org/2000/svg">
<path fill-rule="evenodd" clip-rule="evenodd" d="M146.14 25.8275C149.055 25.8275 151.363 26.6832 153.002 28.4554C154.642 30.2275 155.491 32.611 155.491 35.6052C155.491 38.6607 154.58 41.1051 152.88 42.9384C151.119 44.7717 148.752 45.6892 145.715 45.6892C142.801 45.6892 140.493 44.833 138.793 43.1219C137.093 41.3497 136.242 38.9668 136.242 36.0335C136.242 32.9169 137.153 30.4107 138.853 28.5774C140.614 26.7441 143.044 25.8275 146.14 25.8275ZM146.079 29.4946C144.44 29.4947 143.226 30.0448 142.315 31.1447C141.283 32.3058 140.857 33.8335 140.857 35.8501C140.857 37.8056 141.283 39.3332 142.194 40.372C143.105 41.4108 144.38 41.9607 146.019 41.9607C147.598 41.9606 148.873 41.472 149.723 40.372C150.573 39.3332 150.999 37.8056 150.999 35.7281C150.999 33.7115 150.573 32.1833 149.723 31.0833C148.873 30.0444 147.597 29.4946 146.079 29.4946Z" fill="#737373"/>
<path fill-rule="evenodd" clip-rule="evenodd" d="M181.967 25.8275C184.881 25.8275 187.189 26.6834 188.828 28.4554C190.467 30.2275 191.318 32.6109 191.318 35.6052C191.318 38.6607 190.407 41.1051 188.707 42.9384C186.946 44.7717 184.578 45.6891 181.542 45.6892C178.627 45.6892 176.32 44.8329 174.62 43.1219C172.98 41.3497 172.069 38.9668 172.069 36.0335C172.069 32.9169 172.98 30.4107 174.68 28.5774C176.441 26.7441 178.87 25.8275 181.967 25.8275ZM181.906 29.4946C180.266 29.4947 179.052 30.0448 178.142 31.1447C177.17 32.3058 176.684 33.8334 176.684 35.8501C176.684 37.8054 177.109 39.3332 178.019 40.372C178.93 41.4109 180.206 41.9607 181.846 41.9607C183.424 41.9606 184.7 41.472 185.55 40.372C186.4 39.3332 186.824 37.8056 186.824 35.7281C186.824 33.7115 186.4 32.1833 185.55 31.0833C184.7 30.0444 183.424 29.4946 181.906 29.4946Z" fill="#737373"/>
<path d="M117.176 25.8275C118.026 25.8276 118.876 25.9497 119.665 26.133C120.515 26.3163 121.183 26.6223 121.669 26.8668V31.1447C121.001 30.6559 120.272 30.2279 119.605 29.9835C118.876 29.7391 118.147 29.5551 117.418 29.5551C115.658 29.5551 114.261 30.1057 113.168 31.2667C112.075 32.4278 111.589 33.956 111.589 35.9116C111.589 37.8058 112.136 39.3332 113.168 40.372C114.2 41.4108 115.597 41.9606 117.357 41.9607C118.025 41.9607 118.754 41.8384 119.543 41.4718C120.333 41.1662 121.062 40.7389 121.73 40.25V44.4051C121.001 44.8328 120.212 45.139 119.301 45.3223C118.39 45.5056 117.418 45.6277 116.325 45.6277C113.532 45.6277 111.286 44.772 109.585 42.9999C107.824 41.2277 106.974 38.9664 106.974 36.2775C106.974 33.2221 107.885 30.7163 109.646 28.7608C111.407 26.8053 113.897 25.8275 117.176 25.8275Z" fill="#737373"/>
<path d="M164.843 25.6441C165.511 25.6441 166.24 25.7057 167.029 25.889C167.818 26.0723 168.547 26.2561 169.093 26.4393V30.7778C168.486 30.4112 167.818 30.0441 167.029 29.7386C166.24 29.4331 165.45 29.3112 164.722 29.3112C163.872 29.3112 163.203 29.4945 162.778 29.8001C162.353 30.2278 162.111 30.6557 162.111 31.2667C162.111 31.8778 162.293 32.4282 162.718 32.7948C163.143 33.1614 163.993 33.5888 165.389 34.1385C167.15 34.8719 168.425 35.6669 169.093 36.5224C169.822 37.4391 170.186 38.4778 170.186 39.7612C170.186 41.5333 169.519 42.9391 168.122 44.0391C166.786 45.1391 164.903 45.6277 162.596 45.6277C161.807 45.6277 160.956 45.5056 159.985 45.3223C159.013 45.139 158.224 44.894 157.556 44.5885V40.1886C158.346 40.7385 159.256 41.2277 160.167 41.5332C161.078 41.8388 161.929 42.0221 162.718 42.0221C163.689 42.0221 164.478 41.9 164.903 41.5947C165.389 41.2891 165.633 40.8608 165.633 40.1886C165.633 39.5776 165.389 39.0887 164.903 38.5999C164.417 38.1723 163.446 37.6831 162.111 37.1333C160.471 36.4611 159.317 35.6664 158.649 34.8109C157.981 33.9553 157.617 32.8551 157.617 31.5107C157.617 29.7998 158.285 28.3941 159.621 27.2942C160.957 26.1944 162.718 25.6441 164.843 25.6441Z" fill="#737373"/>
<path d="M201.823 16.8442C202.369 16.8442 202.856 16.9057 203.281 16.9057C203.706 16.9057 204.07 17.0274 204.374 17.1496V21.0002C204.252 20.9391 203.948 20.8169 203.584 20.6947C203.22 20.5725 202.795 20.5113 202.309 20.5113C201.398 20.5113 200.669 20.8171 200.184 21.3671C199.698 21.9171 199.455 22.8336 199.455 23.9335V26.1944H206.074V21.9165L210.506 20.5718V26.1944H215V29.8615H210.506V38.7219C210.506 39.8828 210.749 40.6774 211.114 41.1663C211.539 41.6552 212.207 41.9001 213.117 41.9001C213.36 41.9001 213.664 41.8389 214.028 41.7167C214.392 41.5945 214.696 41.4724 214.939 41.2893V44.9554C214.635 45.1387 214.21 45.2616 213.542 45.3838C212.874 45.5059 212.267 45.5663 211.6 45.5663C209.717 45.5663 208.32 45.0774 207.41 44.0996C206.499 43.1218 206.013 41.5942 206.013 39.5777L206.074 29.922H199.455V45.2003H194.962V29.922H191.804V26.2559H194.962V23.628C194.962 21.6726 195.629 20.0225 196.904 18.7392C198.18 17.4559 199.819 16.8443 201.823 16.8442Z" fill="#737373"/>
<path d="M80.9847 38.356H81.106L89.0612 18.7997H95.255V45.2003H90.7003V24.4829H90.6392L82.5027 45.2003H79.4668L71.1479 24.4829H71.0868V45.2003H66.8968V18.7997H73.4553L80.9847 38.356Z" fill="#737373"/>
<path d="M103.938 45.2003H99.5052V26.2559H103.938V45.2003Z" fill="#737373"/>
<path d="M134.3 25.9495C134.664 25.9495 134.967 25.95 135.271 26.011C135.574 26.0721 135.818 26.1333 136 26.1944V30.7164C135.757 30.533 135.453 30.3497 134.967 30.2275C134.481 30.1053 133.996 29.9835 133.328 29.9835C132.235 29.9835 131.324 30.4722 130.596 31.3887C129.867 32.3054 129.441 33.7111 129.441 35.6666V45.2003H125.009V26.2559H129.441V29.2497H129.503C129.928 28.211 130.535 27.4163 131.324 26.8053C132.174 26.2554 133.146 25.9495 134.3 25.9495Z" fill="#737373"/>
<path d="M101.691 18.2503C102.481 18.2504 103.148 18.4945 103.634 18.9832C104.12 19.4721 104.424 20.0834 104.424 20.8167C104.424 21.55 104.181 22.1614 103.634 22.6503C103.088 23.139 102.481 23.3831 101.691 23.3831C100.902 23.3831 100.295 23.1391 99.8087 22.6503C99.323 22.1003 99.0193 21.4889 99.0192 20.8167C99.0192 20.0834 99.2622 19.4721 99.8087 18.9832C100.355 18.4943 100.963 18.2503 101.691 18.2503Z" fill="#737373"/>
<path d="M30.7672 10H10V30.9H30.7672V10Z" fill="#F25022"/>
<path d="M53.7202 10H32.953V30.9H53.7202V10Z" fill="#7FBA00"/>
<path d="M30.7672 33.1H10V54H30.7672V33.1Z" fill="#00A4EF"/>
<path d="M53.7202 33.1H32.953V54H53.7202V33.1Z" fill="#FFB900"/>
</svg>
