<svg width="64" height="64" viewBox="0 0 64 64" fill="none" xmlns="http://www.w3.org/2000/svg">
<path d="M52.246 7.24197H23.0015C21.7569 7.24197 20.7456 8.25324 20.7456 9.49788V11.7446L38.7471 17.2586L54.4927 11.7446V9.49788C54.4973 8.25782 53.4952 7.24655 52.2551 7.24197H52.246Z" fill="#0364B8"/>
<path d="M58.9952 31.8099C58.9952 31.3843 58.771 30.9954 58.4049 30.7803L39.0352 19.757C38.9483 19.6838 38.8522 19.6289 38.7469 19.5923C37.9919 19.2354 37.1179 19.2354 36.3675 19.5923C36.276 19.6335 36.189 19.6884 36.1158 19.757L16.8285 30.7117C16.2656 31.0457 16.078 31.7687 16.4075 32.3361C16.5081 32.51 16.6546 32.6564 16.8285 32.7571L36.1158 43.8536L36.3675 43.9863C36.7354 44.1758 37.1433 44.2746 37.5572 44.2746C37.9711 44.2746 38.379 44.1758 38.7469 43.9863L38.9986 43.8536L58.2814 32.8211C58.6932 32.6518 58.9723 32.2583 58.9952 31.8099Z" fill="#0A2767"/>
<path d="M38.7471 11.7445H20.7456V27.4902L38.7471 45.4917H54.4927V27.4902L38.7471 11.7445Z" fill="#28A8EA"/>
<path d="M58.0024 56.3411L16.8972 32.8211H16.8789" fill="#35B8F1"/>
<path d="M38.7471 11.7445H54.4927V27.4902H38.7471V11.7445Z" fill="#50D9FF"/>
<path d="M20.7456 27.4902H38.7471V49.9852H20.7456V27.4902Z" fill="#0078D4"/>
<path opacity="0.5" d="M37.6168 48.8688L16.8972 32.7846L18.0046 30.8581L37.3743 41.9638C37.5482 42.0233 37.7404 42.0233 37.9142 41.9638L57.0643 31.0274L58.1946 32.9539L37.6168 48.8688Z" fill="#0A2767"/>
<path d="M58.4052 32.8029L39.2003 43.8033L38.8159 43.9864C38.4361 44.174 38.0243 44.2746 37.6033 44.2746C37.1869 44.2746 36.7796 44.174 36.409 43.9864L42.6459 52.6622L58.0346 56.3092C58.634 55.8928 58.9909 55.2156 59.0001 54.488V31.7733C58.9818 32.1897 58.7622 32.5787 58.4052 32.8029Z" fill="#1490DF"/>
<path opacity="0.1" d="M58.9953 54.4878V54.3322L39.8772 43.4188L39.2 43.8214L38.8156 44.0273C38.4404 44.2012 38.0332 44.2927 37.6213 44.2973H37.4658C37.1317 44.2744 36.8068 44.1967 36.5002 44.0548L45.4964 52.2411L58.0298 56.309C58.6292 55.8972 58.9907 55.2154 58.9953 54.4878Z" fill="black"/>
<path d="M36.1619 43.8537L20.7366 34.6744L16.8242 32.8029C16.4582 32.5924 16.2339 32.1943 16.2477 31.7733V54.488C16.2431 55.7281 17.2452 56.7393 18.4853 56.7439H56.3004C56.9135 56.808 57.5267 56.6524 58.0346 56.3092L36.1619 43.8537Z" fill="#28A8EA"/>
<path opacity="0.5" d="M35.5943 49.9943C37.2462 49.8937 38.5823 48.6078 38.7471 46.9559V21.1251C38.7379 19.6745 37.5619 18.5031 36.1159 18.494H20.7456V28.5517L16.8332 30.7985C16.4717 30.9815 16.2475 31.3568 16.2566 31.764V49.9989H35.5943V49.9943Z" fill="black"/>
<path d="M7.63113 16.2471H33.8692C35.3244 16.2471 36.5004 17.4277 36.5004 18.8783V45.1164C36.5004 46.5715 35.3198 47.7475 33.8692 47.7475H7.63113C6.176 47.7475 5 46.5669 5 45.1164V18.8783C5 17.4277 6.18058 16.2471 7.63113 16.2471Z" fill="#0078D4"/>
<path d="M12.779 27.115C13.4654 25.6644 14.5728 24.4472 15.9501 23.6236C17.4785 22.7496 19.2127 22.3103 20.9744 22.3515C22.608 22.324 24.2142 22.7359 25.6327 23.5458C26.9551 24.342 28.0213 25.4951 28.7077 26.8725C29.4215 28.4145 29.7784 30.0984 29.751 31.8007C29.7922 33.5761 29.4124 35.3333 28.6436 36.9302C27.9527 38.3671 26.8453 39.566 25.4725 40.3713C24.0449 41.2178 22.4113 41.6571 20.7502 41.6343C19.0892 41.6709 17.4464 41.2499 16.005 40.4216C14.6597 39.6392 13.5752 38.4769 12.8797 37.0858C12.1247 35.5941 11.7357 33.9376 11.7495 32.2628C11.6945 30.492 12.0469 28.7303 12.779 27.115ZM16.2521 35.3195C16.6182 36.2256 17.2359 37.008 18.0276 37.5754C18.8192 38.1429 19.771 38.454 20.7456 38.454C21.7981 38.4952 22.8322 38.1932 23.6971 37.5937C24.4796 37.0263 25.079 36.2484 25.4313 35.347C25.834 34.2762 26.0216 33.1368 25.9713 31.9929C25.9759 30.8855 25.802 29.7827 25.4497 28.7348C25.1293 27.7922 24.5436 26.964 23.7612 26.3416C22.8826 25.7239 21.8118 25.4356 20.7411 25.5317C19.7115 25.4951 18.7002 25.788 17.8491 26.3691C17.0666 26.9457 16.458 27.719 16.0828 28.6159C15.2912 30.8077 15.3507 33.2146 16.2476 35.3653V35.3195H16.2521Z" fill="white"/>
</svg>
