<svg width="64" height="64" viewBox="0 0 64 64" fill="none" xmlns="http://www.w3.org/2000/svg">
<path d="M5 17.5C5 10.5964 10.5964 5 17.5 5H46.5C53.4036 5 59 10.5964 59 17.5V46.5C59 53.4036 53.4036 59 46.5 59H17.5C10.5964 59 5 53.4036 5 46.5V17.5Z" fill="#FD1E1E"/>
<path d="M40.5205 46.9613C40.3445 48.1928 39.2899 49.1077 38.0459 49.1078H34.6445L38.1641 24.058C38.3375 22.8238 39.3933 21.9057 40.6396 21.9057H44.1025L40.5205 46.9613Z" fill="white"/>
<path d="M25.8125 39.9418C25.639 41.1758 24.5831 42.0941 23.3369 42.0941H19.875L23.4561 17.0385C23.6321 15.807 24.6867 14.8921 25.9307 14.892H29.332L25.8125 39.9418Z" fill="white"/>
<path d="M17.9922 39.934C17.8214 41.1706 16.7649 42.092 15.5166 42.0922H12.0596L14.6064 24.0561C14.7807 22.8227 15.8364 21.9057 17.082 21.9057H20.4795L17.9922 39.934Z" fill="white"/>
<path d="M33.7402 39.934C33.5694 41.1706 32.513 42.092 31.2646 42.0922H27.8076L30.3545 24.0561C30.5287 22.8227 31.5844 21.9057 32.8301 21.9057H36.2275L33.7402 39.934Z" fill="white"/>
<path d="M49.4541 39.934C49.2833 41.1708 48.2261 42.0922 46.9775 42.0922H43.5205L46.0674 24.0561C46.2416 22.8227 47.2974 21.9058 48.543 21.9057H51.9414L49.4541 39.934Z" fill="white"/>
</svg>
