<svg width="64" height="64" viewBox="0 0 64 64" fill="none" xmlns="http://www.w3.org/2000/svg">
<path d="M15.8 9.2815C16.3432 8.80689 16.9285 8.38501 17.5508 8.0106V26.1143C14.8508 24.2106 12.3143 22.1434 9.61426 20.2344C8.02695 19.1217 6.59785 18.0143 5.01055 16.9016C8.65977 14.3651 12.1613 11.818 15.8105 9.2815H15.8ZM12.1508 13.5688C12.1508 14.0487 11.9873 14.3651 11.9873 14.8397C11.8238 15.3196 12.4672 15.9524 11.9873 16.427C11.6709 17.2233 11.3545 17.8561 11.0381 18.4942C10.8641 18.7315 10.8641 19.0532 11.0381 19.2905C11.2016 19.6069 11.6709 19.454 11.9873 19.454C12.3037 19.6174 12.4672 19.7704 12.7836 19.7704C13.1 19.7704 13.2635 19.6069 13.5799 19.6069C13.8963 19.6069 14.2127 19.7704 14.3762 19.6069C14.5396 19.6069 14.6926 19.4434 15.009 19.2905H15.8C16.1164 19.127 16.1164 18.6577 15.9635 18.3413C15.452 17.8297 15.0248 17.2391 14.6926 16.5905C14.2127 15.9577 15.009 15.1614 14.6926 14.5233C14.5291 14.3598 14.5291 13.8905 14.5291 13.5741H14.2127C14.0809 13.9854 13.7961 14.3282 13.4164 14.5233C13.0051 14.3915 12.6623 14.1067 12.4672 13.727C12.4672 13.5635 12.3037 13.5635 12.1508 13.5635V13.5688ZM18.5 8.01587C20.0873 9.12857 21.6799 10.236 23.4201 11.3487L31.5201 17.0651C31.2248 17.2338 30.9559 17.4501 30.7238 17.6979C26.7529 20.3979 22.7873 23.2614 18.6529 25.9614C18.5 20.0815 18.5 14.0487 18.5 8.01587ZM19.7709 14.845C19.9449 15.2352 20.1611 15.6096 20.4037 15.9577C20.5672 15.9577 20.7201 15.7942 20.8836 15.7942V19.6069C22.3074 19.7651 23.7471 19.7651 25.1709 19.6069C25.25 18.336 25.25 17.0651 25.1709 15.7942C25.3344 15.7942 25.4873 15.9577 25.6508 15.9577C26.0041 15.5991 26.2783 15.1667 26.4471 14.6868C25.6508 14.5233 24.8598 14.054 24.0635 13.8905C23.8947 14.3651 23.4518 14.6815 22.9508 14.6868C22.4709 14.6868 22.1545 14.2069 22.0016 13.8905C21.2211 14.112 20.4775 14.4284 19.7814 14.8397L19.7709 14.845ZM32.4746 17.2286C36.7672 14.0487 41.218 11.0323 45.5 8.01587V25.9667C41.2127 23.0979 36.7672 20.0815 32.4799 17.2286H32.4746ZM39.4566 13.5741C39.2193 14.3493 39.2193 15.1825 39.4566 15.9577C39.773 16.754 40.5693 17.2286 41.0439 17.8614C41.3604 18.1778 41.2074 18.6577 41.2074 18.9741C40.7539 19.1217 40.3268 19.3327 39.9365 19.6069H42.8C42.3201 19.4434 42.0037 19.127 41.5291 18.9741C41.5291 18.6577 41.3656 18.0249 41.6926 17.8614C42.3834 17.3815 42.9318 16.7223 43.2799 15.9577C43.5963 15.1614 43.2799 14.3704 43.1164 13.5741H39.4566ZM46.2963 8.01587L49.6291 10.3995C52.3291 12.3032 54.8656 14.0487 57.5656 15.9629L58.9947 16.9122C54.7074 19.9286 50.5783 22.945 46.291 26.1249V8.01587H46.2963ZM48.6799 12.936C48.817 13.5213 49.2336 13.9959 49.7926 14.2069H50.7418C50.5783 13.8905 50.5783 13.4106 50.2619 13.2577C49.7873 12.7725 49.1492 12.936 48.6799 12.936ZM51.2164 13.4159C51.0213 13.6584 50.8631 13.9274 50.7365 14.2122C51.0529 14.2122 51.5328 14.2122 51.6857 14.0487C51.8809 13.8061 52.0443 13.5372 52.1656 13.2524C51.8439 13.226 51.517 13.284 51.2164 13.4159ZM50.2672 14.5286C48.7959 14.7659 47.7939 16.1528 48.0312 17.6241C48.0365 17.6504 48.0418 17.6821 48.0471 17.7084C48.2633 19.0848 49.5131 20.0551 50.9 19.9286C51.6277 19.8442 52.2975 19.5067 52.8037 18.9793C53.4313 18.1672 53.6105 17.0915 53.2836 16.1159C52.7035 15.0084 51.5012 14.3756 50.2672 14.5286ZM46.7709 26.9159C50.9 23.8995 54.8709 21.036 59 18.0196V35.9704C54.8709 32.9487 50.9 30.0852 46.7709 27.0688C46.7709 27.0688 46.6074 26.9053 46.7709 26.9053V26.9159ZM53.2836 25.1651C52.2395 25.2969 51.343 25.9614 50.9 26.9159C50.7365 27.5487 51.3799 27.8651 51.6963 28.345C52.192 28.7668 52.7984 29.0411 53.4471 29.1413C53.9006 29.4946 54.3752 29.811 54.8762 30.0905C55.008 29.6792 55.0607 29.252 55.0396 28.8196C55.5934 28.4874 56.126 28.1129 56.627 27.7069C57.1068 27.8704 57.4232 28.3397 57.7396 28.5032C57.9031 28.5032 58.2195 28.5032 58.2195 28.3397C58.1879 27.9495 58.0824 27.5751 57.9031 27.227C58.1035 26.8895 58.209 26.5045 58.2195 26.1143C58.2195 25.7979 57.9031 25.6344 57.5867 25.7979C57.2492 25.9772 56.9697 26.2567 56.7904 26.5942C56.1576 26.2778 55.6777 25.7979 55.0396 25.4815V24.2106C54.2434 24.2106 53.7687 24.8434 53.2889 25.1598L53.2836 25.1651ZM5 18.1778C9.1291 21.1942 13.1 24.0577 17.2291 27.0741C17.3926 27.0741 17.2291 27.2376 17.2291 27.2376C13.1 30.0905 9.1291 33.1122 5 35.9651V18.1778ZM8.64922 24.3741C8.52793 24.6588 8.36445 24.9278 8.16934 25.1704C8.01641 25.3655 7.78437 25.4815 7.53652 25.4868C7.10938 25.8348 6.87207 26.3622 6.90371 26.9106C6.74551 27.4274 6.74551 27.9811 6.90371 28.4979C6.95117 28.9778 7.37305 29.3311 7.85293 29.2942H11.5021C11.7975 29.2889 12.0822 29.1782 12.2984 28.9778C12.6148 28.6614 12.4619 28.0286 12.4619 27.5487C12.3986 26.8948 12.2352 26.2514 11.982 25.645C11.6551 25.4499 11.3334 25.2389 11.0328 25.0122C10.8852 24.469 10.4633 24.0418 9.92012 23.8995C9.45605 23.91 9.01309 24.0788 8.64922 24.3741ZM27.0746 23.2614C27.7074 22.4651 27.8709 21.5106 28.3455 20.7249C28.7832 21.4895 29.1523 22.2858 29.4582 23.1084C29.7746 23.1084 30.091 23.2719 30.5709 23.2719V24.2159C31.0508 24.0524 31.5201 24.0524 32.1582 23.8995C31.8418 22.7868 31.3619 21.6793 31.0455 20.7196C32.1582 21.1995 33.1127 21.5159 34.0619 21.9905C33.7455 22.6233 33.582 23.4196 33.2656 24.2106C33.7455 24.0471 34.2148 24.0471 34.5365 23.8942C34.7 23.8942 34.7 23.7307 34.8529 23.5778C35.2906 22.6497 35.665 21.6952 35.9656 20.7143C36.7619 21.1942 37.3947 21.827 38.1857 22.3016L37.7059 22.7815C37.226 23.2614 36.5932 23.5778 36.1186 24.0524H38.1857C38.3492 24.5323 38.5022 25.1651 38.6656 25.6397H37.4053C37.2418 26.2725 37.0889 26.9106 36.9254 27.7069C37.5266 27.7913 38.1119 27.9547 38.6762 28.1868C38.982 28.6719 39.1982 29.2098 39.309 29.7741C38.6762 29.9375 37.8799 29.9375 37.2418 30.0905L36.7619 33.4233C36.4297 33.7397 36.0553 34.0086 35.6492 34.2196C35.3328 32.7905 35.1693 31.3561 34.8529 29.9323C34.3678 29.9586 33.8879 29.9006 33.4238 29.7688C33.1074 30.8815 32.9439 32.1524 32.6275 33.2651C32.3111 33.745 31.8312 33.745 31.3566 34.0614C31.383 32.685 31.3303 31.3034 31.1932 29.9323C30.8662 29.9534 30.5393 29.9006 30.2439 29.7688C30.0805 29.2889 29.9275 28.9725 29.7641 28.4979C29.1313 29.1307 29.2842 30.0852 29.1313 30.8815C28.9678 31.9942 28.8148 33.1016 28.6514 34.0614C27.7654 33.476 26.9217 32.8432 26.1148 32.1577C26.5947 31.9942 27.2275 31.8413 27.7021 31.6778C27.5387 30.8815 27.5387 30.0905 27.3857 29.2942C27.0693 29.4577 26.7529 29.7741 26.4365 29.927C26.1201 29.1307 25.9566 28.1762 25.6402 27.3905C26.2361 27.3747 26.8268 27.2692 27.391 27.0741C27.391 26.4413 27.2275 25.9614 27.2275 25.3233C27.0641 25.3233 26.9111 25.1598 26.7477 25.1598C26.3943 24.6536 26.0779 24.1209 25.7984 23.5725C26.2414 23.562 26.6738 23.4512 27.0693 23.2561L27.0746 23.2614ZM29.1365 27.2323H30.7238L30.2439 28.1815L31.673 27.7016C31.5096 27.2217 31.5096 26.5889 31.3566 26.1143C31.0402 25.9508 30.7238 25.9508 30.4074 25.7979C30.091 25.4815 30.091 25.1651 29.9275 24.8487C29.2947 25.3286 29.2947 26.2778 29.1313 27.2323H29.1365ZM33.7402 25.9614C33.5768 26.5942 33.5768 27.2323 33.4238 27.8651C34.0566 27.7016 34.5365 27.7016 35.1746 27.5487C35.1746 26.9159 35.0111 26.2778 35.0111 25.7979C34.5787 25.7768 34.1516 25.8295 33.7402 25.9614ZM9.44023 24.3741C9.92012 24.2106 10.3895 24.6905 10.5529 25.1704H8.64922C8.96562 24.854 9.1291 24.5375 9.44551 24.3741H9.44023ZM33.1127 37.0778L45.5 28.0286V46.1323L41.6873 43.2688C38.8238 41.2016 35.9709 38.9815 33.1074 37.0725L33.1127 37.0778ZM40.5799 33.4286C40.4164 33.745 40.4164 34.2249 40.2635 34.5413C40.5799 34.3778 40.8963 34.3778 41.2127 34.2249C41.7611 34.0983 42.3412 34.2143 42.8 34.5413C42.6365 34.2249 42.6365 33.745 42.4836 33.4286H40.5799ZM40.8963 34.8577C40.2529 35.0475 39.7309 35.5116 39.4672 36.1286C39.2141 37.0461 39.6043 38.0217 40.4164 38.5122C41.1916 38.9657 42.1725 38.8338 42.8 38.1958C43.5963 37.526 43.7018 36.3395 43.032 35.5432C42.8422 35.3112 42.5943 35.1319 42.3201 35.0159C41.8402 34.6995 41.3709 34.8524 40.891 34.8524L40.8963 34.8577ZM40.2635 38.9868C40.427 39.3032 40.427 39.7831 40.5799 40.0995H42.3307C42.4572 39.7356 42.5627 39.3612 42.6471 38.9868C42.009 39.4667 41.0598 39.3085 40.2635 38.9868ZM46.2963 27.8704C50.5836 30.8815 54.7127 33.745 59 36.7614L52.3291 41.5286C50.4254 42.9577 48.3582 44.392 46.4492 45.8159C46.291 39.936 46.291 33.8979 46.291 27.8651L46.2963 27.8704ZM50.4254 32.954V34.2249H50.9C51.0635 33.9084 50.9 33.745 50.9 33.4286C51.2164 32.9487 50.5836 33.1122 50.4201 32.9487L50.4254 32.954ZM48.6799 33.1174V34.2301C48.8434 34.2301 48.9963 34.3936 49.1598 34.3936C48.9963 33.9137 49.4762 33.1227 48.6799 33.1227V33.1174ZM52.3291 33.1174C52.1656 33.4338 52.3291 33.7502 52.3291 34.0667C52.3291 34.2301 52.809 34.2301 52.809 34.0667C52.9725 33.7502 52.809 33.4338 52.809 33.1174H52.3291ZM48.2 34.8524V39.4561C48.2 39.6196 48.5164 39.7725 48.6799 39.7725H52.3291C52.6455 39.7725 52.9619 39.936 53.1254 39.609C53.2572 39.3084 53.31 38.9815 53.2889 38.6598C53.6053 38.4963 53.7687 38.4963 54.0852 38.3434C54.5861 37.9795 54.7232 37.2887 54.4016 36.7561C54.0852 36.3501 53.6369 36.0653 53.1307 35.9598V34.8524H48.2ZM5 36.7614C9.1291 33.8979 13.2635 30.8815 17.5508 28.0286V45.9741C15.0143 44.2233 12.6307 42.3249 10.0836 40.4106C8.33281 39.145 6.5873 38.0323 5 36.7614ZM15.4836 33.745C15.1672 34.2249 14.6873 34.5413 14.5344 35.0159C14.0545 35.8122 13.9016 36.7667 13.2635 37.5524C12.3143 37.8688 11.0434 37.8688 10.2471 38.8233C11.1752 39.4667 12.3512 39.6407 13.427 39.3032C14.0598 39.1397 14.2232 38.5069 14.3762 38.0323C14.4447 37.4258 14.7242 36.8616 15.1725 36.445C15.3359 36.2815 15.4889 36.6084 15.4889 36.7614V39.4614H15.8C15.8 38.5122 15.6365 37.3942 16.1164 36.445C16.3854 35.9651 16.4961 35.4061 16.4328 34.8577C16.2535 34.3883 15.916 33.9981 15.4836 33.745ZM18.5 28.0286C21.0365 29.7793 23.4201 31.5249 25.8037 33.4286C27.391 34.6995 29.1365 35.8122 30.7238 37.0778C26.6 40.0942 22.4709 43.1159 18.5 46.1323V28.0286ZM21.9963 33.9084C21.6799 34.0719 21.6799 34.3883 21.3635 34.5413C20.9363 34.5149 20.5039 34.5729 20.0926 34.7047C19.9291 34.7047 19.7762 35.0211 19.7762 35.1846V38.8338C19.7762 39.1502 20.2561 39.1502 20.409 39.1502H25.6455C25.9619 39.1502 25.9619 38.8338 25.9619 38.5174V34.8524C25.5295 34.5993 25.0285 34.4885 24.5328 34.536C24.343 34.2407 24.0635 34.0192 23.7365 33.9032L21.9963 33.9084ZM18.9799 46.7651C23.2672 43.7487 27.3963 40.7323 31.6836 37.8688V47.3979C31.8471 50.2614 31.6836 53.1143 31.6836 55.8143C28.6672 53.7471 25.8037 51.527 22.7873 49.4651C21.5164 48.5159 20.0873 47.5614 18.9746 46.7651H18.9799ZM26.9164 43.2688H27.5492C27.3857 43.1053 27.3857 42.9524 27.2328 42.9524L26.9164 43.2688ZM24.6963 44.6979C24.285 45.2833 23.9633 45.9213 23.7471 46.6016C23.9105 46.6016 24.227 46.4381 24.3799 46.4381C24.8598 46.4381 25.3291 46.6016 25.6508 46.4381C26.0041 46.2799 26.4102 46.2799 26.7635 46.4381C26.7898 47.2924 26.7371 48.1467 26.6 48.9905C26.6 49.3069 26.1201 49.3069 25.9672 49.3069L25.4873 48.3577C25.3238 48.5211 25.1709 48.5211 25.1709 48.6741C25.1023 49.2331 25.4346 49.7604 25.9672 49.945C26.5631 50.1295 27.2012 49.792 27.3857 49.1961L27.4016 49.1487V46.4487C27.8814 46.3432 28.3877 46.4012 28.8307 46.6122C29.4002 46.454 30.0066 46.454 30.5814 46.6122C30.4813 45.9688 30.207 45.3624 29.7852 44.8614C29.4846 44.5081 29.0996 44.2338 28.6725 44.0651C27.3963 43.1422 25.6191 43.427 24.6963 44.6979ZM32.4799 37.8741C36.7672 40.8905 40.8963 43.754 45.1836 46.7704C41.0545 49.7868 36.7672 52.9667 32.6328 55.9831C32.4746 49.7868 32.4746 43.754 32.4746 37.8846L32.4799 37.8741ZM36.609 42.9577C36.4455 43.1211 36.4455 43.4376 36.1291 43.4376C35.6492 43.754 35.1799 44.2338 34.7 44.5502C34.8846 44.6768 35.1113 44.7348 35.3328 44.7137H38.8291C38.5127 44.2338 38.0328 44.0809 37.7164 43.7645C37.2365 43.4481 36.9201 43.1317 36.6037 42.9682L36.609 42.9577ZM34.7 45.336V48.6688C34.7 48.8323 34.7 49.1487 35.0164 49.1487H38.6656C38.7975 48.6846 38.8502 48.1995 38.8291 47.7196V45.336C38.8291 45.1725 38.5127 45.1725 38.3492 45.1725C37.1311 45.1409 35.9129 45.1936 34.7 45.336Z" fill="#D81E06"/>
</svg>
