<svg width="64" height="64" viewBox="0 0 64 64" fill="none" xmlns="http://www.w3.org/2000/svg">
<path d="M15.8346 23.7115C15.0463 27.2587 15.4405 30.8059 16.2287 33.959C17.017 36.718 15.8346 39.477 13.4698 41.0535C9.92254 43.0242 5.58703 40.2652 5.19289 36.718C1.64565 18.1935 18.1994 1.24562 37.118 4.79285C26.0822 5.97527 17.8053 13.4639 15.8346 23.7115Z" fill="#FFC300"/>
<path d="M32.7826 49.3305C35.9357 48.148 39.0888 46.1774 41.4536 43.8125C43.4243 41.8418 46.5774 41.4477 48.9422 43.0242C52.4894 44.9949 52.4894 50.1187 49.3363 52.4836C35.1474 64.7018 12.2874 58.7898 5.9812 40.6594C11.8933 49.3305 22.9291 52.4836 32.7826 49.3305Z" fill="#FA5500"/>
<path d="M46.5773 21.7409C43.8183 19.3761 40.6652 17.7995 37.5121 17.0113C34.7532 16.223 32.7825 13.8582 32.7825 11.0992C32.7825 7.15781 37.118 4.39885 40.6652 5.9754C58.4014 12.2816 64.7076 34.7475 52.0952 49.3305C56.8249 39.8712 54.0659 28.4412 46.5773 21.7409Z" fill="#71C400"/>
<path d="M39.0887 30.4119C39.0887 29.6237 39.0887 28.8354 38.6946 28.4413C38.6946 28.0471 38.6946 28.0471 38.3005 27.653C38.3005 23.7116 35.9356 20.5585 31.6001 20.5585C27.2646 20.5585 24.8998 23.7116 24.8998 27.653C24.8998 28.0471 24.5056 28.0471 24.5056 28.4413C24.1115 29.2295 24.1115 29.6237 24.1115 30.0178V30.4119C23.3232 30.8061 22.535 31.9885 22.1408 33.1709C21.3525 35.1416 21.3525 37.1123 21.7467 37.1123C22.1408 37.5064 22.9291 36.7181 23.7174 35.9299C23.7174 37.1123 24.5056 38.2947 25.2939 39.083C24.5056 39.083 23.7174 39.8712 23.7174 40.6595C23.7174 41.8419 25.2939 42.6302 27.6587 42.6302C29.6294 42.6302 31.206 41.8419 31.6001 41.0537H31.9943C32.3884 41.8419 33.965 42.6302 35.9356 42.6302C37.9063 42.6302 39.877 41.8419 39.877 40.6595C39.877 39.8712 39.0887 39.4771 38.3005 39.083C39.0887 38.2947 39.877 37.5064 40.2711 36.324C41.0594 37.5064 41.8477 37.9006 42.2418 37.5064C43.0301 37.1123 42.636 35.5357 41.8477 33.565C40.6653 31.5944 39.877 30.8061 39.0887 30.4119Z" fill="#089CEC"/>
</svg>
