<svg width="91" height="64" viewBox="0 0 91 64" fill="none" xmlns="http://www.w3.org/2000/svg">
<path d="M39.0605 10.8894C41.537 8.29694 44.9848 6.68901 48.7979 6.68901C53.8668 6.68901 58.2891 9.52878 60.6443 13.7445C62.6909 12.8258 64.9562 12.3147 67.3396 12.3147C76.4819 12.3147 83.8938 19.8264 83.8938 29.092C83.8938 38.3586 76.4819 45.8703 67.3396 45.8703C66.2446 45.8709 65.1523 45.7616 64.0789 45.5439C62.005 49.2606 58.0529 51.7719 53.5168 51.7719C51.6178 51.7719 49.8217 51.3312 48.2226 50.5476C46.1202 55.5161 41.222 58.9999 35.5132 58.9999C29.5681 58.9999 24.5015 55.2205 22.5566 49.9201C21.7067 50.1014 20.8262 50.1959 19.9226 50.1959C12.8444 50.196 7.10608 44.3713 7.10608 37.185C7.10608 32.3692 9.68427 28.1644 13.5149 25.9148C12.7263 24.0916 12.2876 22.0793 12.2876 19.9637C12.2876 11.6993 18.9655 4.99991 27.2022 4.99991C32.038 4.99991 36.3358 7.30999 39.0605 10.8894Z" fill="#00A1E0"/>
<path d="M18.228 33.0031C18.1799 33.1295 18.2456 33.1559 18.2609 33.1778C18.4052 33.2833 18.5519 33.3592 18.6995 33.4438C19.4827 33.8614 20.2222 33.9833 20.9955 33.9833C22.5707 33.9833 23.5485 33.1415 23.5485 31.7864V31.7601C23.5485 30.5072 22.4449 30.0522 21.409 29.7236L21.2745 29.6797C20.4935 29.4247 19.8197 29.205 19.8197 28.6884V28.661C19.8197 28.2192 20.2135 27.8938 20.8238 27.8938C21.502 27.8938 22.3071 28.1203 22.8255 28.4082C22.8255 28.4082 22.9776 28.5071 23.0334 28.3587C23.064 28.2796 23.3265 27.5696 23.3539 27.4927C23.3834 27.4092 23.3309 27.3476 23.2773 27.3146C22.6856 26.9531 21.8673 26.7058 21.0208 26.7058L20.8633 26.7069C19.4216 26.7069 18.4153 27.5817 18.4153 28.8356V28.862C18.4153 30.1841 19.5255 30.6127 20.5658 30.9116L20.7331 30.9633C21.4912 31.1974 22.1442 31.3985 22.1442 31.9348V31.9612C22.1442 32.4514 21.7198 32.8162 21.0351 32.8162C20.7693 32.8162 19.9215 32.8107 19.006 32.2293C18.8955 32.1644 18.831 32.1172 18.7456 32.0655C18.7008 32.037 18.5881 31.9875 18.539 32.137L18.228 33.0031ZM41.2873 33.0031C41.2391 33.1295 41.3048 33.1559 41.3201 33.1778C41.4644 33.2833 41.6111 33.3592 41.7587 33.4438C42.5418 33.8614 43.2814 33.9833 44.0547 33.9833C45.6298 33.9833 46.6078 33.1415 46.6078 31.7864V31.7601C46.6078 30.5072 45.5041 30.0522 44.4681 29.7236L44.3336 29.6797C43.5526 29.4247 42.8787 29.205 42.8787 28.6884V28.661C42.8787 28.2192 43.2725 27.8938 43.8829 27.8938C44.5611 27.8938 45.3662 28.1203 45.8847 28.4082C45.8847 28.4082 46.0367 28.5071 46.0925 28.3587C46.123 28.2796 46.3856 27.5696 46.413 27.4927C46.4426 27.4092 46.39 27.3476 46.3364 27.3146C45.7446 26.9531 44.9264 26.7058 44.0798 26.7058L43.9223 26.7069C42.4806 26.7069 41.4743 27.5817 41.4743 28.8356V28.862C41.4743 30.1841 42.5845 30.6127 43.6248 30.9116L43.7921 30.9633C44.5502 31.1974 45.2044 31.3985 45.2044 31.9348V31.9612C45.2044 32.4514 44.7788 32.8162 44.094 32.8162C43.8283 32.8162 42.9806 32.8107 42.0651 32.2293C41.9545 32.1644 41.889 32.1194 41.8059 32.0655C41.7773 32.0468 41.6439 31.9952 41.5979 32.137L41.2873 33.0031ZM57.0292 30.3488C57.0292 31.1148 56.887 31.7181 56.607 32.1445C56.3302 32.5666 55.9113 32.7721 55.3273 32.7721C54.7421 32.7721 54.3253 32.5677 54.0529 32.1445C53.7772 31.7193 53.6373 31.1148 53.6373 30.3488C53.6373 29.5839 53.7772 28.9816 54.0529 28.5596C54.3253 28.142 54.7421 27.9387 55.3273 27.9387C55.9114 27.9387 56.3303 28.142 56.6081 28.5596C56.8871 28.9816 57.0292 29.5839 57.0292 30.3488ZM58.3441 28.9289C58.2149 28.4903 58.0137 28.1035 57.7457 27.7815C57.4777 27.4584 57.1387 27.1991 56.736 27.0101C56.3346 26.8222 55.8599 26.7266 55.3273 26.7266C54.7934 26.7266 54.3187 26.8222 53.9173 27.0101C53.5147 27.1991 53.1757 27.4585 52.9066 27.7815C52.6397 28.1047 52.4384 28.4915 52.3083 28.9289C52.1803 29.3652 52.1157 29.8421 52.1157 30.3488C52.1157 30.8555 52.1803 31.3335 52.3083 31.7687C52.4384 32.2061 52.6386 32.593 52.9077 32.916C53.1757 33.2392 53.5159 33.4974 53.9173 33.6809C54.3198 33.8645 54.7934 33.9578 55.3273 33.9578C55.86 33.9578 56.3337 33.8645 56.7361 33.6809C57.1376 33.4974 57.4777 33.2391 57.7458 32.916C58.0138 32.594 58.215 32.2072 58.3441 31.7687C58.4733 31.3324 58.5377 30.8543 58.5377 30.3488C58.5377 29.8433 58.4731 29.3652 58.3441 28.9289ZM69.141 32.5675C69.0973 32.4389 68.9737 32.4873 68.9737 32.4873C68.7823 32.5609 68.5787 32.6291 68.3622 32.6631C68.1423 32.6971 67.9005 32.7148 67.6413 32.7148C67.0048 32.7148 66.4994 32.5247 66.1374 32.1488C65.7742 31.7729 65.5707 31.1652 65.5729 30.3432C65.5751 29.5947 65.7544 29.032 66.0772 28.6035C66.3977 28.1771 66.8856 27.9583 67.5364 27.9583C68.079 27.9583 68.4924 28.021 68.9255 28.1583C68.9255 28.1583 69.0294 28.2034 69.0786 28.0671C69.1934 27.7462 69.2787 27.5165 69.4012 27.1637C69.4363 27.0637 69.351 27.0209 69.3203 27.0087C69.1497 26.9417 68.7471 26.833 68.4431 26.7868C68.1587 26.7428 67.8261 26.7198 67.4564 26.7198C66.9039 26.7198 66.4118 26.8143 65.9907 27.0033C65.5706 27.1912 65.2141 27.4506 64.9319 27.7737C64.6496 28.0969 64.4353 28.4836 64.292 28.921C64.1498 29.3573 64.0776 29.8365 64.0776 30.3432C64.0776 31.4388 64.3718 32.3246 64.9527 32.973C65.5346 33.6237 66.4086 33.9544 67.5484 33.9544C68.2222 33.9544 68.9135 33.8171 69.4102 33.6203C69.4102 33.6203 69.5053 33.5742 69.4637 33.4633L69.141 32.5675ZM71.4415 29.615C71.5038 29.1897 71.6209 28.8358 71.8013 28.56C72.0738 28.1413 72.4894 27.9116 73.0735 27.9116C73.6577 27.9116 74.0438 28.1423 74.3205 28.56C74.5043 28.8358 74.5842 29.2051 74.6159 29.615H71.4415ZM75.8683 28.6797C75.7567 28.2566 75.4799 27.829 75.2984 27.6334C75.0117 27.3235 74.7318 27.107 74.4539 26.9861C74.0908 26.83 73.6554 26.7268 73.1785 26.7268C72.6229 26.7268 72.1186 26.8202 71.7095 27.0136C71.2993 27.2071 70.9548 27.4709 70.6846 27.7995C70.4143 28.1269 70.2109 28.5171 70.0818 28.9599C69.9517 29.4007 69.886 29.881 69.886 30.3875C69.886 30.903 69.9539 31.3832 70.0884 31.8151C70.2241 32.2503 70.4406 32.6338 70.7338 32.9514C71.0258 33.2713 71.4021 33.5219 71.8528 33.6965C72.3002 33.8702 72.8439 33.9603 73.4684 33.9591C74.7537 33.9547 75.4307 33.6668 75.7097 33.5118C75.759 33.4844 75.806 33.4361 75.7468 33.2976L75.4559 32.4788C75.4122 32.3568 75.2885 32.4019 75.2885 32.4019C74.9702 32.5206 74.5174 32.7338 73.4618 32.7316C72.7716 32.7305 72.2596 32.5261 71.9391 32.2062C71.6099 31.8788 71.4491 31.3974 71.4206 30.7182L75.8715 30.7226C75.8715 30.7226 75.9885 30.7205 76.0006 30.6061C76.005 30.5579 76.1538 29.6875 75.8683 28.6797ZM35.7967 29.615C35.8601 29.1897 35.9761 28.8358 36.1565 28.56C36.4289 28.1413 36.8446 27.9116 37.4287 27.9116C38.0128 27.9116 38.3989 28.1423 38.6767 28.56C38.8593 28.8358 38.9392 29.2051 38.9709 29.615H35.7967ZM40.2223 28.6797C40.1108 28.2566 39.8351 27.829 39.6536 27.6334C39.367 27.3235 39.0869 27.107 38.8091 26.9861C38.446 26.83 38.0107 26.7268 37.5337 26.7268C36.9792 26.7268 36.4738 26.8202 36.0647 27.0136C35.6545 27.2071 35.31 27.4709 35.0398 27.7995C34.7696 28.1269 34.5661 28.5171 34.4371 28.9599C34.308 29.4007 34.2413 29.881 34.2413 30.3875C34.2413 30.903 34.3091 31.3832 34.4437 31.8151C34.5794 32.2503 34.796 32.6338 35.0891 32.9514C35.3811 33.2713 35.7574 33.5219 36.208 33.6965C36.6555 33.8702 37.1991 33.9603 37.8237 33.9591C39.1089 33.9547 39.786 33.6668 40.065 33.5118C40.1142 33.4844 40.1612 33.4361 40.1022 33.2976L39.8123 32.4788C39.7674 32.3568 39.6439 32.4019 39.6439 32.4019C39.3256 32.5206 38.8738 32.7338 37.8161 32.7316C37.127 32.7305 36.615 32.5261 36.2945 32.2062C35.9652 31.8788 35.8045 31.3974 35.776 30.7182L40.2268 30.7226C40.2268 30.7226 40.3438 30.7205 40.3559 30.6061C40.3601 30.5579 40.5089 29.6875 40.2223 28.6797ZM26.1762 32.543C26.0023 32.4034 25.9782 32.3683 25.9192 32.2781C25.8316 32.1408 25.7868 31.9451 25.7868 31.6968C25.7868 31.3033 25.9159 31.0209 26.1839 30.8308C26.1807 30.8319 26.5668 30.4956 27.4746 30.5076C28.1123 30.5164 28.6822 30.611 28.6822 30.611V32.6441H28.6832C28.6832 32.6441 28.1177 32.7661 27.4812 32.8045C26.5755 32.8595 26.1729 32.5419 26.1762 32.543ZM27.9471 29.401C27.7666 29.3878 27.5325 29.3801 27.2525 29.3801C26.8708 29.3801 26.5021 29.4284 26.1565 29.5218C25.8087 29.6152 25.4958 29.7615 25.2267 29.9548C24.958 30.1475 24.7372 30.3998 24.5814 30.6922C24.4239 30.9868 24.344 31.334 24.344 31.7231C24.344 32.1187 24.4118 32.4627 24.5475 32.7441C24.6831 33.0265 24.8789 33.2617 25.1282 33.4431C25.3754 33.6244 25.6807 33.7573 26.035 33.8376C26.384 33.9178 26.7799 33.9584 27.2131 33.9584C27.6692 33.9584 28.1243 33.9211 28.5651 33.8452C29.0015 33.7705 29.5375 33.6617 29.6862 33.6277C29.7905 33.6024 29.8945 33.5757 29.998 33.5474C30.1085 33.52 30.0998 33.4012 30.0998 33.4012L30.0975 29.3119C30.0975 28.4151 29.8591 27.7502 29.3899 27.3381C28.9227 26.9271 28.2347 26.7193 27.3455 26.7193C27.0118 26.7193 26.4748 26.7656 26.1532 26.8303C26.1532 26.8303 25.1807 27.0194 24.7804 27.3337C24.7804 27.3337 24.6929 27.3887 24.741 27.5118L25.0561 28.3624C25.0954 28.4723 25.2016 28.435 25.2016 28.435C25.2016 28.435 25.2355 28.4218 25.2749 28.3987C26.1314 27.9305 27.2143 27.9448 27.2143 27.9448C27.6956 27.9448 28.0653 28.0415 28.3147 28.2338C28.5575 28.4206 28.6811 28.703 28.6811 29.2987V29.4877C28.2982 29.4328 27.9471 29.401 27.9471 29.401ZM63.8451 27.0969C63.8789 26.9957 63.8079 26.9473 63.7783 26.9364C63.7029 26.9067 63.3244 26.8265 63.0323 26.8078C62.4734 26.7737 62.1628 26.8683 61.8849 26.9935C61.6093 27.1188 61.303 27.321 61.1323 27.5507V27.0067C61.1323 26.9309 61.0787 26.8704 61.0043 26.8704H59.8634C59.7891 26.8704 59.7355 26.9308 59.7355 27.0067V33.6765C59.7355 33.7512 59.7968 33.8128 59.8711 33.8128H61.0405C61.0763 33.8126 61.1105 33.7981 61.1358 33.7726C61.161 33.747 61.1751 33.7125 61.175 33.6765V30.3444C61.175 29.8971 61.2242 29.451 61.3227 29.1707C61.4189 28.8937 61.5502 28.6717 61.7121 28.5123C61.8751 28.3541 62.0599 28.2431 62.2623 28.1805C62.469 28.1167 62.6976 28.0959 62.8595 28.0959C63.0925 28.0959 63.3485 28.1563 63.3485 28.1563C63.4337 28.1661 63.4819 28.1134 63.5103 28.0354C63.5869 27.831 63.8035 27.2188 63.8451 27.0969Z" fill="white"/>
<path d="M52.8694 24.0056C52.7272 23.9617 52.5981 23.932 52.4296 23.9002C52.2589 23.8694 52.0555 23.854 51.8248 23.854C51.0196 23.854 50.3852 24.0826 49.9401 24.5331C49.497 24.9816 49.1962 25.664 49.0452 26.5619L48.9905 26.8641H47.9799C47.9799 26.8641 47.8573 26.8597 47.8311 26.9939L47.6659 27.9247C47.6539 28.0126 47.6922 28.0686 47.8103 28.0686H48.7937L47.7961 33.6647C47.7184 34.1153 47.6287 34.4857 47.5291 34.7669C47.4317 35.044 47.3367 35.2516 47.2185 35.4033C47.1048 35.5484 46.9975 35.656 46.8115 35.7187C46.6584 35.7703 46.4812 35.7945 46.2876 35.7945C46.1804 35.7945 46.0372 35.7768 45.931 35.7549C45.826 35.734 45.7702 35.711 45.6904 35.6768C45.6904 35.6768 45.5755 35.633 45.5296 35.7483C45.4934 35.8439 45.231 36.5681 45.1992 36.6572C45.1686 36.7462 45.2124 36.8155 45.2681 36.8363C45.3994 36.8825 45.4967 36.9132 45.675 36.9561C45.9223 37.0144 46.1311 37.0176 46.3269 37.0176C46.736 37.0176 47.1101 36.9594 47.4197 36.8473C47.7304 36.7341 48.0015 36.5374 48.2422 36.2715C48.5015 35.9835 48.6644 35.6824 48.8198 35.2703C48.974 34.8636 49.1065 34.3581 49.2114 33.7691L50.2145 28.0686H51.6802C51.6802 28.0686 51.8037 28.073 51.829 27.9379L51.9952 27.0081C52.0062 26.9192 51.969 26.8642 51.8497 26.8642H50.4266C50.4343 26.8324 50.4988 26.3289 50.6618 25.8554C50.7318 25.6543 50.8631 25.4905 50.9736 25.3783C51.083 25.2685 51.2088 25.1905 51.3467 25.1454C51.4877 25.0992 51.6486 25.0772 51.8247 25.0772C51.9581 25.0772 52.0904 25.0926 52.19 25.1135C52.3278 25.1432 52.3814 25.1586 52.4176 25.1696C52.5631 25.2135 52.5827 25.1707 52.6112 25.1004L52.9514 24.1619C52.9864 24.0606 52.9 24.0177 52.8694 24.0056ZM32.986 33.6768C32.986 33.7516 32.9325 33.812 32.8581 33.812H31.6778C31.6034 33.812 31.5509 33.7516 31.5509 33.6768V24.1331C31.5509 24.0585 31.6034 23.998 31.6778 23.998H32.8581C32.9325 23.998 32.986 24.0585 32.986 24.1331V33.6768Z" fill="white"/>
</svg>
