<svg width="125" height="64" viewBox="0 0 125 64" fill="none" xmlns="http://www.w3.org/2000/svg">
<path fill-rule="evenodd" clip-rule="evenodd" d="M7.22656 58.9999H62.4688L116.531 4.99994H7.22656V58.9999Z" fill="url(#paint0_linear_8459_3135)"/>
<path fill-rule="evenodd" clip-rule="evenodd" d="M72.0936 15.8H61.2984L61.3345 41.156L51.9344 15.7916H42.6136L34.5893 36.9752C33.7362 31.5848 28.156 29.7248 23.7653 28.3316C20.8659 27.4016 17.7886 26.0336 17.8198 24.5216C17.8438 23.2808 19.466 22.13 22.6899 22.3016C24.8528 22.418 26.7633 22.592 30.564 24.4256L34.3009 17.9216C30.8355 16.16 26.0436 15.0476 22.1143 15.044H22.0903C17.5086 15.044 13.6935 16.526 11.3288 18.968C9.6802 20.672 8.79101 22.8392 8.75497 25.2356C8.69489 28.5332 9.9049 30.8708 12.4475 32.7392C14.5959 34.3112 17.344 35.3312 19.7652 36.08C22.7512 37.004 25.1904 37.808 25.1604 39.5192C25.1403 40.1468 24.8877 40.7446 24.4514 41.1968C23.7064 41.9648 22.5649 42.2528 20.9848 42.284C17.9364 42.3488 15.6774 41.87 12.0774 39.7448L8.75256 46.3328C12.3489 48.3752 16.1664 49.4 20.5042 49.4L21.4799 49.3928C25.2553 49.3244 28.3194 48.4208 30.7538 46.4648C30.8932 46.3532 31.0182 46.2404 31.1479 46.1264L30.7394 48.2288L39.8475 48.2L41.4817 44.0216C43.2 44.6072 45.1538 44.9312 47.2277 44.9312C49.2488 44.9312 51.1497 44.624 52.8356 44.072L53.9747 48.2L70.3164 48.2156L70.3561 38.69H73.8335C82.2386 38.69 87.2073 34.418 87.2073 27.254C87.2049 19.2752 82.3744 15.8 72.0936 15.8ZM47.2277 37.4744C46.052 37.4824 44.8846 37.2783 43.7815 36.872L47.1893 26.126H47.2553L50.6078 36.902C49.5985 37.262 48.4497 37.4744 47.2277 37.4744ZM72.7256 31.3004H70.3536V22.64H72.7268C75.887 22.64 78.4104 23.6912 78.4104 26.9144C78.408 30.2504 75.887 31.3004 72.7268 31.3004" fill="white"/>
<defs>
<linearGradient id="paint0_linear_8459_3135" x1="61.8788" y1="4.99994" x2="61.8788" y2="59.0011" gradientUnits="userSpaceOnUse">
<stop stop-color="#00AEEF"/>
<stop offset="0.212" stop-color="#0097DC"/>
<stop offset="0.519" stop-color="#007CC5"/>
<stop offset="0.792" stop-color="#006CB8"/>
<stop offset="1" stop-color="#0066B3"/>
</linearGradient>
</defs>
</svg>
