<svg width="193" height="64" viewBox="0 0 193 64" fill="none" xmlns="http://www.w3.org/2000/svg">
<path d="M26.0972 7.75505C26.4608 7.75505 26.6427 7.93749 27.0063 8.11994C24.8245 9.03217 22.6428 11.404 21.5519 16.5124L17.552 17.6071C18.8247 13.9582 21.3701 7.75505 26.0972 7.75505ZM28.0972 9.5795C28.4608 10.6742 28.8244 11.9513 28.8244 13.9582C28.8244 14.1406 28.8244 14.1406 28.8244 14.3231L23.5518 15.7827C24.6427 11.9513 26.4608 10.3093 28.0972 9.5795ZM32.8243 12.8635L30.4607 13.5933C30.4607 13.4109 30.4607 13.2284 30.4607 13.046C30.4607 11.404 30.2789 10.1268 29.9153 9.03217C31.188 9.39706 32.2788 11.0391 32.8243 12.8635ZM44.6421 15.7827C44.6421 15.6002 44.4603 15.4178 44.2785 15.4178C43.9149 15.4178 40.0968 15.0529 40.0968 15.0529C40.0968 15.0529 37.3696 12.3162 37.006 12.1337C36.6424 11.7689 36.0969 11.9513 35.9151 11.9513C35.9151 11.9513 35.3697 12.1337 34.4606 12.4986C33.5515 9.9444 31.9152 7.5726 29.188 7.5726H29.0062C28.279 6.47793 27.1881 6.11304 26.279 6.11304C19.7338 5.93059 16.6429 14.1406 15.5521 18.3369C14.0976 18.7018 12.6431 19.2491 11.0068 19.7965C9.55225 20.1614 9.55225 20.3438 9.37044 21.6209C9.18862 22.5331 5.55237 51.3596 5.55237 51.3596L34.4606 56.8329L50.0965 53.3665C50.0965 53.3665 44.6421 16.1475 44.6421 15.7827Z" fill="#8DB849"/>
<path d="M44.0968 15.4178C43.915 15.4178 40.0969 15.0529 40.0969 15.0529C40.0969 15.0529 37.3697 12.3162 37.0061 12.1337C36.8243 11.9513 36.8243 11.9513 36.6424 11.9513L34.4607 56.8329L50.0966 53.3665C50.0966 53.3665 44.6422 16.1475 44.6422 15.7827C44.6422 15.6002 44.2786 15.4178 44.0968 15.4178Z" fill="#5A863E"/>
<path d="M29.1881 24.1751L27.1882 30.0134C27.1882 30.0134 25.5519 29.1012 23.3701 29.1012C20.2793 29.1012 20.0975 30.9256 20.0975 31.473C20.0975 34.0272 27.0064 35.1219 27.0064 41.325C27.0064 46.2511 23.9156 49.3526 19.7339 49.3526C14.8249 49.3526 12.2795 46.2511 12.2795 46.2511L13.5522 41.8724C13.5522 41.8724 16.0976 44.0617 18.2794 44.0617C19.7339 44.0617 20.2793 42.967 20.2793 42.0548C20.2793 38.5883 14.6431 38.4059 14.6431 32.7501C14.6431 28.0065 18.0976 23.4454 24.8246 23.4454C27.9154 23.2629 29.1881 24.1751 29.1881 24.1751Z" fill="#FFFFFE"/>
<path d="M68.4597 34.9394C66.8234 34.0272 66.0962 33.2974 66.0962 32.3852C66.0962 31.1081 67.187 30.3783 69.0052 30.3783C71.0051 30.3783 72.8232 31.2905 72.8232 31.2905L74.2777 26.9118C74.2777 26.9118 73.005 25.8172 69.187 25.8172C63.7326 25.8172 60.0963 28.9187 60.0963 33.2974C60.0963 35.8517 61.9145 37.6761 64.0962 38.9532C65.9143 40.0479 66.6416 40.7777 66.6416 41.8724C66.6416 42.967 65.7325 44.0617 63.9144 44.0617C61.369 44.0617 58.8236 42.7846 58.8236 42.7846L57.3691 47.1633C57.3691 47.1633 59.5509 48.6229 63.369 48.6229C68.8233 48.6229 72.8232 45.8862 72.8232 40.9601C72.8232 38.2235 70.8233 36.2166 68.4597 34.9394ZM90.4591 25.6347C87.7319 25.6347 85.5501 26.9118 83.9138 28.9187L86.2774 16.5124H80.0957L74.0959 48.0755H80.2775L82.2775 37.3112C83.0047 33.2974 85.1865 30.7432 87.1864 30.7432C88.6409 30.7432 89.1864 31.6554 89.1864 33.115C89.1864 34.0272 89.1864 34.9394 89.0046 35.8517L86.641 48.258H92.8226L95.1862 35.4868C95.368 34.2097 95.5498 32.5676 95.5498 31.473C95.5498 27.8241 93.7317 25.6347 90.4591 25.6347ZM106.277 43.6968C104.095 43.6968 103.368 41.8724 103.368 39.683C103.368 36.2166 105.186 30.3783 108.459 30.3783C110.64 30.3783 111.368 32.2027 111.368 34.0272C111.368 38.041 109.549 43.6968 106.277 43.6968ZM109.368 25.6347C101.913 25.6347 97.0043 32.3852 97.0043 39.8655C97.0043 44.6091 99.9133 48.4404 105.55 48.4404C112.822 48.4404 117.731 41.8724 117.731 34.2097C117.731 29.831 115.186 25.6347 109.368 25.6347ZM127.549 43.8793C125.913 43.8793 125.003 42.967 125.003 42.967L126.094 37.1288C126.822 33.2974 128.822 30.7432 131.003 30.7432C132.821 30.7432 133.549 32.5676 133.549 34.2097C133.367 38.2235 131.003 43.8793 127.549 43.8793ZM133.549 25.6347C129.367 25.6347 127.003 29.2836 127.003 29.2836L127.367 25.9996H121.913C121.731 28.1889 121.185 31.6554 120.64 34.2097L116.276 56.8329H122.458L124.094 47.7106H124.276C124.276 47.7106 125.549 48.4404 127.913 48.4404C135.185 48.4404 139.912 40.9601 139.912 33.4799C139.912 29.4661 138.094 25.6347 133.549 25.6347ZM148.639 16.8773C146.639 16.8773 145.185 18.5193 145.185 20.5262C145.185 22.3507 146.276 23.6278 148.094 23.6278C150.094 23.6278 151.73 22.3507 151.73 19.9789C151.73 18.1544 150.457 16.8773 148.639 16.8773ZM140.094 48.0755H146.276L150.457 26.182H144.276L140.094 48.0755ZM166.093 26.182H161.73L161.911 25.0874C162.275 22.898 163.548 21.0736 165.548 21.0736C166.639 21.0736 167.548 21.4385 167.548 21.4385L168.82 16.5124C168.82 16.5124 167.729 15.9651 165.548 15.9651C163.366 15.9651 161.184 16.5124 159.548 17.972C157.366 19.7964 156.457 22.3507 155.912 24.9049L155.73 25.9996H152.821L151.912 30.7432H154.821L151.548 48.0755H157.73L161.002 30.7432H165.184L166.093 26.182ZM180.82 26.182C180.82 26.182 177.002 35.8517 175.184 41.1426C175.002 39.5006 173.729 26.182 173.729 26.182H167.184L170.82 46.2511C170.82 46.616 170.82 46.9808 170.639 47.3457C169.911 48.8053 168.639 50.0824 167.366 50.9946C166.275 51.9069 164.82 52.4542 163.911 52.8191L165.548 58.11C166.82 57.9276 169.366 56.8329 171.548 54.826C174.275 52.2718 177.002 48.0755 179.547 42.6021L187.002 26.3645L180.82 26.182Z" fill="#1A1919"/>
</svg>
