<svg width="64" height="64" viewBox="0 0 64 64" fill="none" xmlns="http://www.w3.org/2000/svg">
<path d="M30.5448 8.645C30.9085 8.645 31.0903 8.82745 31.4539 9.00989C29.2722 9.92212 27.0904 12.2939 25.9995 17.4024L21.9996 18.4971C23.2723 14.8482 25.8177 8.645 30.5448 8.645ZM32.5448 10.4695C32.9084 11.5641 33.272 12.8413 33.272 14.8482C33.272 15.0306 33.272 15.0306 33.272 15.213L27.9995 16.6726C29.0903 12.8413 30.9085 11.1992 32.5448 10.4695ZM37.2719 13.7535L34.9084 14.4833C34.9084 14.3008 34.9084 14.1184 34.9084 13.9359C34.9084 12.2939 34.7265 11.0168 34.3629 9.92212C35.6356 10.287 36.7265 11.929 37.2719 13.7535ZM49.0897 16.6726C49.0897 16.4902 48.9079 16.3077 48.7261 16.3077C48.3625 16.3077 44.5444 15.9428 44.5444 15.9428C44.5444 15.9428 41.8172 13.2061 41.4536 13.0237C41.09 12.6588 40.5445 12.8413 40.3627 12.8413C40.3627 12.8413 39.8173 13.0237 38.9082 13.3886C37.9992 10.8343 36.3629 8.46256 33.6357 8.46256H33.4538C32.7266 7.36788 31.6357 7.00299 30.7267 7.00299C24.1814 6.82055 21.0906 15.0306 19.9997 19.2268C18.5452 19.5917 17.0907 20.1391 15.4544 20.6864C13.9999 21.0513 13.9999 21.2338 13.8181 22.5109C13.6363 23.4231 10 52.2495 10 52.2495L38.9082 57.7229L54.5441 54.2564C54.5441 54.2564 49.0897 17.0375 49.0897 16.6726Z" fill="#8DB849"/>
<path d="M48.5443 16.3077C48.3625 16.3077 44.5444 15.9428 44.5444 15.9428C44.5444 15.9428 41.8172 13.2061 41.4536 13.0237C41.2718 12.8412 41.2718 12.8412 41.09 12.8412L38.9082 57.7229L54.5441 54.2564C54.5441 54.2564 49.0897 17.0375 49.0897 16.6726C49.0897 16.4902 48.7261 16.3077 48.5443 16.3077Z" fill="#5A863E"/>
<path d="M33.6356 25.0651L31.6357 30.9033C31.6357 30.9033 29.9994 29.9911 27.8176 29.9911C24.7268 29.9911 24.545 31.8156 24.545 32.3629C24.545 34.9171 31.4539 36.0118 31.4539 42.215C31.4539 47.141 28.3631 50.2426 24.1814 50.2426C19.2724 50.2426 16.7271 47.141 16.7271 47.141L17.9997 42.7623C17.9997 42.7623 20.5451 44.9517 22.7269 44.9517C24.1814 44.9517 24.7268 43.857 24.7268 42.9447C24.7268 39.4783 19.0906 39.2958 19.0906 33.64C19.0906 28.8964 22.5451 24.3353 29.2721 24.3353C32.363 24.1529 33.6356 25.0651 33.6356 25.0651Z" fill="#FFFFFE"/>
</svg>
