<svg width="64" height="64" viewBox="0 0 64 64" fill="none" xmlns="http://www.w3.org/2000/svg">
<path d="M11.1052 57.3728C10.9102 57.2426 10.8493 56.9822 10.9833 56.7811C11.1174 56.5917 11.3855 56.5325 11.5926 56.6627C11.7145 56.7456 11.8486 56.8284 11.9948 56.9112C12.9941 57.503 13.9325 57.7988 14.7002 57.7988C15.3949 57.7988 15.9676 57.5385 16.321 57.0296C16.3454 56.9941 16.3698 56.9704 16.3698 56.9467C16.4673 56.7811 16.5526 56.6154 16.6013 56.4497C16.6988 56.1065 16.6866 55.7515 16.5404 55.4319C16.3942 55.0888 16.0895 54.7692 15.6264 54.497C15.3217 54.3195 14.9318 54.1538 14.4687 54.0237C13.2866 53.7041 12.4213 53.2426 11.9461 52.639C11.4342 51.9645 11.3977 51.1598 11.9461 50.1775C12.3117 49.5266 13.055 49.1243 14.0056 49.0532C14.8221 48.9941 15.8092 49.1834 16.8085 49.6805C17.0279 49.787 17.1132 50.0473 17.0035 50.2485C16.8938 50.4615 16.6257 50.5444 16.4185 50.4379C15.5655 50.0118 14.749 49.858 14.0787 49.9053C13.4328 49.9527 12.9332 50.2012 12.726 50.5917C12.3604 51.2426 12.3604 51.7515 12.6651 52.142C13.0063 52.5917 13.7253 52.9467 14.7124 53.2189C15.2486 53.3609 15.6995 53.5621 16.0773 53.787C16.6988 54.1538 17.1132 54.6154 17.3325 55.1124C17.5641 55.6213 17.5885 56.1775 17.43 56.6982C17.3569 56.9349 17.2472 57.1834 17.101 57.4083C17.0644 57.4556 17.0401 57.5029 17.0279 57.5266C16.5038 58.284 15.6752 58.6627 14.6759 58.6627C13.7497 58.6627 12.6651 58.3314 11.5195 57.6568C11.4098 57.5621 11.2636 57.4793 11.1052 57.3728ZM18.8924 49.4556C18.8924 49.2308 19.0874 49.0532 19.3311 49.0532C19.5749 49.0532 19.7699 49.2308 19.7699 49.4556V58.2485C19.7699 58.4734 19.5749 58.6509 19.3311 58.6509C19.0874 58.6509 18.8924 58.4734 18.8924 58.2485V49.4556Z" fill="#EA501F"/>
<path d="M19.7942 54.9349C19.6358 55.1124 19.3676 55.1479 19.1727 54.9941C18.9899 54.8402 18.9533 54.5799 19.1117 54.3905C19.782 53.5976 20.5376 53.1124 21.2809 52.8994C21.8172 52.7456 22.3412 52.7337 22.7921 52.8521C23.2674 52.9822 23.6817 53.2426 23.9742 53.645C24.2545 54.0237 24.4129 54.5089 24.4129 55.0888V58.2367C24.4129 58.4734 24.2179 58.6627 23.9742 58.6627C23.7304 58.6627 23.5355 58.4734 23.5355 58.2367V55.0888C23.5355 54.6864 23.438 54.3669 23.2674 54.1302C23.0967 53.9053 22.8652 53.7515 22.5727 53.6686C22.2681 53.5858 21.9146 53.5976 21.5369 53.7041C20.9519 53.8817 20.3426 54.284 19.7942 54.9349ZM28.7148 52.7692C29.5556 52.7692 30.3112 53.1006 30.8596 53.6331C31.408 54.1657 31.7492 54.8994 31.7492 55.716C31.7492 56.5325 31.408 57.2663 30.8596 57.7988C30.3112 58.3314 29.5556 58.6627 28.7148 58.6627C27.8739 58.6627 27.1183 58.3314 26.5699 57.7988C26.0215 57.2663 25.6803 56.5325 25.6803 55.716C25.6803 54.8994 26.0215 54.1657 26.5699 53.6331C27.1183 53.1006 27.8861 52.7692 28.7148 52.7692ZM30.2503 54.2248C29.8603 53.8462 29.3119 53.6095 28.7148 53.6095C28.1176 53.6095 27.5814 53.8462 27.1793 54.2248C26.7893 54.6035 26.5456 55.1361 26.5456 55.716C26.5456 56.2959 26.7893 56.8284 27.1793 57.2071C27.5692 57.5858 28.1176 57.8225 28.7148 57.8225C29.3119 57.8225 29.8481 57.5858 30.2503 57.2071C30.6402 56.8284 30.884 56.2959 30.884 55.716C30.884 55.1361 30.6402 54.6035 30.2503 54.2248ZM32.9923 53.1953C32.9923 52.9586 33.1872 52.7692 33.431 52.7692C33.6747 52.7692 33.8697 52.9586 33.8697 53.1953V53.7278C33.9063 53.6923 33.9306 53.6568 33.9672 53.6331C34.5156 53.1006 35.2712 52.7692 36.112 52.7692C36.9529 52.7692 37.7085 53.1006 38.2569 53.6331C38.8053 54.1657 39.1465 54.8994 39.1465 55.716C39.1465 56.5325 38.8053 57.2663 38.2569 57.7988C37.7085 58.3314 36.9529 58.6627 36.112 58.6627C35.2712 58.6627 34.5156 58.3314 33.9672 57.7988C33.9306 57.7633 33.9063 57.7278 33.8697 57.7041V61.574C33.8697 61.8106 33.6747 62 33.431 62C33.1872 62 32.9923 61.8106 32.9923 61.574V53.1953ZM37.6354 54.2248C37.2454 53.8462 36.697 53.6095 36.0998 53.6095C35.5027 53.6095 34.9665 53.8462 34.5643 54.2248C34.1744 54.6035 33.9306 55.1361 33.9306 55.716C33.9306 56.2959 34.1744 56.8284 34.5643 57.2071C34.9543 57.5858 35.5027 57.8225 36.0998 57.8225C36.697 57.8225 37.2332 57.5858 37.6354 57.2071C38.0253 56.8284 38.2691 56.2959 38.2691 55.716C38.2691 55.1361 38.0253 54.6035 37.6354 54.2248ZM43.2656 52.7692C44.0089 52.7692 44.6914 53.0533 45.191 53.5503C45.6054 53.9527 45.776 54.355 45.9222 54.7811C46.3 55.9763 45.581 55.929 45.3617 55.929H41.3279C41.3645 56.213 41.4376 56.4734 41.5229 56.7101C41.6813 57.0769 41.9128 57.3491 42.2053 57.5385C42.51 57.7278 42.9 57.8225 43.3509 57.8225C43.8383 57.8225 44.4111 57.6923 45.0448 57.432C45.2642 57.3373 45.5201 57.4438 45.6176 57.6568C45.7151 57.8698 45.6054 58.1183 45.386 58.213C44.6548 58.5089 43.9724 58.6509 43.3631 58.6627C42.7415 58.6746 42.1931 58.5325 41.7422 58.2485C41.2913 57.9645 40.9014 57.574 40.7186 57.0296C40.3042 55.8343 40.292 54.6509 41.3401 53.5503C41.8275 53.0414 42.5222 52.7692 43.2656 52.7692ZM44.5817 54.1538C44.2283 53.8225 43.7652 53.6213 43.2656 53.6213C42.7659 53.6213 42.3028 53.8225 41.9494 54.1538C41.6935 54.4024 41.4863 54.7101 41.3766 55.0651H45.1667C45.0326 54.7101 44.8376 54.4024 44.5817 54.1538ZM49.9194 52.7692C50.6628 52.7692 51.3453 53.0533 51.8449 53.5503C52.2593 53.9527 52.4299 54.355 52.5761 54.7811C52.9539 55.9763 52.2349 55.929 52.0155 55.929H47.9818C48.0183 56.213 48.0915 56.4734 48.1768 56.7101C48.3352 57.0769 48.5667 57.3491 48.8592 57.5385C49.1639 57.7278 49.5538 57.8225 50.0047 57.8225C50.4922 57.8225 51.065 57.6923 51.6987 57.432C51.918 57.3373 52.174 57.4438 52.2715 57.6568C52.3689 57.8698 52.2593 58.1183 52.0399 58.213C51.3087 58.5089 50.6263 58.6509 50.0169 58.6627C49.3954 58.6746 48.847 58.5325 48.3961 58.2485C47.9452 57.9645 47.5552 57.574 47.3724 57.0296C46.9581 55.8343 46.9459 54.6509 47.994 53.5503C48.4814 53.0414 49.1761 52.7692 49.9194 52.7692ZM51.2356 54.1538C50.8822 53.8225 50.4191 53.6213 49.9194 53.6213C49.4198 53.6213 48.9567 53.8225 48.6033 54.1538C48.3474 54.4024 48.1402 54.7101 48.0305 55.0651H51.8205C51.6865 54.7101 51.4915 54.4024 51.2356 54.1538ZM14.1883 14.2959H23.3649C23.6451 11.2781 24.5104 8.56805 25.7534 6.47337C27.3986 3.70414 29.7384 2 32.3829 2C35.0274 2 37.3551 3.71598 39.0124 6.47337C40.2555 8.55621 41.1207 11.2781 41.401 14.2959H50.5653C51.6499 14.2959 52.6249 15.1598 52.5396 16.213L50.6994 41.1479C50.4678 44.2722 48.4449 46.0592 45.5079 46.0592H19.258C15.992 46.0592 14.2615 43.8462 14.0665 41.1479L12.2141 16.2249C12.141 15.1716 13.1037 14.2959 14.1883 14.2959ZM25.6559 14.2959H39.0856C38.8175 11.6805 38.0741 9.36095 37.0138 7.5858C35.7952 5.51479 34.1378 4.22485 32.3829 4.22485C30.6159 4.22485 28.9707 5.51479 27.7277 7.59763C26.6674 9.36095 25.9362 11.6923 25.6559 14.2959Z" fill="#EA501F"/>
<path d="M25.7168 37.3136C25.2903 37.0296 25.1806 36.4733 25.4731 36.0591C25.7656 35.6449 26.3383 35.5384 26.7649 35.8225C27.033 36 27.3133 36.1775 27.6179 36.355C29.7628 37.6213 31.737 38.2485 33.3822 38.2485C34.869 38.2485 36.0754 37.7041 36.8432 36.6035C36.8919 36.5207 36.9407 36.4733 36.9529 36.4378C37.1722 36.0946 37.3307 35.7278 37.4403 35.3728C37.6597 34.639 37.6231 33.8816 37.3185 33.1952C36.9894 32.4733 36.3557 31.7751 35.3686 31.1952C34.7105 30.8047 33.894 30.4615 32.9069 30.2012C30.3965 29.5148 28.5441 28.5444 27.5448 27.2426C26.448 25.8106 26.3627 24.0828 27.5326 21.9881C28.3126 20.6035 29.909 19.7396 31.932 19.5858C33.6747 19.4556 35.7708 19.858 37.9034 20.9112C38.3665 21.1361 38.5493 21.6804 38.3056 22.1302C38.0618 22.5799 37.5135 22.7574 37.0504 22.5207C35.2346 21.6213 33.5041 21.2781 32.066 21.3846C30.689 21.4911 29.6409 22.0118 29.1778 22.8402C28.3979 24.2248 28.4101 25.3136 29.0438 26.142C29.775 27.1006 31.2983 27.8461 33.4188 28.426C34.5643 28.7455 35.5392 29.1479 36.3435 29.6213C37.6719 30.4023 38.5615 31.3846 39.0368 32.4497C39.5242 33.5503 39.5852 34.71 39.2561 35.8461C39.1099 36.355 38.8783 36.8639 38.5615 37.3609C38.4884 37.4674 38.4396 37.5503 38.4031 37.6094C37.2697 39.2307 35.527 40.0355 33.4066 40.0473C31.4202 40.0473 29.1047 39.3372 26.6674 37.8935C26.3627 37.7278 26.0459 37.5384 25.7168 37.3136Z" fill="white"/>
</svg>
