<svg width="257" height="64" viewBox="0 0 257 64" fill="none" xmlns="http://www.w3.org/2000/svg">
<path fill-rule="evenodd" clip-rule="evenodd" d="M10 45.1537L14.1686 39.0319C16.6813 41.7346 20.583 44.0508 25.5002 44.0508C29.722 44.0508 31.6999 42.1203 31.6999 39.9695C31.6999 33.5713 11.1761 38.0391 11.1761 24.1957C11.1761 18.0739 16.3061 13 24.6984 13C30.3642 13 35.0676 14.7651 38.595 18.13L34.3722 23.9754C31.4862 21.2175 27.6377 19.9492 24.004 19.9492C20.7968 19.9492 18.9784 21.3837 18.9784 23.5887C18.9794 29.3799 39.45 25.464 39.45 39.1972C39.45 45.927 34.7475 51 25.1791 51C18.2849 51 13.3677 48.6278 10 45.1537Z" fill="#333F48"/>
<path fill-rule="evenodd" clip-rule="evenodd" d="M10 45.1537L14.1686 39.0319C16.6813 41.7347 20.583 44.0508 25.5002 44.0508C29.722 44.0508 31.6999 42.1203 31.6999 39.9695C31.6999 33.5713 11.1761 38.0391 11.1761 24.1957C11.1761 18.074 16.3061 13 24.6984 13C30.3642 13 35.0676 14.7651 38.595 18.13L34.3723 23.9754C31.4862 21.2175 27.6377 19.9492 24.0039 19.9492C20.7968 19.9492 18.9785 21.3837 18.9785 23.5887C18.9794 29.3799 39.45 25.464 39.45 39.1972C39.45 45.927 34.7475 51 25.1791 51C18.2849 51 13.3678 48.6279 10 45.1537Z" stroke="#333F48"/>
<path fill-rule="evenodd" clip-rule="evenodd" d="M68.8023 51V35.3915H51.8448V51H44.2002V13.95H51.8448V28.503H68.8023V13.95H76.5002V51H68.8023Z" fill="#333F48"/>
<path fill-rule="evenodd" clip-rule="evenodd" d="M68.8023 51V35.3915H51.8448V51H44.2002V13.95H51.8448V28.503H68.8023V13.95H76.5002V51H68.8023Z" stroke="#333F48"/>
<path fill-rule="evenodd" clip-rule="evenodd" d="M142.89 25.8924C142.89 22.7821 140.604 20.8935 137.627 20.8935H129.651V30.8362H137.626C140.604 30.8362 142.89 28.9476 142.89 25.8924ZM122.1 51V13.95H138.69C146.399 13.95 150.6 19.3935 150.6 25.8924C150.6 32.3363 146.346 37.7798 138.69 37.7798H129.651V51H122.1Z" fill="#333F48"/>
<path fill-rule="evenodd" clip-rule="evenodd" d="M142.89 25.8924C142.89 22.7821 140.604 20.8935 137.627 20.8935H129.651V30.8362H137.626C140.604 30.8362 142.89 28.9476 142.89 25.8924ZM122.1 51V13.95H138.69C146.399 13.95 150.6 19.3935 150.6 25.8924C150.6 32.3363 146.346 37.7798 138.69 37.7798H129.651V51H122.1Z" stroke="#333F48"/>
<path fill-rule="evenodd" clip-rule="evenodd" d="M155.35 51V13.95H158.532V48.112H176.25V51H155.35Z" fill="#333F48"/>
<path fill-rule="evenodd" clip-rule="evenodd" d="M155.35 51V13.95H158.532V48.112H176.25V51H155.35Z" stroke="#333F48"/>
<mask id="mask0_9359_71" style="mask-type:luminance" maskUnits="userSpaceOnUse" x="10" y="13" width="237" height="38">
<path d="M10 51H246.55V13H10V51Z" fill="white"/>
</mask>
<g mask="url(#mask0_9359_71)">
<path fill-rule="evenodd" clip-rule="evenodd" d="M180.05 51H182.9V13.95H180.05V51Z" fill="#333F48"/>
</g>
<mask id="mask1_9359_71" style="mask-type:luminance" maskUnits="userSpaceOnUse" x="10" y="13" width="237" height="38">
<path d="M10 51H246.55V13H10V51Z" fill="white"/>
</mask>
<g mask="url(#mask1_9359_71)">
<path fill-rule="evenodd" clip-rule="evenodd" d="M180.05 51H182.9V13.95H180.05V51Z" stroke="#333F48"/>
</g>
<mask id="mask2_9359_71" style="mask-type:luminance" maskUnits="userSpaceOnUse" x="10" y="13" width="237" height="38">
<path d="M10 51H246.55V13H10V51Z" fill="white"/>
</mask>
<g mask="url(#mask2_9359_71)">
<path fill-rule="evenodd" clip-rule="evenodd" d="M214.106 51L191.648 19.1712V51H188.6V13.95H191.701L214.053 45.3342V13.95H217.1V51H214.106Z" fill="#333F48"/>
</g>
<mask id="mask3_9359_71" style="mask-type:luminance" maskUnits="userSpaceOnUse" x="10" y="13" width="237" height="38">
<path d="M10 51H246.55V13H10V51Z" fill="white"/>
</mask>
<g mask="url(#mask3_9359_71)">
<path fill-rule="evenodd" clip-rule="evenodd" d="M214.106 51L191.648 19.1712V51H188.6V13.95H191.701L214.053 45.3342V13.95H217.1V51H214.106Z" stroke="#333F48"/>
</g>
<mask id="mask4_9359_71" style="mask-type:luminance" maskUnits="userSpaceOnUse" x="10" y="13" width="237" height="38">
<path d="M10 51H246.55V13H10V51Z" fill="white"/>
</mask>
<g mask="url(#mask4_9359_71)">
<path fill-rule="evenodd" clip-rule="evenodd" d="M223.75 51V13.95H246.55V16.838H226.822V30.5588H246.173V33.4468H226.822V48.112H246.55V51H223.75Z" fill="#333F48"/>
</g>
<mask id="mask5_9359_71" style="mask-type:luminance" maskUnits="userSpaceOnUse" x="10" y="13" width="237" height="38">
<path d="M10 51H246.55V13H10V51Z" fill="white"/>
</mask>
<g mask="url(#mask5_9359_71)">
<path fill-rule="evenodd" clip-rule="evenodd" d="M223.75 51V13.95H246.55V16.838H226.822V30.5588H246.173V33.4468H226.822V48.112H246.55V51H223.75Z" stroke="#333F48"/>
</g>
<mask id="mask6_9359_71" style="mask-type:luminance" maskUnits="userSpaceOnUse" x="10" y="13" width="237" height="38">
<path d="M10 51H246.55V13H10V51Z" fill="white"/>
</mask>
<g mask="url(#mask6_9359_71)">
<path fill-rule="evenodd" clip-rule="evenodd" d="M97.8989 26.2762C96.7789 26.2762 95.8716 27.2072 95.8716 28.3548C95.8716 29.5024 96.7789 30.4325 97.8989 30.4325C99.0199 30.4325 99.9272 29.5015 99.9272 28.3548C99.9272 27.2063 99.019 26.2762 97.8989 26.2762ZM108.759 44.5704L93.242 35.2005L90.6238 25.6939C90.6238 25.6939 90.469 24.8484 90.5858 24.4285C90.6599 24.1881 91.4693 23.9174 91.4693 23.9174L100.974 21.1966C100.974 21.1966 109.366 25.5305 115.124 28.6816C116.531 35.0181 112.308 42.1773 108.759 44.5704ZM102.723 47.5543C99.7144 43.8968 93.2249 36.1239 93.2249 36.1239L108.263 44.8962C108.263 44.8962 106.954 46.5749 102.723 47.5543ZM96.1272 47.2883C95.5581 44.9257 93.8405 37.8976 93.8405 37.8976L101.932 47.8203C101.932 47.8203 98.3416 48.3048 96.1272 47.2883ZM99.7752 13.95C90.069 13.95 82.2002 22.0307 82.2002 32C82.2002 41.9693 90.069 50.05 99.7752 50.05C109.481 50.05 117.35 41.9693 117.35 32C117.35 22.0307 109.481 13.95 99.7752 13.95Z" fill="#333F48"/>
</g>
<mask id="mask7_9359_71" style="mask-type:luminance" maskUnits="userSpaceOnUse" x="10" y="13" width="237" height="38">
<path d="M10 51H246.55V13H10V51Z" fill="white"/>
</mask>
<g mask="url(#mask7_9359_71)">
<path fill-rule="evenodd" clip-rule="evenodd" d="M97.4002 26.3C96.8963 26.3 96.413 26.5002 96.0567 26.8565C95.7004 27.2128 95.5002 27.6961 95.5002 28.2C95.5002 28.7039 95.7004 29.1872 96.0567 29.5435C96.413 29.8998 96.8963 30.1 97.4002 30.1C97.9041 30.1 98.3874 29.8998 98.7437 29.5435C99.1 29.1872 99.3002 28.7039 99.3002 28.2C99.3002 27.6961 99.1 27.2128 98.7437 26.8565C98.3874 26.5002 97.9041 26.3 97.4002 26.3ZM108.851 45.3L93.432 35.78L90.8309 26.1204C90.8309 26.1204 90.678 25.2607 90.7929 24.8332C90.867 24.589 91.6707 24.3145 91.6707 24.3145L101.115 21.55C101.115 21.55 109.453 25.9532 115.175 29.1547C116.573 35.5929 112.376 42.8689 108.851 45.3ZM103.2 47.2C100.159 43.552 93.6002 35.8 93.6002 35.8L108.8 44.5495C108.8 44.5495 107.477 46.2224 103.2 47.2ZM96.016 47.4755C95.4156 45.0169 93.6002 37.7 93.6002 37.7L102.15 48.0303C102.15 48.0303 98.3568 48.5328 96.016 47.4755ZM99.7752 13.95C90.069 13.95 82.2002 22.0307 82.2002 32C82.2002 41.9693 90.069 50.05 99.7752 50.05C109.481 50.05 117.35 41.9693 117.35 32C117.35 22.0307 109.481 13.95 99.7752 13.95Z" stroke="#333F48"/>
</g>
</svg>
