<svg width="64" height="64" viewBox="0 0 64 64" fill="none" xmlns="http://www.w3.org/2000/svg">
<path fill-rule="evenodd" clip-rule="evenodd" d="M27.9189 23.4737C27.1591 23.4737 26.4304 23.7731 25.8932 24.3061C25.3559 24.8391 25.0541 25.562 25.0541 26.3158C25.0541 27.0696 25.3559 27.7925 25.8932 28.3255C26.4304 28.8585 27.1591 29.1579 27.9189 29.1579C28.6787 29.1579 29.4074 28.8585 29.9447 28.3255C30.482 27.7925 30.7838 27.0696 30.7838 26.3158C30.7838 25.562 30.482 24.8391 29.9447 24.3061C29.4074 23.7731 28.6787 23.4737 27.9189 23.4737ZM45.184 51.8947L21.9356 37.6544L18.0136 23.2051C18.0136 23.2051 17.783 21.9191 17.9563 21.2796C18.0681 20.9144 19.2799 20.5037 19.2799 20.5037L33.5197 16.3684C33.5197 16.3684 46.0922 22.955 54.7197 27.7439C56.8283 37.3744 50.4998 48.2583 45.184 51.8947ZM36.6639 54.7368C32.0787 49.28 22.1892 37.6842 22.1892 37.6842L45.1081 50.7721C45.1081 50.7721 43.1127 53.2746 36.6639 54.7368ZM25.8319 55.1489C24.9266 51.4713 22.1892 40.5263 22.1892 40.5263L35.0811 55.9788C35.0811 55.9788 29.3614 56.7306 25.8319 55.1489ZM31.5 5C16.8648 5 5 17.0875 5 32C5 46.9125 16.8648 59 31.5 59C46.1352 59 58 46.9125 58 32C58 17.0875 46.1352 5 31.5 5Z" fill="#333F48"/>
</svg>
