<svg width="178" height="64" viewBox="0 0 178 64" fill="none" xmlns="http://www.w3.org/2000/svg">
<path fill-rule="evenodd" clip-rule="evenodd" d="M36.9041 42.7008C36.6163 45.056 35.1767 46.9421 32.947 47.8865C31.7053 48.4127 30.038 48.6967 28.7183 48.6075C26.6596 48.5295 24.7255 48.0332 22.9427 47.1258C22.3057 46.8016 21.3562 46.1541 20.6273 45.5476C20.4425 45.3943 20.4205 45.2961 20.5428 45.1242C20.6089 45.0256 20.7305 44.8477 20.9994 44.4573C21.3892 43.8908 21.4379 43.8197 21.4818 43.7534C21.6064 43.5635 21.8092 43.5468 22.0092 43.7029L22.0462 43.7314L22.1563 43.8163C22.2347 43.8768 22.281 43.9124 22.2998 43.9264C24.2226 45.4192 26.4618 46.2801 28.7226 46.3662C31.8679 46.3239 34.1296 44.9218 34.5349 42.7692C34.9805 40.4 33.1043 38.3533 29.4339 37.2127C28.286 36.856 25.3844 35.7045 24.8493 35.3934C22.3369 33.932 21.1623 32.0179 21.3292 29.6538C21.5851 26.3763 24.6539 23.9322 28.532 23.9157C30.266 23.9123 31.9965 24.2695 33.6589 24.964C34.2476 25.21 35.2986 25.777 35.6614 26.0455C35.8704 26.1976 35.9116 26.375 35.7918 26.5663C35.7251 26.6772 35.6145 26.8531 35.3813 27.2197L35.3787 27.2237C35.2487 27.4268 35.1198 27.6304 34.9918 27.8347C34.8704 28.0183 34.7272 28.0354 34.5078 27.8974C32.7289 26.7127 30.7569 26.1166 28.5881 26.0736C25.8878 26.1267 23.8639 27.7197 23.7309 29.8899C23.6954 31.8499 25.1785 33.281 28.3818 34.3721C34.884 36.4435 37.3724 38.8719 36.9041 42.7008ZM28.8739 8.86332C33.1071 8.86332 36.5579 12.8458 36.7192 17.8313H21.0286C21.19 12.846 24.6406 8.86332 28.8739 8.86332ZM50.7825 18.7685C50.7825 18.2509 50.362 17.8313 49.8435 17.8313H39.6731C39.4238 11.2488 34.6842 6 28.8739 6C23.0637 6 18.324 11.2488 18.0746 17.8313L7.88981 17.8314C7.37922 17.8407 6.96805 18.2568 6.96805 18.7685C6.96805 18.7929 6.96904 18.8173 6.97084 18.8412H6.96362L8.4155 50.568C8.41561 50.6772 8.42054 50.7864 8.43027 50.8952L8.43355 50.9622L8.437 50.9656C8.65767 53.1735 10.2738 54.9516 12.4715 55.0336L12.4765 55.0384H44.7833C44.814 55.0388 44.8446 55.0388 44.8752 55.0384H44.944L44.9455 55.0371C47.1814 54.9766 48.9926 53.1736 49.1839 50.9386L49.1849 50.9375L49.1866 50.9076C49.1882 50.884 49.19 50.8607 49.1915 50.8372C49.1949 50.7809 49.1974 50.7248 49.1982 50.669L50.7825 18.8169H50.7813C50.7823 18.801 50.7827 18.7847 50.7827 18.7685M158.485 39.4463C159.108 37.4335 160.99 36.0917 163.186 36.0917C165.282 36.0917 167.278 37.503 167.968 39.4424L168.015 39.5758H158.445L158.485 39.4463ZM170.145 42.3624C170.158 42.3629 170.158 42.3629 170.177 42.363C170.196 42.363 170.196 42.363 170.215 42.3624C170.674 42.3415 171.036 41.9543 171.036 41.4831C171.036 41.4603 171.036 41.4405 171.034 41.4089C171.034 41.403 171.034 41.3915 171.034 41.3544C171.034 36.9091 167.519 33.3069 163.183 33.3069C158.848 33.3069 155.333 36.9093 155.333 41.3544C155.333 41.6859 155.352 42.0164 155.391 42.345L155.394 42.3624L155.406 42.4491C155.622 44.0486 156.31 45.5165 157.398 46.7043C157.397 46.7039 157.398 46.705 157.404 46.7112C158.609 48.0264 160.246 48.9226 162.061 49.2578L162.085 49.2624V49.2599L162.203 49.2794C162.263 49.2897 162.327 49.2998 162.413 49.3129C164.802 49.5977 166.922 49.2563 168.716 48.3605C169.158 48.1396 169.556 47.8961 169.9 47.6388C170.002 47.563 170.101 47.4836 170.197 47.4007C170.241 47.3619 170.276 47.3296 170.295 47.3107C170.7 46.8971 170.725 46.7505 170.481 46.373C170.25 46.0076 170.014 45.6458 169.771 45.2878C169.7 45.1831 169.639 45.0938 169.586 45.0196L169.539 44.9532C169.532 44.9432 169.532 44.9432 169.527 44.9368L169.525 44.9336C169.303 44.6605 169.152 44.6356 168.906 44.8504C168.88 44.8734 168.793 44.9404 168.777 44.957C167.05 46.4768 164.693 46.9657 162.339 46.4774C161.9 46.3607 161.49 46.2125 161.112 46.0334C159.637 45.3003 158.592 43.9938 158.291 42.4817L158.267 42.3624H170.145ZM139.804 39.4463C140.426 37.4335 142.308 36.0917 144.505 36.0917C146.601 36.0917 148.597 37.503 149.287 39.4424L149.334 39.5758H139.764L139.804 39.4463ZM151.464 42.3624C151.477 42.3629 151.477 42.3629 151.496 42.363C151.515 42.363 151.515 42.363 151.534 42.3624C151.992 42.3415 152.355 41.9543 152.355 41.4831C152.355 41.4603 152.354 41.4405 152.352 41.4089C152.352 41.403 152.352 41.3915 152.352 41.3544C152.352 36.9091 148.837 33.3069 144.502 33.3069C140.167 33.3069 136.651 36.9093 136.651 41.3544C136.651 41.6859 136.671 42.0164 136.71 42.345L136.712 42.3624L136.725 42.4491C136.94 44.0486 137.629 45.5165 138.716 46.7043L138.722 46.7112C139.928 48.0264 141.564 48.9226 143.38 49.2578L143.403 49.2624V49.2599L143.521 49.2794C143.582 49.2897 143.646 49.2998 143.732 49.3129C146.121 49.5977 148.24 49.2563 150.035 48.3605C150.477 48.1396 150.874 47.8961 151.218 47.6388C151.32 47.563 151.419 47.4836 151.515 47.4007C151.559 47.3619 151.595 47.3296 151.613 47.3107C152.018 46.8971 152.044 46.7505 151.799 46.373C151.569 46.0076 151.332 45.6458 151.09 45.2878C151.029 45.1979 150.967 45.1085 150.905 45.0196L150.858 44.9532C150.851 44.9432 150.851 44.9432 150.846 44.9368L150.844 44.9336C150.623 44.6605 150.471 44.6356 150.226 44.8504C150.199 44.8734 150.112 44.9404 150.096 44.957C148.37 46.4768 146.012 46.9657 143.658 46.4774C143.219 46.3607 142.809 46.2125 142.432 46.0334C140.957 45.3003 139.912 43.9938 139.61 42.4817L139.586 42.3624H151.464ZM125.546 46.7946C122.626 46.7946 120.238 44.4996 120.165 41.6236V41.3529C120.237 38.4815 122.626 36.1862 125.546 36.1862C128.519 36.1862 130.929 38.5609 130.929 41.4904C130.929 44.4197 128.519 46.7946 125.546 46.7946ZM125.548 33.3723C123.633 33.3723 121.803 34.019 120.332 35.2049L120.165 35.3397V33.8554C120.165 33.4595 120.079 33.3723 119.675 33.3723H117.796C117.386 33.3723 117.306 33.453 117.306 33.8554V57.5169C117.306 57.9057 117.397 58 117.796 58H119.675C120.075 58 120.165 57.9076 120.165 57.5169V47.6493L120.332 47.784C121.803 48.9702 123.633 49.6168 125.548 49.6168C130.1 49.6168 133.79 45.9802 133.79 41.4945C133.79 37.0089 130.1 33.3723 125.548 33.3723ZM106.191 46.6133C103.213 46.6133 100.798 44.2594 100.798 41.3549C100.798 38.4504 103.213 36.0964 106.191 36.0964C109.17 36.0964 111.585 38.4504 111.585 41.3549C111.585 44.2592 109.17 46.6133 106.191 46.6133ZM106.193 33.3069C101.632 33.3069 97.9352 36.9121 97.9352 41.359C97.9352 45.8057 101.632 49.411 106.193 49.411C110.754 49.411 114.451 45.8057 114.451 41.359C114.451 36.9121 110.754 33.3069 106.193 33.3069ZM87.7845 33.4858C86.1195 33.4858 84.5083 34.0164 83.1718 34.9972L83.0093 35.1164V24.1277C83.0093 23.7633 82.8886 23.6444 82.5212 23.6444H80.554C80.1566 23.6444 80.0659 23.7386 80.0659 24.1275V49.1958C80.0659 49.5755 80.1638 49.6794 80.554 49.6794H82.5212C82.8863 49.6794 83.0092 49.5546 83.0092 49.1958V41.0078C83.0297 38.4303 85.1621 36.3498 87.7845 36.3498C90.4136 36.3498 92.5485 38.4403 92.5597 41.0263V49.1958C92.5597 49.6106 92.6292 49.6792 93.0478 49.6792H95.0103C95.4263 49.6792 95.4984 49.6086 95.4984 49.1958V41.0026C95.4828 36.8696 92.0062 33.4858 87.7845 33.4858ZM60.3704 45.1323L60.3658 45.1393C60.0853 45.5606 59.9678 45.7379 59.9022 45.8395C59.681 46.166 59.7085 46.3112 60.0462 46.5942C60.8344 47.2242 61.8476 47.8857 62.5311 48.217C64.4327 49.1389 66.4869 49.6262 68.6636 49.6703C70.0697 49.7406 71.836 49.4091 73.151 48.8278C75.5317 47.7747 77.0482 45.7227 77.314 43.1951C77.7446 39.0997 75.0564 36.5394 68.1327 34.4764L68.1309 34.4757C64.9051 33.4445 63.3897 32.0734 63.3892 30.1589C63.484 28.0432 65.4631 26.4625 68.1327 26.364C70.2834 26.3692 72.1848 26.9355 74.0529 28.1273C74.4469 28.3643 74.6285 28.3205 74.8935 27.9799C74.9238 27.9295 75.0085 27.8075 75.3627 27.3034L75.3637 27.3018C75.6945 26.8309 75.8034 26.6738 75.8305 26.6273C76.0536 26.2109 76.0216 26.0505 75.6188 25.7674C75.2221 25.4856 74.1044 24.909 73.4655 24.6563C71.688 23.9533 69.8504 23.6119 68.0216 23.647C63.8594 23.7367 60.6134 26.4202 60.3995 29.9405C60.2638 32.4832 61.5655 34.5279 64.2855 36.0394C65.048 36.4386 67.836 37.4833 69.1371 37.8611C72.8373 38.9353 74.7665 40.9113 74.3678 43.2426C74.0057 45.3608 71.7669 46.7696 68.6252 46.866C66.3471 46.8188 64.0517 45.9913 62.0587 44.5064C62.0489 44.4993 61.9982 44.462 61.9051 44.3932L61.7545 44.282C61.3483 44.0038 61.1092 44.0269 60.8612 44.3934C60.8313 44.4388 60.5227 44.904 60.3706 45.1323" fill="#EE4D2D"/>
</svg>
