<svg width="258" height="64" viewBox="0 0 258 64" fill="none" xmlns="http://www.w3.org/2000/svg">
<path fill-rule="evenodd" clip-rule="evenodd" d="M39.4535 15.2376V21.8929C36.2895 20.7858 32.8249 20.1395 30.0626 20.1395C26.6529 20.1395 24.7556 21.1788 24.7556 23.0461C24.7556 24.2376 25.5859 25.0273 27.9682 26.0985L34.3755 28.9744C39.5009 31.2782 42.084 34.6391 42.084 39.006C42.084 45.7457 36.2524 49.9974 27.0086 49.9974C23.6374 49.9974 19.7377 49.5149 15.6064 48.5806V41.7014C19.7019 42.8161 23.4531 43.4113 26.3715 43.4113C30.1931 43.4113 32.2402 42.3464 32.2402 40.3613C32.2402 39.1685 31.4405 38.2918 29.6097 37.474L22.5972 34.3498C17.3989 32.0307 15 28.9066 15 24.4526C15 18.07 20.6205 14 29.4382 14C32.5255 14 36.3253 14.4697 39.4535 15.2376ZM47.0737 14.6975H57.4357V49.2999H47.0737V14.6975ZM91.1267 14.6975V21.0367H75.4832V28.8413H89.1487V34.5751H75.4832V42.6664H91.3288V49.2999H65.4142V14.6975H91.1267ZM140.08 14.6975V49.2999H130.054V26.5247L120.233 49.57H113.895L104.141 26.5247V49.2999H97.218V14.6975H109.871L118.817 35.7449L127.717 14.6975H140.08ZM173.798 14.6975V21.0367H158.131V28.8413H171.793V34.5751H158.131V42.6664H173.974V49.2999H148.036V14.6975H173.798ZM210.296 14.6975V49.2999H199.238L186.786 27.1071V49.2999H179.862V14.6975H191.212L203.396 36.5973V14.6975H210.296ZM240.367 15.2376V21.8929C237.226 20.7935 233.74 20.1395 231.028 20.1395C227.565 20.1395 225.669 21.1621 225.669 23.0358C225.669 24.2568 226.443 24.9863 228.907 26.0998L235.286 28.9757C240.449 31.3037 243 34.6352 243 39.0533C243 45.7572 237.163 50 227.94 50C224.564 50 220.649 49.5149 216.522 48.5832V41.7039C220.613 42.8161 224.356 43.4138 227.255 43.4138C231.051 43.4138 233.155 42.349 233.155 40.4266C233.155 39.1544 232.418 38.334 230.499 37.4765L223.514 34.3524C218.284 32.0154 215.913 28.927 215.913 24.4565C215.913 18.0776 221.536 14.0051 230.334 14.0051C233.43 14.0013 237.245 14.4697 240.367 15.2376Z" fill="#00A0B0"/>
</svg>
