<svg width="64" height="64" viewBox="0 0 64 64" fill="none" xmlns="http://www.w3.org/2000/svg">
<path fill-rule="evenodd" clip-rule="evenodd" d="M57.404 19.7159C54.6895 14.4417 45.4717 13.2111 37.6875 14.8531L32.6354 15.8889L29.4167 16.7443H29.372L29.3273 16.5642C29.8263 15.6858 30.7609 14.5161 30.8922 13.4124L24.2307 11.5663C23.724 12.9019 23.2174 14.2381 22.7105 15.5734C21.6128 18.1374 20.18 20.4768 18.5974 22.5523C18.0919 23.2154 17.5304 24.0544 16.8089 24.4882L16.6748 24.6685C17.0184 25.0652 20.6414 27.1308 21.2349 27.2801L24.0069 24.3084L24.8563 23.2279L27.8964 21.9223L27.9858 22.0573C26.7932 24.3868 24.7342 27.67 22.7996 29.6667V29.7568L25.4821 32.1879H25.5715L28.2988 29.5314L29.6402 28.0907L32.0927 28.0836L32.0809 32.3672C32.0809 32.3672 25.8454 32.3683 22.6658 32.3683V35.6483L32.0919 35.6548C32.0919 35.6548 32.0874 42.7985 32.0874 43.6695C31.5279 43.817 30.8042 43.683 30.3555 43.5794C27.4188 42.9021 27.8872 40.794 28.2094 37.6814H21.5929C20.8273 40.0675 21.2074 43.5417 22.0846 44.9753C22.8083 46.1581 23.3091 46.9781 24.8566 47.6769C26.0461 48.214 27.5512 48.2625 29.2828 48.2622C34.2607 48.2616 38.3339 47.3867 41.6223 45.696C42.5951 45.1954 43.5741 44.7293 44.3493 44.0299H44.5284C44.6875 44.6959 45.1691 47.1616 45.5566 47.4968L50.7428 45.2458L47.2106 36.4655C46.8117 36.3953 43.0773 37.597 42.8738 37.8614L43.6337 40.8331C42.594 41.5778 41.3133 42.3774 39.923 42.7243C39.652 42.4332 39.7889 41.4074 39.7889 40.8781V35.605L49.0486 35.6101L49.0435 32.3244L39.8153 32.3227L39.8142 28.0794L49.0435 28.0845V24.7592L32.7698 24.7594C32.7698 24.7594 32.7363 24.7606 32.6804 24.6244C33.4817 23.5314 34.3766 22.5701 34.9158 21.2025L34.8709 21.1124L32.3227 20.4368L32.2336 20.2117L36.8831 18.726C41.3637 17.3276 48.6499 16.4167 50.6979 20.6172C51.5107 22.2836 51.2793 25.1448 51.279 27.5961V40.068C51.2793 43.454 51.6164 45.6878 49.7802 47.6962C48.2529 49.1467 46.4473 49.3648 45.1739 49.343C43.9003 49.3214 42.197 48.8203 40.5044 48.4423H40.4597C40.223 49.1334 39.5966 51.4912 39.5288 52.2696C40.8534 52.5825 42.357 52.7906 43.8126 53.035C45.1883 53.2658 47.063 53.2428 48.3673 53.0772C53.7442 52.3939 56.201 50.6095 57.7617 46.7315C59.6828 40.5511 59.217 22.994 57.404 19.7159ZM15.503 20.8868C20.9729 19.6981 20.2894 12.1648 13.8933 12.2869C13.5208 12.3622 13.1483 12.437 12.7754 12.512C11.3961 13.0047 10.2731 14.0099 9.77998 15.3936C8.60136 18.7023 12.2466 21.5944 15.503 20.8868ZM16.6611 28.0383C15.7372 27.1402 14.7562 26.2406 13.9479 25.6143C13.1798 25.0191 11.1419 23.0747 10.2818 22.8677L7.37579 27.5054L8.98514 28.4959C10.2953 29.3881 11.686 30.194 12.925 30.9653C13.9248 31.6579 14.7447 32.3994 15.1549 33.3137C15.8522 34.7808 15.0655 36.542 14.4396 37.501C12.7375 40.1097 10.4233 42.2662 8.26988 44.4348C6.52613 46.1912 5 47.5418 5 47.5418C5 47.5418 5.93007 48.0821 6.34731 48.3522C8.96743 49.9829 12.0759 52.1589 12.3829 52.0893C14.3075 47.4532 16.7516 43.4381 18.3739 38.4464C18.9902 36.5504 19.8204 33.722 19.1341 31.3773C18.7253 29.9827 17.7365 29.0835 16.6611 28.0383Z" fill="#FE7500"/>
</svg>
