<svg width="64" height="64" viewBox="0 0 64 64" fill="none" xmlns="http://www.w3.org/2000/svg">
<path d="M32 5C17.0883 5 5 17.0883 5 32C5 46.9117 17.0883 59 32 59C46.9117 59 59 46.9117 59 32C59 17.0883 46.9117 5 32 5ZM44.5149 23.3622C44.1086 27.6316 42.3505 37.992 41.4557 42.7739C41.0772 44.7971 40.3319 45.4756 39.6105 45.5419C38.0428 45.6863 36.8519 44.5058 35.3333 43.5103C32.957 41.9525 31.6145 40.9828 29.3077 39.4628C26.642 37.7061 28.3701 36.741 29.8893 35.1624C30.2869 34.7494 37.1953 28.4657 37.329 27.8957C37.3457 27.8244 37.3617 27.5582 37.2034 27.4184C37.0451 27.2786 36.8125 27.326 36.6443 27.3639C36.406 27.4181 32.6098 29.9273 25.2556 34.8915C24.1781 35.6314 23.2021 35.9919 22.3276 35.973C21.3635 35.9522 19.5091 35.428 18.1305 34.9798C16.4396 34.4302 15.0957 34.1396 15.2128 33.2062C15.2737 32.7199 15.9433 32.2227 17.2214 31.7146C25.0925 28.2854 30.3411 26.0245 32.9672 24.932C40.4654 21.8132 42.0234 21.2714 43.039 21.2533C43.2624 21.2496 43.7618 21.305 44.0852 21.5674C44.3004 21.7544 44.4375 22.0154 44.4695 22.2986C44.5243 22.6503 44.5396 23.0071 44.5149 23.3622Z" fill="#1EAFE9"/>
</svg>
