<svg width="64" height="64" viewBox="0 0 64 64" fill="none" xmlns="http://www.w3.org/2000/svg">
<path d="M26.7764 26.4173V24.313C26.0395 24.1973 25.2952 24.134 24.5492 24.1234C17.3266 24.1081 10.9323 28.7476 8.76335 35.5764C6.5944 42.4052 9.15459 49.8389 15.083 53.9277C12.909 51.6214 11.4549 48.7408 10.8963 45.6334C10.3376 42.526 10.6981 39.3248 11.9345 36.416C13.1708 33.5073 15.23 31.0155 17.8636 29.2413C20.4972 27.4671 23.5925 26.4864 26.776 26.4176L26.7764 26.4173Z" fill="#25F4EE"/>
<path d="M27.1768 50.2539C31.215 50.2484 34.5343 47.095 34.7112 43.096V7.41028H41.2881C41.1539 6.66459 41.0899 5.90816 41.0968 5.15073L32.1009 5.15073V40.8021C31.9513 44.8214 28.624 48.0051 24.5665 48.0116C23.354 48.0014 22.1613 47.7058 21.0865 47.1492C21.7831 48.1058 22.6979 48.8857 23.7563 49.4252C24.8146 49.9648 25.9867 50.2487 27.1768 50.2539ZM53.5728 19.5181V17.5346C51.1522 17.5355 48.7853 16.8275 46.7694 15.4995C48.5366 17.536 50.9248 18.9466 53.5728 19.5181Z" fill="#25F4EE"/>
<path d="M46.7693 15.4995C44.7833 13.2579 43.6885 10.3762 43.6895 7.39285H41.288C41.5982 9.04231 42.2442 10.6118 43.1866 12.0056C44.129 13.3994 45.348 14.5882 46.7693 15.4995ZM24.5492 33.0405C22.8649 33.049 21.2319 33.6154 19.9097 34.6495C18.5875 35.6837 17.652 37.1263 17.252 38.748C16.852 40.3697 17.0103 42.0775 17.7019 43.5997C18.3935 45.122 19.5787 46.3714 21.0689 47.1492C20.2541 46.0341 19.7662 44.7174 19.659 43.3446C19.5519 41.9718 19.8296 40.5964 20.4616 39.3703C21.0937 38.1441 22.0553 37.1151 23.2404 36.3968C24.4254 35.6784 25.7877 35.2988 27.1768 35.2998C27.9319 35.3097 28.6818 35.4262 29.4038 35.6459V26.5725C28.6665 26.463 27.9223 26.4054 27.1768 26.4001H26.7764V33.2992C26.0506 33.1062 25.3003 33.0191 24.5492 33.0405Z" fill="#FE2C55"/>
<path d="M53.5728 19.5181V26.4173C49.0917 26.4087 44.727 25.0027 41.0968 22.3985V40.526C41.0776 49.5714 33.6745 56.8943 24.5492 56.8943C21.1601 56.9004 17.8526 55.8638 15.083 53.9277C17.3415 56.3355 20.2791 58.0135 23.5133 58.7428C26.7475 59.4722 30.1283 59.2193 33.2154 58.0169C36.3025 56.8146 38.9528 54.7185 40.821 52.0019C42.6892 49.2852 43.6888 46.0739 43.6895 42.7861V24.7099C47.3319 27.2969 51.702 28.6845 56.1828 28.6769V19.7934C55.3056 19.7908 54.4309 19.6985 53.5728 19.5181Z" fill="#FE2C55"/>
<path d="M41.0967 40.526V22.3985C44.7378 24.9879 49.1087 26.3758 53.59 26.3655V19.4665C50.9426 18.9123 48.5487 17.52 46.7692 15.4995C45.348 14.5882 44.1289 13.3994 43.1865 12.0056C42.2441 10.6118 41.5981 9.04231 41.288 7.39285H34.711V43.0965C34.647 44.6506 34.0962 46.1464 33.1351 47.3759C32.174 48.6054 30.8503 49.5076 29.3481 49.9571C27.8459 50.4067 26.2398 50.3812 24.7529 49.8842C23.266 49.3872 21.9722 48.4435 21.0513 47.1841C19.5608 46.4063 18.3754 45.157 17.6836 43.6346C16.9918 42.1123 16.8334 40.4044 17.2334 38.7825C17.6335 37.1606 18.5691 35.7179 19.8915 34.6837C21.2139 33.6495 22.8471 33.0832 24.5315 33.0749C25.2869 33.0816 26.0373 33.1979 26.7587 33.42V26.5207C23.5582 26.5745 20.4425 27.5502 17.7917 29.3289C15.1408 31.1076 13.0694 33.6123 11.8298 36.5378C10.5903 39.4633 10.2362 42.683 10.8108 45.8045C11.3854 48.926 12.8638 51.8143 15.0658 54.1173C17.8626 55.9896 21.1748 56.9596 24.5491 56.8943C33.6744 56.8943 41.0774 49.5714 41.0967 40.526Z" fill="black"/>
</svg>
