<svg width="64" height="64" viewBox="0 0 64 64" fill="none" xmlns="http://www.w3.org/2000/svg">
<path fill-rule="evenodd" clip-rule="evenodd" d="M26.8836 41.17H20.281L22.9975 25.6902H29.6001L26.8819 41.17H26.8836Z" fill="#0050FF" fill-opacity="0.6"/>
<path fill-rule="evenodd" clip-rule="evenodd" d="M38.9068 41.17H32.3042L36.1097 19.5138H42.7123L38.9068 41.17Z" fill="#0050FF" fill-opacity="0.8"/>
<path fill-rule="evenodd" clip-rule="evenodd" d="M49.8166 10L49.1906 13.4074L44.1101 42.3713C43.6279 45.1176 40.9851 47.3658 38.2388 47.3658H18.7729C16.0249 47.3658 14.1712 45.1176 14.6535 42.3713L17.7926 24.4907C18.2731 21.7427 20.9141 19.4962 23.6622 19.4962H30.6559L31.8203 12.862H23.0168C17.633 12.862 12.4561 17.2655 11.5126 22.6476L7.72991 44.2144C6.78643 49.5982 10.4166 54 15.8004 54H38.8859C44.2697 54 49.4449 49.5982 50.3901 44.2144L53.9641 23.8418L56.4193 10.0018L49.8166 10Z" fill="#0051FF"/>
</svg>
