<svg width="104" height="64" viewBox="0 0 104 64" fill="none" xmlns="http://www.w3.org/2000/svg">
<g clip-path="url(#clip0_9161_9836)">
<path d="M35.7487 29.1821C35.5414 30.9931 34.626 32.7879 36.3077 34.6106C35.8232 35.0767 35.3457 35.9018 34.8822 35.8925C34.0958 35.8412 33.3593 35.489 32.8254 34.9089C32.3736 34.3821 32.2827 33.4941 32.1686 32.7459C32.1045 32.0886 32.1045 31.4267 32.1686 30.7694C32.2245 29.4664 32.1686 29.3919 30.771 29.1075C30.573 30.2729 30.4333 31.4663 30.1654 32.6224C29.7275 34.5057 29.2756 36.389 28.6817 38.2163C28.4883 38.82 27.899 39.3468 27.3842 39.7826C27.0963 40.0567 26.7164 40.2132 26.319 40.2214C25.9217 40.2296 25.5357 40.0889 25.2367 39.8269C24.5379 39.2629 24.1186 38.5403 24.4307 37.5823C24.5146 37.3329 24.5775 37.0766 24.6637 36.7829C22.5929 36.0347 21.985 34.3145 21.7055 32.3939C21.582 31.5385 22.1154 30.9395 22.7909 30.6388C22.9574 30.552 23.1397 30.4996 23.3269 30.4848C23.514 30.47 23.7023 30.4931 23.8803 30.5527C24.0584 30.6123 24.2226 30.7072 24.3632 30.8318C24.5038 30.9563 24.6178 31.1079 24.6986 31.2775C25.0309 32.0108 25.2952 32.773 25.4882 33.5547C25.6011 34.0243 25.6882 34.4997 25.7491 34.9788L26.0426 35.0278C26.4479 33.5547 26.8671 32.0863 27.2492 30.5992C27.3842 30.0771 27.3586 29.5107 27.517 28.9979C28.6234 25.4504 28.1436 21.8074 28.1552 18.1993C28.1552 17.5 27.8245 16.7565 27.4844 16.1225C26.1684 13.6938 26.378 11.3513 27.7989 9.07411C28.3835 8.14179 29.1359 7.44254 30.396 7.92036C30.6216 7.99232 30.8611 8.00989 31.0948 7.97164C33.2121 7.70359 35.39 7.946 37.4514 7.21412C37.5941 7.15083 37.7473 7.11448 37.9033 7.1069C39.7084 7.15352 41.5229 7.12089 43.3188 7.29337C45.3942 7.49149 47.239 8.28863 48.6901 9.88291C49.7127 11.0064 49.8385 12.2487 49.2142 13.6122C48.8639 14.4557 48.6448 15.3478 48.5643 16.2577C48.35 18.099 48.1823 19.9497 48.0985 21.8027C48.0379 23.2198 48.1451 24.644 48.187 26.0658C48.2056 26.7207 48.3873 27.413 48.2406 28.0283C47.9378 29.3033 48.2522 30.464 48.5271 31.683C48.9929 33.7575 49.3959 35.8529 49.6544 37.9623C49.7406 38.6615 49.4448 39.5146 49.0768 40.1556C48.378 41.3862 46.8453 41.4096 46.1466 40.1556C45.6958 39.305 45.4306 38.3683 45.3686 37.4075C45.1799 34.9858 45.1054 32.5548 45.0565 30.1237C45.0285 28.8208 45.1403 27.5109 45.2079 26.2056C45.2754 24.8607 45.5992 23.4366 44.2249 22.502C43.7591 22.185 43.1907 21.8307 42.6666 21.826C41.4903 21.826 40.3117 22.0195 39.2868 22.1197C39.1261 22.4344 39.0539 22.4996 39.0539 22.5695C38.9188 24.8211 39.1681 25.1008 41.4414 25.1591C42.3335 25.1824 43.221 25.0985 43.978 25.7465C44.961 26.5855 44.8445 27.9188 43.6263 28.3407C42.9313 28.554 42.1929 28.583 41.4833 28.4246C39.4778 28.0097 37.6074 28.3104 35.7487 29.1821ZM41.4903 18.6631C42.641 18.8286 43.3957 18.9871 44.1574 19.0337C44.7583 19.0687 45.2032 18.8006 45.2428 18.1014C45.3034 16.9849 45.4268 15.8684 45.4431 14.7497C45.4827 11.969 43.1395 10.0367 40.363 10.5029C39.9859 10.599 39.5922 10.611 39.21 10.5379C36.8528 9.81764 34.6958 10.8176 32.504 11.3257C30.6825 11.7499 29.9092 13.1484 30.1584 15.0247C30.2469 15.6773 30.3191 16.3323 30.3611 16.9896C30.4566 18.3881 31.4255 19.4253 32.8161 19.3763C34.3465 19.3251 35.8721 19.1106 37.4025 18.9941C38.7604 18.8915 39.7317 17.859 39.4569 16.5584C39.1797 15.3184 39.7224 14.2695 39.9763 13.1624C40.1626 12.3326 41.4018 11.5588 42.0098 11.6893C42.662 11.8291 43.3165 12.7661 43.1907 13.7474C43.0812 14.6028 42.6969 15.4233 42.4081 16.2484C42.1495 16.9849 41.856 17.7005 41.4903 18.6631ZM31.181 26.0751C32.6391 24.9586 34.598 26.0471 36.0538 24.8887C35.97 24.1126 35.8954 23.4343 35.8209 22.7607L34.9521 22.3458C32.6624 22.6604 30.8875 23.2991 31.181 26.0751Z" fill="#F50000"/>
<path d="M74.6894 19.8448C73.1009 22.9634 70.1636 24.9726 66.8607 26.3711C64.8576 27.2172 62.6308 27.5622 60.4762 28.0027C59.9521 28.1076 59.2417 27.8046 58.7595 27.4782C58.4378 27.2849 58.1926 26.9863 58.0653 26.633C57.938 26.2798 57.9364 25.8933 58.0607 25.539C58.3076 24.8025 59.647 24.0519 60.5624 24.1195C60.9863 24.1498 61.4079 24.3223 61.8248 24.3013C62.4759 24.3078 63.1238 24.2102 63.7442 24.0123C65.2815 23.4133 66.8048 22.763 68.2769 22.0148C69.0013 21.6465 69.5953 21.0219 70.2475 20.5114C70.2079 20.4042 70.166 20.297 70.124 20.1921C69.7367 20.1552 69.3467 20.1552 68.9594 20.1921C66.9819 20.5953 65.4352 20.2387 64.1005 18.4556C63.283 17.3648 62.9359 16.3789 62.9359 15.0969C62.9359 13.3954 62.703 11.687 62.8171 9.99478C62.8993 9.04075 63.2258 8.12401 63.7651 7.33298C64.4639 6.29111 65.7823 6.47757 66.2505 7.66629C66.5509 8.42381 66.5836 9.31651 66.5859 10.1509C66.5859 11.0833 66.2551 12.0156 66.353 12.9246C66.6954 15.8871 67.7505 17.3182 71.2794 16.6656C73.4479 16.2647 75.514 16.0176 77.7082 16.4698C78.6632 16.6656 79.7509 16.1948 80.7805 16.0456C81.2351 15.9655 81.6955 15.9234 82.1571 15.9197C83.8015 15.9523 85.1386 14.7543 84.9708 13.1227C84.8092 11.7409 84.4968 10.3809 84.0391 9.06711C83.4568 7.32133 81.9568 6.7596 80.2797 6.65005C77.8805 6.49389 75.4791 6.35637 73.0752 6.31908C72.3299 6.30509 71.5729 6.62908 70.8275 6.8202C70.0402 7.01832 69.2715 7.31434 68.4749 7.43321C67.5036 7.57772 66.5742 6.96704 66.346 6.17224C66.1363 5.45434 66.523 4.6875 67.3895 4.16307C67.6474 3.98884 67.9346 3.86252 68.2373 3.79014C70.8904 3.32631 73.5458 2.64338 76.2896 3.23307C76.7786 3.36738 77.29 3.39991 77.792 3.32864C79.9443 2.86247 81.9195 3.6736 83.9529 4.07916C86.1075 4.51036 87.6798 6.57314 87.9011 8.69651C87.8966 9.00578 87.943 9.31368 88.0385 9.60786C88.7769 11.1485 88.6488 12.7848 88.6371 14.4117C88.6138 17.4278 86.7201 19.5721 83.713 19.5395C81.9544 19.5255 80.1819 20.2154 78.4302 19.5255C78.3535 19.5088 78.2741 19.5088 78.1973 19.5255L74.6894 19.8448Z" fill="#F50000"/>
<path d="M76.8185 23.341C75.924 21.502 76.4807 20.4601 78.3045 20.248C78.6136 20.2101 78.9253 20.1992 79.2363 20.2154C80.5453 20.2947 81.8544 20.3692 83.1588 20.4858C85.488 20.6886 87.3002 21.9169 89.0984 23.3271C91.0434 24.8514 91.6606 27.04 92.4549 29.1541C92.6645 29.7088 92.4665 30.4361 92.3873 31.077C92.1148 33.2657 91.9425 35.4729 89.9183 36.9717C88.4951 38.0229 87.3049 39.4307 85.7978 40.3117C84.1869 41.2338 82.4482 41.9117 80.6385 42.3232C79.4506 42.5983 78.0763 42.3232 77.3076 41.011C76.8418 40.2068 76.3759 39.4074 75.938 38.5823C75.6142 37.9623 75.535 37.3283 76.1174 36.7712C76.6997 36.2141 77.282 36.4566 77.7921 36.8505C79.8885 38.496 81.9452 37.5217 83.9251 36.7013C85.4857 36.0557 86.6294 34.7923 87.638 33.4381C89.166 31.3707 89.2079 28.9723 87.7544 27.0937C87.1628 26.3292 86.5106 25.9865 85.5486 26.3105C85.0462 26.4433 84.5358 26.5438 84.0206 26.6112C83.7877 26.0192 83.5151 25.4458 83.3218 24.8328C83.0586 24.031 82.5951 23.6277 81.703 23.6464C80.6665 23.6307 79.6589 23.988 78.8636 24.6533C75.9613 27.0447 73.052 29.4385 70.0123 31.6457C68.1489 32.9906 66.1667 34.2633 63.8071 34.7248C63.1806 34.8483 62.6122 35.2539 62.0136 35.5266C60.5671 36.1862 59.0997 35.8669 58.3729 34.7504C57.9607 34.1164 57.8838 33.4661 58.4987 32.9766C59.1137 32.4872 59.7472 31.9324 60.4413 31.8112C63.2761 31.3591 65.8988 30.4524 68.3026 28.8581C71.0908 26.9818 73.9442 25.1894 76.8185 23.341Z" fill="#F50000"/>
<path d="M18.0159 16.6796C19.6651 15.9803 20.5176 14.6331 21.1092 13.1088C21.0777 13.0194 21.0404 12.9322 20.9974 12.8477C20.7016 12.3979 20.4011 11.9527 20.103 11.5052C20.7528 11.1509 21.3771 10.5728 22.0619 10.4913C22.5865 10.4336 23.1172 10.5031 23.6093 10.6937C24.1015 10.8844 24.5406 11.1907 24.8896 11.5867C25.1698 11.8915 25.3752 12.2574 25.4895 12.6554C25.6038 13.0535 25.6239 13.4726 25.5481 13.8798C25.4724 14.2869 25.303 14.6708 25.0532 15.001C24.8035 15.3312 24.4803 15.5987 24.1093 15.7822C22.2459 16.6796 21.9245 17.8613 23.3104 19.416C24.7802 21.0662 25.0224 23.1056 25.3695 25.1148C25.5162 25.9725 25.0247 26.6741 24.3539 27.2125C23.3989 28.0004 22.5277 28.928 21.4819 29.5667C20.0843 30.4174 18.5493 30.8859 16.8746 30.2146C16.3687 30.0231 15.8357 29.913 15.2953 29.8883C13.9257 29.8067 12.9404 29.2077 12.3838 27.9328C11.466 25.835 11.685 23.9914 13.2293 22.2362C13.9281 21.4414 14.345 20.3087 14.6268 19.2598C14.7899 18.6468 14.4428 17.8939 13.6788 17.5606C12.4862 17.0409 12.0087 15.9081 11.5173 14.8406C11.3449 14.4676 11.4031 13.9082 11.5406 13.4817C12.5072 10.5239 14.2518 8.0066 16.1991 5.6245C16.7861 4.90428 17.6526 4.65255 18.6076 4.79007C19.0734 4.85767 19.5812 4.75045 19.9749 4.93225C20.6224 5.22827 21.3142 5.59187 21.7637 6.11631C22.5743 7.06262 22.0759 8.1954 20.8507 8.46344C20.1123 8.6266 19.4135 8.76878 18.7147 8.97855C18.3769 9.05931 18.0627 9.2182 17.7973 9.44245C17.532 9.6667 17.3228 9.95007 17.1867 10.2698C16.7069 11.3653 15.9941 12.3676 15.5399 13.4607C14.9925 14.7846 15.505 15.7799 16.8397 16.3066C17.2263 16.4628 17.6409 16.563 18.0159 16.6796ZM14.8574 24.9796C15.2767 25.5227 15.5283 26.173 15.9802 26.3781C17.4113 27.0465 19.0476 27.1251 20.5362 26.5972C20.7698 26.5105 20.9841 26.3787 21.1667 26.2091C21.3494 26.0395 21.4969 25.8356 21.6007 25.6089C22.1947 23.8841 22.0898 22.2153 20.8646 20.7282C20.6844 20.5096 20.4577 20.3341 20.2009 20.2145C19.9441 20.095 19.6638 20.0344 19.3806 20.0373C19.0975 20.0403 18.8185 20.1065 18.5642 20.2313C18.31 20.3561 18.0868 20.5362 17.9111 20.7585C16.9189 22.1127 15.9569 23.4576 14.8574 24.9796Z" fill="#F50000"/>
<path d="M8 46.7215C9.16464 46.7215 10.2408 46.6492 11.3029 46.7634C11.65 46.8007 12.0366 47.2692 12.2533 47.6305C13.5577 49.8215 14.8155 52.0381 16.2689 54.2221V46.7821H20.0983V61.655C18.9639 61.655 17.8132 61.7133 16.6789 61.6154C16.3644 61.5898 16.0104 61.1493 15.8124 60.8043C14.6268 58.8044 13.4831 56.7813 12.3185 54.7651C12.188 54.5321 12.0506 54.32 11.7851 53.8771V61.5968H8V46.7215Z" fill="black"/>
<path d="M58.494 58.0446V61.5874H47.8306V46.7611H58.2517V50.1128H51.8928V52.1803H57.7975V55.4597H51.9021V58.0399L58.494 58.0446Z" fill="black"/>
<path d="M23.3732 61.6131V49.8658H33.2307V52.5345H27.4075V54.0985H32.8067V56.7393H27.3865V58.8091H33.3727V61.6061L23.3732 61.6131Z" fill="black"/>
<path d="M95.9162 49.8821V52.5182H89.8973C89.874 53.0683 89.8554 53.4785 89.8298 54.0449H95.42V56.7021H89.9416V58.8208H95.9977V61.6341H86.0657V49.8821H95.9162Z" fill="black"/>
<path d="M76.4806 36.2211C74.1001 35.9881 72.9005 37.9949 71.0837 38.785C70.2405 39.1463 69.5184 39.7873 68.6822 40.1835C67.1752 40.8828 65.6332 41.5028 64.0889 42.1181C63.6199 42.3007 63.1288 42.4206 62.6284 42.4747C61.557 42.5936 60.4575 41.864 60.0662 40.8431C59.7937 40.1276 60.171 39.2512 61.1028 38.6009C61.4626 38.3717 61.8554 38.1988 62.2674 38.0881C64.0726 37.5334 65.9476 37.1558 67.6806 36.4239C69.1993 35.7899 70.6202 34.8669 71.9875 33.9323C74.9922 31.8742 77.9364 29.7368 80.9086 27.6181C81.0667 27.5056 81.2325 27.4044 81.4047 27.3151C82.1478 26.9398 82.8885 27.1123 83.345 27.7812C83.8015 28.4502 83.4615 28.9909 82.9793 29.4128C81.2673 30.9302 79.5692 32.4709 77.7757 33.888C77.0117 34.466 76.4946 35.072 76.4806 36.2211Z" fill="#F50000"/>
<path d="M73.6506 57.6554L77.0421 57.399C77.2121 57.7952 77.275 58.1961 77.5079 58.4059C77.9412 58.7975 78.4396 59.231 78.98 59.3639C79.6252 59.5224 80.3776 59.3126 80.5779 58.5481C80.8108 57.688 80.0957 57.4176 79.4552 57.2125C78.8146 57.0074 78.1671 56.9258 77.5568 56.6974C76.7868 56.4457 76.0488 56.1046 75.358 55.6812C74.9718 55.4336 74.6474 55.1008 74.4099 54.7083C74.1723 54.3157 74.0278 53.8739 73.9875 53.4167C73.9473 52.9595 74.0123 52.4992 74.1776 52.0711C74.3429 51.643 74.6041 51.2586 74.9411 50.9473C75.403 50.481 75.9678 50.1297 76.5902 49.9217C78.1583 49.446 79.8304 49.4347 81.4048 49.8891C82.9538 50.3156 83.8109 51.481 83.9344 53.2897L80.5919 53.5228C79.6159 51.77 78.4955 51.5206 77.445 52.9658C77.8991 53.1982 78.3656 53.4051 78.8426 53.5858C79.9094 53.9261 81.0228 54.1358 82.057 54.5507C83.4336 55.1031 84.3863 56.0937 84.4189 57.6903C84.4515 59.2869 83.7201 60.5805 82.2596 61.2565C80.119 62.2541 77.8853 62.2028 75.719 61.3194C74.4636 60.8043 73.6646 59.3196 73.6506 57.6554Z" fill="black"/>
<path d="M60.2479 61.6294C61.7596 57.6134 63.2061 53.7769 64.6735 49.8704H68.8662C70.322 53.7489 71.7825 57.6367 73.2919 61.6527H69.3065C69.0735 61.056 68.8523 60.4873 68.6077 59.8603H64.8343C64.6316 60.4081 64.4197 60.9768 64.1797 61.6294H60.2479ZM66.8211 53.7489H66.6162C66.304 54.8187 65.9919 55.8886 65.6518 57.047L67.8018 56.9398C67.4477 55.793 67.1356 54.7698 66.8211 53.7489Z" fill="black"/>
<path d="M41.9749 52.8795V61.6364H38.0477V52.9704H34.4513V49.8867H45.6062V52.8795H41.9749Z" fill="black"/>
<path d="M77.9947 12.8314C77.5989 12.9252 77.1985 12.9983 76.7951 13.0505C76.1453 13.0994 75.4931 13.1157 74.8386 13.1227C73.9255 13.1367 73.0077 13.1018 72.0947 13.1414C71.6288 13.1624 71.1862 13.3255 70.7274 13.3861C69.9308 13.4933 69.2925 13.2696 68.864 12.5144C68.5006 11.8664 68.6799 11.3187 69.0526 10.7826C69.5068 10.1276 70.0729 9.71275 70.9277 10.0041C71.0029 10.0281 71.0817 10.0391 71.1606 10.0367C73.6949 9.97846 76.2315 9.96215 78.761 9.82929C79.6625 9.78268 80.4568 9.75471 81.074 10.5285C81.4886 11.046 81.7518 11.5867 81.3768 12.2277C81.0018 12.8687 80.4451 13.2812 79.6555 13.16C79.0848 13.0621 78.5211 12.9339 77.9947 12.8314Z" fill="#F50000"/>
<path d="M14.6291 36.1232C14.0677 37.3399 13.4645 39.0508 12.5141 40.5518C11.9947 41.3816 10.6787 40.9853 10.2431 40.032C10.0741 39.7267 10.0018 39.3772 10.0358 39.0298C10.476 37.2537 10.4108 35.3238 11.6476 33.7784C12.0273 33.3123 12.2183 32.6806 12.5537 32.1655C12.8891 31.6504 13.2851 31.063 14.0398 31.387C14.7386 31.69 15.074 32.2518 14.9505 33.0722C14.8178 33.9439 14.7549 34.825 14.6291 36.1232Z" fill="#F50000"/>
<path d="M18.2931 41.2254C17.7318 40.2931 17.1844 39.6894 16.9887 38.9925C16.4611 37.123 16.4683 35.1429 17.0097 33.2773C17.0793 32.9498 17.2641 32.6582 17.5304 32.4555C17.7967 32.2528 18.1268 32.1524 18.4608 32.1725C19.1596 32.1935 19.7932 32.5641 19.9236 33.2843C20.3126 35.4124 20.5525 37.5684 19.7373 39.6475C19.5346 40.1602 18.9476 40.5262 18.2931 41.2254Z" fill="#F50000"/>
<path d="M41.7045 36.016C40.7728 36.1489 39.8411 36.2748 38.9257 36.4123C37.9172 36.5638 36.9505 36.0487 36.7851 35.2632C36.6197 34.4777 37.251 33.5104 38.1827 33.275C39.3792 32.9702 40.5947 32.7452 41.821 32.6014C42.9367 32.4755 44.0758 33.4988 44.0874 34.48C44.099 35.4613 43.0532 36.2258 41.7045 36.016Z" fill="#F50000"/>
<path d="M33.0886 14.7799C33.0607 13.6588 33.431 13.0039 34.2067 12.8011C34.5656 12.6908 34.9525 12.7165 35.2936 12.8734C35.6347 13.0303 35.9061 13.3074 36.0561 13.6518C36.6175 14.8172 37.0018 16.0409 36.6943 17.3299C36.3869 18.6188 35.7091 18.7703 34.7075 17.9522C33.6034 17.0502 33.2587 15.8195 33.0886 14.7799Z" fill="#F50000"/>
</g>
<defs>
<clipPath id="clip0_9161_9836">
<rect width="88" height="59" fill="white" transform="translate(8 3)"/>
</clipPath>
</defs>
</svg>
