<svg width="64" height="64" viewBox="0 0 64 64" fill="none" xmlns="http://www.w3.org/2000/svg">
<path d="M31.5 8C47.2401 8 60 18.7452 60 32C59.9999 45.2548 47.2401 56 31.5 56C27.3161 56 23.3428 55.2407 19.7637 53.877C17.0962 53.4019 12.0133 54.5048 9.73828 55.1367C8.28048 55.6263 5.10431 56.3763 4.05957 55.4629C2.754 54.3205 4.39751 50.6814 5.38086 49.082C6.15969 47.8153 6.82295 44.595 6.0752 42.8535C4.1091 39.594 3.00002 35.9062 3 32C3 18.7452 15.7599 8.00002 31.5 8ZM21.6523 36.2568C21.6524 39.6582 25.8656 42.416 31.0625 42.416C36.2594 42.416 40.4726 39.6582 40.4727 36.2568H21.6523Z" fill="#55B369"/>
</svg>
