<svg width="64" height="64" viewBox="0 0 64 64" fill="none" xmlns="http://www.w3.org/2000/svg">
<path d="M5 12.6757C5 8.9888 7.83553 6 11.3333 6H52.6667C56.1645 6 59 8.9888 59 12.6757V51.3243C59 55.0112 56.1645 58 52.6667 58H11.3333C7.83553 58 5 55.0112 5 51.3243V12.6757Z" fill="#2F7AEB"/>
<path d="M5 12.6757C5 8.9888 7.83553 6 11.3333 6H52.6667C56.1645 6 59 8.9888 59 12.6757V21.4595H5V12.6757Z" fill="#52CFFD"/>
<path d="M36.3333 39.2027C36.3333 37.9414 37.3034 36.9189 38.5 36.9189H50.8333C52.0299 36.9189 53 37.9414 53 39.2027C53 40.464 52.0299 41.4865 50.8333 41.4865H38.5C37.3034 41.4865 36.3333 40.464 36.3333 39.2027Z" fill="#CCECFF"/>
<path d="M43.3333 46.5811C43.3333 45.3198 44.3034 44.2973 45.5 44.2973H50.8333C52.0299 44.2973 53 45.3198 53 46.5811C53 47.8424 52.0299 48.8649 50.8333 48.8649H45.5C44.3034 48.8649 43.3333 47.8424 43.3333 46.5811Z" fill="#CCECFF"/>
<path d="M16 14.2568C16 15.9061 14.7315 17.2432 13.1667 17.2432C11.6019 17.2432 10.3333 15.9061 10.3333 14.2568C10.3333 12.6074 11.6019 11.2703 13.1667 11.2703C14.7315 11.2703 16 12.6074 16 14.2568Z" fill="#CCECFF"/>
<path d="M25 14.2568C25 15.9061 23.7315 17.2432 22.1667 17.2432C20.6019 17.2432 19.3333 15.9061 19.3333 14.2568C19.3333 12.6074 20.6019 11.2703 22.1667 11.2703C23.7315 11.2703 25 12.6074 25 14.2568Z" fill="#CCECFF"/>
</svg>
