<svg width="64" height="64" viewBox="0 0 64 64" fill="none" xmlns="http://www.w3.org/2000/svg">
<path d="M60 26.5077C60 30.1094 57.0211 33.1377 53.0072 33.9754C52.2906 34.1276 51.5335 34.2039 50.7629 34.2039C49.7327 34.2039 48.7427 34.065 47.8109 33.8007C44.9529 32.9944 42.7221 31.0592 41.8798 28.6311C41.7992 28.4072 41.741 28.1787 41.6873 27.9502C41.629 28.1115 41.5707 28.2728 41.4991 28.4386C40.1015 31.6817 36.3698 34.0112 32.0022 34.0112C27.6345 34.0112 23.9076 31.6817 22.5009 28.4386C22.4382 28.2817 22.371 28.125 22.3218 27.9637C22.2724 28.1876 22.2098 28.4117 22.1291 28.6311C21.3004 31.077 19.0471 33.0256 16.1757 33.832C15.2573 34.0873 14.2673 34.2308 13.2415 34.2308C12.462 34.2308 11.7139 34.1501 10.9882 34.0023C6.97896 33.1556 4 30.1273 4 26.5346C4 25.5939 4.20158 24.6935 4.57787 23.8559L4.59131 23.829L10.3252 10.9769H10.3297C11.6423 8.04272 14.5809 6 18.0034 6H46.0012C49.419 6 52.3578 8.04272 53.6657 10.9724C53.6926 11.0217 53.7151 11.071 53.7375 11.1292L59.4221 23.8245C59.7939 24.6577 60 25.567 60 26.5123V26.5077Z" fill="#0AB8A6"/>
<path d="M54.3332 41.8327C54.3332 41.8864 54.3332 41.9491 54.3198 42.0074C54.3198 42.0477 54.3198 42.0924 54.3063 42.1327V42.1552C53.2984 51.7103 43.6941 59.1957 31.9977 59.1957C20.3013 59.1957 10.6971 51.7103 9.68914 42.1552V42.1327C9.68019 42.0924 9.68019 42.0477 9.68019 42.0074C9.66675 41.9536 9.66675 41.8908 9.66675 41.8327C9.66675 40.5963 10.6702 39.5927 11.9066 39.5927C13.0489 39.5927 13.9896 40.4484 14.1285 41.5548C14.133 41.5862 14.133 41.6265 14.1419 41.6668C14.899 48.9642 22.6128 54.716 31.9977 54.716C41.3826 54.716 49.1009 48.9642 49.8535 41.6668C49.8581 41.6265 49.8581 41.5862 49.8626 41.5548C50.0014 40.4528 50.9421 39.5927 52.0844 39.5927C53.3208 39.5927 54.3243 40.5963 54.3243 41.8327H54.3332Z" fill="#0AB8A6"/>
</svg>
