<svg width="64" height="64" viewBox="0 0 64 64" fill="none" xmlns="http://www.w3.org/2000/svg">
<mask id="mask0_8459_3004" style="mask-type:luminance" maskUnits="userSpaceOnUse" x="5" y="5" width="54" height="54">
<path d="M59 5H5V59H59V5Z" fill="white"/>
</mask>
<g mask="url(#mask0_8459_3004)">
<path d="M58.9247 31.5091C59.3502 45.7046 48.0413 59.0098 31.9018 59.0671C16.9978 59.1227 5.03598 47.1396 4.9378 32.1964C4.83634 17.6295 16.4153 5.19801 31.5467 5.0671C46.9793 4.93455 58.6874 17.0436 58.9247 31.5091ZM32 42.3386V42.3304H41.4074C42.1978 42.3304 42.9898 42.35 43.7785 42.3124C44.9944 42.2551 45.3167 41.8918 45.2349 40.6646C45.1285 39.0478 44.4167 37.7895 42.9243 37.0646C41.1636 36.212 39.3636 35.4216 37.6045 34.5576C36.8629 34.2211 36.1646 33.7964 35.5247 33.2927C34.7262 32.6202 34.772 31.6695 35.4396 30.9102C37.7845 28.2429 38.5062 25.0782 37.8287 21.6909C37.058 17.8373 32.6545 15.6953 29.2182 17.402C27.0074 18.4967 26.0796 20.5111 25.9094 22.8724C25.6869 25.9258 26.4887 28.6929 28.4605 31.0886C29.1151 31.8773 29.0513 32.6546 28.2674 33.3124C27.7674 33.7278 27.2178 34.0796 26.6311 34.3596C24.7869 35.24 22.9182 36.0647 21.0674 36.9222C19.31 37.7404 18.7062 39.2311 18.6718 41.0475C18.6603 41.7249 19.0367 42.1242 19.67 42.2502C20.0726 42.318 20.4809 42.3465 20.8891 42.3353C24.5873 42.3407 28.2909 42.3418 32 42.3386Z" fill="#319B4F"/>
<path d="M31.9999 42.3385C28.2909 42.3385 24.5818 42.3385 20.8727 42.3385C20.4645 42.3497 20.0562 42.3212 19.6536 42.2534C19.0203 42.1274 18.644 41.7282 18.6554 41.0507C18.6898 39.2344 19.2936 37.7387 21.051 36.9254C22.905 36.068 24.7738 35.2433 26.6147 34.3629C27.2014 34.0829 27.751 33.7311 28.251 33.3156C29.0349 32.6611 29.0938 31.8805 28.4441 31.0918C26.4805 28.6962 25.6705 25.9291 25.893 22.8756C26.0567 20.5209 26.991 18.5 29.2018 17.4053C32.6463 15.6985 37.0563 17.8405 37.8205 21.6942C38.4979 25.0814 37.7763 28.2396 35.4314 30.9134C34.7638 31.6727 34.7179 32.6234 35.5165 33.296C36.1564 33.7997 36.8547 34.2244 37.5963 34.5609C39.3636 35.4216 41.1636 36.212 42.9243 37.0727C44.4118 37.7944 45.1285 39.0527 45.2349 40.6727C45.3167 41.9 44.9943 42.2633 43.7785 42.3205C42.9898 42.3582 42.1978 42.3385 41.4074 42.3385L31.9999 42.3385ZM31.5925 32.8836C31.1294 34.1338 30.7219 35.1353 30.3898 36.1564C30.1427 36.9254 29.6321 37.6798 30.3112 38.5389C30.8152 39.1787 31.167 39.9364 31.6203 40.7005C32.1423 39.8234 32.6021 39.0904 33.0178 38.3278C33.1519 38.0807 33.2534 37.7191 33.1814 37.4736C32.7069 36.0124 32.18 34.5658 31.5925 32.8836Z" fill="white"/>
<path d="M31.5925 32.8836C32.1799 34.5658 32.7068 36.0124 33.1765 37.4786C33.255 37.724 33.1536 38.0856 33.0129 38.3327C32.6038 39.0953 32.1374 39.8284 31.6154 40.7055C31.1605 39.9413 30.8087 39.1836 30.3063 38.5438C29.6272 37.6847 30.1427 36.9304 30.3849 36.1613C30.7219 35.1353 31.1294 34.1273 31.5925 32.8836Z" fill="#2C9A4B"/>
</g>
</svg>
