<svg width="64" height="64" viewBox="0 0 64 64" fill="none" xmlns="http://www.w3.org/2000/svg">
<path d="M31.9999 58.6667C46.7276 58.6667 58.6666 46.7277 58.6666 32C58.6666 17.2724 46.7276 5.33333 31.9999 5.33333C17.2723 5.33333 5.33325 17.2724 5.33325 32C5.33325 46.7277 17.2723 58.6667 31.9999 58.6667Z" fill="#5F5AAB"/>
<path d="M43.3337 25.3337C43.3337 22.7563 41.244 20.6667 38.6667 20.6667C36.0894 20.6667 33.9998 22.7563 33.9998 25.3337V38.6667C33.9998 43.453 30.12 47.3335 25.3337 47.3337C20.5473 47.3337 16.6667 43.4531 16.6667 38.6667C16.6667 34.4715 19.6455 30.9766 23.6023 30.1735L25.5623 29.7751L26.3582 33.696L24.3982 34.0934C22.269 34.5256 20.6667 36.4112 20.6667 38.6667C20.6667 41.244 22.7564 43.3337 25.3337 43.3337C27.9109 43.3335 29.9998 41.2439 29.9998 38.6667V25.3337C29.9998 20.5472 33.8803 16.6667 38.6667 16.6667C43.4532 16.6667 47.3337 20.5472 47.3337 25.3337C47.3336 29.5286 44.3547 33.0237 40.3982 33.8268L38.4382 34.2243L37.6423 30.3044L39.6023 29.9069C41.7313 29.4748 43.3336 27.589 43.3337 25.3337Z" fill="white"/>
</svg>
