<svg width="64" height="64" viewBox="0 0 64 64" fill="none" xmlns="http://www.w3.org/2000/svg">
<path d="M59.0005 38.1153C59.0005 30.6093 51.7441 24.4866 42.8091 24.4866C33.8741 24.4866 26.6674 30.6093 26.6674 38.1153C26.6674 45.6212 33.9238 51.744 42.8588 51.744C44.587 51.744 46.2159 51.5473 47.7454 51.1021C48.1904 51.0027 48.683 51.0524 49.128 51.2512L53.1267 53.4233C53.373 53.5724 53.7186 53.3239 53.6192 53.0278L52.8286 49.8183C52.7292 49.3256 52.8783 48.8307 53.3211 48.5346C56.7798 46.0167 59.0005 42.3124 59.0005 38.1153ZM37.0346 36.3387C35.8011 36.3387 34.8138 35.3511 34.8138 34.117C34.8138 32.8829 35.8011 31.8953 37.0346 31.8953C38.2682 31.8953 39.2554 32.8829 39.2554 34.117C39.2554 35.3511 38.2682 36.3387 37.0346 36.3387ZM47.9441 36.3387C46.7106 36.3387 45.7234 35.3511 45.7234 34.117C45.7234 32.8829 46.7106 31.8953 47.9441 31.8953C49.1777 31.8953 50.1649 32.8829 50.1649 34.117C50.1649 35.3511 49.128 36.3387 47.9441 36.3387Z" fill="#34BD26"/>
<path d="M25.3366 38.165C25.3366 29.8205 33.2346 23.0537 43.0078 23.0537H43.7488C42.1675 15.498 34.1722 9.72102 24.5459 9.72102C13.7358 9.72102 4.99951 16.9309 4.99951 25.8697C4.99951 30.8082 7.71501 35.2516 11.96 38.2147C12.256 38.4114 12.3553 38.7572 12.3056 39.103L10.8258 44.3375C10.7265 44.6833 11.1218 45.0291 11.4674 44.8302L17.2419 41.3744C17.6373 41.128 18.0801 41.0783 18.5251 41.2253C20.45 41.718 22.4742 42.0163 24.5481 42.0163C24.9931 42.0163 25.4359 42.0163 25.9306 41.9666C25.5332 40.7325 25.3366 39.4488 25.3366 38.165ZM31.111 18.2644C32.5433 18.2644 33.7272 19.4487 33.7272 20.8816C33.7272 22.3145 32.5433 23.4989 31.111 23.4989C29.6788 23.4989 28.4949 22.3145 28.4949 20.8816C28.4949 19.4487 29.6809 18.2644 31.111 18.2644ZM17.9807 23.4989C16.5485 23.4989 15.3646 22.3145 15.3646 20.8816C15.3646 19.4487 16.5485 18.2644 17.9807 18.2644C19.413 18.2644 20.5969 19.4487 20.5969 20.8816C20.5969 22.3145 19.4627 23.4989 17.9807 23.4989Z" fill="#34BD26"/>
</svg>
