<svg width="64" height="64" viewBox="0 0 64 64" fill="none" xmlns="http://www.w3.org/2000/svg">
<path d="M34.773 42.3654C32.7914 43.0006 30.7227 43.3223 28.6418 43.3187C26.3237 43.3262 24.0223 42.9273 21.842 42.14C21.4658 42.0037 21.0684 41.935 20.6683 41.937C19.8288 41.937 18.8557 42.2069 17.62 42.774C17.6497 41.053 17.3699 39.8371 16.3844 39.0076C12.987 36.1426 11.1149 32.3168 11.1149 28.2359C11.1149 19.9182 18.977 13.1556 28.6418 13.1556C38.3041 13.1556 46.1662 19.9182 46.1662 28.2359C46.1662 28.3994 46.1612 28.5628 46.1563 28.7262C47.0213 28.3636 47.9721 28.2568 48.896 28.4183C49.8199 28.5798 50.6781 29.0029 51.3688 29.6375C51.4034 29.1744 51.4232 28.7064 51.4232 28.2359C51.4232 17.0012 41.2038 7.8614 28.6418 7.8614C16.0773 7.8614 5.86035 17.0012 5.86035 28.2359C5.86035 33.5599 8.21774 38.7104 12.363 42.4991C12.3654 43.341 12.2144 45.0125 11.8925 46.9712C11.7142 48.0459 12.1847 49.1255 13.0935 49.7248C13.5368 50.0165 14.0559 50.172 14.5866 50.172C15.1174 50.172 15.6365 50.0165 16.0798 49.7248C18.2119 48.3257 19.8412 47.516 20.537 47.2857C23.1198 48.1647 25.8461 48.6105 28.6418 48.6105C32.1977 48.6105 35.5678 47.8775 38.5715 46.5725C37.5842 46.3428 36.6909 45.8162 36.0118 45.0637C35.3327 44.3111 34.9004 43.3686 34.773 42.3629" fill="#2A8CF4"/>
<path d="M56.8609 38.4554C55.4049 38.4554 54.189 39.4855 53.9018 40.8574C53.8601 41.921 53.5758 42.9609 53.0707 43.8978C52.5655 44.8347 51.8529 45.6437 50.9873 46.263C50.8613 46.4135 50.7972 46.6062 50.8078 46.8022C50.8184 46.9982 50.9029 47.1828 51.0443 47.3189C51.1857 47.455 51.3735 47.5323 51.5697 47.5354C51.7659 47.5384 51.956 47.4669 52.1016 47.3352C52.1412 47.2758 52.1833 47.2213 52.2254 47.1669V47.1619C52.8429 46.3608 53.6271 45.7035 54.5236 45.2353C55.4202 44.7672 56.4078 44.4993 57.4181 44.4504C58.1535 44.3058 58.809 43.8935 59.2578 43.2932C59.7066 42.693 59.9167 41.9475 59.8473 41.2013C59.778 40.455 59.4341 39.761 58.8824 39.2538C58.3307 38.7465 57.6104 38.462 56.8609 38.4554Z" fill="#31A8FF"/>
<path d="M50.9106 32.4604C50.8101 31.9215 50.5651 31.42 50.2018 31.0095C49.8385 30.5991 49.3704 30.295 48.8477 30.1298C48.325 29.9646 47.7673 29.9445 47.234 30.0716C46.7008 30.1988 46.2121 30.4684 45.8202 30.8517C45.4282 31.235 45.1478 31.7175 45.0088 32.2478C44.8698 32.7781 44.8775 33.3362 45.031 33.8624C45.1845 34.3887 45.4781 34.8634 45.8804 35.2357C46.2826 35.6081 46.7785 35.8642 47.3151 35.9767C48.3786 36.0184 49.4186 36.3027 50.3555 36.8078C51.2924 37.313 52.1014 38.0256 52.7207 38.8912C52.8712 39.0172 53.0639 39.0813 53.2599 39.0707C53.4558 39.0601 53.6405 38.9756 53.7766 38.8342C53.9126 38.6928 53.99 38.505 53.993 38.3088C53.9961 38.1126 53.9246 37.9225 53.7929 37.7769C53.7348 37.7361 53.6771 37.6948 53.6196 37.6531C52.819 37.0353 52.1621 36.2511 51.6944 35.3545C51.2266 34.4579 50.9592 33.4705 50.9106 32.4604Z" fill="#53E000"/>
<path d="M42.4989 41.8652C42.7523 40.0616 43.7004 38.4283 45.141 37.3139L45.349 37.1603C45.4749 37.0098 45.5391 36.8171 45.5285 36.6212C45.5179 36.4252 45.4334 36.2406 45.292 36.1045C45.1506 35.9684 44.9628 35.891 44.7666 35.888C44.5703 35.885 44.3803 35.9565 44.2347 36.0881L44.1134 36.254H44.1109C43.4936 37.0555 42.7095 37.7134 41.813 38.182C40.9164 38.6506 39.9287 38.9188 38.9182 38.968C38.3793 39.0685 37.8778 39.3135 37.4673 39.6768C37.0568 40.0401 36.7527 40.5081 36.5876 41.0308C36.4224 41.5536 36.4023 42.1113 36.5294 42.6446C36.6566 43.1778 36.9262 43.6665 37.3095 44.0584C37.6928 44.4503 38.1753 44.7308 38.7056 44.8698C39.2359 45.0088 39.7939 45.0011 40.3202 44.8476C40.8465 44.6941 41.3211 44.4005 41.6935 43.9982C42.0659 43.5959 42.322 43.1 42.4345 42.5635C42.4444 42.3283 42.4642 42.093 42.4989 41.8652Z" fill="#FCE117"/>
<path d="M49.0237 47.4442C47.9601 47.4025 46.9202 47.1182 45.9833 46.6131C45.0464 46.1079 44.2374 45.3953 43.6181 44.5297C43.4684 44.4031 43.2763 44.3379 43.0804 44.3473C42.8846 44.3567 42.6996 44.44 42.5628 44.5803C42.4259 44.7206 42.3473 44.9076 42.3427 45.1036C42.3382 45.2996 42.4081 45.49 42.5384 45.6365L42.5459 45.6415C42.6023 45.6831 42.6584 45.7252 42.7142 45.7678C43.5156 46.3847 44.1733 47.1683 44.6419 48.0645C45.1105 48.9606 45.3788 49.9479 45.4282 50.958C45.5287 51.4969 45.7737 51.9984 46.137 52.4089C46.5003 52.8194 46.9683 53.1234 47.4911 53.2886C48.0138 53.4538 48.5715 53.4739 49.1048 53.3468C49.638 53.2196 50.1267 52.95 50.5186 52.5667C50.9105 52.1834 51.191 51.7009 51.33 51.1706C51.469 50.6403 51.4613 50.0822 51.3078 49.556C51.1543 49.0297 50.8607 48.5551 50.4584 48.1827C50.0561 47.8103 49.5602 47.5542 49.0237 47.4417" fill="#F96600"/>
</svg>
