<svg width="64" height="64" viewBox="0 0 64 64" fill="none" xmlns="http://www.w3.org/2000/svg">
<path d="M32.4855 53.4222C27.9627 53.4222 23.7418 52.07 20.2157 49.7687L11.6422 52.4857L14.4214 44.2684C11.7473 40.6273 10.1746 36.1416 10.1746 31.3047C10.1746 19.1083 20.1765 9.18747 32.4726 9.18747C44.7686 9.18747 54.7706 19.1083 54.7706 31.3047C54.7706 43.5007 44.7686 53.4219 32.4726 53.4219H32.4855V53.4222ZM32.4855 5.00043C17.8424 5.00043 5.96627 16.7814 5.96627 31.305C5.96627 36.2719 7.35585 40.9268 9.76763 44.8926L4.98291 59.0004L19.6652 54.3327C23.5896 56.4851 28.0012 57.6126 32.4855 57.6093C47.1283 57.6093 59.0048 45.829 59.0048 31.305C59.0044 16.7814 47.1283 5.00043 32.4855 5.00043Z" fill="#FEFEFE"/>
<path d="M32.4855 9.18748C20.1894 9.18748 10.1875 19.1083 10.1875 31.3047C10.1875 36.1416 11.7606 40.6274 14.4347 44.2684L11.6555 52.4857L20.2286 49.7688C23.7548 52.0832 27.9627 53.4222 32.4984 53.4222C44.7945 53.4222 54.7964 43.501 54.7964 31.305C54.7964 19.1087 44.7945 9.18785 32.4984 9.18785H32.4855V9.18748Z" fill="url(#paint0_linear_8459_2946)"/>
<path d="M26.2587 20.422C25.8263 19.3949 25.4985 19.356 24.8433 19.3296C24.5945 19.3137 24.3452 19.3051 24.0959 19.3039C23.2435 19.3039 22.3523 19.5509 21.8148 20.0969C21.1595 20.76 19.5339 22.3071 19.5339 25.4799C19.5339 28.6526 21.8673 31.7212 22.1818 32.1505C22.5095 32.5791 26.7308 39.1845 33.2851 41.8765C38.4105 43.9829 39.9314 43.7876 41.0979 43.5407C42.802 43.1766 44.9389 41.9279 45.4764 40.42C46.014 38.9114 46.014 37.6241 45.8564 37.3511C45.6991 37.0781 45.2663 36.9225 44.6111 36.597C43.9559 36.2719 40.7701 34.7115 40.1671 34.5035C39.577 34.2826 39.0136 34.3607 38.5681 34.9849C37.9388 35.8561 37.3228 36.7405 36.8245 37.2733C36.4312 37.6894 35.7886 37.7416 35.2514 37.5203C34.5304 37.2216 32.5118 36.5188 30.0209 34.3215C28.0938 32.6184 26.783 30.4992 26.403 29.8621C26.0227 29.2122 26.3638 28.8346 26.665 28.4838C26.9927 28.0805 27.3072 27.7947 27.635 27.4174C27.9628 27.0406 28.1463 26.8453 28.3561 26.4032C28.5791 25.9742 28.4215 25.532 28.2643 25.2069C28.1071 24.8817 26.7963 21.709 26.2587 20.422Z" fill="#FEFEFE"/>
<defs>
<linearGradient id="paint0_linear_8459_2946" x1="-157.422" y1="-64.914" x2="-157.422" y2="-63.2911" gradientUnits="userSpaceOnUse">
<stop stop-color="#6EBF61"/>
<stop offset="0.231" stop-color="#50A557"/>
<stop offset="0.522" stop-color="#2A904F"/>
<stop offset="0.812" stop-color="#50A557"/>
<stop offset="1" stop-color="#6EBF63"/>
</linearGradient>
</defs>
</svg>
