<svg width="191" height="64" viewBox="0 0 191 64" fill="none" xmlns="http://www.w3.org/2000/svg">
<path d="M181.063 37.2469C180.96 37.7672 180.781 38.2094 180.537 38.5995C180.294 38.9892 179.974 39.3019 179.565 39.5485C179.167 39.783 178.668 39.9125 178.078 39.9125C177.502 39.9125 177.002 39.7958 176.606 39.5485C176.209 39.3132 175.872 38.9885 175.619 38.5995C175.375 38.2098 175.196 37.7672 175.081 37.2469C174.968 36.7304 174.912 36.2028 174.914 35.6737C174.914 35.1277 174.966 34.5813 175.068 34.0749C175.171 33.5545 175.35 33.0995 175.594 32.7094C175.837 32.3057 176.157 31.9942 176.567 31.7344C176.964 31.487 177.463 31.3571 178.053 31.3571C178.629 31.3571 179.116 31.487 179.513 31.7344C179.911 31.9842 180.248 32.3218 180.499 32.7222C180.756 33.1252 180.935 33.593 181.05 34.1006C181.165 34.6205 181.217 35.1405 181.217 35.6737C181.217 36.2069 181.165 36.7269 181.063 37.2469ZM184.47 33.0474C184.226 32.1762 183.868 31.4221 183.381 30.759C182.881 30.1091 182.267 29.5755 181.524 29.1858C180.781 28.7957 179.884 28.5877 178.847 28.5877C178.027 28.5877 177.284 28.7569 176.605 29.082C175.926 29.4071 175.362 29.9399 174.927 30.6551H174.876V28.9517H171.443V46.9861H175.055V40.6534H175.106C175.532 41.2896 176.115 41.8009 176.797 42.1359C177.489 42.4739 178.232 42.6431 179.052 42.6431C180.012 42.6431 180.858 42.4482 181.588 42.071C182.293 41.7046 182.909 41.1851 183.394 40.5496C183.881 39.9125 184.239 39.1841 184.47 38.3522C184.714 37.5199 184.829 36.6623 184.829 35.7647C184.829 34.8158 184.714 33.9057 184.47 33.0342V33.0474ZM166.653 37.2469C166.55 37.7672 166.371 38.2094 166.127 38.5995C165.884 38.9896 165.564 39.3019 165.154 39.5485C164.757 39.783 164.257 39.9125 163.668 39.9125C163.092 39.9125 162.605 39.7958 162.195 39.5485C161.799 39.313 161.461 38.9883 161.208 38.5995C160.966 38.2098 160.786 37.7672 160.671 37.2469C160.558 36.7305 160.502 36.2028 160.505 35.6737C160.505 35.1277 160.556 34.5813 160.658 34.0749C160.761 33.5545 160.939 33.0995 161.183 32.7094C161.427 32.3057 161.747 31.9942 162.157 31.7344C162.554 31.487 163.053 31.3571 163.642 31.3571C164.219 31.3571 164.705 31.487 165.103 31.7344C165.501 31.9841 165.838 32.3218 166.089 32.7222C166.345 33.1252 166.524 33.593 166.64 34.1006C166.755 34.6205 166.806 35.1405 166.806 35.6737C166.806 36.2069 166.755 36.7269 166.653 37.2469ZM168.971 30.759C168.484 30.1091 167.856 29.5755 167.114 29.1858C166.371 28.7957 165.474 28.5877 164.436 28.5877C163.616 28.5877 162.874 28.7569 162.195 29.082C161.516 29.4071 160.952 29.9399 160.517 30.6551H160.465V28.9517H157.032V46.9861H160.644V40.6534H160.696C161.122 41.2896 161.705 41.8009 162.387 42.1359C163.078 42.4739 163.821 42.6431 164.641 42.6431C165.614 42.6431 166.447 42.4482 167.178 42.071C167.882 41.7043 168.499 41.1849 168.983 40.5496C169.471 39.9125 169.829 39.1841 170.073 38.3522C170.309 37.5106 170.43 36.6399 170.431 35.7647C170.431 34.8158 170.316 33.9057 170.073 33.0342C169.829 32.1634 169.471 31.4089 168.971 30.7462V30.759ZM145.197 35.1798L147.566 28.4053H147.618L149.911 35.1798H145.197ZM145.581 23.8546L138.703 42.3047H142.725L144.147 38.1962H150.948L152.319 42.3047H156.469L149.667 23.8546H145.568H145.581ZM138.408 36.4539C138.164 36.0378 137.857 35.6737 137.46 35.3879C137.076 35.102 136.627 34.8804 136.128 34.6987C135.622 34.5299 135.109 34.3825 134.591 34.2569C134.078 34.1395 133.579 34.0224 133.092 33.9185C132.605 33.8147 132.157 33.6973 131.785 33.5674C131.401 33.4375 131.094 33.2687 130.863 33.0602C130.619 32.8521 130.504 32.5923 130.504 32.2544C130.504 31.9813 130.568 31.7601 130.709 31.5909C130.85 31.4221 131.017 31.305 131.209 31.214C131.401 31.123 131.619 31.0709 131.862 31.0452C132.083 31.0204 132.306 31.0074 132.528 31.0063C133.169 31.0063 133.732 31.1362 134.207 31.3832C134.681 31.6302 134.95 32.1113 134.988 32.8133H138.421C138.356 31.981 138.139 31.305 137.793 30.7586C137.447 30.2122 137.012 29.7836 136.487 29.4585C135.961 29.1334 135.359 28.8996 134.693 28.7565C134.027 28.6134 133.335 28.5484 132.618 28.5484C131.901 28.5484 131.209 28.6137 130.53 28.7433C129.852 28.8732 129.237 29.0945 128.699 29.4196C128.149 29.7447 127.713 30.1741 127.393 30.7197C127.059 31.2658 126.893 31.9813 126.893 32.8389C126.893 33.4242 127.008 33.9182 127.252 34.3211C127.482 34.7248 127.802 35.0624 128.186 35.3354C128.584 35.5956 129.019 35.8168 129.519 35.9856C130.019 36.1544 130.531 36.2979 131.056 36.4146C132.35 36.6876 133.349 36.9607 134.079 37.2337C134.796 37.5067 135.155 37.9228 135.155 38.4689C135.155 38.794 135.078 39.067 134.925 39.2879C134.774 39.5038 134.577 39.6817 134.348 39.8079C134.117 39.9378 133.861 40.0292 133.579 40.0938C133.315 40.1549 133.044 40.1854 132.773 40.1848C132.414 40.1848 132.068 40.1463 131.748 40.0549C131.415 39.9639 131.12 39.8332 130.864 39.6516C130.608 39.4696 130.403 39.2355 130.237 38.9496C130.07 38.6637 129.993 38.3254 129.993 37.9353H126.56C126.598 38.8322 126.791 39.5734 127.162 40.1716C127.521 40.7701 127.995 41.238 128.558 41.602C129.122 41.966 129.775 42.2258 130.506 42.3818C131.236 42.5381 131.978 42.6163 132.747 42.6163C133.49 42.6163 134.233 42.5381 134.95 42.3946C135.667 42.2519 136.308 41.9917 136.872 41.6277C137.435 41.2637 137.883 40.7826 138.229 40.1973C138.575 39.5995 138.754 38.8714 138.754 37.9871C138.754 37.3632 138.639 36.8432 138.396 36.4267L138.408 36.4539ZM123.459 24.947H119.847V28.9517H117.657V31.4089H119.847V39.2887C119.847 39.965 119.962 40.4982 120.18 40.9139C120.398 41.3305 120.706 41.642 121.09 41.8765C121.474 42.0974 121.91 42.2534 122.409 42.3315C122.935 42.411 123.466 42.45 123.998 42.4482C124.356 42.4482 124.715 42.4354 125.099 42.4225C125.438 42.4109 125.776 42.3761 126.111 42.3183V39.4707C125.934 39.5112 125.754 39.5372 125.574 39.5485C125.377 39.564 125.181 39.5727 124.984 39.5745C124.369 39.5745 123.972 39.4707 123.767 39.2622C123.562 39.0545 123.46 38.638 123.46 38.0274V31.4089H126.111V28.9517H123.46V24.947H123.459ZM113.097 37.143C113.097 37.3507 113.071 37.6241 113.033 37.9753C112.989 38.3345 112.872 38.6802 112.687 38.9896C112.495 39.3279 112.213 39.6138 111.816 39.8611C111.432 40.1077 110.868 40.2252 110.164 40.2252C109.882 40.2252 109.6 40.1987 109.318 40.147C109.049 40.0945 108.806 40.0035 108.601 39.874C108.396 39.7437 108.242 39.5749 108.114 39.3408C107.999 39.1199 107.935 38.8468 107.935 38.5085C107.935 38.1573 107.999 37.8843 108.114 37.6506C108.229 37.4289 108.396 37.2469 108.588 37.0913C108.78 36.9482 109.011 36.8315 109.28 36.7405C109.549 36.6495 109.805 36.5842 110.087 36.5321C110.376 36.4815 110.666 36.4382 110.958 36.4021C111.252 36.3632 111.522 36.324 111.79 36.2722C112.059 36.2205 112.303 36.1552 112.533 36.0774C112.764 35.9996 112.956 35.8954 113.11 35.7523V37.1177L113.097 37.143ZM116.709 39.3404V32.3839C116.709 31.5781 116.529 30.9278 116.171 30.4339C115.813 29.9396 115.351 29.5627 114.8 29.2897C114.237 29.0167 113.622 28.8346 112.943 28.7308C112.277 28.6383 111.605 28.5905 110.932 28.5877C110.202 28.5877 109.472 28.6658 108.755 28.809C108.038 28.9521 107.384 29.1987 106.808 29.5502C106.24 29.893 105.754 30.3594 105.386 30.9157C105.014 31.4878 104.796 32.2026 104.745 33.061H108.358C108.422 32.3333 108.665 31.8261 109.075 31.5138C109.485 31.2016 110.035 31.046 110.753 31.046C111.073 31.046 111.38 31.0716 111.663 31.1109C111.925 31.1459 112.178 31.2344 112.405 31.3711C112.623 31.501 112.79 31.683 112.918 31.9171C113.046 32.1513 113.11 32.4628 113.11 32.8661C113.123 33.243 113.02 33.5296 112.777 33.7373C112.533 33.9321 112.213 34.0884 111.803 34.1923C111.394 34.2961 110.933 34.3743 110.407 34.4264C109.882 34.4785 109.344 34.5435 108.806 34.6345C108.268 34.7255 107.73 34.8422 107.192 34.9853C106.654 35.1284 106.18 35.3493 105.77 35.6488C105.347 35.9475 105.014 36.3376 104.745 36.8186C104.477 37.3129 104.348 37.9371 104.348 38.6913C104.348 39.3804 104.463 39.9786 104.694 40.4725C104.91 40.954 105.235 41.3773 105.642 41.7081C106.065 42.0419 106.548 42.2892 107.064 42.4361C107.602 42.5921 108.191 42.6699 108.819 42.6699C109.638 42.6699 110.433 42.5532 111.214 42.3058C111.987 42.0664 112.687 41.6327 113.251 41.045C113.263 41.2659 113.302 41.4864 113.34 41.7081C113.379 41.9158 113.443 42.137 113.507 42.3451H117.17C117.004 42.0721 116.876 41.6556 116.812 41.1095C116.744 40.5357 116.71 39.9583 116.709 39.3804V39.3404H116.709ZM101.825 30.1087C101.466 29.6409 100.979 29.2636 100.365 29.0034C99.7499 28.7304 98.956 28.6002 97.9821 28.6002C97.3032 28.6002 96.6116 28.7822 95.8944 29.1334C95.1772 29.4845 94.6006 30.0566 94.1397 30.8236H94.0627V23.8674H90.4505V42.3179H94.0627V35.3097C94.0627 33.9442 94.2807 32.9692 94.7289 32.3711C95.1645 31.7729 95.8818 31.4871 96.868 31.4871C97.7262 31.4871 98.3411 31.7601 98.674 32.3057C99.0073 32.8518 99.1866 33.6712 99.1866 34.7761V42.3179H102.799V34.1006C102.799 33.2683 102.722 32.5145 102.581 31.8382C102.44 31.1619 102.184 30.577 101.825 30.1087ZM82.7263 36.5842H82.6749L79.5754 23.8678H75.8349L72.6837 36.4282H72.6324L69.7501 23.8678H65.754L70.57 42.3183H74.6177L77.6406 29.7576H77.692L80.7662 42.3183H84.737L86.9143 34.1266L89.6299 23.8678H85.7101L82.7263 36.5842Z" fill="#272525"/>
<path d="M31.8738 53.4222C27.4545 53.4222 23.3301 52.07 19.8846 49.7687L11.5071 52.4857L14.2227 44.2684C11.6097 40.6273 10.073 36.1416 10.073 31.3047C10.073 19.1083 19.8462 9.18747 31.8612 9.18747C43.8761 9.18747 53.6494 19.1083 53.6494 31.3047C53.6494 43.5007 43.8761 53.4219 31.8612 53.4219H31.8738V53.4222ZM31.8738 5.00043C17.5655 5.00043 5.96088 16.7814 5.96088 31.305C5.96088 36.2719 7.31869 40.9268 9.67533 44.8926L5 59.0004L19.3466 54.3327C23.1813 56.4851 27.492 57.6126 31.8738 57.6093C46.1818 57.6093 57.7868 45.829 57.7868 31.305C57.7864 16.7814 46.1818 5.00043 31.8738 5.00043Z" fill="#FEFEFE"/>
<path d="M31.8738 9.18747C19.8588 9.18747 10.0856 19.1083 10.0856 31.3047C10.0856 36.1416 11.6227 40.6274 14.2356 44.2684L11.52 52.4857L19.8972 49.7688C23.3426 52.0832 27.4544 53.4222 31.8864 53.4222C43.9014 53.4222 53.6746 43.501 53.6746 31.305C53.6746 19.1087 43.9014 9.18784 31.8864 9.18784H31.8738V9.18747Z" fill="url(#paint0_linear_8459_3074)"/>
<path d="M25.7894 20.422C25.3668 19.3949 25.0465 19.356 24.4063 19.3296C24.1632 19.3137 23.9197 19.3051 23.6761 19.3039C22.8432 19.3039 21.9723 19.5509 21.4471 20.0969C20.8068 20.76 19.2184 22.3071 19.2184 25.4799C19.2184 28.6526 21.4984 31.7212 21.8057 32.1505C22.126 32.5791 26.2507 39.1845 32.6551 41.8765C37.6634 43.9829 39.1495 43.7876 40.2894 43.5407C41.9545 43.1766 44.0425 41.9279 44.5678 40.42C45.093 38.9114 45.093 37.6241 44.939 37.3511C44.7854 37.0781 44.3624 36.9225 43.7222 36.597C43.082 36.2719 39.9691 34.7115 39.3798 34.5035C38.8032 34.2826 38.2527 34.3607 37.8174 34.9849C37.2025 35.8561 36.6006 36.7405 36.1136 37.2733C35.7294 37.6894 35.1014 37.7416 34.5765 37.5203C33.8719 37.2216 31.8996 36.5188 29.4656 34.3215C27.5825 32.6184 26.3017 30.4992 25.9304 29.8621C25.5588 29.2122 25.8921 28.8346 26.1864 28.4838C26.5067 28.0805 26.8139 27.7947 27.1342 27.4174C27.4545 27.0406 27.6338 26.8453 27.8388 26.4032C28.0568 25.9742 27.9028 25.532 27.7492 25.2069C27.5955 24.8817 26.3147 21.709 25.7894 20.422Z" fill="#FEFEFE"/>
<defs>
<linearGradient id="paint0_linear_8459_3074" x1="-153.692" y1="-64.9141" x2="-153.692" y2="-63.2911" gradientUnits="userSpaceOnUse">
<stop stop-color="#6EBF61"/>
<stop offset="0.231" stop-color="#50A557"/>
<stop offset="0.522" stop-color="#2A904F"/>
<stop offset="0.812" stop-color="#50A557"/>
<stop offset="1" stop-color="#6EBF63"/>
</linearGradient>
</defs>
</svg>
