<svg width="64" height="64" viewBox="0 0 64 64" fill="none" xmlns="http://www.w3.org/2000/svg">
<path d="M32 5C17.1173 5 5 17.1065 5 32C5 46.8827 17.1173 59 32 59C46.8827 59 59 46.8827 59 32C59 17.1065 46.8827 5 32 5ZM7.72177 32C7.72177 28.4835 8.47298 25.1411 9.82298 22.1254L21.4069 53.8504C13.3069 49.9093 7.72177 41.6024 7.72177 32ZM32 56.2782C29.6157 56.2782 27.3185 55.9298 25.1411 55.2875L32.4246 34.123L39.8823 54.5689C39.9367 54.6887 39.9911 54.7976 40.0564 54.9065C37.5415 55.7883 34.8306 56.2782 32 56.2782ZM35.3423 20.623C36.3149 20.5722 37.2403 20.496 38.1185 20.3944C39.425 20.2419 39.2726 18.3149 37.9661 18.3911C35.346 18.5944 33.1903 18.696 31.4992 18.696C29.9097 18.696 27.7794 18.5944 25.1085 18.3911C23.802 18.3149 23.6496 20.3181 24.9561 20.3944C25.7835 20.496 26.6327 20.5722 27.5036 20.623L31.2815 30.9875L25.9685 46.9153L17.1282 20.623C18.1008 20.5722 19.0262 20.496 19.9044 20.3944C21.2109 20.2419 21.0585 18.3149 19.752 18.3911C17.1319 18.5944 14.9762 18.696 13.2851 18.696C12.8278 18.696 12.2944 18.6851 11.7173 18.6633C16.0613 12.0766 23.519 7.72177 32 7.72177C38.3145 7.72177 44.0738 10.1387 48.396 14.0907C48.2871 14.0798 48.1891 14.069 48.0802 14.069C45.696 14.069 44.0085 16.1484 44.0085 18.3802C44.0085 20.3835 45.1625 22.071 46.3927 24.0742C47.3181 25.6855 48.396 27.7649 48.396 30.7698C48.396 32.8492 47.6012 35.2552 46.5452 38.6194L44.1282 46.7085L35.3423 20.623ZM44.2044 52.9794L51.6185 31.5427C53.0012 28.0806 53.4694 25.3153 53.4694 22.844C53.4694 21.9512 53.4149 21.1238 53.306 20.3508C55.2004 23.8129 56.2782 27.7758 56.2782 32C56.2782 40.9601 51.4226 48.777 44.2044 52.9794Z" fill="#061229"/>
</svg>
