<svg width="250" height="64" viewBox="0 0 250 64" fill="none" xmlns="http://www.w3.org/2000/svg">
<mask id="mask0_8459_2984" style="mask-type:luminance" maskUnits="userSpaceOnUse" x="6" y="5" width="238" height="54">
<path d="M243.969 5H6.03125V59H243.969V5Z" fill="white"/>
</mask>
<g mask="url(#mask0_8459_2984)">
<path d="M144.031 26.1728H134.664V27.1628C137.594 27.1628 138.065 27.7884 138.065 31.4903V38.1639C138.065 41.8653 137.594 42.5432 134.664 42.5432C132.415 42.2306 130.897 41.0312 128.804 38.7373L126.397 36.1308C129.641 35.5565 131.368 33.5239 131.368 31.2295C131.368 28.3627 128.909 26.1728 124.304 26.1728H115.095V27.1628C118.025 27.1628 118.496 27.7884 118.496 31.4903V38.1639C118.496 41.8653 118.025 42.5432 115.095 42.5432V43.5336H125.507V42.5432C122.578 42.5432 122.107 41.8653 122.107 38.1639V36.2875H122.996L128.804 43.5336H144.031C151.513 43.5336 154.757 39.5719 154.757 34.8269C154.757 30.0828 151.513 26.1728 144.031 26.1728ZM122.107 34.6702V27.7371H124.252C126.606 27.7371 127.653 29.3531 127.653 31.23C127.653 33.055 126.606 34.6706 124.252 34.6706L122.107 34.6702ZM144.188 41.9176H143.821C141.938 41.9176 141.676 41.4487 141.676 39.0503V27.7371C143.211 27.7371 144.048 27.7371 144.188 27.7371C149.63 27.7371 150.623 31.6988 150.623 34.7751C150.623 37.9549 149.629 41.9176 144.188 41.9176Z" fill="#00749A"/>
<path d="M85.951 36.6001L89.5615 25.9638C90.6084 22.888 90.1374 22.0021 86.7886 22.0021V20.959H96.6256V22.0021C93.3292 22.0021 92.5445 22.784 91.2363 26.5899L85.2706 44.42H84.5908L79.253 28.1015L73.8118 44.42H73.1314L67.3236 26.5899C66.0678 22.784 65.2306 22.0021 62.1956 22.0021V20.959H73.8118V22.0021C70.7243 22.0021 69.8867 22.7317 70.986 25.9638L74.4916 36.6001L79.7765 20.959H80.771L85.951 36.6001Z" fill="#00749A"/>
<path d="M103.741 44.211C97.9853 44.211 93.2759 39.9885 93.2759 34.8264C93.2759 29.7175 97.9857 25.4941 103.741 25.4941C109.497 25.4941 114.206 29.7175 114.206 34.8264C114.206 39.9885 109.497 44.211 103.741 44.211ZM103.741 27.1115C98.9273 27.1115 97.2525 31.438 97.2525 34.8269C97.2525 38.2684 98.9273 42.5432 103.741 42.5432C108.607 42.5432 110.282 38.2684 110.282 34.8269C110.282 31.438 108.607 27.1115 103.741 27.1115Z" fill="#00749A"/>
<path d="M167.681 42.4909V43.5336H155.698V42.4909C159.204 42.4909 159.832 41.605 159.832 36.3907V28.0496C159.832 22.8354 159.204 22.0017 155.698 22.0017V20.9585H166.529C171.919 20.9585 174.902 23.7217 174.902 27.424C174.902 31.0214 171.919 33.8364 166.529 33.8364H163.547V36.3902C163.547 41.605 164.175 42.4909 167.681 42.4909ZM166.529 22.8354H163.547V31.9074H166.529C169.46 31.9074 170.82 29.8742 170.82 27.424C170.82 24.9216 169.46 22.8354 166.529 22.8354Z" fill="#464342"/>
<path d="M210.848 38.6332L210.587 39.5714C210.116 41.292 209.54 41.9176 205.825 41.9176H205.092C202.372 41.9176 201.901 41.292 201.901 37.5905V35.1926C205.982 35.1926 206.296 35.557 206.296 38.2684H207.29V30.4999H206.296C206.296 33.2108 205.982 33.5757 201.901 33.5757V27.7371H204.778C208.494 27.7371 209.069 28.3627 209.54 30.0832L209.802 31.0732H210.639L210.273 26.1728H194.889V27.1628C197.819 27.1628 198.29 27.7884 198.29 31.4903V38.1639C198.29 41.5501 197.89 42.4031 195.58 42.5247C193.384 42.1906 191.877 40.9974 189.814 38.7373L187.407 36.1308C190.651 35.5565 192.378 33.5239 192.378 31.2295C192.378 28.3627 189.919 26.1728 185.315 26.1728H176.105V27.1628C179.035 27.1628 179.506 27.7884 179.506 31.4903V38.1639C179.506 41.8653 179.036 42.5432 176.105 42.5432V43.5336H186.518V42.5432C183.589 42.5432 183.117 41.8653 183.117 38.1639V36.2875H184.007L189.815 43.5336H211.32L211.634 38.6337L210.848 38.6332ZM183.117 34.6702V27.7371H185.262C187.616 27.7371 188.663 29.3531 188.663 31.23C188.663 33.055 187.616 34.6706 185.262 34.6706L183.117 34.6702Z" fill="#464342"/>
<path d="M221.47 44.211C219.377 44.211 217.545 43.1165 216.761 42.4382C216.499 42.6995 216.028 43.4814 215.924 44.211H214.929V37.0172H215.976C216.395 40.4578 218.801 42.4909 221.889 42.4909C223.563 42.4909 224.924 41.5527 224.924 39.9889C224.924 38.6337 223.72 37.5905 221.575 36.6001L218.592 35.1926C216.499 34.2013 214.929 32.4807 214.929 30.1873C214.929 27.6848 217.284 25.5477 220.528 25.5477C222.255 25.5477 223.72 26.1733 224.61 26.9029C224.871 26.6944 225.133 26.1206 225.29 25.4945H226.284V31.647H225.185C224.819 29.1964 223.459 27.1633 220.686 27.1633C219.221 27.1633 217.86 27.9974 217.86 29.3013C217.86 30.6566 218.959 31.3862 221.471 32.5334L224.348 33.9409C226.86 35.1399 227.853 37.0699 227.853 38.6337C227.853 41.9176 224.976 44.211 221.47 44.211Z" fill="#464342"/>
<path d="M237.586 44.211C235.492 44.211 233.661 43.1165 232.876 42.4382C232.615 42.6995 232.144 43.4814 232.04 44.211H231.045V37.0172H232.092C232.51 40.4578 234.917 42.4909 238.004 42.4909C239.679 42.4909 241.039 41.5527 241.039 39.9889C241.039 38.6337 239.836 37.5905 237.69 36.6001L234.708 35.1926C232.615 34.2013 231.045 32.4807 231.045 30.1873C231.045 27.6848 233.399 25.5477 236.644 25.5477C238.37 25.5477 239.835 26.1733 240.725 26.9029C240.986 26.6944 241.248 26.1206 241.405 25.4945H242.399V31.647H241.301C240.934 29.1964 239.574 27.1633 236.801 27.1633C235.336 27.1633 233.975 27.9974 233.975 29.3013C233.975 30.6566 235.074 31.3862 237.586 32.5334L240.463 33.9409C242.975 35.1399 243.969 37.0699 243.969 38.6337C243.969 41.9176 241.091 44.211 237.586 44.211Z" fill="#464342"/>
<path d="M9.86816 31.8946C9.86816 41.0272 15.1949 48.9196 22.919 52.6596L11.873 22.5048C10.5881 25.3742 9.86816 28.5497 9.86816 31.8946Z" fill="#464342"/>
<path d="M48.6573 30.7303C48.6573 27.8789 47.6294 25.9041 46.7477 24.3671C45.5738 22.4666 44.4736 20.8571 44.4736 18.9566C44.4736 16.8357 46.0881 14.8614 48.3621 14.8614C48.4648 14.8614 48.5622 14.8741 48.6622 14.8798C44.5423 11.1191 39.0535 8.82303 33.0248 8.82303C24.935 8.82303 17.8176 12.9586 13.677 19.2226C14.2203 19.2389 14.7323 19.2503 15.1672 19.2503C16.7819 19.2503 18.8391 19.1527 21.3386 18.9575C22.5869 18.8842 22.734 20.7109 21.4871 20.858C20.6508 20.9561 19.7673 21.0294 18.8367 21.078L27.2694 46.0694L32.337 30.9261L28.7292 21.0771C27.8979 21.0285 27.0885 20.9552 26.3009 20.8571C25.0531 20.7842 25.1993 18.8833 26.4472 18.9566C28.9967 19.1518 31.0298 19.2494 32.5468 19.2494C34.1612 19.2494 36.2184 19.1518 38.7182 18.9566C39.9673 18.8833 40.1141 20.7101 38.8667 20.8571C38.0286 20.9552 37.1451 21.0285 36.2163 21.0771L44.5846 45.8793L46.8944 38.1889C47.8955 34.9977 48.6573 32.7055 48.6573 30.7303Z" fill="#464342"/>
<path d="M33.4311 33.9128L26.4833 54.0285C28.5577 54.6361 30.7516 54.9684 33.0248 54.9684C35.7214 54.9684 38.3074 54.5039 40.7146 53.6606C40.6525 53.5618 40.5961 53.4569 40.5498 53.3427L33.4311 33.9128Z" fill="#464342"/>
<path d="M53.3438 20.8251C53.4433 21.56 53.4997 22.3489 53.4997 23.1976C53.4997 25.5389 53.0609 28.1708 51.739 31.4618L44.6656 51.8382C51.55 47.8382 56.1805 40.4069 56.1805 31.8951C56.1809 27.8837 55.1525 24.1116 53.3438 20.8251Z" fill="#464342"/>
<path d="M33.0248 5C18.1409 5 6.03125 17.0648 6.03125 31.8946C6.03125 46.7262 18.1409 58.7906 33.0248 58.7906C47.9082 58.7906 60.0197 46.7262 60.0197 31.8946C60.0193 17.0648 47.9082 5 33.0248 5ZM33.0248 57.5578C18.8235 57.5578 7.26897 46.0453 7.26897 31.8946C7.26897 17.7449 18.823 6.23322 33.0248 6.23322C47.2257 6.23322 58.7794 17.7449 58.7794 31.8946C58.7794 46.0453 47.2257 57.5578 33.0248 57.5578Z" fill="#464342"/>
</g>
</svg>
