<svg width="64" height="64" viewBox="0 0 64 64" fill="none" xmlns="http://www.w3.org/2000/svg">
<path d="M4 18.2545C4 10.382 10.382 4 18.2545 4H45.7455C53.618 4 60 10.382 60 18.2545V45.7455C60 53.618 53.618 60 45.7455 60H18.2545C10.382 60 4 53.618 4 45.7455V18.2545Z" fill="#FFE23C"/>
<path d="M19.2023 29.4239C19.2023 29.2159 19.1987 29.0443 19.2023 28.8717C19.1995 28.5269 19.3337 28.1951 19.5755 27.9493C19.8173 27.7035 20.1469 27.5638 20.4916 27.561C20.8364 27.5582 21.1682 27.6924 21.414 27.9342C21.6598 28.176 21.7995 28.5056 21.8023 28.8504C21.8091 29.0313 21.8023 29.2144 21.8023 29.4224C21.9151 29.4281 22.0067 29.4364 22.0982 29.4369C23.7102 29.4369 25.3222 29.4317 26.9342 29.4432C27.1801 29.4432 27.2373 29.3683 27.2347 29.1348C27.2217 28.0516 27.2269 26.9685 27.2249 25.8853C27.2249 25.8006 27.2176 25.7158 27.2124 25.5946H26.8952C24.6942 25.5946 22.4929 25.5946 20.2912 25.5946C19.7987 25.5946 19.3619 25.4678 19.0619 25.0481C18.7889 24.6659 18.7379 24.2473 18.9298 23.8168C19.1331 23.3597 19.5018 23.1132 19.9943 23.0498C20.1067 23.04 20.2196 23.0376 20.3323 23.0425C23.0363 23.0397 25.7403 23.0375 28.4443 23.0357C29.2939 23.0357 29.8483 23.5807 29.8483 24.4283C29.8483 29.8363 29.846 35.2443 29.8415 40.6523C29.8415 41.0126 29.8795 41.3803 29.6881 41.7188C29.5524 41.9677 29.3396 42.1659 29.0817 42.2836C28.8237 42.4013 28.5345 42.4321 28.2576 42.3714C27.6627 42.2409 27.2524 41.7916 27.2467 41.1837C27.2295 39.3382 27.2337 37.4917 27.2306 35.6468C27.2306 34.5028 27.2243 33.3588 27.2306 32.2148C27.2306 32.0198 27.1697 31.9636 26.9779 31.9641C25.3227 31.9704 23.6675 31.9678 22.0124 31.9688C21.9536 31.9688 21.8949 31.9797 21.8044 31.9891V32.3011C21.8044 35.2214 21.8044 38.1419 21.8044 41.0626C21.8044 41.7557 21.4206 42.2185 20.7425 42.3719C19.9927 42.542 19.2288 41.9559 19.2065 41.1863C19.1924 40.7012 19.1997 40.216 19.1997 39.7303V32.2943V31.9823C19.0905 31.9761 18.999 31.9657 18.9075 31.9657C17.2871 31.9657 15.6663 31.9714 14.046 31.961C13.8073 31.961 13.7595 32.0385 13.76 32.2584C13.7652 35.1964 13.76 38.1344 13.7626 41.0719C13.7626 41.5311 13.604 41.8987 13.2223 42.1613C12.8001 42.4515 12.3503 42.4868 11.8937 42.2653C11.4371 42.0438 11.2 41.6829 11.1787 41.177C11.169 40.943 11.1641 40.709 11.1641 40.475C11.1641 35.2673 11.1641 30.0594 11.1641 24.851C11.1641 24.6347 11.1595 24.4168 11.1803 24.2021C11.2157 23.8755 11.3734 23.5745 11.6217 23.3594C11.87 23.1444 12.1905 23.0314 12.5187 23.043C13.2072 23.069 13.7574 23.6062 13.761 24.291C13.7704 25.903 13.7693 27.515 13.7579 29.127C13.7579 29.3813 13.8317 29.4426 14.0787 29.439C15.6907 29.4286 17.3027 29.4343 18.9147 29.4343C19 29.4374 19.0853 29.4296 19.2023 29.4239Z" fill="black"/>
<path d="M43.4477 27.2061C46.0561 27.2061 48.6649 27.1999 51.2732 27.2155C51.5823 27.2158 51.8872 27.2869 52.1645 27.4235C52.5847 27.6408 52.7708 28.0329 52.7698 28.5222C52.7635 31.5122 52.7542 34.5022 52.7765 37.4917C52.7823 38.292 52.1442 38.864 51.3959 38.8578C49.3851 38.8489 47.3748 38.8578 45.3639 38.8578H35.6399C34.8885 38.8578 34.4065 38.5827 34.1969 38.02C34.1491 37.8905 34.1242 37.7536 34.1236 37.6155C34.1188 34.5561 34.1174 31.4968 34.1195 28.4375C34.1195 27.7672 34.6993 27.2139 35.4117 27.2087C36.5125 27.2009 37.6128 27.2087 38.7137 27.2087H43.4457L43.4477 27.2061ZM44.7529 36.264C44.7935 36.2832 44.8091 36.2962 44.8242 36.2962C46.5541 36.2994 48.2843 36.3023 50.0148 36.3051C50.189 36.3051 50.1797 36.1969 50.1786 36.0799C50.1755 35.6213 50.1731 35.1626 50.1713 34.704C50.1713 34.5776 50.1713 34.4508 50.1713 34.3182H44.7529V36.264ZM36.7356 36.2843H42.1259V34.3135H36.7356V36.2843ZM44.7685 29.7723V31.7317H50.1552V29.7723H44.7685ZM42.1337 29.7817H36.7429V31.7286H42.1337V29.7817Z" fill="black"/>
<path d="M50.162 24.6014H36.7351C36.7299 24.7148 36.7268 24.8162 36.72 24.9176C36.6732 25.6456 36.0996 26.1828 35.3846 26.1656C34.6613 26.149 34.1262 25.6009 34.1179 24.8594C34.1122 24.3394 34.1086 23.8194 34.1179 23.2994C34.1178 23.1323 34.151 22.9668 34.2156 22.8127C34.2801 22.6586 34.3747 22.5189 34.4938 22.4018C34.613 22.2846 34.7543 22.1924 34.9094 22.1304C35.0646 22.0685 35.2306 22.0381 35.3976 22.041H50.1344C50.5934 22.041 51.0524 22.0432 51.5114 22.0477C52.2186 22.055 52.7662 22.5885 52.776 23.2957C52.7838 23.8412 52.7786 24.3877 52.7646 24.9327C52.7584 25.2568 52.6275 25.566 52.3991 25.796C52.1708 26.0261 51.8625 26.1592 51.5384 26.1677C51.2104 26.1868 50.8874 26.0796 50.6359 25.8679C50.3845 25.6563 50.2236 25.3565 50.1864 25.0299C50.1698 24.8926 50.1703 24.7548 50.162 24.6014Z" fill="black"/>
<path d="M25.8234 38.8396C25.8234 39.6014 25.8234 40.3632 25.8234 41.1276C25.8273 41.2983 25.7974 41.4681 25.7356 41.6273C25.6738 41.7865 25.5813 41.9319 25.4633 42.0553C25.3453 42.1787 25.2041 42.2777 25.0478 42.3466C24.8916 42.4154 24.7233 42.4529 24.5526 42.4567C24.3818 42.4605 24.212 42.4307 24.0529 42.3689C23.8937 42.3071 23.7482 42.2145 23.6248 42.0965C23.5014 41.9785 23.4024 41.8373 23.3335 41.6811C23.2647 41.5248 23.2273 41.3565 23.2234 41.1858C23.2058 40.788 23.2156 40.3892 23.2156 39.9898C23.2156 38.8297 23.2156 37.6701 23.2156 36.51C23.2156 35.8761 23.6914 35.314 24.2884 35.225C24.9686 35.121 25.577 35.485 25.7694 36.121C25.807 36.2627 25.8246 36.4091 25.8214 36.5557C25.826 37.316 25.8234 38.0778 25.8234 38.8396Z" fill="black"/>
<path d="M17.8233 38.812C17.8233 39.5821 17.829 40.3528 17.8233 41.1229C17.8264 41.4245 17.7226 41.7176 17.5302 41.9499C17.3378 42.1823 17.0693 42.339 16.7724 42.3922C16.4762 42.4514 16.1687 42.4054 15.9029 42.262C15.637 42.1187 15.4296 41.887 15.3164 41.607C15.2577 41.4631 15.2268 41.3094 15.2254 41.1541C15.2176 39.5941 15.2129 38.0377 15.2202 36.4798C15.2215 36.3105 15.2561 36.1432 15.3222 35.9873C15.3883 35.8314 15.4845 35.6902 15.6052 35.5715C15.726 35.4529 15.8689 35.3592 16.026 35.296C16.183 35.2327 16.3509 35.201 16.5202 35.2027C17.2445 35.2027 17.8087 35.7466 17.8202 36.4746C17.8311 37.2546 17.8202 38.0346 17.8202 38.812H17.8233Z" fill="black"/>
<path d="M15.0225 24.1069C15.0225 23.8386 15.0142 23.5698 15.0225 23.302C15.0288 22.9651 15.167 22.6442 15.4075 22.4083C15.648 22.1723 15.9716 22.0402 16.3085 22.0404C17.0188 22.0404 17.5913 22.5693 17.6147 23.2806C17.6324 23.8334 17.6308 24.3882 17.6147 24.941C17.5923 25.6284 17.0115 26.1646 16.3147 26.1656C15.9825 26.168 15.6623 26.0412 15.4218 25.8119C15.1814 25.5826 15.0395 25.2688 15.0261 24.9368C15.0142 24.6607 15.0261 24.3836 15.0261 24.1048L15.0225 24.1069Z" fill="black"/>
<path d="M51.4891 39.8374C52.2171 39.8504 52.7927 40.424 52.7766 41.1224C52.7605 41.8207 52.1729 42.3787 51.4485 42.3704C50.7423 42.3615 50.1599 41.7781 50.1787 41.0974C50.1811 40.9284 50.217 40.7615 50.2843 40.6064C50.3517 40.4513 50.4491 40.3112 50.571 40.194C50.6928 40.0768 50.8367 39.985 50.9943 39.9238C51.1519 39.8626 51.3201 39.8332 51.4891 39.8374Z" fill="black"/>
<path d="M40.7786 39.8385C41.4999 39.8458 42.0843 40.4224 42.076 41.1182C42.0677 41.814 41.4718 42.3698 40.7459 42.3662C40.4088 42.3653 40.0855 42.2321 39.8456 41.9953C39.6057 41.7585 39.4683 41.437 39.463 41.1C39.462 40.41 40.0657 39.8307 40.7786 39.8385Z" fill="black"/>
<path d="M46.1398 39.8385C46.8585 39.8458 47.4429 40.4308 47.4273 41.127C47.4117 41.8233 46.8309 42.3709 46.1195 42.3672C45.3915 42.3636 44.8195 41.7952 44.8247 41.0927C44.8299 40.3902 45.416 39.8307 46.1398 39.8385Z" fill="black"/>
<path d="M35.3888 42.3704C34.6608 42.3548 34.1039 41.788 34.1179 41.073C34.1325 40.3741 34.7279 39.8218 35.4523 39.8359C36.16 39.852 36.7403 40.4547 36.7164 41.152C36.693 41.8353 36.095 42.3849 35.3888 42.3704Z" fill="black"/>
</svg>
