<svg width="64" height="64" viewBox="0 0 64 64" fill="none" xmlns="http://www.w3.org/2000/svg">
<mask id="mask0_9370_1129" style="mask-type:luminance" maskUnits="userSpaceOnUse" x="5" y="5" width="54" height="54">
<path d="M59 5H5V59H59V5Z" fill="white"/>
</mask>
<g mask="url(#mask0_9370_1129)">
<path d="M17.44 5.09016H46.5598C53.4019 5.09016 58.9102 10.5984 58.9102 17.4406V46.5603C58.9102 53.4025 53.4019 58.9107 46.5598 58.9107H17.44C10.5979 58.9107 5.0896 53.4025 5.0896 46.5603V17.4406C5.0896 10.5984 10.5979 5.09013 17.44 5.09016Z" fill="#FF2444"/>
<path fill-rule="evenodd" clip-rule="evenodd" d="M46.1338 24H43.172V25.0654H41.087V28.0536H43.2412V30.7635H39.9822V33.807H43.0753V40L46.2237 39.9946V33.975L51.5272 34.0304L51.6378 37.6828H48.7092L49.7034 39.9946C49.7034 39.9946 50.8634 40.0068 52.5758 39.9946C54.2882 39.9824 54.6194 38.07 54.6194 38.07C54.6194 38.07 54.8954 34.5838 54.6194 32.7299C54.343 30.8761 51.085 30.8207 51.085 30.8207C51.085 30.8207 51.0292 31.9275 51.085 28.7178C51.1407 25.508 48.2678 25.0654 48.2678 25.0654H46.1338V24ZM46.2237 30.7635H48.3226V28.0536H46.2237V30.7635Z" fill="white"/>
<path d="M51.8508 27.8816C51.8508 27.8816 51.4486 24.394 53.7772 25.1631C55.6622 25.7845 54.6469 28.856 51.8508 27.8816Z" fill="white"/>
<path d="M12.3235 28.0536H9.43759L9.25781 35.7456L10.3212 38.79C10.8727 37.9363 11.3708 37.049 11.8125 36.1333C12.5303 34.6387 12.3235 28.0536 12.3235 28.0536Z" fill="white"/>
<path d="M19.9457 28.0536H22.8312L23.011 35.7456L21.948 38.79C21.3965 37.9363 20.8985 37.049 20.4568 36.1333C19.7385 34.6387 19.9457 28.0536 19.9457 28.0536Z" fill="white"/>
<path d="M17.5569 24.1797H14.6292L14.5744 37.518H12.3509L13.359 39.896C14.2656 40.0279 15.1865 40.0279 16.093 39.896C17.5569 39.6749 17.5569 38.07 17.5569 38.07V24.1797Z" fill="white"/>
<path d="M27.056 24.1797H30.1505L28.2183 28.2751L31.146 28.3855L28.714 33.4216H30.871L30.1518 35.8564H26.5616C24.9584 35.8564 25.4542 34.473 25.4542 34.473L27.056 30.8207H25.4012C23.9629 30.8207 24.682 29.2158 24.682 29.2158L27.056 24.1797Z" fill="white"/>
<path d="M29.7087 36.9632H24.7373L23.6878 39.9946H28.4934L29.7087 36.9632Z" fill="white"/>
<path d="M39.1539 25.0654H32.2494V28.0536H34.1825V37.4058H31.3654L29.9294 39.9946H40.2029V37.4058H37.2203V28.0536H39.1539V25.0654Z" fill="white"/>
</g>
</svg>
