<svg width="91" height="64" viewBox="0 0 91 64" fill="none" xmlns="http://www.w3.org/2000/svg">
<path d="M43.8504 13.4189V36.9213H24.0791L43.8504 13.4189ZM43.8504 4.98798C43.8504 10.3588 39.4309 14.7095 33.9753 14.7095C28.5197 14.7095 24.0791 10.3588 24.0791 4.98798H43.8504ZM47.1068 36.9213C47.1068 31.5505 51.5263 27.1998 56.9819 27.1998C62.4375 27.1998 66.8569 31.5505 66.8569 36.9213H47.1068ZM47.1068 28.4904V4.98798H66.8781L47.1068 28.4904ZM58.166 57.0098C59.181 57.0306 60.1749 56.6559 60.915 55.969L62.2683 57.4053C61.3802 58.3213 60.1326 58.9874 58.1872 58.9874C54.8673 58.9874 52.7316 56.8225 52.7316 53.8873C52.6681 51.1186 54.9096 48.8495 57.7008 48.7871H57.87C61.1687 48.7871 63.0295 51.2435 62.8604 54.6783H55.0999C55.3748 56.1147 56.3898 57.0306 58.166 57.0098ZM60.5343 53.0754C60.3229 51.7431 59.5193 50.7647 57.9123 50.7647C56.4109 50.7647 55.3748 51.5974 55.0999 53.0754H60.5343ZM7.09912 56.9057L13.0834 50.9104H7.24714V49.0369H15.8534V50.952L9.86921 56.9474H15.938V58.8209H7.09912V56.9057ZM22.6624 57.0098C23.6774 57.0306 24.6712 56.6559 25.3902 55.969L26.7435 57.4053C25.8554 58.3213 24.6078 58.9874 22.6624 58.9874C19.3425 58.9874 17.2068 56.8225 17.2068 53.8873C17.1433 51.1186 19.3848 48.8495 22.176 48.7871H22.3452C25.6439 48.7871 27.5047 51.2435 27.3356 54.6783H19.5962C19.8711 56.1147 20.8861 57.0306 22.6624 57.0098ZM25.0307 53.0754C24.8192 51.7431 24.0157 50.7647 22.4086 50.7647C20.9073 50.7647 19.8711 51.5974 19.5962 53.0754H25.0307ZM40.2979 53.9081C40.2979 50.7855 42.6662 48.8287 45.2883 48.8287C46.557 48.8079 47.7623 49.3491 48.6082 50.2859V44.5196H50.7227V58.8001H48.6082V57.447C47.7835 58.4254 46.557 59.0083 45.2671 58.9874C42.7296 58.9874 40.2979 57.0098 40.2979 53.9081ZM48.7139 53.8873C48.6716 52.1803 47.2125 50.8271 45.4786 50.8688C43.7446 50.9104 42.3702 52.3468 42.4125 54.0538C42.4548 55.74 43.8504 57.0723 45.5632 57.0723C47.3817 57.0723 48.7139 55.6567 48.7139 53.8873ZM64.256 56.7184L66.1802 55.74C66.6877 56.6559 67.6816 57.1972 68.7389 57.1763C69.9442 57.1763 70.5574 56.5727 70.5574 55.8857C70.5574 55.0946 69.3944 54.9281 68.1468 54.6783C66.4551 54.3244 64.7 53.7832 64.7 51.7639C64.7 50.2235 66.2014 48.7871 68.5486 48.8079C70.4094 48.8079 71.7839 49.5365 72.5663 50.7022L70.79 51.6598C70.2825 50.9312 69.4367 50.5149 68.5486 50.5357C67.4067 50.5357 66.8358 51.077 66.8358 51.7015C66.8358 52.4092 67.745 52.5966 69.1829 52.9089C70.8112 53.2627 72.672 53.7832 72.672 55.8232C72.672 57.1763 71.4667 58.9874 68.6331 58.9666C66.5609 58.9874 65.1018 58.1756 64.256 56.7184ZM78.4025 54.4493L76.7319 56.2604V58.8001H74.6174V44.5196H76.7319V53.8664L81.2148 49.0161H83.7946L79.9038 53.2003L83.9004 58.8001H81.5109L78.4025 54.4493ZM33.9119 48.8079C31.3955 48.8079 29.281 50.4108 29.281 53.0754V58.8001H31.4378V53.346C31.4378 51.7431 32.3682 50.7855 33.9753 50.7855C35.5824 50.7855 36.3648 51.7431 36.3648 53.346V58.8001H38.5005V53.0754C38.5217 50.4108 36.4071 48.8079 33.9119 48.8079Z" fill="#03363D"/>
</svg>
