<svg width="144" height="64" viewBox="0 0 144 64" fill="none" xmlns="http://www.w3.org/2000/svg">
<path d="M65.3663 47.9341C64.4185 47.9341 63.4584 47.735 62.5353 47.3242L42.8414 38.4484C39.3211 36.8675 37.7333 32.6723 39.2965 29.1121L48.0726 9.19452C49.6358 5.63425 53.7838 4.0284 57.3041 5.60936L76.998 14.4851C80.5182 16.0661 82.1061 20.2612 80.5429 23.8215L71.7668 43.739C70.5975 46.3781 68.0373 47.9341 65.3663 47.9341ZM64.1723 43.5896C65.6617 44.2618 67.4095 43.5772 68.0742 42.0834L76.8503 22.1658C77.5149 20.6596 76.8379 18.8919 75.3609 18.2197L55.6547 9.3439C54.1654 8.67168 52.4176 9.35635 51.7529 10.8502L42.9768 30.7677C42.3121 32.274 42.9891 34.0417 44.4662 34.7139L64.1723 43.5896Z" fill="#089949"/>
<path d="M127.143 47.9466H105.578C101.726 47.9466 98.5872 44.7722 98.5872 40.8759V19.0662C98.5872 15.1698 101.726 11.9954 105.578 11.9954H127.143C130.996 11.9954 134.135 15.1698 134.135 19.0662V40.8759C134.135 44.7722 130.996 47.9466 127.143 47.9466ZM105.578 16.0785C103.954 16.0785 102.624 17.423 102.624 19.0662V40.8759C102.624 42.5191 103.954 43.8635 105.578 43.8635H127.143C128.768 43.8635 130.097 42.5191 130.097 40.8759V19.0662C130.097 17.423 128.768 16.0785 127.143 16.0785H105.578Z" fill="#F9B21D"/>
<path d="M46.3862 23.0621L43.4814 29.6349C43.4445 29.7096 43.4076 29.7718 43.3706 29.8341L44.503 36.9048C44.7615 38.5355 43.666 40.0667 42.0659 40.3281L20.7719 43.8137C19.9965 43.9382 19.2087 43.7514 18.5687 43.2909C17.9286 42.8303 17.5101 42.1331 17.387 41.3489L13.9406 19.813C13.8175 19.0288 14.0022 18.2321 14.4576 17.5848C14.913 16.9374 15.6023 16.5142 16.3777 16.3897L37.6717 12.9041C37.8317 12.8792 37.9917 12.8668 38.1394 12.8668C39.5549 12.8668 40.8227 13.9125 41.0566 15.3814L42.2013 22.5019L45.2046 15.6926L45.0446 14.7341C44.4292 10.8875 40.835 8.26087 37.0317 8.88329L15.7377 12.3689C13.9037 12.6552 12.2789 13.6635 11.1958 15.1947C10.1003 16.7258 9.66951 18.5931 9.96492 20.4604L13.4113 41.9962C13.7067 43.8635 14.7038 45.4942 16.2177 46.6021C17.4117 47.486 18.8272 47.9341 20.2919 47.9341C20.6611 47.9341 21.0427 47.9092 21.4243 47.847L42.7183 44.3614C46.5216 43.739 49.1188 40.104 48.5033 36.2575L46.3862 23.0621Z" fill="#E42527"/>
<path d="M71.927 33.3445L75.0533 26.2614L74.1671 19.6761C74.0563 18.8919 74.2656 18.1076 74.7456 17.4728C75.2257 16.8379 75.915 16.4271 76.7027 16.3275L98.0705 13.3897C98.2059 13.3772 98.3413 13.3648 98.4767 13.3648C99.1168 13.3648 99.7322 13.5764 100.261 13.9747C100.36 14.0494 100.446 14.1366 100.532 14.2113C101.48 13.2029 102.723 12.4809 104.114 12.1697C103.72 11.622 103.253 11.1365 102.699 10.7132C101.209 9.56798 99.3753 9.08249 97.529 9.33146L76.1365 12.2693C74.2902 12.5183 72.6409 13.4892 71.5208 14.9955C70.3884 16.5018 69.9083 18.3566 70.1545 20.2239L71.927 33.3445Z" fill="#226DB4"/>
<path d="M108.287 36.9919L105.48 16.0785C103.905 16.1283 102.637 17.4479 102.637 19.0537V25.1908L104.299 37.5397C104.409 38.3239 104.2 39.1082 103.72 39.7431C103.24 40.3779 102.551 40.7887 101.763 40.8883L80.3953 43.8262C79.6198 43.9382 78.8444 43.7266 78.2166 43.2411C77.5889 42.7556 77.1827 42.0585 77.0842 41.2618L76.0995 33.9296L72.9731 41.0128L73.0839 41.8095C73.3301 43.6768 74.2902 45.3449 75.7795 46.4777C77.0104 47.4238 78.4751 47.9217 80.0014 47.9217C80.3214 47.9217 80.6414 47.8968 80.9615 47.8595L102.305 44.9465C104.151 44.6975 105.8 43.7266 106.92 42.2203C108.053 40.714 108.533 38.8592 108.287 36.9919Z" fill="#226DB4"/>
<path d="M47.9987 58.2912L51.0512 53.7351H48.5403C48.4049 53.7351 48.2941 53.6231 48.2941 53.4861V52.8762C48.2941 52.7392 48.4049 52.6272 48.5403 52.6272H52.6637C52.7991 52.6272 52.9099 52.7392 52.9099 52.8762V53.1127C52.9099 53.1625 52.8975 53.2123 52.8729 53.2496L49.8819 57.8058H52.5652C52.7006 57.8058 52.8114 57.9178 52.8114 58.0547V58.6647C52.8114 58.8016 52.7006 58.9137 52.5652 58.9137H48.2079C48.0725 58.9137 47.9618 58.8016 47.9618 58.6647V58.4406C47.9495 58.3784 47.9741 58.3286 47.9987 58.2912Z" fill="black"/>
<path d="M60.8491 55.7269C60.8491 53.8596 62.2031 52.5152 64.0494 52.5152C65.9572 52.5152 67.2496 53.8347 67.2496 55.7393C67.2496 57.6688 65.9326 59.0008 64.0248 59.0008C62.1046 59.0008 60.8491 57.6688 60.8491 55.7269ZM65.7849 55.7518C65.7849 54.619 65.2433 53.648 64.0248 53.648C62.7939 53.648 62.3262 54.6563 62.3262 55.8016C62.3262 56.8846 62.9047 57.8805 64.0863 57.8805C65.3049 57.868 65.7849 56.8099 65.7849 55.7518Z" fill="black"/>
<path d="M76.0009 52.6148H76.9118C77.0472 52.6148 77.1579 52.7268 77.1579 52.8637V55.1792H79.7428V52.8637C79.7428 52.7268 79.8535 52.6148 79.9889 52.6148H80.8998C81.0352 52.6148 81.1459 52.7268 81.1459 52.8637V58.6523C81.1459 58.7892 81.0352 58.9013 80.8998 58.9013H80.0012C79.8658 58.9013 79.7551 58.7892 79.7551 58.6523V56.312H77.1702V58.6523C77.1702 58.7892 77.0595 58.9013 76.9241 58.9013H76.0132C75.8778 58.9013 75.767 58.7892 75.767 58.6523V52.8637C75.7547 52.7268 75.8655 52.6148 76.0009 52.6148Z" fill="black"/>
<path d="M89.6514 55.7269C89.6514 53.8596 91.0053 52.5152 92.8516 52.5152C94.7595 52.5152 96.0519 53.8347 96.0519 55.7393C96.0519 57.6688 94.7348 59.0008 92.827 59.0008C90.9068 59.0008 89.6514 57.6688 89.6514 55.7269ZM94.5748 55.7518C94.5748 54.619 94.0332 53.648 92.8147 53.648C91.5838 53.648 91.1161 54.6563 91.1161 55.8016C91.1161 56.8846 91.6946 57.8805 92.8762 57.8805C94.0948 57.868 94.5748 56.8099 94.5748 55.7518Z" fill="black"/>
</svg>
